<svg width="145" height="145" viewBox="0 0 145 145" fill="none" xmlns="http://www.w3.org/2000/svg">
<g filter="url(#filter0_d)">
<rect x="20" y="10" width="105" height="105" rx="20" fill="#3964F9"/>
<path d="M55.3125 90L55.3662 89.9463C52.2152 89.8031 49.7445 88.8363 47.9541 87.0459C46.1637 85.2913 45.1969 82.8385 45.0537 79.6875H45V62.5H45.0537C45.0537 59.9219 45.8862 57.0215 47.5513 53.7988C49.2163 50.5762 51.5348 47.4788 54.5068 44.5068C57.4788 41.5348 60.5762 39.2163 63.7988 37.5513C67.0215 35.8862 69.9219 35.0537 72.5 35.0537V35H89.6875V35.0537C92.8385 35.1969 95.2913 36.1637 97.0459 37.9541C98.8363 39.7445 99.8031 42.2152 99.9463 45.3662L100 45.3125V90H55.3125ZM96.5625 86.5625L84.5312 74.5312L69.0625 86.5625H96.5625ZM81.2549 73.2959L62.1875 65.9375L59.2871 86.1328C62.6888 85.4525 66.3143 84.0023 70.1636 81.7822C74.0129 79.5622 77.71 76.7334 81.2549 73.2959ZM48.4375 81.4062C48.5091 81.5853 48.6613 81.9344 48.894 82.4536C49.1268 82.9728 49.3506 83.4562 49.5654 83.9038C49.7803 84.3514 49.9772 84.6647 50.1562 84.8438C51.1947 85.8822 52.1436 86.4819 53.0029 86.6431C53.8623 86.8042 55.2409 86.7415 57.1387 86.4551C51.4811 74.8893 48.5807 68.9453 48.4375 68.623V81.4062ZM74.4604 39.9146C72.7596 38.2137 70.1099 37.9631 66.5112 39.1626C62.9126 40.3621 59.4214 42.6538 56.0376 46.0376C52.6538 49.4214 50.3621 52.9126 49.1626 56.5112C47.9631 60.1099 48.2137 62.7596 49.9146 64.4604C51.6154 66.1613 54.2651 66.4119 57.8638 65.2124C61.4624 64.0129 64.9536 61.7212 68.3374 58.3374C71.7212 54.9536 74.0129 51.4624 75.2124 47.8638C76.4119 44.2651 76.1613 41.6154 74.4604 39.9146ZM83.2959 71.2549C86.6976 67.71 89.5085 64.0129 91.7285 60.1636C93.9486 56.3143 95.3988 52.6888 96.0791 49.2871L75.9375 52.1875L83.2959 71.2549ZM94.7363 40.1562C94.5573 39.9772 94.2529 39.7803 93.8232 39.5654C93.3936 39.3506 92.9102 39.1268 92.373 38.894C91.8359 38.6613 91.4958 38.5091 91.3525 38.4375H78.623L96.3477 47.0312C96.6341 45.1693 96.6968 43.8086 96.5356 42.9492C96.3745 42.0898 95.7747 41.1589 94.7363 40.1562Z" fill="white"/>
</g>
<defs>
<filter id="filter0_d" x="0" y="0" width="145" height="145" filterUnits="userSpaceOnUse" color-interpolation-filters="sRGB">
<feFlood flood-opacity="0" result="BackgroundImageFix"/>
<feColorMatrix in="SourceAlpha" type="matrix" values="0 0 0 0 0 0 0 0 0 0 0 0 0 0 0 0 0 0 127 0"/>
<feOffset dy="10"/>
<feGaussianBlur stdDeviation="10"/>
<feColorMatrix type="matrix" values="0 0 0 0 0.223529 0 0 0 0 0.392157 0 0 0 0 0.976471 0 0 0 0.3 0"/>
<feBlend mode="normal" in2="BackgroundImageFix" result="effect1_dropShadow"/>
<feBlend mode="normal" in="SourceGraphic" in2="effect1_dropShadow" result="shape"/>
</filter>
</defs>
</svg>
