<svg width="274" height="69" viewBox="0 0 274 69" fill="none" xmlns="http://www.w3.org/2000/svg">
<path d="M1.41 56.248V55.248H0.41V56.248H1.41ZM16.866 56.248V57.248H17.866V56.248H16.866ZM16.866 17.08H17.866V16.08H16.866V17.08ZM1.314 17.08H0.314001V18.08H1.314V17.08ZM1.314 8.92L1.20357 7.92611L0.314001 8.02496V8.92H1.314ZM11.874 6.232L11.5449 5.28768L11.5404 5.28928L11.874 6.232ZM23.202 1.144V0.143995H22.9342L22.7023 0.27781L23.202 1.144ZM30.018 1.144H31.018V0.143995H30.018V1.144ZM30.018 56.248H29.018V57.248H30.018V56.248ZM44.13 56.248H45.13V55.248H44.13V56.248ZM44.13 67V68H45.13V67H44.13ZM1.41 67H0.41V68H1.41V67ZM1.41 57.248H16.866V55.248H1.41V57.248ZM17.866 56.248V17.08H15.866V56.248H17.866ZM16.866 16.08H1.314V18.08H16.866V16.08ZM2.314 17.08V8.92H0.314001V17.08H2.314ZM1.42443 9.91388C4.40907 9.58226 8.00874 8.66047 12.2076 7.17472L11.5404 5.28928C7.41927 6.74753 3.97893 7.61774 1.20357 7.92611L1.42443 9.91388ZM12.2031 7.1763C16.4769 5.68694 20.3114 3.96612 23.7017 2.01018L22.7023 0.27781C19.4366 2.16188 15.7191 3.83306 11.5449 5.28769L12.2031 7.1763ZM23.202 2.144H30.018V0.143995H23.202V2.144ZM29.018 1.144V56.248H31.018V1.144H29.018ZM30.018 57.248H44.13V55.248H30.018V57.248ZM43.13 56.248V67H45.13V56.248H43.13ZM44.13 66H1.41V68H44.13V66ZM2.41 67V56.248H0.41V67H2.41ZM146.849 14.584H147.849V13.584H146.849V14.584ZM146.849 67V68H147.849V67H146.849ZM133.505 67H132.505V68H133.505V67ZM133.6 33.784L132.602 33.7314L132.601 33.7446L132.601 33.7577L133.6 33.784ZM134.081 27.064L135.076 27.1573L135.179 26.064H134.081V27.064ZM133.793 27.064V26.064H133.092L132.853 26.7228L133.793 27.064ZM119.297 67V68H119.997L120.236 67.3412L119.297 67ZM108.545 67L107.606 67.3445L107.846 68H108.545V67ZM93.8565 26.968L94.7953 26.6235L94.5548 25.968H93.8565V26.968ZM93.4725 26.968V25.968H92.344L92.4798 27.0883L93.4725 26.968ZM93.9525 33.784L92.9528 33.8103L92.9532 33.8241L92.954 33.838L93.9525 33.784ZM94.1445 67V68H95.1445V67H94.1445ZM80.8005 67H79.8005V68H80.8005V67ZM80.8005 14.584V13.584H79.8005V14.584H80.8005ZM101.057 14.584L101.995 14.239L101.754 13.584H101.057V14.584ZM114.113 50.104L113.174 50.449L114.106 52.9839L115.049 50.4535L114.113 50.104ZM127.361 14.584V13.584H126.666L126.424 14.2345L127.361 14.584ZM145.849 14.584V67H147.849V14.584H145.849ZM146.849 66H133.505V68H146.849V66ZM134.505 67V41.272H132.505V67H134.505ZM134.505 41.272C134.505 38.7203 134.536 36.2331 134.6 33.8103L132.601 33.7577C132.537 36.1989 132.505 38.7037 132.505 41.272H134.505ZM134.599 33.8366C134.727 31.4158 134.886 29.1896 135.076 27.1573L133.085 26.9707C132.891 29.0344 132.73 31.2882 132.602 33.7314L134.599 33.8366ZM134.081 26.064H133.793V28.064H134.081V26.064ZM132.853 26.7228L118.357 66.6588L120.236 67.3412L134.732 27.4052L132.853 26.7228ZM119.297 66H108.545V68H119.297V66ZM109.483 66.6555L94.7953 26.6235L92.9177 27.3125L107.606 67.3445L109.483 66.6555ZM93.8565 25.968H93.4725V27.968H93.8565V25.968ZM92.4798 27.0883C92.7315 29.1651 92.8896 31.4054 92.9528 33.8103L94.9522 33.7577C94.8874 31.2986 94.7255 28.9949 94.4652 26.8477L92.4798 27.0883ZM92.954 33.838C93.0808 36.1847 93.1445 38.7903 93.1445 41.656H95.1445C95.1445 38.7617 95.0802 36.1193 94.951 33.73L92.954 33.838ZM93.1445 41.656V67H95.1445V41.656H93.1445ZM94.1445 66H80.8005V68H94.1445V66ZM81.8005 67V14.584H79.8005V67H81.8005ZM80.8005 15.584H101.057V13.584H80.8005V15.584ZM100.118 14.929L113.174 50.449L115.051 49.759L101.995 14.239L100.118 14.929ZM115.049 50.4535L128.297 14.9335L126.424 14.2345L113.176 49.7545L115.049 50.4535ZM127.361 15.584H146.849V13.584H127.361V15.584ZM208.745 67V68H209.745V67H208.745ZM194.441 67H193.441V68H194.441V67ZM194.441 25.336H195.441V24.336H194.441V25.336ZM181.288 25.336V24.336H180.366L180.292 25.255L181.288 25.336ZM177.928 50.104L176.953 49.885L176.951 49.8924L177.928 50.104ZM172.264 63.736L173.021 64.3897L173.029 64.3812L172.264 63.736ZM154.312 66.424H153.312V67.0505L153.876 67.3238L154.312 66.424ZM154.312 55L154.711 54.0829L153.312 53.4748V55H154.312ZM162.089 54.232L162.857 54.8722L162.089 54.232ZM164.777 47.992L163.818 47.7065L163.815 47.7159L163.813 47.7254L164.777 47.992ZM167.176 35.416L168.168 35.5458L168.168 35.5443L167.176 35.416ZM169.096 14.584V13.584H168.162L168.099 14.516L169.096 14.584ZM208.745 14.584H209.745V13.584H208.745V14.584ZM208.745 66H194.441V68H208.745V66ZM195.441 67V25.336H193.441V67H195.441ZM194.441 24.336H181.288V26.336H194.441V24.336ZM180.292 25.255C179.462 35.4725 178.346 43.677 176.953 49.885L178.904 50.323C180.327 43.987 181.451 35.6795 182.285 25.417L180.292 25.255ZM176.951 49.8924C175.621 56.0366 173.778 60.3938 171.5 63.0908L173.029 64.3812C175.615 61.3182 177.548 56.5874 178.906 50.3156L176.951 49.8924ZM171.508 63.0824C169.286 65.6546 166.311 66.96 162.473 66.96V68.96C166.826 68.96 170.379 67.4494 173.021 64.3896L171.508 63.0824ZM162.473 66.96C159.237 66.96 156.68 66.4606 154.749 65.5242L153.876 67.3238C156.169 68.4354 159.052 68.96 162.473 68.96V66.96ZM155.312 66.424V55H153.312V66.424H155.312ZM153.914 55.9171C155.511 56.6116 157.183 56.96 158.921 56.96V54.96C157.458 54.96 156.058 54.6684 154.711 54.0829L153.914 55.9171ZM158.921 56.96C160.454 56.96 161.768 56.1783 162.857 54.8722L161.32 53.5918C160.489 54.5897 159.691 54.96 158.921 54.96V56.96ZM162.857 54.8722C163.962 53.5457 164.903 51.287 165.74 48.2586L163.813 47.7254C162.986 50.713 162.135 52.6143 161.32 53.5918L162.857 54.8722ZM165.735 48.2775C166.653 45.1949 167.461 40.9425 168.168 35.5458L166.185 35.2862C165.484 40.6415 164.692 44.7731 163.818 47.7065L165.735 48.2775ZM168.168 35.5443C168.876 30.0766 169.517 23.1106 170.094 14.652L168.099 14.516C167.524 22.9534 166.885 29.8754 166.185 35.2877L168.168 35.5443ZM169.096 15.584H208.745V13.584H169.096V15.584ZM207.745 14.584V67H209.745V14.584H207.745ZM237.98 14.584H238.98V13.584H237.98V14.584ZM237.98 34.744H236.98V35.744H237.98V34.744ZM257.948 34.744V35.744H258.948V34.744H257.948ZM257.948 14.584V13.584H256.948V14.584H257.948ZM272.251 14.584H273.251V13.584H272.251V14.584ZM272.251 67V68H273.251V67H272.251ZM257.948 67H256.948V68H257.948V67ZM257.948 45.4H258.948V44.4H257.948V45.4ZM237.98 45.4V44.4H236.98V45.4H237.98ZM237.98 67V68H238.98V67H237.98ZM223.676 67H222.676V68H223.676V67ZM223.676 14.584V13.584H222.676V14.584H223.676ZM236.98 14.584V34.744H238.98V14.584H236.98ZM237.98 35.744H257.948V33.744H237.98V35.744ZM258.948 34.744V14.584H256.948V34.744H258.948ZM257.948 15.584H272.251V13.584H257.948V15.584ZM271.251 14.584V67H273.251V14.584H271.251ZM272.251 66H257.948V68H272.251V66ZM258.948 67V45.4H256.948V67H258.948ZM257.948 44.4H237.98V46.4H257.948V44.4ZM236.98 45.4V67H238.98V45.4H236.98ZM237.98 66H223.676V68H237.98V66ZM224.676 67V14.584H222.676V67H224.676ZM223.676 15.584H237.98V13.584H223.676V15.584Z" fill="#3964F9"/>
</svg>
