<svg width="278" height="71" viewBox="0 0 278 71" fill="none" xmlns="http://www.w3.org/2000/svg">
<path d="M3.778 55.752L4.6522 56.2377L4.65662 56.2295L3.778 55.752ZM9.634 48.072L8.95731 47.3356L8.94738 47.345L9.634 48.072ZM18.85 40.68L19.439 41.4881L19.4483 41.4814L19.4575 41.4744L18.85 40.68ZM26.53 34.44L25.8751 33.6843L25.8687 33.6898L25.8625 33.6954L26.53 34.44ZM31.33 28.968L32.1703 29.5101L32.1719 29.5077L31.33 28.968ZM31.426 15.144L30.6901 15.8211L30.7042 15.8364L30.7189 15.8511L31.426 15.144ZM15.49 25.8V26.8H16.49V25.8H15.49ZM2.434 25.8L1.45781 26.0169L1.63183 26.8H2.434V25.8ZM8.674 6.984L8.07766 6.18123L8.07215 6.18539L8.674 6.984ZM39.298 5.44799L39.8823 4.63646V4.63646L39.298 5.44799ZM45.538 13.224L44.5893 13.5402L44.5925 13.5496L44.5958 13.559L45.538 13.224ZM44.098 33.096L44.9612 33.6009L44.9653 33.5939L44.098 33.096ZM36.994 41.736L37.6448 42.4953L37.6462 42.494L36.994 41.736ZM26.914 49.32L26.3503 48.494L26.3475 48.496L26.914 49.32ZM20.002 54.504L19.3435 53.7514L19.3404 53.7542L20.002 54.504ZM17.602 57.288L16.7338 56.7919L15.8788 58.288H17.602V57.288ZM47.458 57.288H48.458V56.288H47.458V57.288ZM47.458 69V70H48.458V69H47.458ZM1.378 69H0.378V70H1.378V69ZM2.378 65.544C2.378 62.0473 3.14329 58.9536 4.65216 56.2376L2.90384 55.2664C1.21271 58.3104 0.378 61.7447 0.378 65.544H2.378ZM4.65662 56.2295C6.2091 53.373 8.09769 50.8984 10.3206 48.799L8.94738 47.345C6.56231 49.5975 4.5469 52.243 2.89938 55.2745L4.65662 56.2295ZM10.3106 48.8083C12.6414 46.6665 15.6812 44.2269 19.439 41.4881L18.261 39.8719C14.4668 42.6371 11.3626 45.1255 8.95738 47.3357L10.3106 48.8083ZM19.4575 41.4744C22.7308 38.9712 25.3138 36.8734 27.1975 35.1846L25.8625 33.6954C24.0342 35.3346 21.4973 37.3968 18.2425 39.8856L19.4575 41.4744ZM27.1849 35.1957C29.1711 33.4743 30.8352 31.5795 32.1703 29.5101L30.4897 28.4259C29.2648 30.3244 27.7289 32.0777 25.8751 33.6843L27.1849 35.1957ZM32.1719 29.5077C33.8812 26.8411 34.73 23.8357 34.73 20.52H32.73C32.73 23.4763 31.9788 26.1029 30.4881 28.4283L32.1719 29.5077ZM34.73 20.52C34.73 18.1894 33.844 16.1478 32.1331 14.4369L30.7189 15.8511C32.08 17.2122 32.73 18.7546 32.73 20.52H34.73ZM32.1619 14.4669C30.4486 12.6046 28.0023 11.744 24.994 11.744V13.744C27.6177 13.744 29.4594 14.4834 30.6901 15.8211L32.1619 14.4669ZM24.994 11.744C21.6819 11.744 19.0124 12.5379 17.1736 14.3025C15.3271 16.0744 14.49 18.6591 14.49 21.864H16.49C16.49 18.9889 17.2369 17.0136 18.5584 15.7455C19.8876 14.47 21.9701 13.744 24.994 13.744V11.744ZM14.49 21.864V25.8H16.49V21.864H14.49ZM15.49 24.8H2.434V26.8H15.49V24.8ZM3.41019 25.5831C3.1727 24.5144 3.05 23.3086 3.05 21.96H1.05C1.05 23.4274 1.1833 24.7816 1.45781 26.0169L3.41019 25.5831ZM3.05 21.96C3.05 15.5462 5.16281 10.8823 9.27585 7.78261L8.07215 6.18539C3.35319 9.74171 1.05 15.0618 1.05 21.96H3.05ZM9.27032 7.78674C13.5434 4.61246 18.9534 2.992 25.57 2.992V0.991999C18.6186 0.991999 12.7646 2.69953 8.07768 6.18125L9.27032 7.78674ZM25.57 2.992C31.4131 2.992 35.7506 4.12613 38.7137 6.25953L39.8823 4.63646C36.4454 2.16186 31.6309 0.991999 25.57 0.991999V2.992ZM38.7137 6.25953C41.7941 8.47739 43.7131 10.9117 44.5893 13.5402L46.4867 12.9078C45.4429 9.77633 43.2019 7.0266 39.8823 4.63646L38.7137 6.25953ZM44.5958 13.559C45.5898 16.3548 46.074 18.9285 46.074 21.288H48.074C48.074 18.6555 47.5342 15.8532 46.4802 12.889L44.5958 13.559ZM46.074 21.288C46.074 25.5487 45.1186 29.3096 43.2308 32.5981L44.9653 33.5939C47.0454 29.9704 48.074 25.8593 48.074 21.288H46.074ZM43.2348 32.5911C41.3021 35.8955 39.0033 38.6878 36.3418 40.978L37.6462 42.494C40.4887 40.0482 42.926 37.0805 44.9612 33.6009L43.2348 32.5911ZM36.3432 40.9767C33.6911 43.2499 30.3625 45.7556 26.3503 48.494L27.4777 50.146C31.5295 47.3804 34.9209 44.8301 37.6448 42.4953L36.3432 40.9767ZM26.3475 48.496C23.265 50.6152 20.9234 52.369 19.3435 53.7514L20.6605 55.2566C22.1526 53.951 24.419 52.2488 27.4805 50.144L26.3475 48.496ZM19.3404 53.7542C18.2008 54.7597 17.3174 55.7705 16.7338 56.7919L18.4702 57.7841C18.9106 57.0135 19.6272 56.1683 20.6636 55.2538L19.3404 53.7542ZM17.602 58.288H47.458V56.288H17.602V58.288ZM46.458 57.288V69H48.458V57.288H46.458ZM47.458 68H1.378V70H47.458V68ZM2.378 69V65.544H0.378V69H2.378ZM150.849 16.584H151.849V15.584H150.849V16.584ZM150.849 69V70H151.849V69H150.849ZM137.505 69H136.505V70H137.505V69ZM137.6 35.784L136.602 35.7314L136.601 35.7446L136.601 35.7577L137.6 35.784ZM138.081 29.064L139.076 29.1573L139.179 28.064H138.081V29.064ZM137.793 29.064V28.064H137.092L136.853 28.7228L137.793 29.064ZM123.297 69V70H123.997L124.236 69.3412L123.297 69ZM112.545 69L111.606 69.3445L111.846 70H112.545V69ZM97.8565 28.968L98.7953 28.6235L98.5548 27.968H97.8565V28.968ZM97.4725 28.968V27.968H96.344L96.4798 29.0883L97.4725 28.968ZM97.9525 35.784L96.9528 35.8103L96.9532 35.8241L96.954 35.838L97.9525 35.784ZM98.1445 69V70H99.1445V69H98.1445ZM84.8005 69H83.8005V70H84.8005V69ZM84.8005 16.584V15.584H83.8005V16.584H84.8005ZM105.057 16.584L105.995 16.239L105.754 15.584H105.057V16.584ZM118.113 52.104L117.174 52.449L118.106 54.9839L119.049 52.4535L118.113 52.104ZM131.361 16.584V15.584H130.666L130.424 16.2345L131.361 16.584ZM149.849 16.584V69H151.849V16.584H149.849ZM150.849 68H137.505V70H150.849V68ZM138.505 69V43.272H136.505V69H138.505ZM138.505 43.272C138.505 40.7203 138.536 38.2331 138.6 35.8103L136.601 35.7577C136.537 38.1989 136.505 40.7037 136.505 43.272H138.505ZM138.599 35.8366C138.727 33.4158 138.886 31.1896 139.076 29.1573L137.085 28.9707C136.891 31.0344 136.73 33.2882 136.602 35.7314L138.599 35.8366ZM138.081 28.064H137.793V30.064H138.081V28.064ZM136.853 28.7228L122.357 68.6588L124.236 69.3412L138.732 29.4052L136.853 28.7228ZM123.297 68H112.545V70H123.297V68ZM113.483 68.6555L98.7953 28.6235L96.9177 29.3125L111.606 69.3445L113.483 68.6555ZM97.8565 27.968H97.4725V29.968H97.8565V27.968ZM96.4798 29.0883C96.7315 31.1651 96.8896 33.4054 96.9528 35.8103L98.9522 35.7577C98.8874 33.2986 98.7255 30.9949 98.4652 28.8477L96.4798 29.0883ZM96.954 35.838C97.0808 38.1847 97.1445 40.7903 97.1445 43.656H99.1445C99.1445 40.7617 99.0802 38.1193 98.951 35.73L96.954 35.838ZM97.1445 43.656V69H99.1445V43.656H97.1445ZM98.1445 68H84.8005V70H98.1445V68ZM85.8005 69V16.584H83.8005V69H85.8005ZM84.8005 17.584H105.057V15.584H84.8005V17.584ZM104.118 16.929L117.174 52.449L119.051 51.759L105.995 16.239L104.118 16.929ZM119.049 52.4535L132.297 16.9335L130.424 16.2345L117.176 51.7545L119.049 52.4535ZM131.361 17.584H150.849V15.584H131.361V17.584ZM212.745 69V70H213.745V69H212.745ZM198.441 69H197.441V70H198.441V69ZM198.441 27.336H199.441V26.336H198.441V27.336ZM185.288 27.336V26.336H184.366L184.292 27.255L185.288 27.336ZM181.928 52.104L180.953 51.885L180.951 51.8924L181.928 52.104ZM176.264 65.736L177.021 66.3897L177.029 66.3812L176.264 65.736ZM158.312 68.424H157.312V69.0505L157.876 69.3238L158.312 68.424ZM158.312 57L158.711 56.0829L157.312 55.4748V57H158.312ZM166.089 56.232L166.857 56.8722L166.089 56.232ZM168.777 49.992L167.818 49.7065L167.815 49.7159L167.813 49.7254L168.777 49.992ZM171.176 37.416L172.168 37.5458L172.168 37.5443L171.176 37.416ZM173.096 16.584V15.584H172.162L172.099 16.516L173.096 16.584ZM212.745 16.584H213.745V15.584H212.745V16.584ZM212.745 68H198.441V70H212.745V68ZM199.441 69V27.336H197.441V69H199.441ZM198.441 26.336H185.288V28.336H198.441V26.336ZM184.292 27.255C183.462 37.4725 182.346 45.677 180.953 51.885L182.904 52.323C184.327 45.987 185.451 37.6795 186.285 27.417L184.292 27.255ZM180.951 51.8924C179.621 58.0366 177.778 62.3938 175.5 65.0908L177.029 66.3812C179.615 63.3182 181.548 58.5874 182.906 52.3156L180.951 51.8924ZM175.508 65.0824C173.286 67.6546 170.311 68.96 166.473 68.96V70.96C170.826 70.96 174.379 69.4494 177.021 66.3896L175.508 65.0824ZM166.473 68.96C163.237 68.96 160.68 68.4606 158.749 67.5242L157.876 69.3238C160.169 70.4354 163.052 70.96 166.473 70.96V68.96ZM159.312 68.424V57H157.312V68.424H159.312ZM157.914 57.9171C159.511 58.6116 161.183 58.96 162.921 58.96V56.96C161.458 56.96 160.058 56.6684 158.711 56.0829L157.914 57.9171ZM162.921 58.96C164.454 58.96 165.768 58.1783 166.857 56.8722L165.32 55.5918C164.489 56.5897 163.691 56.96 162.921 56.96V58.96ZM166.857 56.8722C167.962 55.5457 168.903 53.287 169.74 50.2586L167.813 49.7254C166.986 52.713 166.135 54.6143 165.32 55.5918L166.857 56.8722ZM169.735 50.2775C170.653 47.1949 171.461 42.9425 172.168 37.5458L170.185 37.2862C169.484 42.6415 168.692 46.7731 167.818 49.7065L169.735 50.2775ZM172.168 37.5443C172.876 32.0766 173.517 25.1106 174.094 16.652L172.099 16.516C171.524 24.9534 170.885 31.8754 170.185 37.2877L172.168 37.5443ZM173.096 17.584H212.745V15.584H173.096V17.584ZM211.745 16.584V69H213.745V16.584H211.745ZM241.98 16.584H242.98V15.584H241.98V16.584ZM241.98 36.744H240.98V37.744H241.98V36.744ZM261.948 36.744V37.744H262.948V36.744H261.948ZM261.948 16.584V15.584H260.948V16.584H261.948ZM276.251 16.584H277.251V15.584H276.251V16.584ZM276.251 69V70H277.251V69H276.251ZM261.948 69H260.948V70H261.948V69ZM261.948 47.4H262.948V46.4H261.948V47.4ZM241.98 47.4V46.4H240.98V47.4H241.98ZM241.98 69V70H242.98V69H241.98ZM227.676 69H226.676V70H227.676V69ZM227.676 16.584V15.584H226.676V16.584H227.676ZM240.98 16.584V36.744H242.98V16.584H240.98ZM241.98 37.744H261.948V35.744H241.98V37.744ZM262.948 36.744V16.584H260.948V36.744H262.948ZM261.948 17.584H276.251V15.584H261.948V17.584ZM275.251 16.584V69H277.251V16.584H275.251ZM276.251 68H261.948V70H276.251V68ZM262.948 69V47.4H260.948V69H262.948ZM261.948 46.4H241.98V48.4H261.948V46.4ZM240.98 47.4V69H242.98V47.4H240.98ZM241.98 68H227.676V70H241.98V68ZM228.676 69V16.584H226.676V69H228.676ZM227.676 17.584H241.98V15.584H227.676V17.584Z" fill="#3964F9"/>
</svg>
