<svg width="103" height="72" viewBox="0 0 103 72" fill="none" xmlns="http://www.w3.org/2000/svg">
<path d="M7.56425 64.872L6.90572 65.6246L6.91248 65.6304L7.56425 64.872ZM1.42025 48.648V47.648H0.42025V48.648H1.42025ZM14.7643 48.648H15.7643V47.648H14.7643V48.648ZM17.3563 57.192L16.6919 57.9394L16.6998 57.9464L16.7078 57.9532L17.3563 57.192ZM31.8522 57.192L32.5007 57.9532L32.5087 57.9464L32.5166 57.9394L31.8522 57.192ZM31.5643 42.984L32.1556 42.1776L31.5643 42.984ZM18.9883 40.872H17.9883V41.872H18.9883V40.872ZM18.9883 30.12V29.12H17.9883V30.12H18.9883ZM30.6043 27.816L31.2825 28.5508L31.29 28.5439L31.2974 28.5368L30.6043 27.816ZM30.8923 14.76L30.2018 15.4834L30.2098 15.491L30.218 15.4985L30.8923 14.76ZM18.4123 14.856L19.0708 15.6086L19.0795 15.601L19.088 15.5932L18.4123 14.856ZM16.1082 22.728V23.728H17.1082V22.728H16.1082ZM2.76425 22.728H1.76425V23.728H2.76425V22.728ZM5.54825 10.632L6.3712 11.2002L6.37732 11.1911L5.54825 10.632ZM13.2283 4.296L13.6394 5.20762L13.6473 5.20396L13.2283 4.296ZM40.5883 6.696L39.9682 7.48058L39.9743 7.48535L40.5883 6.696ZM43.8522 29.064L43.0652 28.4471L43.0629 28.4501L43.8522 29.064ZM36.2682 34.824L35.8425 33.9192L35.2682 34.1894V34.824H36.2682ZM36.2682 35.208H35.2682V35.9495L35.9778 36.1649L36.2682 35.208ZM44.8123 40.968L45.6056 40.3592L45.6056 40.3592L44.8123 40.968ZM45.0043 61.416L44.1807 60.8487L44.178 60.8527L45.0043 61.416ZM36.9403 67.944L37.3321 68.864L37.3393 68.861L37.3464 68.8578L36.9403 67.944ZM25.0363 69.152C17.6288 69.152 12.0699 67.4255 8.21602 64.1136L6.91248 65.6304C11.2506 69.3585 17.3397 71.152 25.0363 71.152V69.152ZM8.22276 64.1194C4.37065 60.7488 2.42025 56.2054 2.42025 50.376H0.42025C0.42025 56.7066 2.56585 61.8272 6.90575 65.6246L8.22276 64.1194ZM2.42025 50.376V48.648H0.42025V50.376H2.42025ZM1.42025 49.648H14.7643V47.648H1.42025V49.648ZM13.7643 48.648V50.664H15.7643V48.648H13.7643ZM13.7643 50.664C13.7643 53.698 14.7046 56.1729 16.6919 57.9394L18.0206 56.4446C16.5519 55.1391 15.7643 53.262 15.7643 50.664H13.7643ZM16.7078 57.9532C18.6817 59.6347 21.4448 60.4 24.8443 60.4V58.4C21.7157 58.4 19.4868 57.6933 18.0047 56.4308L16.7078 57.9532ZM24.8443 60.4C27.954 60.4 30.5437 59.6203 32.5007 57.9532L31.2038 56.4308C29.7048 57.7077 27.6225 58.4 24.8443 58.4V60.4ZM32.5166 57.9394C34.518 56.1604 35.4443 53.5783 35.4443 50.376H33.4443C33.4443 53.1897 32.6425 55.1516 31.1879 56.4446L32.5166 57.9394ZM35.4443 50.376C35.4443 46.697 34.4385 43.8517 32.1556 42.1776L30.9729 43.7904C32.53 44.9323 33.4443 47.015 33.4443 50.376H35.4443ZM32.1556 42.1776C30.0138 40.6069 27.2247 39.872 23.8843 39.872V41.872C26.9438 41.872 29.2747 42.5451 30.9729 43.7904L32.1556 42.1776ZM23.8843 39.872H18.9883V41.872H23.8843V39.872ZM19.9883 40.872V30.12H17.9883V40.872H19.9883ZM18.9883 31.12H24.1723V29.12H18.9883V31.12ZM24.1723 31.12C27.005 31.12 29.4047 30.2842 31.2825 28.5508L29.926 27.0812C28.4758 28.4198 26.5875 29.12 24.1723 29.12V31.12ZM31.2974 28.5368C33.212 26.6958 34.1003 24.0976 34.1003 20.904H32.1003C32.1003 23.7264 31.3245 25.7362 29.9111 27.0952L31.2974 28.5368ZM34.1003 20.904C34.1003 17.9817 33.3157 15.6186 31.5665 14.0215L30.218 15.4985C31.4128 16.5894 32.1003 18.3223 32.1003 20.904H34.1003ZM31.5827 14.0366C29.9317 12.4606 27.634 11.744 24.8443 11.744V13.744C27.3025 13.744 29.0368 14.3714 30.2018 15.4834L31.5827 14.0366ZM24.8443 11.744C21.9242 11.744 19.5097 12.4935 17.7365 14.1188L19.088 15.5932C20.3868 14.4025 22.2603 13.744 24.8443 13.744V11.744ZM17.7537 14.1034C15.9371 15.693 15.1082 18.0246 15.1082 20.904H17.1082C17.1082 18.4074 17.8154 16.707 19.0708 15.6086L17.7537 14.1034ZM15.1082 20.904V22.728H17.1082V20.904H15.1082ZM16.1082 21.728H2.76425V23.728H16.1082V21.728ZM3.76425 22.728V20.04H1.76425V22.728H3.76425ZM3.76425 20.04C3.76425 16.6383 4.64168 13.7049 6.37115 11.2002L4.72535 10.0638C2.74282 12.9351 1.76425 16.2737 1.76425 20.04H3.76425ZM6.37732 11.1911C8.12127 8.60529 10.5309 6.60945 13.6394 5.20758L12.8171 3.38441C9.39764 4.92654 6.68724 7.1547 4.71918 10.0729L6.37732 11.1911ZM13.6473 5.20396C16.8253 3.73718 20.455 2.992 24.5563 2.992V0.991999C20.2095 0.991999 16.2872 1.78282 12.8092 3.38804L13.6473 5.20396ZM24.5563 2.992C31.1252 2.992 36.2272 4.52394 39.9682 7.48055L41.2083 5.91144C37.0133 2.59605 31.4273 0.991999 24.5563 0.991999V2.992ZM39.9743 7.48535C43.7294 10.406 45.6362 14.5437 45.6362 20.04H47.6362C47.6362 14.0162 45.5111 9.25803 41.2022 5.90664L39.9743 7.48535ZM45.6362 20.04C45.6362 23.5133 44.7558 26.2902 43.0652 28.4471L44.6393 29.6809C46.6607 27.1018 47.6362 23.8627 47.6362 20.04H45.6362ZM43.0629 28.4501C41.3876 30.604 38.997 32.4347 35.8425 33.9192L36.694 35.7288C40.0675 34.1413 42.7329 32.132 44.6416 29.6779L43.0629 28.4501ZM35.2682 34.824V35.208H37.2682V34.824H35.2682ZM35.9778 36.1649C39.3787 37.1973 42.0444 39.0039 44.0189 41.5768L45.6056 40.3592C43.3561 37.4281 40.3258 35.3947 36.5587 34.2511L35.9778 36.1649ZM44.0189 41.5768C45.9718 44.1214 46.9803 47.3509 46.9803 51.336H48.9803C48.9803 47.0011 47.8768 43.3186 45.6056 40.3592L44.0189 41.5768ZM46.9803 51.336C46.9803 54.9941 46.0386 58.1519 44.1807 60.8487L45.8278 61.9833C47.938 58.9201 48.9803 55.3578 48.9803 51.336H46.9803ZM44.178 60.8527C42.374 63.4986 39.8394 65.5612 36.5341 67.0302L37.3464 68.8578C40.9531 67.2548 43.7945 64.9654 45.8305 61.9793L44.178 60.8527ZM36.5484 67.024C33.2378 68.4341 29.407 69.152 25.0363 69.152V71.152C29.6255 71.152 33.7308 70.3979 37.3321 68.864L36.5484 67.024ZM61.196 64.392L60.5117 65.1212L60.5175 65.1266L60.5233 65.1319L61.196 64.392ZM54.956 48.552V47.552H53.956V48.552H54.956ZM68.492 48.552H69.492V47.552H68.492V48.552ZM70.988 56.52L70.2323 57.1749L70.2384 57.182L70.2447 57.189L70.988 56.52ZM85.004 56.424L84.2397 55.7791L84.2378 55.7814L85.004 56.424ZM85.004 39.336L84.2721 40.0174L85.004 39.336ZM69.644 41.16L69.5218 42.1525L70.0871 42.2221L70.4353 41.7714L69.644 41.16ZM57.164 39.624L56.1665 39.5531L56.0992 40.5005L57.0418 40.6165L57.164 39.624ZM59.756 3.144V2.144H58.8245L58.7585 3.07312L59.756 3.144ZM97.868 3.144H98.868V2.144H97.868V3.144ZM97.868 14.856V15.856H98.868V14.856H97.868ZM71.372 14.856V13.856H70.4295L70.3737 14.7969L71.372 14.856ZM70.508 29.448L69.5098 29.3889L69.3952 31.3227L71.038 30.296L70.508 29.448ZM75.5 27.144L75.806 28.096L75.8213 28.0911L75.8363 28.0857L75.5 27.144ZM95.756 31.656L95.0364 32.3504L95.0426 32.3568L95.0489 32.3631L95.756 31.656ZM94.988 64.2L94.2922 63.4818L94.988 64.2ZM78.092 69.152C71.2401 69.152 65.8682 67.288 61.8687 63.6521L60.5233 65.1319C64.9718 69.176 70.8639 71.152 78.092 71.152V69.152ZM61.8803 63.6628C57.9557 59.9797 55.956 54.982 55.956 48.552H53.956C53.956 55.434 56.1163 60.9963 60.5117 65.1212L61.8803 63.6628ZM54.956 49.552H68.492V47.552H54.956V49.552ZM67.492 48.552C67.492 52.1031 68.3645 55.0198 70.2323 57.1749L71.7437 55.8651C70.2835 54.1802 69.492 51.7849 69.492 48.552H67.492ZM70.2447 57.189C72.1941 59.355 74.8518 60.4 78.092 60.4V58.4C75.3162 58.4 73.2379 57.525 71.7313 55.851L70.2447 57.189ZM78.092 60.4C81.2863 60.4 83.8888 59.3098 85.7702 57.0666L84.2378 55.7814C82.7912 57.5062 80.7857 58.4 78.092 58.4V60.4ZM85.7683 57.0689C87.7048 54.7737 88.596 51.5308 88.596 47.496H86.596C86.596 51.2692 85.7592 53.9783 84.2397 55.7791L85.7683 57.0689ZM88.596 47.496C88.596 43.7637 87.6962 40.7601 85.7359 38.6546L84.2721 40.0174C85.7678 41.6239 86.596 44.0603 86.596 47.496H88.596ZM85.7359 38.6546C83.7968 36.5718 81.2476 35.552 78.188 35.552V37.552C80.7604 37.552 82.7553 38.3882 84.2721 40.0174L85.7359 38.6546ZM78.188 35.552C76.1221 35.552 74.2987 36.0007 72.7656 36.9497L73.8184 38.6503C74.9733 37.9353 76.4139 37.552 78.188 37.552V35.552ZM72.7656 36.9497C71.3078 37.8522 70.0049 39.0575 68.8527 40.5485L70.4353 41.7714C71.4591 40.4465 72.5882 39.4118 73.8184 38.6503L72.7656 36.9497ZM69.7662 40.1675L57.2862 38.6315L57.0418 40.6165L69.5218 42.1525L69.7662 40.1675ZM58.1615 39.6949L60.7535 3.21487L58.7585 3.07312L56.1665 39.5531L58.1615 39.6949ZM59.756 4.144H97.868V2.144H59.756V4.144ZM96.868 3.144V14.856H98.868V3.144H96.868ZM97.868 13.856H71.372V15.856H97.868V13.856ZM70.3737 14.7969L69.5098 29.3889L71.5063 29.5071L72.3703 14.9151L70.3737 14.7969ZM71.038 30.296C72.5012 29.3815 74.0896 28.6477 75.806 28.096L75.194 26.192C73.3264 26.7923 71.5868 27.5945 69.978 28.6L71.038 30.296ZM75.8363 28.0857C77.4903 27.495 79.5456 27.184 82.028 27.184V25.184C79.3904 25.184 77.0937 25.513 75.1637 26.2023L75.8363 28.0857ZM82.028 27.184C87.4218 27.184 91.7267 28.9203 95.0364 32.3504L96.4756 30.9616C92.7453 27.0957 87.8982 25.184 82.028 25.184V27.184ZM95.0489 32.3631C98.3838 35.6981 100.132 40.6833 100.132 47.496H102.132C102.132 40.3567 100.296 34.7819 96.4631 30.9489L95.0489 32.3631ZM100.132 47.496C100.132 54.467 98.1465 59.7479 94.2922 63.4818L95.6838 64.9182C100.021 60.7161 102.132 54.861 102.132 47.496H100.132ZM94.2922 63.4818C90.4276 67.2256 85.0703 69.152 78.092 69.152V71.152C85.4497 71.152 91.3564 69.1104 95.6838 64.9182L94.2922 63.4818Z" fill="#3964F9"/>
</svg>
