<svg width="50" height="50" viewBox="0 0 50 50" fill="none" xmlns="http://www.w3.org/2000/svg">
<rect width="50" height="50" fill="#3964F9"/>
<path d="M34.5736 24.2561L16.2373 15.088C16.0936 15.0162 15.9322 14.9874 15.7725 15.0051C15.6128 15.0228 15.4616 15.0864 15.3372 15.188C15.2183 15.2876 15.1297 15.4184 15.0811 15.5656C15.0325 15.7129 15.0259 15.8707 15.0621 16.0215L17.2708 24.1645H26.6973V25.8314H17.2708L15.0288 33.9493C14.9948 34.0752 14.9908 34.2074 15.0172 34.3351C15.0436 34.4628 15.0996 34.5825 15.1806 34.6847C15.2617 34.7868 15.3656 34.8685 15.484 34.9232C15.6024 34.9779 15.7319 35.004 15.8623 34.9995C15.9927 34.9987 16.1212 34.9673 16.2373 34.9078L34.5736 25.7397C34.7101 25.6698 34.8246 25.5635 34.9047 25.4326C34.9847 25.3017 35.027 25.1513 35.027 24.9979C35.027 24.8445 34.9847 24.6941 34.9047 24.5632C34.8246 24.4323 34.7101 24.3261 34.5736 24.2561Z" fill="white"/>
</svg>
