<svg width="155" height="18" viewBox="0 0 155 18" fill="none" xmlns="http://www.w3.org/2000/svg">
<path d="M1.26 0.985999H3.726V3.326H1.26V0.985999ZM1.26 4.532H3.726V14H1.26V4.532ZM6.28777 4.532H8.39377L8.57377 5.774H8.69977C9.46777 4.802 10.4518 4.316 11.6518 4.316C12.6238 4.316 13.3858 4.58 13.9378 5.108C14.5018 5.636 14.7838 6.482 14.7838 7.646V14H12.3178V8.168C12.3178 7.58 12.1798 7.154 11.9038 6.89C11.6278 6.626 11.2198 6.494 10.6798 6.494C10.1278 6.494 9.66577 6.692 9.29377 7.088C8.93377 7.472 8.75377 7.952 8.75377 8.528V14H6.28777V4.532ZM17.5257 6.548H16.1757V4.532H17.5257V3.452C17.5257 2.708 17.7237 2.09 18.1197 1.598C18.5157 1.094 19.1697 0.842 20.0817 0.842C20.3337 0.842 20.6097 0.872 20.9097 0.932C21.2097 0.992 21.4617 1.058 21.6657 1.13V2.858H20.7657C20.2497 2.858 19.9917 3.116 19.9917 3.632V4.532H21.6657V6.548H19.9917V14H17.5257V6.548ZM27.4978 14.216C25.8778 14.216 24.6718 13.814 23.8798 13.01C23.0878 12.206 22.6918 10.958 22.6918 9.266C22.6918 7.574 23.0878 6.326 23.8798 5.522C24.6718 4.718 25.8778 4.316 27.4978 4.316C29.1178 4.316 30.3238 4.718 31.1158 5.522C31.9198 6.326 32.3218 7.574 32.3218 9.266C32.3218 10.958 31.9198 12.206 31.1158 13.01C30.3238 13.814 29.1178 14.216 27.4978 14.216ZM27.4978 12.2C28.3018 12.2 28.8838 11.972 29.2438 11.516C29.6038 11.048 29.7838 10.346 29.7838 9.41V9.122C29.7838 8.186 29.6038 7.49 29.2438 7.034C28.8838 6.566 28.3018 6.332 27.4978 6.332C26.6938 6.332 26.1118 6.566 25.7518 7.034C25.4038 7.49 25.2298 8.186 25.2298 9.122V9.41C25.2298 10.346 25.4038 11.048 25.7518 11.516C26.1118 11.972 26.6938 12.2 27.4978 12.2ZM41.4537 16.754C38.9937 16.754 37.0857 16.142 35.7297 14.918C34.3857 13.694 33.7137 11.816 33.7137 9.284C33.7137 7.448 34.0857 5.948 34.8297 4.784C35.5857 3.608 36.5937 2.756 37.8537 2.228C39.1137 1.7 40.5477 1.436 42.1557 1.436C44.5677 1.436 46.4937 1.994 47.9337 3.11C49.3737 4.214 50.0937 5.918 50.0937 8.222C50.0937 9.494 49.8717 10.532 49.4277 11.336C48.9957 12.14 48.4557 12.722 47.8077 13.082C47.1597 13.43 46.5057 13.604 45.8457 13.604C45.2817 13.604 44.8137 13.496 44.4417 13.28C44.0697 13.064 43.8117 12.8 43.6677 12.488H43.5597C43.2597 12.86 42.8997 13.142 42.4797 13.334C42.0717 13.526 41.5377 13.622 40.8777 13.622C40.2057 13.622 39.5937 13.454 39.0417 13.118C38.4897 12.77 38.2137 12.134 38.2137 11.21C38.2137 10.106 38.6637 9.32 39.5637 8.852C40.4757 8.384 41.7597 8.15 43.4157 8.15V7.556C43.4157 7.172 43.3317 6.878 43.1637 6.674C42.9957 6.458 42.6777 6.35 42.2097 6.35C41.7177 6.35 41.3637 6.428 41.1477 6.584C40.9317 6.74 40.8237 6.92 40.8237 7.124V7.376H38.6637C38.6517 7.304 38.6457 7.184 38.6457 7.016C38.6457 6.296 38.9637 5.72 39.5997 5.288C40.2357 4.844 41.0817 4.622 42.1377 4.622C43.3257 4.622 44.2077 4.862 44.7837 5.342C45.3717 5.822 45.6657 6.512 45.6657 7.412V11.21C45.6657 11.486 45.7257 11.678 45.8457 11.786C45.9657 11.894 46.1397 11.948 46.3677 11.948C46.9437 11.948 47.4417 11.648 47.8617 11.048C48.2817 10.448 48.4917 9.5 48.4917 8.204C48.4917 6.38 47.9217 5.03 46.7817 4.154C45.6537 3.266 44.1057 2.822 42.1377 2.822C39.9777 2.822 38.2977 3.368 37.0977 4.46C35.8977 5.552 35.2977 7.166 35.2977 9.302C35.2977 11.33 35.8017 12.848 36.8097 13.856C37.8177 14.864 39.3657 15.368 41.4537 15.368C41.9697 15.368 42.5877 15.308 43.3077 15.188C44.0277 15.08 44.5737 14.948 44.9457 14.792V16.268C44.5137 16.4 43.9437 16.514 43.2357 16.61C42.5397 16.706 41.9457 16.754 41.4537 16.754ZM41.5797 11.858C42.2157 11.858 42.6777 11.684 42.9657 11.336C43.2657 10.976 43.4157 10.502 43.4157 9.914V9.644C41.4597 9.644 40.4817 10.082 40.4817 10.958C40.4817 11.222 40.5717 11.438 40.7517 11.606C40.9437 11.774 41.2197 11.858 41.5797 11.858ZM51.8147 0.985999H54.2807V3.326H51.8147V0.985999ZM51.8147 4.532H54.2807V14H51.8147V4.532ZM62.8185 12.902H62.7105C62.4345 13.322 62.0505 13.646 61.5585 13.874C61.0785 14.102 60.5205 14.216 59.8845 14.216C58.7805 14.216 57.8925 13.802 57.2205 12.974C56.5605 12.146 56.2305 10.916 56.2305 9.284C56.2305 7.616 56.5605 6.374 57.2205 5.558C57.8805 4.73 58.8105 4.316 60.0105 4.316C60.6225 4.316 61.1805 4.442 61.6845 4.694C62.1885 4.934 62.5905 5.294 62.8905 5.774H63.0165L63.1785 4.532H65.2845V17.114H62.8185V12.902ZM60.8025 12.074C62.1465 12.074 62.8185 11.18 62.8185 9.392V9.104C62.8185 7.34 62.1465 6.458 60.8025 6.458C60.0705 6.458 59.5485 6.68 59.2365 7.124C58.9245 7.556 58.7685 8.216 58.7685 9.104V9.428C58.7685 10.316 58.9245 10.982 59.2365 11.426C59.5485 11.858 60.0705 12.074 60.8025 12.074ZM71.7704 14.216C70.2584 14.216 69.1244 13.814 68.3684 13.01C67.6244 12.206 67.2524 10.958 67.2524 9.266C67.2524 7.586 67.6244 6.344 68.3684 5.54C69.1244 4.724 70.2584 4.316 71.7704 4.316C73.0304 4.316 74.0324 4.64 74.7764 5.288C75.5324 5.924 75.9104 6.86 75.9104 8.096H73.4264C73.4264 7.52 73.2764 7.076 72.9764 6.764C72.6764 6.452 72.2564 6.296 71.7164 6.296C71.0444 6.296 70.5464 6.536 70.2224 7.016C69.9104 7.484 69.7544 8.186 69.7544 9.122V9.41C69.7544 10.346 69.9164 11.054 70.2404 11.534C70.5764 12.002 71.1104 12.236 71.8424 12.236C72.3584 12.236 72.7664 12.08 73.0664 11.768C73.3784 11.444 73.5344 11 73.5344 10.436H75.9104C75.9104 11.672 75.5384 12.614 74.7944 13.262C74.0504 13.898 73.0424 14.216 71.7704 14.216ZM77.8483 0.985999H80.3143V14H77.8483V0.985999ZM85.0361 14.216C84.3041 14.216 83.6321 14.024 83.0201 13.64C82.4081 13.256 82.1021 12.56 82.1021 11.552C82.1021 10.34 82.6001 9.482 83.5961 8.978C84.5921 8.462 86.0021 8.204 87.8261 8.204V7.538C87.8261 7.118 87.7301 6.794 87.5381 6.566C87.3581 6.338 87.0101 6.224 86.4941 6.224C85.9421 6.224 85.5461 6.308 85.3061 6.476C85.0781 6.644 84.9641 6.842 84.9641 7.07V7.34H82.5881C82.5761 7.268 82.5701 7.136 82.5701 6.944C82.5701 6.152 82.9181 5.516 83.6141 5.036C84.3221 4.556 85.2581 4.316 86.4221 4.316C87.7181 4.316 88.6841 4.58 89.3201 5.108C89.9681 5.636 90.2921 6.398 90.2921 7.394V11.57C90.2921 11.786 90.3521 11.948 90.4721 12.056C90.5921 12.152 90.7421 12.2 90.9221 12.2H91.4261V13.928C91.0421 14.12 90.5681 14.216 90.0041 14.216C89.5121 14.216 89.0981 14.108 88.7621 13.892C88.4381 13.676 88.2161 13.37 88.0961 12.974H87.9881C87.6401 13.382 87.2381 13.694 86.7821 13.91C86.3381 14.114 85.7561 14.216 85.0361 14.216ZM85.8101 12.272C86.5061 12.272 87.0161 12.08 87.3401 11.696C87.6641 11.3 87.8261 10.778 87.8261 10.13V9.842C85.6781 9.842 84.6041 10.322 84.6041 11.282C84.6041 11.582 84.7001 11.822 84.8921 12.002C85.0961 12.182 85.4021 12.272 85.8101 12.272ZM96.64 14.216C95.32 14.216 94.282 13.946 93.526 13.406C92.782 12.854 92.41 12.122 92.41 11.21L92.428 10.994H94.822V11.12C94.834 11.54 95.02 11.846 95.38 12.038C95.752 12.218 96.202 12.308 96.73 12.308C97.222 12.308 97.642 12.242 97.99 12.11C98.338 11.978 98.512 11.762 98.512 11.462C98.512 11.126 98.332 10.874 97.972 10.706C97.624 10.538 97.072 10.37 96.316 10.202C95.536 10.022 94.9 9.842 94.408 9.662C93.916 9.47 93.49 9.176 93.13 8.78C92.77 8.384 92.59 7.856 92.59 7.196C92.59 6.272 92.974 5.564 93.742 5.072C94.522 4.568 95.524 4.316 96.748 4.316C97.888 4.316 98.83 4.55 99.574 5.018C100.318 5.474 100.69 6.098 100.69 6.89L100.672 7.304H98.278V7.196C98.278 6.884 98.128 6.644 97.828 6.476C97.54 6.308 97.15 6.224 96.658 6.224C96.166 6.224 95.776 6.29 95.488 6.422C95.2 6.554 95.056 6.74 95.056 6.98C95.056 7.28 95.218 7.502 95.542 7.646C95.878 7.79 96.412 7.934 97.144 8.078C97.948 8.258 98.602 8.438 99.106 8.618C99.61 8.798 100.048 9.092 100.42 9.5C100.792 9.908 100.978 10.46 100.978 11.156C100.978 13.196 99.532 14.216 96.64 14.216ZM102.862 0.985999H105.328V5.63H105.454C106.174 4.754 107.098 4.316 108.226 4.316C109.198 4.316 109.96 4.58 110.512 5.108C111.076 5.636 111.358 6.482 111.358 7.646V14H108.892V8.168C108.892 7.58 108.754 7.154 108.478 6.89C108.202 6.626 107.794 6.494 107.254 6.494C106.702 6.494 106.24 6.692 105.868 7.088C105.508 7.472 105.328 7.952 105.328 8.528V14H102.862V0.985999ZM113.848 11.534H116.332V14H113.848V11.534ZM122.8 14.216C121.288 14.216 120.154 13.814 119.398 13.01C118.654 12.206 118.282 10.958 118.282 9.266C118.282 7.586 118.654 6.344 119.398 5.54C120.154 4.724 121.288 4.316 122.8 4.316C124.06 4.316 125.062 4.64 125.806 5.288C126.562 5.924 126.94 6.86 126.94 8.096H124.456C124.456 7.52 124.306 7.076 124.006 6.764C123.706 6.452 123.286 6.296 122.746 6.296C122.074 6.296 121.576 6.536 121.252 7.016C120.94 7.484 120.784 8.186 120.784 9.122V9.41C120.784 10.346 120.946 11.054 121.27 11.534C121.606 12.002 122.14 12.236 122.872 12.236C123.388 12.236 123.796 12.08 124.096 11.768C124.408 11.444 124.564 11 124.564 10.436H126.94C126.94 11.672 126.568 12.614 125.824 13.262C125.08 13.898 124.072 14.216 122.8 14.216ZM133.09 14.216C131.47 14.216 130.264 13.814 129.472 13.01C128.68 12.206 128.284 10.958 128.284 9.266C128.284 7.574 128.68 6.326 129.472 5.522C130.264 4.718 131.47 4.316 133.09 4.316C134.71 4.316 135.916 4.718 136.708 5.522C137.512 6.326 137.914 7.574 137.914 9.266C137.914 10.958 137.512 12.206 136.708 13.01C135.916 13.814 134.71 14.216 133.09 14.216ZM133.09 12.2C133.894 12.2 134.476 11.972 134.836 11.516C135.196 11.048 135.376 10.346 135.376 9.41V9.122C135.376 8.186 135.196 7.49 134.836 7.034C134.476 6.566 133.894 6.332 133.09 6.332C132.286 6.332 131.704 6.566 131.344 7.034C130.996 7.49 130.822 8.186 130.822 9.122V9.41C130.822 10.346 130.996 11.048 131.344 11.516C131.704 11.972 132.286 12.2 133.09 12.2ZM139.882 4.532H141.988L142.168 5.774H142.294C142.99 4.802 143.89 4.316 144.994 4.316C146.194 4.316 147.022 4.802 147.478 5.774H147.622C148.342 4.802 149.278 4.316 150.43 4.316C151.33 4.316 152.044 4.58 152.572 5.108C153.112 5.636 153.382 6.482 153.382 7.646V14H150.916V8.168C150.916 7.052 150.454 6.494 149.53 6.494C149.05 6.494 148.654 6.692 148.342 7.088C148.03 7.472 147.874 7.952 147.874 8.528V14H145.408V8.168C145.408 7.052 144.946 6.494 144.022 6.494C143.542 6.494 143.14 6.692 142.816 7.088C142.504 7.472 142.348 7.952 142.348 8.528V14H139.882V4.532Z" fill="#323232"/>
<path d="M0 15.8H154.606V16.7H0V15.8Z" fill="#323232"/>
</svg>
