<svg width="141" height="12" viewBox="0 0 141 12" fill="none" xmlns="http://www.w3.org/2000/svg">
<path d="M2.13281 9V0.544922H1.07812V9H2.13281ZM6.53203 9V2.44336H6.62578L11.2137 9H12.2391V0.544922H11.1961V7.125H11.1023L6.51445 0.544922H5.48906V9H6.53203ZM16.65 9V5.33789H20.3941V4.40039H16.65V1.49414H20.7281V0.544922H15.5953V9H16.65ZM27.2133 0.345703C24.8227 0.345703 23.3344 2.05078 23.3344 4.76953C23.3344 7.47656 24.7875 9.19922 27.2133 9.19922C29.6273 9.19922 31.0922 7.4707 31.0922 4.76953C31.0922 2.05664 29.6156 0.345703 27.2133 0.345703ZM27.2133 1.31836C28.9418 1.31836 30.0082 2.6543 30.0082 4.76953C30.0082 6.86719 28.9477 8.22656 27.2133 8.22656C25.4555 8.22656 24.4184 6.86719 24.4184 4.76953C24.4184 2.6543 25.4906 1.31836 27.2133 1.31836ZM38.5148 3.87305C39.3117 3.87305 39.8215 4.50586 39.8215 5.50781C39.8215 6.50977 39.3059 7.14844 38.5031 7.14844C37.7355 7.14844 37.2668 6.52734 37.2668 5.50781C37.2668 4.48242 37.7297 3.87305 38.5148 3.87305ZM38.7199 0.591797C35.8488 0.591797 33.8801 2.57812 33.8801 5.47852C33.8801 8.47266 35.7961 10.3711 38.8195 10.3711C39.5578 10.3711 40.2668 10.2656 40.7941 10.084V9.3457C40.425 9.51562 39.634 9.62695 38.8312 9.62695C36.3234 9.62695 34.7062 8.01562 34.7062 5.51367C34.7062 3.07617 36.3527 1.33008 38.6437 1.33008C40.9875 1.33008 42.593 2.77734 42.593 4.89258C42.593 6.33398 42.1184 7.26562 41.3801 7.26562C40.9582 7.26562 40.718 7.02539 40.718 6.61523V3.17578H39.8332V3.89062H39.7395C39.5109 3.38086 38.9836 3.06445 38.3684 3.06445C37.1672 3.06445 36.3293 4.06055 36.3293 5.48438C36.3293 6.97266 37.1496 7.97461 38.3684 7.97461C39.0539 7.97461 39.5812 7.64062 39.8332 7.04297H39.927C39.9973 7.61719 40.5305 8.02734 41.216 8.02734C42.5637 8.02734 43.4191 6.81445 43.4191 4.9043C43.4191 2.36133 41.4914 0.591797 38.7199 0.591797ZM47.3906 9V0.544922H46.3359V9H47.3906ZM54.3035 9.19922C54.8484 9.19922 55.3641 9.11133 55.8152 8.94141L56.5594 9.95508H57.743L56.6707 8.4668C57.6316 7.77539 58.1707 6.45703 58.1707 4.77539C58.1707 2.05078 56.6824 0.345703 54.3035 0.345703C51.9129 0.345703 50.4188 2.04492 50.4188 4.77539C50.4188 7.51758 51.8953 9.19922 54.3035 9.19922ZM54.3094 8.22656C52.575 8.22656 51.5027 6.9082 51.5027 4.77539C51.5027 2.64844 52.5809 1.31836 54.3035 1.31836C56.0145 1.31836 57.0867 2.6543 57.0867 4.77539C57.0867 6.06445 56.7176 7.07227 56.0555 7.59961L55.2879 6.58008H54.0926L55.2117 8.09766C54.9188 8.18555 54.6199 8.22656 54.3094 8.22656ZM64.609 9.19922C66.4078 9.19922 67.7438 8.19727 68.025 6.64453H66.9527C66.6832 7.62305 65.7867 8.22656 64.609 8.22656C62.9801 8.22656 61.9605 6.89648 61.9605 4.77539C61.9605 2.6543 62.9801 1.31836 64.6031 1.31836C65.7691 1.31836 66.6715 2.00391 66.9527 3.09375H68.025C67.773 1.46484 66.3844 0.345703 64.6031 0.345703C62.3063 0.345703 60.8766 2.04492 60.8766 4.77539C60.8766 7.5 62.3121 9.19922 64.609 9.19922ZM76.1273 8.05078H72.0492V0.544922H70.9945V9H76.1273V8.05078ZM84.5109 9H85.6184L82.5012 0.544922H81.4582L78.341 9H79.4484L80.298 6.58008H83.6613L84.5109 9ZM81.9328 1.91016H82.0266L83.3508 5.68359H80.6086L81.9328 1.91016ZM87.8965 6.79102C88.0078 8.25 89.2441 9.19922 91.0371 9.19922C92.9707 9.19922 94.1953 8.20898 94.1953 6.65625C94.1953 5.41406 93.4922 4.73438 91.7402 4.29492L90.8555 4.06055C89.6895 3.76172 89.2266 3.38086 89.2266 2.71875C89.2266 1.86328 89.9707 1.30078 91.0957 1.30078C92.1504 1.30078 92.8652 1.81641 93.0117 2.68359H94.0723C93.9844 1.31836 92.7656 0.345703 91.1309 0.345703C89.3438 0.345703 88.1426 1.31836 88.1426 2.75391C88.1426 3.95508 88.8047 4.64648 90.334 5.0332L91.418 5.31445C92.584 5.60742 93.1113 6.06445 93.1113 6.78516C93.1113 7.62305 92.2734 8.23828 91.1367 8.23828C89.9355 8.23828 89.0918 7.67578 88.9629 6.79102H87.8965ZM103.903 9V0.544922H102.848V4.20117H98.2078V0.544922H97.1531V9H98.2078V5.15039H102.848V9H103.903ZM107.963 9.05859C108.384 9.05859 108.724 8.71289 108.724 8.29688C108.724 7.875 108.384 7.53516 107.963 7.53516C107.546 7.53516 107.201 7.875 107.201 8.29688C107.201 8.71289 107.546 9.05859 107.963 9.05859ZM114.723 9.19922C116.522 9.19922 117.858 8.19727 118.139 6.64453H117.067C116.797 7.62305 115.901 8.22656 114.723 8.22656C113.094 8.22656 112.075 6.89648 112.075 4.77539C112.075 2.6543 113.094 1.31836 114.717 1.31836C115.883 1.31836 116.786 2.00391 117.067 3.09375H118.139C117.887 1.46484 116.498 0.345703 114.717 0.345703C112.42 0.345703 110.991 2.04492 110.991 4.77539C110.991 7.5 112.426 9.19922 114.723 9.19922ZM124.659 0.345703C122.269 0.345703 120.78 2.05078 120.78 4.76953C120.78 7.47656 122.234 9.19922 124.659 9.19922C127.073 9.19922 128.538 7.4707 128.538 4.76953C128.538 2.05664 127.062 0.345703 124.659 0.345703ZM124.659 1.31836C126.388 1.31836 127.454 2.6543 127.454 4.76953C127.454 6.86719 126.394 8.22656 124.659 8.22656C122.902 8.22656 121.864 6.86719 121.864 4.76953C121.864 2.6543 122.937 1.31836 124.659 1.31836ZM139.898 9V0.544922H138.674L135.779 7.59961H135.686L132.791 0.544922H131.566V9H132.551V2.54297H132.621L135.287 9H136.178L138.844 2.54297H138.914V9H139.898Z" fill="#323232"/>
<path d="M0 11.168H140.977V11.8711H0V11.168Z" fill="#323232"/>
</svg>
