<svg width="133" height="10" viewBox="0 0 133 10" fill="none" xmlns="http://www.w3.org/2000/svg">
<path d="M3.36523 6.14062H5.7207V5.19141H3.36523V2.71875H2.41602V5.19141H0.0605469V6.14062H2.41602V8.61328H3.36523V6.14062ZM10.7 5.10352H11.7488C12.9383 5.10352 13.6707 5.71289 13.6707 6.69141C13.6707 7.64062 12.8797 8.2793 11.7664 8.2793C10.6766 8.2793 9.91484 7.71094 9.82109 6.82031H8.80156C8.87773 8.25586 10.0613 9.19922 11.7781 9.19922C13.4598 9.19922 14.7547 8.13867 14.7547 6.7207C14.7547 5.54297 14.0281 4.79883 12.9324 4.62305V4.5293C13.7996 4.27734 14.4324 3.60352 14.4383 2.58398C14.4441 1.40039 13.4832 0.345703 11.8133 0.345703C10.1023 0.345703 9.05352 1.35938 8.94805 2.73633H9.97344C10.0613 1.78711 10.7234 1.26562 11.743 1.26562C12.7625 1.26562 13.366 1.91016 13.366 2.70117C13.366 3.58008 12.6746 4.20117 11.702 4.20117H10.7V5.10352ZM17.9996 9H19.107L22.8687 1.52344V0.544922H17.273V1.48828H21.7965V1.57031L17.9996 9ZM28.3871 9.19922C30.1156 9.19922 31.2934 8.00391 31.2934 6.26367C31.2934 4.58789 30.1215 3.47461 28.7035 3.47461C27.8598 3.47461 27.2328 3.73242 26.8227 4.24219H26.7289L26.9926 1.48828H30.8598V0.544922H26.1664L25.6801 5.37891H26.6703C27.0043 4.75195 27.6371 4.38281 28.4398 4.38281C29.5063 4.38281 30.2387 5.15039 30.2387 6.29297C30.2387 7.47656 29.5063 8.27344 28.3988 8.27344C27.4027 8.27344 26.6762 7.66992 26.5824 6.76758H25.5453C25.6391 8.21484 26.7875 9.19922 28.3871 9.19922ZM38.7383 2.92969H39.7578C39.7578 1.92773 40.4316 1.26562 41.4453 1.26562C42.4414 1.26562 43.0449 1.93359 43.0449 2.83008C43.0449 3.57422 42.7285 4.01367 41.6504 5.17969L38.791 8.27344V9H44.2637V8.05078H40.2559V7.95703L42.1777 5.9707C43.7012 4.39453 44.123 3.69141 44.123 2.71875C44.123 1.34766 42.9922 0.345703 41.5156 0.345703C39.8984 0.345703 38.7383 1.42383 38.7383 2.92969ZM49.9461 9.19336C52.0145 9.19336 53.198 7.5293 53.198 4.62305C53.198 1.74609 51.8387 0.345703 50.0164 0.345703C48.282 0.345703 47.0516 1.55859 47.0516 3.25781C47.0516 4.89844 48.2176 6.08789 49.8289 6.08789C50.8367 6.08789 51.6629 5.60742 52.0789 4.78711H52.1727C52.1141 7.03711 51.3348 8.25586 49.9578 8.25586C49.1258 8.25586 48.4813 7.79297 48.2586 7.03125H47.1746C47.4383 8.36133 48.5105 9.19336 49.9461 9.19336ZM50.0164 5.17383C48.8973 5.17383 48.118 4.37695 48.118 3.22266C48.118 2.11523 48.9441 1.27148 50.0281 1.27148C51.1121 1.27148 51.9383 2.12695 51.9383 3.25781C51.9383 4.37695 51.1355 5.17383 50.0164 5.17383ZM63.5727 9.19922C65.3656 9.19922 66.6195 8.18555 66.6195 6.73828C66.6195 5.63672 65.9223 4.78125 64.8617 4.58203V4.48828C65.7348 4.24805 66.2738 3.52734 66.2738 2.60156C66.2738 1.2832 65.1547 0.345703 63.5727 0.345703C61.9906 0.345703 60.8715 1.2832 60.8715 2.60156C60.8715 3.52148 61.4223 4.25391 62.2836 4.48828V4.58203C61.223 4.78125 60.5258 5.63672 60.5258 6.73828C60.5258 8.18555 61.7797 9.19922 63.5727 9.19922ZM63.5727 8.29688C62.4008 8.29688 61.5922 7.62891 61.5922 6.66211C61.5922 5.69531 62.4008 5.02734 63.5727 5.02734C64.7445 5.02734 65.5531 5.69531 65.5531 6.66211C65.5531 7.62891 64.7445 8.29688 63.5727 8.29688ZM63.5727 4.13672C62.5766 4.13672 61.9086 3.5625 61.9086 2.70117C61.9086 1.82812 62.5707 1.24805 63.5727 1.24805C64.5746 1.24805 65.2367 1.82812 65.2367 2.70117C65.2367 3.5625 64.5687 4.13672 63.5727 4.13672ZM72.3605 9.19922C74.0891 9.19922 75.2668 8.00391 75.2668 6.26367C75.2668 4.58789 74.0949 3.47461 72.677 3.47461C71.8332 3.47461 71.2063 3.73242 70.7961 4.24219H70.7023L70.966 1.48828H74.8332V0.544922H70.1398L69.6535 5.37891H70.6438C70.9777 4.75195 71.6105 4.38281 72.4133 4.38281C73.4797 4.38281 74.2121 5.15039 74.2121 6.29297C74.2121 7.47656 73.4797 8.27344 72.3723 8.27344C71.3762 8.27344 70.6496 7.66992 70.5559 6.76758H69.5188C69.6125 8.21484 70.7609 9.19922 72.3605 9.19922ZM79.9531 5.10352H81.002C82.1914 5.10352 82.9238 5.71289 82.9238 6.69141C82.9238 7.64062 82.1328 8.2793 81.0195 8.2793C79.9297 8.2793 79.168 7.71094 79.0742 6.82031H78.0547C78.1309 8.25586 79.3145 9.19922 81.0312 9.19922C82.7129 9.19922 84.0078 8.13867 84.0078 6.7207C84.0078 5.54297 83.2812 4.79883 82.1855 4.62305V4.5293C83.0527 4.27734 83.6855 3.60352 83.6914 2.58398C83.6973 1.40039 82.7363 0.345703 81.0664 0.345703C79.3555 0.345703 78.3066 1.35938 78.2012 2.73633H79.2266C79.3145 1.78711 79.9766 1.26562 80.9961 1.26562C82.0156 1.26562 82.6191 1.91016 82.6191 2.70117C82.6191 3.58008 81.9277 4.20117 80.9551 4.20117H79.9531V5.10352ZM90.7098 6.07617V5.12109H86.866V6.07617H90.7098ZM96.4625 9.19336C98.5309 9.19336 99.7145 7.5293 99.7145 4.62305C99.7145 1.74609 98.3551 0.345703 96.5328 0.345703C94.7984 0.345703 93.568 1.55859 93.568 3.25781C93.568 4.89844 94.734 6.08789 96.3453 6.08789C97.3531 6.08789 98.1793 5.60742 98.5953 4.78711H98.6891C98.6305 7.03711 97.8512 8.25586 96.4742 8.25586C95.6422 8.25586 94.9977 7.79297 94.775 7.03125H93.691C93.9547 8.36133 95.027 9.19336 96.4625 9.19336ZM96.5328 5.17383C95.4137 5.17383 94.6344 4.37695 94.6344 3.22266C94.6344 2.11523 95.4605 1.27148 96.5445 1.27148C97.6285 1.27148 98.4547 2.12695 98.4547 3.25781C98.4547 4.37695 97.652 5.17383 96.5328 5.17383ZM105.455 9.19922C107.354 9.19922 108.444 7.59375 108.444 4.78711C108.444 1.98633 107.336 0.345703 105.455 0.345703C103.563 0.345703 102.455 1.98047 102.455 4.76953C102.455 7.58203 103.551 9.19922 105.455 9.19922ZM105.455 8.2793C104.207 8.2793 103.516 7.03125 103.516 4.76953C103.516 2.53711 104.219 1.27148 105.455 1.27148C106.692 1.27148 107.383 2.52539 107.383 4.76953C107.383 7.03711 106.704 8.2793 105.455 8.2793ZM115.181 6.07617V5.12109H111.337V6.07617H115.181ZM118.18 2.92969H119.199C119.199 1.92773 119.873 1.26562 120.887 1.26562C121.883 1.26562 122.486 1.93359 122.486 2.83008C122.486 3.57422 122.17 4.01367 121.092 5.17969L118.232 8.27344V9H123.705V8.05078H119.697V7.95703L121.619 5.9707C123.143 4.39453 123.564 3.69141 123.564 2.71875C123.564 1.34766 122.434 0.345703 120.957 0.345703C119.34 0.345703 118.18 1.42383 118.18 2.92969ZM129.499 9.19922C131.227 9.19922 132.405 8.00391 132.405 6.26367C132.405 4.58789 131.233 3.47461 129.815 3.47461C128.971 3.47461 128.345 3.73242 127.934 4.24219H127.841L128.104 1.48828H131.971V0.544922H127.278L126.792 5.37891H127.782C128.116 4.75195 128.749 4.38281 129.552 4.38281C130.618 4.38281 131.35 5.15039 131.35 6.29297C131.35 7.47656 130.618 8.27344 129.511 8.27344C128.514 8.27344 127.788 7.66992 127.694 6.76758H126.657C126.751 8.21484 127.899 9.19922 129.499 9.19922Z" fill="#323232"/>
</svg>
