<svg width="151" height="14" viewBox="0 0 151 14" fill="none" xmlns="http://www.w3.org/2000/svg">
<path d="M3.32 9.346H0.00800003V7.474H3.32V3.802H5.174V7.474H8.504V9.346H5.174V13H3.32V9.346ZM14.5517 13.216C13.1357 13.216 12.0437 12.886 11.2757 12.226C10.5077 11.554 10.1237 10.648 10.1237 9.508V9.184H12.6257V9.562C12.6257 10.09 12.7877 10.498 13.1117 10.786C13.4357 11.062 13.9037 11.2 14.5157 11.2C15.0677 11.2 15.5057 11.062 15.8297 10.786C16.1537 10.498 16.3157 10.072 16.3157 9.508C16.3157 8.848 16.1357 8.386 15.7757 8.122C15.4157 7.858 14.9357 7.726 14.3357 7.726H13.4177V5.71H14.3897C14.8817 5.71 15.2837 5.566 15.5957 5.278C15.9077 4.978 16.0637 4.546 16.0637 3.982C16.0637 3.466 15.9257 3.082 15.6497 2.83C15.3857 2.578 15.0077 2.452 14.5157 2.452C13.9997 2.452 13.5977 2.584 13.3097 2.848C13.0217 3.1 12.8777 3.478 12.8777 3.982V4.324H10.3757V3.82C10.3757 3.148 10.5497 2.56 10.8977 2.056C11.2457 1.54 11.7257 1.144 12.3377 0.868C12.9617 0.58 13.6697 0.436 14.4617 0.436C15.7217 0.436 16.7237 0.73 17.4677 1.318C18.2237 1.906 18.6017 2.74 18.6017 3.82C18.6017 4.504 18.4277 5.068 18.0797 5.512C17.7437 5.944 17.2697 6.304 16.6577 6.592V6.664C17.3297 6.868 17.8637 7.228 18.2597 7.744C18.6557 8.26 18.8537 8.908 18.8537 9.688C18.8537 10.408 18.6677 11.038 18.2957 11.578C17.9357 12.106 17.4317 12.514 16.7837 12.802C16.1357 13.078 15.3917 13.216 14.5517 13.216ZM21.9257 13C21.9257 11.152 22.3277 9.352 23.1317 7.6C23.9477 5.836 24.9737 4.252 26.2097 2.848H20.1437V0.651999H29.0177V2.29C27.7457 3.874 26.6837 5.482 25.8317 7.114C24.9917 8.734 24.5717 10.39 24.5717 12.082C24.5717 12.406 24.5777 12.712 24.5897 13H21.9257ZM34.5016 13.216C33.1816 13.216 32.1256 12.856 31.3336 12.136C30.5536 11.404 30.1636 10.414 30.1636 9.166H32.7016C32.7016 9.802 32.8576 10.3 33.1696 10.66C33.4936 11.02 33.9376 11.2 34.5016 11.2C35.0536 11.2 35.4856 11.014 35.7976 10.642C36.1216 10.258 36.2836 9.7 36.2836 8.968C36.2836 8.296 36.1216 7.786 35.7976 7.438C35.4736 7.09 35.0476 6.916 34.5196 6.916C34.1596 6.916 33.8536 6.994 33.6016 7.15C33.3496 7.306 33.1216 7.516 32.9176 7.78L30.5776 7.492L31.0636 0.651999H38.2096V2.848H33.2416L33.0796 5.584C33.3676 5.404 33.6796 5.26 34.0156 5.152C34.3516 5.032 34.7596 4.972 35.2396 4.972C36.2956 4.972 37.1536 5.314 37.8136 5.998C38.4856 6.67 38.8216 7.66 38.8216 8.968C38.8216 10.312 38.4376 11.356 37.6696 12.1C36.9016 12.844 35.8456 13.216 34.5016 13.216ZM45.3013 12.352C45.3013 11.668 45.4513 11.056 45.7513 10.516C46.0513 9.964 46.4173 9.484 46.8493 9.076C47.2933 8.668 47.8693 8.206 48.5773 7.69C49.1893 7.222 49.6693 6.832 50.0173 6.52C50.3773 6.208 50.6773 5.866 50.9173 5.494C51.2173 5.026 51.3673 4.498 51.3673 3.91C51.3673 3.526 51.2233 3.19 50.9353 2.902C50.6593 2.602 50.2573 2.452 49.7293 2.452C48.5413 2.452 47.9473 3.022 47.9473 4.162V4.9H45.4993C45.4513 4.684 45.4273 4.444 45.4273 4.18C45.4273 2.932 45.8413 1.996 46.6693 1.372C47.5093 0.748 48.5653 0.436 49.8373 0.436C50.9533 0.436 51.8113 0.651999 52.4113 1.084C53.0113 1.516 53.4013 2.002 53.5813 2.542C53.7733 3.082 53.8693 3.586 53.8693 4.054C53.8693 4.882 53.6833 5.62 53.3113 6.268C52.9393 6.904 52.4953 7.444 51.9793 7.888C51.4753 8.32 50.8453 8.794 50.0893 9.31C49.5133 9.706 49.0813 10.03 48.7933 10.282C48.5893 10.462 48.4393 10.636 48.3433 10.804H53.9413V13H45.3013V12.352ZM59.3353 13.216C58.0393 13.216 57.0673 12.862 56.4193 12.154C55.7833 11.446 55.4653 10.51 55.4653 9.346H57.9673C57.9673 9.958 58.0813 10.426 58.3093 10.75C58.5373 11.062 58.9093 11.218 59.4253 11.218C59.9413 11.218 60.3253 11.08 60.5773 10.804C60.8413 10.516 61.0153 10.12 61.0993 9.616C61.1833 9.112 61.2313 8.434 61.2433 7.582C60.9553 7.858 60.5893 8.092 60.1453 8.284C59.7133 8.464 59.2393 8.554 58.7233 8.554C57.4993 8.554 56.5813 8.188 55.9693 7.456C55.3693 6.724 55.0693 5.74 55.0693 4.504C55.0693 3.688 55.2493 2.974 55.6093 2.362C55.9693 1.738 56.4613 1.264 57.0853 0.94C57.7213 0.604 58.4353 0.436 59.2273 0.436C60.7273 0.436 61.8613 0.898 62.6293 1.822C63.3973 2.734 63.7813 4.282 63.7813 6.466C63.7813 8.134 63.6073 9.466 63.2593 10.462C62.9113 11.458 62.4133 12.166 61.7653 12.586C61.1173 13.006 60.3073 13.216 59.3353 13.216ZM59.3353 6.592C59.9113 6.592 60.3493 6.406 60.6493 6.034C60.9493 5.662 61.0993 5.152 61.0993 4.504C61.0993 3.892 60.9493 3.4 60.6493 3.028C60.3493 2.644 59.9113 2.452 59.3353 2.452C58.7593 2.452 58.3273 2.644 58.0393 3.028C57.7513 3.4 57.6073 3.892 57.6073 4.504C57.6073 5.152 57.7513 5.662 58.0393 6.034C58.3273 6.406 58.7593 6.592 59.3353 6.592ZM74.545 13.216C73.057 13.216 71.947 12.886 71.215 12.226C70.495 11.554 70.135 10.684 70.135 9.616C70.135 8.932 70.297 8.338 70.621 7.834C70.945 7.33 71.437 6.94 72.097 6.664C71.557 6.376 71.143 5.992 70.855 5.512C70.579 5.02 70.441 4.474 70.441 3.874C70.441 3.226 70.597 2.644 70.909 2.128C71.221 1.612 71.683 1.204 72.295 0.903999C72.919 0.592 73.669 0.436 74.545 0.436C75.421 0.436 76.165 0.592 76.777 0.903999C77.401 1.204 77.869 1.612 78.181 2.128C78.493 2.644 78.649 3.226 78.649 3.874C78.649 4.474 78.505 5.02 78.217 5.512C77.941 5.992 77.527 6.376 76.975 6.664C78.295 7.192 78.955 8.176 78.955 9.616C78.955 10.684 78.589 11.554 77.857 12.226C77.137 12.886 76.033 13.216 74.545 13.216ZM74.545 5.71C75.061 5.71 75.457 5.572 75.733 5.296C76.021 5.008 76.165 4.6 76.165 4.072C76.165 3.544 76.021 3.136 75.733 2.848C75.457 2.56 75.061 2.416 74.545 2.416C74.029 2.416 73.633 2.56 73.357 2.848C73.081 3.136 72.943 3.544 72.943 4.072C72.943 4.6 73.081 5.008 73.357 5.296C73.633 5.572 74.029 5.71 74.545 5.71ZM74.545 11.236C75.145 11.236 75.607 11.08 75.931 10.768C76.255 10.456 76.417 10.018 76.417 9.454C76.417 8.89 76.255 8.452 75.931 8.14C75.607 7.828 75.145 7.672 74.545 7.672C73.945 7.672 73.483 7.828 73.159 8.14C72.835 8.452 72.673 8.89 72.673 9.454C72.673 10.018 72.835 10.456 73.159 10.768C73.483 11.08 73.945 11.236 74.545 11.236ZM84.529 13.216C83.209 13.216 82.153 12.856 81.361 12.136C80.581 11.404 80.191 10.414 80.191 9.166H82.729C82.729 9.802 82.885 10.3 83.197 10.66C83.521 11.02 83.965 11.2 84.529 11.2C85.081 11.2 85.513 11.014 85.825 10.642C86.149 10.258 86.311 9.7 86.311 8.968C86.311 8.296 86.149 7.786 85.825 7.438C85.501 7.09 85.075 6.916 84.547 6.916C84.187 6.916 83.881 6.994 83.629 7.15C83.377 7.306 83.149 7.516 82.945 7.78L80.605 7.492L81.091 0.651999H88.237V2.848H83.269L83.107 5.584C83.395 5.404 83.707 5.26 84.043 5.152C84.379 5.032 84.787 4.972 85.267 4.972C86.323 4.972 87.181 5.314 87.841 5.998C88.513 6.67 88.849 7.66 88.849 8.968C88.849 10.312 88.465 11.356 87.697 12.1C86.929 12.844 85.873 13.216 84.529 13.216ZM94.5849 13.216C93.1689 13.216 92.0769 12.886 91.3089 12.226C90.5409 11.554 90.1569 10.648 90.1569 9.508V9.184H92.6589V9.562C92.6589 10.09 92.8209 10.498 93.1449 10.786C93.4689 11.062 93.9369 11.2 94.5489 11.2C95.1009 11.2 95.5389 11.062 95.8629 10.786C96.1869 10.498 96.3489 10.072 96.3489 9.508C96.3489 8.848 96.1689 8.386 95.8089 8.122C95.4489 7.858 94.9689 7.726 94.3689 7.726H93.4509V5.71H94.4229C94.9149 5.71 95.3169 5.566 95.6289 5.278C95.9409 4.978 96.0969 4.546 96.0969 3.982C96.0969 3.466 95.9589 3.082 95.6829 2.83C95.4189 2.578 95.0409 2.452 94.5489 2.452C94.0329 2.452 93.6309 2.584 93.3429 2.848C93.0549 3.1 92.9109 3.478 92.9109 3.982V4.324H90.4089V3.82C90.4089 3.148 90.5829 2.56 90.9309 2.056C91.2789 1.54 91.7589 1.144 92.3709 0.868C92.9949 0.58 93.7029 0.436 94.4949 0.436C95.7549 0.436 96.7569 0.73 97.5009 1.318C98.2569 1.906 98.6349 2.74 98.6349 3.82C98.6349 4.504 98.4609 5.068 98.1129 5.512C97.7769 5.944 97.3029 6.304 96.6909 6.592V6.664C97.3629 6.868 97.8969 7.228 98.2929 7.744C98.6889 8.26 98.8869 8.908 98.8869 9.688C98.8869 10.408 98.7009 11.038 98.3289 11.578C97.9689 12.106 97.4649 12.514 96.8169 12.802C96.1689 13.078 95.4249 13.216 94.5849 13.216ZM100.375 7.078H104.713V9.202H100.375V7.078ZM110.347 13.216C109.051 13.216 108.079 12.862 107.431 12.154C106.795 11.446 106.477 10.51 106.477 9.346H108.979C108.979 9.958 109.093 10.426 109.321 10.75C109.549 11.062 109.921 11.218 110.437 11.218C110.953 11.218 111.337 11.08 111.589 10.804C111.853 10.516 112.027 10.12 112.111 9.616C112.195 9.112 112.243 8.434 112.255 7.582C111.967 7.858 111.601 8.092 111.157 8.284C110.725 8.464 110.251 8.554 109.735 8.554C108.511 8.554 107.593 8.188 106.981 7.456C106.381 6.724 106.081 5.74 106.081 4.504C106.081 3.688 106.261 2.974 106.621 2.362C106.981 1.738 107.473 1.264 108.097 0.94C108.733 0.604 109.447 0.436 110.239 0.436C111.739 0.436 112.873 0.898 113.641 1.822C114.409 2.734 114.793 4.282 114.793 6.466C114.793 8.134 114.619 9.466 114.271 10.462C113.923 11.458 113.425 12.166 112.777 12.586C112.129 13.006 111.319 13.216 110.347 13.216ZM110.347 6.592C110.923 6.592 111.361 6.406 111.661 6.034C111.961 5.662 112.111 5.152 112.111 4.504C112.111 3.892 111.961 3.4 111.661 3.028C111.361 2.644 110.923 2.452 110.347 2.452C109.771 2.452 109.339 2.644 109.051 3.028C108.763 3.4 108.619 3.892 108.619 4.504C108.619 5.152 108.763 5.662 109.051 6.034C109.339 6.406 109.771 6.592 110.347 6.592ZM120.547 13.216C119.611 13.216 118.831 13.03 118.207 12.658C117.595 12.274 117.121 11.614 116.785 10.678C116.461 9.742 116.299 8.458 116.299 6.826C116.299 5.194 116.461 3.91 116.785 2.974C117.121 2.038 117.595 1.384 118.207 1.012C118.831 0.628 119.611 0.436 120.547 0.436C121.483 0.436 122.257 0.628 122.869 1.012C123.493 1.396 123.967 2.056 124.291 2.992C124.627 3.916 124.795 5.194 124.795 6.826C124.795 8.458 124.627 9.742 124.291 10.678C123.967 11.602 123.493 12.256 122.869 12.64C122.257 13.024 121.483 13.216 120.547 13.216ZM120.547 11.2C121.015 11.2 121.369 11.074 121.609 10.822C121.861 10.558 122.029 10.162 122.113 9.634C122.209 9.106 122.257 8.38 122.257 7.456V6.196C122.257 5.272 122.209 4.546 122.113 4.018C122.029 3.49 121.861 3.1 121.609 2.848C121.369 2.584 121.015 2.452 120.547 2.452C120.079 2.452 119.719 2.584 119.467 2.848C119.227 3.1 119.059 3.49 118.963 4.018C118.879 4.546 118.837 5.272 118.837 6.196V7.456C118.837 8.38 118.879 9.106 118.963 9.634C119.059 10.162 119.227 10.558 119.467 10.822C119.719 11.074 120.079 11.2 120.547 11.2ZM126.373 7.078H130.711V9.202H126.373V7.078ZM132.313 12.352C132.313 11.668 132.463 11.056 132.763 10.516C133.063 9.964 133.429 9.484 133.861 9.076C134.305 8.668 134.881 8.206 135.589 7.69C136.201 7.222 136.681 6.832 137.029 6.52C137.389 6.208 137.689 5.866 137.929 5.494C138.229 5.026 138.379 4.498 138.379 3.91C138.379 3.526 138.235 3.19 137.947 2.902C137.671 2.602 137.269 2.452 136.741 2.452C135.553 2.452 134.959 3.022 134.959 4.162V4.9H132.511C132.463 4.684 132.439 4.444 132.439 4.18C132.439 2.932 132.853 1.996 133.681 1.372C134.521 0.748 135.577 0.436 136.849 0.436C137.965 0.436 138.823 0.651999 139.423 1.084C140.023 1.516 140.413 2.002 140.593 2.542C140.785 3.082 140.881 3.586 140.881 4.054C140.881 4.882 140.695 5.62 140.323 6.268C139.951 6.904 139.507 7.444 138.991 7.888C138.487 8.32 137.857 8.794 137.101 9.31C136.525 9.706 136.093 10.03 135.805 10.282C135.601 10.462 135.451 10.636 135.355 10.804H140.953V13H132.313V12.352ZM146.527 13.216C145.207 13.216 144.151 12.856 143.359 12.136C142.579 11.404 142.189 10.414 142.189 9.166H144.727C144.727 9.802 144.883 10.3 145.195 10.66C145.519 11.02 145.963 11.2 146.527 11.2C147.079 11.2 147.511 11.014 147.823 10.642C148.147 10.258 148.309 9.7 148.309 8.968C148.309 8.296 148.147 7.786 147.823 7.438C147.499 7.09 147.073 6.916 146.545 6.916C146.185 6.916 145.879 6.994 145.627 7.15C145.375 7.306 145.147 7.516 144.943 7.78L142.603 7.492L143.089 0.651999H150.235V2.848H145.267L145.105 5.584C145.393 5.404 145.705 5.26 146.041 5.152C146.377 5.032 146.785 4.972 147.265 4.972C148.321 4.972 149.179 5.314 149.839 5.998C150.511 6.67 150.847 7.66 150.847 8.968C150.847 10.312 150.463 11.356 149.695 12.1C148.927 12.844 147.871 13.216 146.527 13.216Z" fill="#323232"/>
</svg>
