<svg width="173" height="50" viewBox="0 0 173 50" fill="none" xmlns="http://www.w3.org/2000/svg">
<path d="M24.7845 50C38.4726 50 49.569 38.8071 49.569 25C49.569 11.1929 38.4726 0 24.7845 0C11.0964 0 0 11.1929 0 25C0 38.8071 11.0964 50 24.7845 50Z" fill="#3964F9"/>
<path d="M37.8971 35.7565C37.8908 36.2025 37.7524 36.6366 37.4992 37.0039C37.2461 37.3712 36.8896 37.6551 36.475 37.8198C36.0604 37.9844 35.6062 38.0223 35.17 37.9288C34.7338 37.8352 34.3352 37.6143 34.0246 37.2942C33.714 36.9739 33.5054 36.5688 33.4252 36.1301C33.345 35.6913 33.3969 35.2386 33.5741 34.8293C33.7514 34.42 34.0462 34.0724 34.4211 33.8307C34.796 33.5889 35.2342 33.4638 35.6803 33.4712C35.976 33.4753 36.2681 33.5377 36.5397 33.6548C36.8113 33.772 37.0571 33.9416 37.2631 34.1539C37.469 34.3661 37.631 34.617 37.7398 34.892C37.8486 35.167 37.9021 35.4608 37.8971 35.7565ZM25.2412 14.6379C23.7306 14.6365 22.2367 14.9544 20.8576 15.5708V20.9491C21.4415 20.3622 22.138 19.8995 22.9053 19.5885C23.6726 19.2776 24.4948 19.1249 25.3226 19.1396C26.9453 19.1818 28.4883 19.8523 29.6262 21.0098C30.764 22.1673 31.4079 23.7214 31.422 25.3444C31.4095 26.985 30.7457 28.5535 29.5766 29.7047C28.4075 30.856 26.8289 31.4958 25.188 31.4833C23.5471 31.4709 21.9783 30.8072 20.8268 29.6383C19.6753 28.4694 19.0354 26.891 19.0479 25.2504V16.8857C19.0462 16.2889 18.808 15.7173 18.3853 15.2959C17.9627 14.8745 17.3903 14.6379 16.7935 14.6379C16.1972 14.6379 15.6254 14.8748 15.2038 15.2963C14.7822 15.7178 14.5453 16.2895 14.5453 16.8857V25.2317C14.5267 27.3491 15.1377 29.4244 16.3006 31.1941C17.4635 32.9639 19.1261 34.3483 21.0772 35.1719C23.0284 35.9954 25.1803 36.2208 27.2599 35.8196C29.3394 35.4184 31.2529 34.4086 32.7575 32.9184C34.2621 31.4281 35.2901 29.5245 35.7109 27.4492C36.1318 25.3739 35.9265 23.2204 35.1212 21.2619C34.316 19.3034 32.947 17.6282 31.1879 16.4489C29.4289 15.2696 27.3591 14.6392 25.2412 14.6379Z" fill="white"/>
<path d="M31.0345 16.3481C29.3091 15.2337 27.2977 14.6392 25.241 14.6379C23.7303 14.6365 22.2365 14.9544 20.8574 15.5708V20.9491C21.4413 20.3622 22.1378 19.8995 22.9051 19.5885C23.6723 19.2776 24.4946 19.1249 25.3223 19.1396C26.9451 19.1818 28.4881 19.8523 29.626 21.0098C30.2532 21.6478 30.7302 22.4063 31.0345 23.2304V16.3481Z" fill="url(#paint0_linear)"/>
<path d="M70.5645 35.5791V14.1162C70.5645 13.1768 70.2995 12.4541 69.7695 11.9482C69.2396 11.4665 68.5771 11.2256 67.7822 11.2256C66.9873 11.2256 66.3249 11.4665 65.7949 11.9482C65.265 12.4541 65 13.1768 65 14.1162V35.5791C65 36.5186 65.265 37.2292 65.7949 37.7109C66.3249 38.2168 66.9873 38.4697 67.7822 38.4697C68.5771 38.4697 69.2396 38.2168 69.7695 37.7109C70.2995 37.2292 70.5645 36.5186 70.5645 35.5791Z" fill="#323232"/>
<path d="M92.5332 24.8477C92.5332 25.6908 92.473 26.5098 92.3525 27.3047C92.208 28.0996 91.9792 28.8584 91.666 29.5811L89.8232 28.1357C89.4378 27.7985 88.9801 27.6299 88.4502 27.6299C87.6794 27.6299 87.0651 27.8949 86.6074 28.4248C86.1497 28.9548 85.9209 29.5811 85.9209 30.3037C85.9209 30.5687 85.9932 30.8337 86.1377 31.0986C86.2581 31.3636 86.4147 31.5924 86.6074 31.7852L87.9443 33.0859C87.583 33.1582 87.2096 33.2184 86.8242 33.2666C86.4147 33.3148 86.0052 33.3389 85.5957 33.3389C84.4154 33.3389 83.3916 33.11 82.5244 32.6523C81.6572 32.1706 80.9346 31.5443 80.3564 30.7734C79.7783 30.0026 79.3447 29.0993 79.0557 28.0635C78.7666 27.0518 78.6221 25.9798 78.6221 24.8477C78.6221 23.7396 78.7786 22.6676 79.0918 21.6318C79.3809 20.596 79.8145 19.6807 80.3926 18.8857C80.9707 18.1149 81.6934 17.5007 82.5605 17.043C83.4277 16.5612 84.4395 16.3203 85.5957 16.3203C86.7279 16.3203 87.7275 16.5612 88.5947 17.043C89.486 17.5007 90.2207 18.127 90.7988 18.9219C91.377 19.7168 91.8105 20.6201 92.0996 21.6318C92.3887 22.6676 92.5332 23.7396 92.5332 24.8477ZM99.2178 37.458C99.2178 36.9281 99.0973 36.4945 98.8564 36.1572C98.5915 35.8441 98.2904 35.5189 97.9531 35.1816L95.8213 33.375C97.4834 30.9902 98.3145 28.1478 98.3145 24.8477C98.3145 22.9688 98.0013 21.1982 97.375 19.5361C96.7487 17.8981 95.8695 16.4528 94.7373 15.2002C93.6051 13.9717 92.2562 12.9961 90.6904 12.2734C89.1247 11.5749 87.4264 11.2256 85.5957 11.2256C83.6927 11.2256 81.9583 11.5628 80.3926 12.2373C78.8509 12.9359 77.514 13.8994 76.3818 15.1279C75.2738 16.3564 74.4066 17.8018 73.7803 19.4639C73.1781 21.126 72.877 22.9206 72.877 24.8477C72.877 26.7747 73.1781 28.5573 73.7803 30.1953C74.4066 31.8574 75.2738 33.3027 76.3818 34.5312C77.514 35.7357 78.8509 36.6992 80.3926 37.4219C81.9583 38.1204 83.6927 38.4697 85.5957 38.4697C86.8483 38.4697 88.0166 38.3252 89.1006 38.0361C90.1846 37.7471 91.1842 37.3496 92.0996 36.8438L94.1953 38.6143C94.7012 39.0238 95.1348 39.3249 95.4961 39.5176C95.8574 39.6862 96.2549 39.7705 96.6885 39.7705C97.3148 39.7705 97.8929 39.5417 98.4229 39.084C98.9528 38.6263 99.2178 38.0843 99.2178 37.458Z" fill="#323232"/>
<path d="M126.751 24.9561C126.751 26.0641 126.606 27.0999 126.317 28.0635C126.052 29.027 125.631 29.8701 125.053 30.5928C124.475 31.3154 123.752 31.8815 122.885 32.291C121.993 32.7005 120.958 32.9053 119.777 32.9053H116.056V16.79H119.416C120.693 16.79 121.801 16.9948 122.74 17.4043C123.656 17.8138 124.414 18.3799 125.017 19.1025C125.595 19.8252 126.028 20.6803 126.317 21.668C126.606 22.6797 126.751 23.7757 126.751 24.9561ZM132.496 25.209C132.496 23.1615 132.207 21.3066 131.629 19.6445C131.051 17.9824 130.208 16.5612 129.1 15.3809C127.992 14.1764 126.631 13.2611 125.017 12.6348C123.403 11.9844 121.56 11.6592 119.488 11.6592H113.346C112.503 11.6592 111.816 11.9242 111.286 12.4541C110.756 12.96 110.491 13.6465 110.491 14.5137V35.2178C110.491 35.7477 110.588 36.1934 110.78 36.5547C110.973 36.916 111.214 37.2051 111.503 37.4219C111.792 37.6387 112.105 37.7952 112.442 37.8916C112.804 37.9639 113.129 38 113.418 38H119.85C121.753 38 123.475 37.6989 125.017 37.0967C126.582 36.4945 127.919 35.6393 129.027 34.5312C130.135 33.4232 130.991 32.0742 131.593 30.4844C132.195 28.9186 132.496 27.1602 132.496 25.209Z" fill="#323232"/>
<path d="M147.672 26.4014H139.217C139.337 25.2692 139.771 24.3057 140.518 23.5107C141.264 22.7158 142.228 22.3184 143.408 22.3184C144.685 22.3184 145.673 22.7038 146.371 23.4746C147.094 24.2454 147.527 25.221 147.672 26.4014ZM153.02 27.5938C153.02 26.4857 152.791 25.3535 152.333 24.1973C151.875 23.041 151.225 21.9932 150.382 21.0537C149.539 20.1143 148.527 19.3555 147.347 18.7773C146.166 18.1751 144.854 17.874 143.408 17.874C142.011 17.874 140.722 18.1631 139.542 18.7412C138.386 19.2952 137.386 20.054 136.543 21.0176C135.7 21.957 135.049 23.0531 134.592 24.3057C134.11 25.5583 133.869 26.859 133.869 28.208C133.869 29.6774 134.11 31.0384 134.592 32.291C135.074 33.5436 135.76 34.6276 136.651 35.543C137.519 36.4583 138.566 37.1689 139.795 37.6748C140.999 38.2048 142.36 38.4697 143.878 38.4697C144.866 38.4697 145.877 38.3372 146.913 38.0723C147.949 37.8073 148.876 37.4701 149.695 37.0605C150.538 36.627 151.225 36.1452 151.755 35.6152C152.285 35.0612 152.55 34.5072 152.55 33.9531C152.55 33.375 152.333 32.8451 151.899 32.3633C151.442 31.8815 150.936 31.6406 150.382 31.6406C150.045 31.6406 149.659 31.7611 149.226 32.002C148.816 32.2188 148.358 32.4596 147.853 32.7246C147.371 32.9896 146.841 33.2425 146.263 33.4834C145.685 33.7002 145.046 33.8086 144.348 33.8086C143.095 33.8086 141.987 33.4954 141.023 32.8691C140.084 32.2669 139.518 31.2913 139.325 29.9424H150.671C151.49 29.9424 152.08 29.7497 152.441 29.3643C152.827 28.9548 153.02 28.3646 153.02 27.5938Z" fill="#323232"/>
<path d="M170.688 20.4756C170.688 19.6084 170.411 18.958 169.857 18.5244C169.279 18.0908 168.641 17.874 167.942 17.874C167.196 17.874 166.642 18.0908 166.28 18.5244C165.919 18.9339 165.678 19.3434 165.558 19.7529L162.089 30.5205H162.017L158.548 19.7529C158.403 19.3434 158.162 18.9339 157.825 18.5244C157.464 18.0908 156.91 17.874 156.163 17.874C155.44 17.874 154.802 18.0908 154.248 18.5244C153.67 18.958 153.381 19.6084 153.381 20.4756C153.381 20.7165 153.405 20.9453 153.453 21.1621C153.501 21.403 153.586 21.6921 153.706 22.0293L159.162 36.2295C159.307 36.5908 159.451 36.904 159.596 37.1689C159.74 37.4339 159.921 37.6628 160.138 37.8555C160.354 38.0723 160.619 38.2288 160.933 38.3252C161.222 38.4215 161.595 38.4697 162.053 38.4697C162.486 38.4697 162.86 38.4215 163.173 38.3252C163.486 38.2288 163.751 38.0723 163.968 37.8555C164.16 37.6628 164.329 37.4339 164.474 37.1689C164.642 36.904 164.799 36.5908 164.943 36.2295L170.363 22.0293C170.484 21.6921 170.568 21.403 170.616 21.1621C170.664 20.9453 170.688 20.7165 170.688 20.4756Z" fill="#323232"/>
<defs>
<linearGradient id="paint0_linear" x1="21" y1="18.5" x2="31" y2="18.5" gradientUnits="userSpaceOnUse">
<stop stop-color="#3964F9"/>
<stop offset="1" stop-color="#3964F9" stop-opacity="0"/>
</linearGradient>
</defs>
</svg>
