<svg width="200" height="50" viewBox="0 0 200 50" fill="none" xmlns="http://www.w3.org/2000/svg">
<path d="M24.7845 50C38.4726 50 49.569 38.8071 49.569 25C49.569 11.1929 38.4726 0 24.7845 0C11.0964 0 0 11.1929 0 25C0 38.8071 11.0964 50 24.7845 50Z" fill="#3964F9"/>
<path d="M37.8969 35.7565C37.8906 36.2025 37.7521 36.6366 37.499 37.0039C37.2458 37.3711 36.8894 37.6551 36.4747 37.8197C36.0601 37.9843 35.606 38.0223 35.1698 37.9287C34.7336 37.8352 34.335 37.6143 34.0244 37.2941C33.7138 36.9739 33.5052 36.5688 33.425 36.13C33.3448 35.6912 33.3966 35.2386 33.5739 34.8293C33.7512 34.4199 34.0459 34.0724 34.4208 33.8306C34.7957 33.5889 35.234 33.4638 35.68 33.4712C35.9758 33.4753 36.2679 33.5377 36.5394 33.6548C36.8111 33.772 37.0569 33.9415 37.2628 34.1538C37.4688 34.3661 37.6308 34.617 37.7396 34.892C37.8484 35.167 37.9018 35.4608 37.8969 35.7565ZM25.241 14.6379C23.7303 14.6364 22.2365 14.9543 20.8574 15.5708V20.9491C21.4413 20.3622 22.1378 19.8994 22.9051 19.5885C23.6723 19.2775 24.4946 19.1249 25.3223 19.1396C26.9451 19.1818 28.4881 19.8523 29.626 21.0098C30.7638 22.1673 31.4077 23.7214 31.4217 25.3443C31.4093 26.9849 30.7455 28.5534 29.5764 29.7047C28.4072 30.856 26.8286 31.4958 25.1877 31.4833C23.5468 31.4708 21.978 30.8072 20.8266 29.6383C19.675 28.4694 19.0352 26.891 19.0476 25.2504V16.8856C19.046 16.2889 18.8077 15.7172 18.3851 15.2958C17.9625 14.8745 17.39 14.6379 16.7932 14.6379C16.197 14.6379 15.6252 14.8747 15.2035 15.2962C14.7819 15.7178 14.5451 16.2895 14.5451 16.8856V25.2316C14.5265 27.3491 15.1374 29.4243 16.3004 31.1941C17.4633 32.9638 19.1258 34.3483 21.077 35.1718C23.0282 35.9953 25.1801 36.2208 27.2596 35.8196C29.3392 35.4184 31.2526 34.4086 32.7573 32.9183C34.2619 31.4281 35.2898 29.5245 35.7107 27.4492C36.1315 25.3739 35.9263 23.2204 35.121 21.2619C34.3157 19.3034 32.9467 17.6282 31.1877 16.4489C29.4286 15.2696 27.3588 14.6392 25.241 14.6379Z" fill="white"/>
<path d="M31.0345 16.348C29.3091 15.2336 27.2977 14.6392 25.241 14.6379C23.7303 14.6364 22.2365 14.9543 20.8574 15.5708V20.9491C21.4413 20.3622 22.1378 19.8994 22.9051 19.5885C23.6723 19.2775 24.4946 19.1249 25.3223 19.1396C26.9451 19.1818 28.4881 19.8523 29.626 21.0098C30.2532 21.6478 30.7302 22.4063 31.0345 23.2304V16.348Z" fill="url(#paint0_linear)"/>
<path d="M199.138 25.5795V34.596C199.13 35.3608 198.821 36.0915 198.279 36.6294C197.737 37.1672 197.005 37.4689 196.242 37.4689C195.479 37.4689 194.747 37.1672 194.205 36.6294C193.663 36.0915 193.354 35.3608 193.346 34.596V26.4314C193.346 24.0312 191.84 22.9119 189.985 22.9119C187.859 22.9119 186.395 24.1556 186.395 26.8978V34.596C186.395 34.9774 186.32 35.355 186.175 35.7073C186.029 36.0597 185.816 36.3797 185.547 36.6494C185.278 36.9191 184.959 37.133 184.607 37.2789C184.256 37.4248 183.88 37.5 183.499 37.5C182.731 37.5 181.995 37.194 181.452 36.6494C180.909 36.1048 180.603 35.3662 180.603 34.596V13.2674C180.601 12.8844 180.674 12.5048 180.819 12.1503C180.963 11.7959 181.176 11.4735 181.445 11.2019C181.714 10.9303 182.034 10.7147 182.387 10.5676C182.739 10.4205 183.118 10.3448 183.499 10.3448C184.267 10.3448 185.004 10.6507 185.547 11.1953C186.09 11.7399 186.395 12.4785 186.395 13.2487V19.9272C187.437 18.4969 189.366 17.5704 191.914 17.5704C195.814 17.5704 199.138 20.3562 199.138 25.5795Z" fill="#323232"/>
<path d="M177.586 31.4998C177.586 36.0049 173.709 37.9239 169.526 37.9239C167.528 37.9992 165.554 37.4713 163.855 36.4076C163.463 36.1384 163.144 35.7722 162.93 35.3438C162.716 34.9153 162.614 34.4387 162.633 33.9592C162.653 33.4797 162.793 33.013 163.04 32.6036C163.288 32.1941 163.635 31.8554 164.048 31.6194C164.529 31.3296 165.087 31.1982 165.644 31.2433C166.202 31.2884 166.732 31.5078 167.16 31.8711C167.816 32.4295 168.656 32.7171 169.513 32.6764C170.907 32.6764 171.605 32.2423 171.605 31.4621C171.605 29.3039 162.069 30.4428 162.069 23.6663C162.069 19.394 165.635 17.2422 169.669 17.2422C171.229 17.2212 172.768 17.6069 174.138 18.3621C174.557 18.6056 174.904 18.9581 175.143 19.383C175.382 19.808 175.504 20.2898 175.496 20.7785C175.489 21.2672 175.352 21.7449 175.1 22.162C174.848 22.5791 174.49 22.9204 174.063 23.1504C173.617 23.3811 173.116 23.4793 172.616 23.4336C172.118 23.388 171.641 23.2003 171.244 22.8924C170.784 22.5629 170.232 22.3929 169.669 22.4079C168.66 22.4079 168.038 22.8043 168.038 23.509C168.05 25.7427 177.586 24.2514 177.586 31.4998Z" fill="#323232"/>
<path d="M156.297 17.2414C154.654 17.2414 153.112 18.1918 153.112 19.3626V19.6269C151.838 18.1414 149.997 17.2414 147.341 17.2414C142.142 17.2414 137.931 21.7481 137.931 27.583C137.931 33.418 142.11 37.931 147.302 37.931C149.959 37.931 151.838 37.0309 153.112 35.5392V35.8035C153.112 36.9805 154.654 37.931 156.297 37.931C157.941 37.931 159.483 36.9805 159.483 35.8035V19.3689C159.483 18.1918 157.935 17.2414 156.297 17.2414ZM148.653 32.3479C145.913 32.3479 143.932 30.5036 143.932 27.5642C143.932 24.6247 145.913 22.7867 148.653 22.7867C151.392 22.7867 153.373 24.6247 153.373 27.5642C153.373 30.5036 151.405 32.3668 148.691 32.3668L148.653 32.3479Z" fill="#323232"/>
<path d="M132.759 9.0517C133.559 9.0517 134.326 9.35933 134.892 9.90691C135.458 10.4545 135.776 11.1972 135.776 11.9716V34.5801C135.776 34.9636 135.698 35.3432 135.546 35.6975C135.394 36.0517 135.172 36.3736 134.892 36.6448C134.612 36.9159 134.279 37.131 133.913 37.2777C133.547 37.4245 133.155 37.5 132.759 37.5C132.363 37.5 131.97 37.4245 131.604 37.2777C131.238 37.131 130.905 36.9159 130.625 36.6448C130.345 36.3736 130.123 36.0517 129.971 35.6975C129.819 35.3432 129.741 34.9636 129.741 34.5801V11.9716C129.741 11.1972 130.059 10.4545 130.625 9.90691C131.191 9.35933 131.958 9.0517 132.759 9.0517Z" fill="#323232"/>
<path d="M103.017 23.6942C103.017 15.6515 108.961 9.48303 117.15 9.48303C120.381 9.46157 123.519 10.5696 126.025 12.6174C126.405 12.9311 126.703 13.3319 126.895 13.786C127.088 14.2401 127.168 14.734 127.13 15.226C127.092 15.7179 126.937 16.1935 126.677 16.6124C126.418 17.0313 126.062 17.3811 125.639 17.6324C125.083 17.9501 124.443 18.0859 123.806 18.0207C123.171 17.9555 122.571 17.6927 122.09 17.2688C120.701 16.1204 118.948 15.5129 117.15 15.5574C112.335 15.5574 109.229 18.7921 109.229 23.7068C109.229 28.6214 112.348 31.8561 117.15 31.8561C118.948 31.8967 120.702 31.2921 122.096 30.151C122.577 29.7248 123.178 29.4599 123.815 29.3936C124.452 29.3273 125.094 29.4628 125.651 29.7812C126.075 30.0319 126.431 30.3813 126.691 30.7999C126.951 31.2185 127.107 31.6939 127.146 32.1859C127.184 32.6779 127.104 33.172 126.913 33.6264C126.721 34.0807 126.423 34.482 126.044 34.7961C123.533 36.8495 120.388 37.9579 117.15 37.9305C108.961 37.8992 103.017 31.7307 103.017 23.6942Z" fill="#323232"/>
<path d="M101.784 35.2914L97.8143 31.2911C99.2276 29.0067 99.9716 26.362 99.9596 23.6653C99.9596 20.8603 99.1393 18.1182 97.6022 15.7859C96.0651 13.4536 93.8802 11.6358 91.3242 10.5623C88.7682 9.48888 85.9557 9.20802 83.2423 9.75522C80.5285 10.3025 78.0363 11.6532 76.0798 13.6367C74.1238 15.6202 72.7914 18.1473 72.2518 20.8985C71.7117 23.6496 71.9889 26.5013 73.0475 29.0928C74.1065 31.6843 75.8992 33.8993 78.1996 35.4577C80.5001 37.0161 83.2044 37.8479 85.9712 37.8479C88.6311 37.8563 91.2393 37.1 93.4923 35.6665L97.469 39.6981C97.7337 40.0563 98.0716 40.3526 98.4595 40.5669C98.847 40.7813 99.2759 40.9086 99.7164 40.9404C100.157 40.9721 100.599 40.9075 101.013 40.751C101.426 40.5944 101.802 40.3495 102.114 40.0328C102.427 39.7163 102.668 39.3353 102.823 38.9158C102.977 38.4963 103.041 38.048 103.01 37.6014C102.978 37.1547 102.853 36.7201 102.641 36.327C102.43 35.9338 102.138 35.5913 101.784 35.3227V35.2914ZM78.1294 23.6341C78.1294 18.7649 81.588 15.5083 85.9712 15.5083C90.3544 15.5083 93.807 18.7461 93.807 23.6341C93.807 28.522 90.3483 31.7599 85.9712 31.7599C81.594 31.7599 78.1294 28.5033 78.1294 23.6341Z" fill="#323232"/>
<path d="M68.9655 13.0236V33.9591C68.9655 34.7839 68.625 35.5749 68.0185 36.1581C67.4125 36.7413 66.5901 37.0689 65.7328 37.0689C64.8754 37.0689 64.053 36.7413 63.447 36.1581C62.8405 35.5749 62.5 34.7839 62.5 33.9591V13.0236C62.5 12.1988 62.8405 11.4078 63.447 10.8246C64.053 10.2414 64.8754 9.91376 65.7328 9.91376C66.5901 9.91376 67.4125 10.2414 68.0185 10.8246C68.625 11.4078 68.9655 12.1988 68.9655 13.0236Z" fill="#323232"/>
<defs>
<linearGradient id="paint0_linear" x1="21" y1="18.5" x2="31" y2="18.5" gradientUnits="userSpaceOnUse">
<stop stop-color="#3964F9"/>
<stop offset="1" stop-color="#3964F9" stop-opacity="0"/>
</linearGradient>
</defs>
</svg>
