<svg width="182" height="50" viewBox="0 0 182 50" fill="none" xmlns="http://www.w3.org/2000/svg">
<path d="M76.9675 9.00146V36.1386H71.54V9.00146H76.9675Z" fill="black"/>
<path d="M98.8222 25.4909V20.5813C98.8222 18.4269 98.2905 16.68 97.2271 15.3404C96.1637 14.0008 94.7136 13.331 92.8769 13.331C91.0401 13.331 89.6038 13.9939 88.5681 15.3196C87.5461 16.6454 87.0351 18.3993 87.0351 20.5813V25.4909C87.0351 27.6867 87.553 29.4544 88.5888 30.794C89.6245 32.1198 91.0608 32.7827 92.8976 32.7827C94.7343 32.7827 96.1775 32.1198 97.2271 30.794C98.2905 29.4544 98.8222 27.6867 98.8222 25.4909ZM104.25 20.6021V25.4909C104.25 28.7915 103.221 31.526 101.163 33.6942L105.658 38.1065L102.095 41.0067L97.2064 36.2629C95.8806 36.76 94.4374 37.0086 92.8769 37.0086C90.6672 37.0086 88.7062 36.5184 86.9937 35.5378C85.2812 34.5435 83.9554 33.1763 83.0163 31.4362C82.0772 29.6823 81.6077 27.7005 81.6077 25.4909V20.6021C81.6077 17.2462 82.6504 14.491 84.7357 12.3366C86.8211 10.1684 89.5348 9.08433 92.8769 9.08433C96.2327 9.08433 98.9672 10.1684 101.08 12.3366C103.193 14.491 104.25 17.2462 104.25 20.6021Z" fill="black"/>
<path d="M128.963 13.186H125.359V31.9541H128.963C130.896 31.9541 132.416 31.305 133.52 30.0068C134.639 28.7087 135.198 26.9824 135.198 24.828V20.2913C135.198 18.1507 134.639 16.4314 133.52 15.1332C132.416 13.835 130.896 13.186 128.963 13.186ZM129.232 36.1386H119.91V9.00146H129.232C132.588 9.00146 135.33 10.0579 137.456 12.1709C139.597 14.2701 140.667 16.9907 140.667 20.3328V24.828C140.667 28.1701 139.597 30.8907 137.456 32.9898C135.33 35.089 132.588 36.1386 129.232 36.1386Z" fill="black"/>
<path d="M156.204 23.6472C156.204 22.4595 155.927 21.5343 155.375 20.8714C154.836 20.1947 154.049 19.8563 153.014 19.8563C151.978 19.8563 151.163 20.2292 150.569 20.9749C149.975 21.7207 149.609 22.7426 149.471 24.0408L149.533 24.1444H156.204V23.6472ZM153.449 36.5943C150.548 36.5943 148.221 35.6759 146.467 33.8392C144.727 32.0024 143.857 29.6201 143.857 26.6924V25.9466C143.857 23.9441 144.223 22.1626 144.955 20.6021C145.701 19.0415 146.764 17.8262 148.145 16.9562C149.54 16.0723 151.149 15.6304 152.972 15.6304C155.679 15.6304 157.785 16.4452 159.29 18.0748C160.796 19.6906 161.548 21.914 161.548 24.7451V27.7074H149.513L149.471 27.8317C149.568 29.1989 150.017 30.3038 150.818 31.1462C151.619 31.9748 152.641 32.3891 153.884 32.3891C155.126 32.3891 156.142 32.2786 156.929 32.0577C157.716 31.8229 158.614 31.4293 159.622 30.8769L161.093 34.2328V34.2535C160.222 34.9716 159.125 35.5447 157.799 35.9729C156.487 36.3872 155.037 36.5943 153.449 36.5943Z" fill="black"/>
<path d="M168.364 15.9618L171.761 28.6189L172.113 30.4833H172.217L172.59 28.6189L175.904 15.9618H181.601L174.744 36.1386H169.544L162.667 15.9618H168.364Z" fill="black"/>
<path d="M46.0611 16.2236C45.9795 17.8871 44.9031 19.8442 43.2967 21.4018C41.0868 23.5383 37.882 24.9164 34.9137 23.6769L33.5601 22.8941L30.3553 21.043C30.3472 21.043 30.3471 21.0348 30.3308 21.0348L23.2119 16.9167L18.9796 14.4785C17.1204 13.2961 15.1551 12.5051 13.2306 12.0729C12.0074 11.7956 10.8005 11.6815 9.64259 11.7059C7.56317 11.7386 5.66314 12.2686 4.19531 13.2635L16.2804 4.48911L19.7869 1.94487C23.3586 -0.648292 28.178 -0.648292 31.7579 1.94487L37.3764 6.03034L43.7941 10.6866C44.2181 11.184 44.5933 11.7059 44.9031 12.2441C45.2701 12.8557 45.5392 13.5163 45.7349 14.2013C45.9061 14.8292 46.0937 15.5712 46.0611 16.2236Z" fill="#3964F9"/>
<path d="M29.1648 50H16.1337C11.7303 50 7.81604 47.154 6.45422 42.9707L5.82631 41.0381L0.501352 24.6473C0.118086 23.4649 -0.0450064 22.2499 0.0120759 21.0593C0.0120759 21.0511 0.0120759 21.0511 0.0202305 21.0348C0.150704 18.0176 1.62669 15.1227 4.19539 13.2635C4.61128 12.9781 5.07609 12.7334 5.54906 12.5214C6.45422 12.1381 7.40015 11.918 8.3624 11.8772C10.0015 11.763 11.6813 12.1055 13.1818 12.8476C16.0277 14.2339 18.9634 16.7537 18.9634 19.9095C18.9634 19.9421 18.9715 19.9584 18.9715 19.9829V38.4612C18.9715 40.8587 19.5179 43.2806 20.7411 45.3193C21.3445 46.3467 22.1192 47.2764 23.0896 48.0511C23.1222 48.0755 23.1467 48.1 23.2038 48.1408C23.2283 48.1652 23.2609 48.1897 23.2853 48.1978C23.8643 48.6219 24.5004 48.9807 25.2017 49.2742C25.4218 49.3558 25.6502 49.4455 25.8948 49.5189C26.1394 49.6004 26.3922 49.6657 26.645 49.7309C26.8571 49.7798 27.0691 49.8206 27.2892 49.8614C27.3789 49.8695 27.4768 49.894 27.5665 49.894C27.7948 49.9429 28.0313 49.9674 28.2678 49.9755C28.5777 49.9918 28.8631 50 29.1648 50Z" fill="#3964F9"/>
<path d="M51.2642 23.8482C51.2724 23.8563 51.2642 23.8726 51.2642 23.8726C51.2071 24.1254 51.1256 24.3945 51.044 24.6473L45.0912 42.9707C44.7405 44.0227 44.2349 44.9931 43.607 45.8574C41.7233 48.4098 38.7061 50 35.4116 50H29.1652C28.8635 50 28.5781 49.9918 28.2845 49.9674C28.0399 49.9592 27.8115 49.9348 27.5832 49.8858C27.4935 49.8858 27.3957 49.8614 27.306 49.8532C27.0858 49.8206 26.8656 49.7717 26.6617 49.7227C26.4089 49.6657 26.1562 49.5923 25.9115 49.5107C25.6669 49.4373 25.4386 49.3639 25.2184 49.2661C24.5089 48.9807 23.8729 48.6219 23.302 48.1897C23.2776 48.1815 23.245 48.157 23.2205 48.1326C23.2123 48.1244 23.2123 48.1244 23.196 48.1081C22.3969 47.4639 21.8179 46.6321 21.4265 45.6944C20.6192 43.7862 20.5947 41.4703 21.1248 39.5295C21.3205 38.8119 21.6303 38.1432 22.0381 37.5397C22.666 36.6183 23.4978 35.8517 24.4682 35.2891L29.1734 32.5736L39.7417 26.4658C41.0057 25.7971 42.0903 24.9653 42.9873 24.0112C42.9954 24.0031 42.9954 24.0031 42.9954 23.9868C43.183 23.8155 43.3542 23.628 43.501 23.4323C44.4959 22.2498 45.2216 20.9206 45.6375 19.5344C45.7109 19.306 45.7761 19.0695 45.8251 18.8412C45.9066 18.4824 45.9637 18.1399 46.0126 17.7811C46.0779 17.2592 46.0942 16.7373 46.0616 16.2236C46.0616 15.979 46.0371 15.7343 45.9963 15.4978C45.9882 15.3103 45.9474 15.1146 45.9066 14.9352C45.8985 14.8047 45.8577 14.6824 45.8251 14.5519C45.7925 14.4051 45.7598 14.2502 45.6946 14.1034C45.6946 14.0545 45.6864 14.0218 45.662 13.9974C45.6131 13.8017 45.5478 13.6141 45.4663 13.4347C45.3847 13.2145 45.295 13.0107 45.189 12.7987C45.1075 12.6111 45.0178 12.4317 44.9118 12.2523C44.6019 11.7059 44.2268 11.1922 43.8027 10.6948L47.35 13.2716C50.6852 15.6935 52.2101 19.8769 51.2642 23.8482Z" fill="#3964F9"/>
<path d="M46.0119 17.7893C45.963 18.1481 45.9059 18.4906 45.8244 18.8494C45.7755 19.0777 45.7102 19.3142 45.6368 19.5425C45.2209 20.9288 44.4952 22.258 43.5003 23.4404C43.3372 23.6524 43.166 23.8318 42.9784 24.0194C42.0733 24.9653 40.9887 25.7971 39.7329 26.4739L24.4593 35.2972C22.8365 36.235 21.6133 37.7355 21.1159 39.5376C20.3331 42.4081 20.7571 46.0858 23.1383 48.0837C23.1301 48.0755 23.1056 48.0592 23.0893 48.051C20.2107 45.7514 18.9712 42.0574 18.9712 38.4694V19.9829C18.9712 19.9584 18.9631 19.9503 18.9631 19.9095C18.9631 16.7536 16.0274 14.2339 13.1815 12.8476C11.3712 11.9587 9.29988 11.6407 7.34277 11.9914C8.07669 11.8283 8.83507 11.7141 9.64237 11.6978C12.6025 11.6244 15.9296 12.5459 18.9712 14.4704L23.2035 16.9086L34.9054 23.6769C40.0428 25.8053 45.8407 20.1867 46.0527 16.2154C46.0935 16.7455 46.0853 17.2674 46.0119 17.7893Z" fill="white"/>
<path d="M31.9774 26.4429L23.0986 21.0116C23.0545 20.9882 23.0049 21.0174 23.0049 21.07V31.9386C23.0049 31.9912 23.0545 32.0204 23.0986 31.9971L31.9774 26.5657C32.016 26.5365 32.016 26.4722 31.9774 26.4429Z" fill="#3964F9"/>
</svg>
