<svg width="25" height="18" viewBox="0 0 25 18" fill="none" xmlns="http://www.w3.org/2000/svg">
<path d="M22.7695 2.91018H1.45509C0.646706 2.91018 0 2.26347 0 1.45509C0 0.646707 0.646706 0 1.45509 0H22.7695C23.5778 0 24.2246 0.646707 24.2246 1.45509C24.2515 2.26347 23.5778 2.91018 22.7695 2.91018Z" fill="#323232"/>
<path d="M11.7754 10.509H1.45509C0.646706 10.509 0 9.86229 0 9.05391C0 8.24552 0.646706 7.59882 1.45509 7.59882H11.7754C12.5838 7.59882 13.2305 8.24552 13.2305 9.05391C13.2575 9.83534 12.6108 10.509 11.7754 10.509Z" fill="#323232"/>
<path d="M17.1647 18H1.45509C0.646706 18 0 17.3533 0 16.5449C0 15.7366 0.646706 15.0898 1.45509 15.0898H17.1377C17.9461 15.0898 18.5928 15.7366 18.5928 16.5449C18.6198 17.3533 17.9731 18 17.1647 18Z" fill="#323232"/>
</svg>
