<svg width="40" height="54" viewBox="0 0 40 54" fill="none" xmlns="http://www.w3.org/2000/svg">
<path d="M35.7351 52H3.84809C2.82742 52 2 51.1726 2 50.1519V3.84809C2 2.82742 2.82742 2 3.84809 2H35.7351C36.7558 2 37.5832 2.82742 37.5832 3.84809V50.1519C37.5832 51.1726 36.7558 52 35.7351 52Z" stroke="#3964F9" stroke-width="3" stroke-miterlimit="10" stroke-linecap="round" stroke-linejoin="round"/>
<path d="M37.5833 43.7551H2" stroke="#3964F9" stroke-width="3" stroke-miterlimit="10" stroke-linecap="round" stroke-linejoin="round"/>
<path d="M15.625 6.64331H23.3963" stroke="#3964F9" stroke-width="3" stroke-miterlimit="10" stroke-linecap="round" stroke-linejoin="round"/>
<path d="M27.9381 28.7196C27.7906 29.1953 27.5974 29.6618 27.3676 30.1007L29.0357 33.8389L27.4666 35.401L23.7247 33.7181C23.2847 33.9461 22.8264 34.1373 22.3499 34.2921L20.8769 38.1153L18.6609 38.1108L17.2035 34.2816C16.7277 34.1248 16.2702 33.9317 15.8311 33.702L12.0823 35.3695L10.5196 33.8011L12.203 30.0697C11.975 29.6298 11.7836 29.1626 11.6381 28.6863L7.81335 27.2139L7.81787 25.0078L11.6486 23.5602C11.7961 23.0753 11.9894 22.6088 12.2192 22.1699L10.551 18.4318L12.1202 16.8697L15.862 18.5525C16.3021 18.3154 16.7604 18.1332 17.2368 17.9786L18.7099 14.1553L20.9259 14.1598L22.3832 17.9891C22.8591 18.1457 23.3166 18.3297 23.7557 18.5686L27.5045 16.9012L29.0671 18.4697L27.3837 22.2009C27.6118 22.6408 27.8031 23.108 27.9486 23.5935L31.7734 25.0567L31.7689 27.272L27.9381 28.7196Z" stroke="#3964F9" stroke-width="3" stroke-miterlimit="10" stroke-linecap="round" stroke-linejoin="round"/>
<path d="M19.7933 30.1225C21.9946 30.1225 23.779 28.3381 23.779 26.1368C23.779 23.9356 21.9946 22.1511 19.7933 22.1511C17.5921 22.1511 15.8076 23.9356 15.8076 26.1368C15.8076 28.3381 17.5921 30.1225 19.7933 30.1225Z" stroke="#3964F9" stroke-width="3" stroke-miterlimit="10" stroke-linecap="round" stroke-linejoin="round"/>
<path d="M27.4164 28.7196C27.2689 29.1953 27.0757 29.6618 26.8458 30.1007L28.514 33.8389L26.9449 35.401L23.2029 33.7181C22.7629 33.9461 22.3047 34.1373 21.8282 34.2921L20.3552 38.1153L18.1391 38.1108L16.6817 34.2816C16.2059 34.1248 15.7484 33.9317 15.3093 33.702L11.5606 35.3695L9.99786 33.8011L11.6813 30.0697C11.4533 29.6298 11.2619 29.1626 11.1164 28.6863L7.29163 27.2139L7.29614 25.0078L11.1269 23.5602C11.2744 23.0753 11.4676 22.6088 11.6975 22.1699L10.0293 18.4318L11.5984 16.8697L15.3403 18.5525C15.7804 18.3154 16.2386 18.1332 16.7151 17.9786L18.1881 14.1553L20.4042 14.1598L21.8615 17.9891C22.3374 18.1457 22.7949 18.3297 23.2339 18.5686L26.9827 16.9012L28.5454 18.4697L26.862 22.2009C27.09 22.6408 27.2814 23.108 27.4269 23.5935L31.2517 25.0567L31.2472 27.272L27.4164 28.7196Z" stroke="#3964F9" stroke-width="3" stroke-miterlimit="10" stroke-linecap="round" stroke-linejoin="round"/>
<path d="M19.2716 30.1225C21.4728 30.1225 23.2573 28.3381 23.2573 26.1368C23.2573 23.9356 21.4728 22.1511 19.2716 22.1511C17.0704 22.1511 15.2859 23.9356 15.2859 26.1368C15.2859 28.3381 17.0704 30.1225 19.2716 30.1225Z" stroke="#3964F9" stroke-width="3" stroke-miterlimit="10" stroke-linecap="round" stroke-linejoin="round"/>
<path d="M17.7083 47.6118H21.0855" stroke="#3964F9" stroke-width="3" stroke-miterlimit="10" stroke-linecap="round" stroke-linejoin="round"/>
</svg>
