<svg width="52" height="52" viewBox="0 0 52 52" fill="none" xmlns="http://www.w3.org/2000/svg">
<path d="M11.2738 44.0447C10.9495 44.7257 10.6901 45.2121 10.4956 45.5039C10.301 45.7957 9.95243 46.1281 9.44983 46.501C8.94724 46.8739 8.28252 47.1495 7.45567 47.3278C6.62882 47.5062 5.55068 47.6115 4.22123 47.644C4.25366 46.6064 4.32662 45.7228 4.44011 44.9932C4.55359 44.2636 4.67519 43.6881 4.80489 43.2665C4.93459 42.845 5.15346 42.4721 5.46151 42.1479C5.76955 41.8236 6.04516 41.5885 6.28835 41.4426C6.53155 41.2967 6.89633 41.094 7.38271 40.8346C8.6473 40.2185 9.65249 39.6187 10.3983 39.035L8.50139 36.6031C8.01501 36.9598 7.17195 37.4462 5.97221 38.0623C4.74004 38.6783 3.80781 39.3106 3.17551 39.9591C2.54322 40.6077 2.03252 41.6696 1.64341 43.1449C1.25431 44.6203 1.05976 46.6226 1.05976 49.1517L1.10839 50.7568L2.61618 50.7082C4.62655 50.7082 6.29646 50.6109 7.6259 50.4163C8.95535 50.2218 10.0254 49.8732 10.836 49.3706C11.6467 48.868 12.2627 48.3573 12.6843 47.8385C13.1058 47.3197 13.5435 46.5901 13.9975 45.6498C14.4839 44.6446 14.8406 43.9313 15.0675 43.5097L12.7815 41.4183C12.5546 41.7101 12.3357 42.0263 12.1249 42.3667C11.9142 42.7072 11.7601 42.9828 11.6629 43.1936C11.5656 43.4043 11.4359 43.6881 11.2738 44.0447ZM35.3496 10.2899C33.6311 10.2899 32.1638 10.8979 30.9479 12.1138C29.7319 13.3298 29.124 14.797 29.124 16.5156C29.124 17.6505 29.3996 18.6962 29.9508 19.6527C30.502 20.6093 31.2559 21.3632 32.2125 21.9144C33.169 22.4656 34.2147 22.7412 35.3496 22.7412C36.4845 22.7412 37.5302 22.4656 38.4868 21.9144C39.4433 21.3632 40.1972 20.6093 40.7485 19.6527C41.2997 18.6962 41.5753 17.6505 41.5753 16.5156C41.5753 15.8346 41.4699 15.178 41.2592 14.5457C41.0484 13.9134 40.7566 13.3379 40.3837 12.8191C40.0108 12.3003 39.5649 11.8544 39.0461 11.4815C38.5273 11.1086 37.9518 10.8168 37.3195 10.606C36.6872 10.3953 36.0306 10.2899 35.3496 10.2899ZM35.3253 19.6284C34.466 19.6284 33.7365 19.3204 33.1366 18.7043C32.5367 18.0882 32.2368 17.3586 32.2368 16.5156C32.2368 15.6725 32.5367 14.9429 33.1366 14.3268C33.7365 13.7108 34.4742 13.4027 35.3496 13.4027C35.9009 13.4027 36.4197 13.5405 36.9061 13.8161C37.3924 14.0918 37.7734 14.4728 38.0491 14.9591C38.3247 15.4455 38.4625 15.9643 38.4625 16.5156C38.4625 17.3586 38.1544 18.0882 37.5384 18.7043C36.9223 19.3204 36.1846 19.6284 35.3253 19.6284ZM50.8652 2.50778C50.8328 2.11868 50.6788 1.78632 50.4031 1.5107C50.1275 1.23508 49.7952 1.08106 49.4061 1.04864C49.2764 1.04864 49.1061 1.04053 48.8954 1.02432C48.6846 1.00811 48.2225 1 47.5092 1C46.7958 1 46.0662 1.01621 45.3205 1.04864C44.5747 1.08106 43.6587 1.15402 42.5724 1.26751C41.4861 1.381 40.4161 1.52691 39.3623 1.70525C38.3085 1.88359 37.1574 2.13489 35.909 2.45914C34.6606 2.7834 33.469 3.15629 32.3341 3.57782C29.3509 4.68029 26.7083 6.57717 24.4061 9.26848C24.1142 9.59274 23.8305 9.94131 23.5549 10.3142C23.2793 10.6871 22.9956 11.1329 22.7037 11.6518C22.4119 12.1706 22.1525 12.6164 21.9255 12.9893C21.6985 13.3622 21.4148 13.881 21.0743 14.5457C20.7339 15.2104 20.4826 15.7049 20.3205 16.0292C20.1583 16.3534 19.8827 16.8966 19.4936 17.6586C19.1045 18.4206 18.8613 18.8988 18.764 19.0934L18.4236 19.7743L18.1317 20.3823L17.7913 21.0389L17.4994 21.5982L17.2076 22.1819L16.9158 22.6926H8.2582C7.80424 22.6926 7.41514 22.8547 7.09088 23.179L1.40022 29.4047C1.01112 29.8262 0.905735 30.3207 1.08407 30.8881C1.26241 31.4556 1.64341 31.8041 2.22707 31.9339L11.517 34.0739C11.9061 34.5603 13.0247 35.8249 14.873 37.8677L18.3749 41.7588L20.2718 49.784C20.4015 50.3677 20.7582 50.7406 21.3419 50.9027C21.3743 50.9352 21.4148 50.9514 21.4635 50.9514C21.5121 50.9514 21.5688 50.9595 21.6337 50.9757C21.6985 50.9919 21.7472 51 21.7796 51C22.1687 51 22.5092 50.8703 22.801 50.6109L28.5889 44.8716C28.6538 44.8067 28.7267 44.7257 28.8078 44.6284C28.8889 44.5311 28.9537 44.4339 29.0024 44.3366C29.051 44.2393 29.0834 44.1339 29.0996 44.0204C29.1159 43.9069 29.124 43.8016 29.124 43.7043V35.679C29.3509 35.5169 29.6347 35.3385 29.9751 35.144C30.3156 34.9494 30.7858 34.69 31.3856 34.3658C31.9855 34.0415 32.3827 33.8307 32.5773 33.7335C33.1609 33.3768 34.3769 32.7202 36.2251 31.7636C38.0734 30.8071 39.5893 29.9802 40.7728 29.2831C41.9563 28.5859 42.8723 27.9455 43.5208 27.3619C44.98 26.0648 46.0825 24.857 46.8282 23.7383C47.574 22.6196 48.2387 21.2659 48.8224 19.677C49.3088 18.3476 49.7141 16.856 50.0384 15.2023C50.3626 13.5486 50.5815 12.0571 50.695 10.7276C50.8085 9.39818 50.8814 8.05253 50.9138 6.69066C50.9463 5.32879 50.9463 4.37224 50.9138 3.82101C50.8814 3.26978 50.8652 2.83204 50.8652 2.50778ZM45.9041 18.5584C45.3853 19.9527 44.826 21.1038 44.2261 22.0117C43.6262 22.9196 42.7102 23.9248 41.478 25.0272C40.8944 25.546 40.0189 26.1459 38.8516 26.8268C37.6843 27.5078 36.2413 28.286 34.5228 29.1615C32.8042 30.037 31.6531 30.653 31.0695 31.0097C28.443 32.4689 26.9515 33.3444 26.5948 33.6362C26.4975 33.701 26.4164 33.7821 26.3516 33.8794C26.2867 33.9767 26.23 34.0739 26.1814 34.1712C26.1327 34.2685 26.0922 34.3739 26.0598 34.4874C26.0273 34.6008 26.0111 34.7224 26.0111 34.8521V42.9747L22.7037 46.5739L21.3419 40.6887C21.2446 40.3969 21.1149 40.1699 20.9528 40.0078C16.2511 34.7549 13.7543 31.9663 13.4625 31.642C13.3328 31.5123 13.195 31.3988 13.0491 31.3016C12.9031 31.2043 12.7491 31.1394 12.587 31.107L5.48583 29.5019L8.98777 25.8054H17.8399C17.9048 25.8054 17.9858 25.7973 18.0831 25.7811C18.1804 25.7649 18.2695 25.7406 18.3506 25.7082C18.4317 25.6757 18.5127 25.6352 18.5938 25.5866C18.6749 25.5379 18.7478 25.4893 18.8127 25.4407C18.8775 25.392 18.9343 25.3353 18.9829 25.2704C19.0315 25.2056 19.0883 25.1245 19.1531 25.0272C19.6071 24.3139 20.4015 22.8061 21.5364 20.5039C21.6337 20.3418 21.9012 19.823 22.3389 18.9475C22.7767 18.072 23.0766 17.464 23.2387 17.1235C23.4009 16.7831 23.6765 16.2481 24.0656 15.5185C24.4547 14.7889 24.7708 14.2215 25.014 13.8161C25.2572 13.4108 25.5409 12.965 25.8652 12.4786C26.1895 11.9922 26.4813 11.5869 26.7407 11.2626C28.6862 8.99287 30.9074 7.40402 33.4041 6.49611C37.7167 4.87484 42.5157 4.08042 47.801 4.11284C47.8983 10.0791 47.266 14.8943 45.9041 18.5584Z" fill="#3964F9" stroke="#3964F9" stroke-width="0.5"/>
</svg>
