<svg width="52" height="52" viewBox="0 0 52 52" fill="none" xmlns="http://www.w3.org/2000/svg">
<path d="M26 1C12.215 1 1 12.215 1 26C1 39.7856 12.215 51 26 51C39.7856 51 51 39.7856 51 26C51 12.215 39.7856 1 26 1ZM27.25 18.2594C30.1856 18.14 33.0331 17.5956 35.7087 16.685C36.6162 19.2231 37.1562 21.9412 37.2812 24.7494H27.25V18.2594ZM27.25 15.7581V5.07C30.4594 7.445 33.0162 10.6606 34.7537 14.37C32.3775 15.1631 29.8538 15.6431 27.25 15.7581ZM24.75 5.07V15.7587C22.1462 15.6425 19.6225 15.1625 17.2475 14.3687C18.9844 10.6594 21.5413 7.44437 24.75 5.07ZM24.75 18.26V24.75H14.7188C14.8431 21.9425 15.3831 19.225 16.2906 16.6881C18.9662 17.5975 21.8144 18.1406 24.75 18.26ZM12.2206 24.75H3.53688C3.7925 20.1012 5.46812 15.8262 8.13375 12.3462C9.91187 13.7131 11.8713 14.8662 13.9656 15.785C12.9481 18.6069 12.3475 21.6287 12.2206 24.75ZM12.2206 27.25C12.3481 30.3744 12.9494 33.3994 13.9675 36.2231C11.8756 37.1419 9.91625 38.2944 8.13938 39.6613C5.47 36.1806 3.7925 31.9025 3.53688 27.25H12.2206ZM14.7188 27.25H24.75V33.7425C21.8144 33.8619 18.9675 34.4069 16.2925 35.3188C15.3837 32.7794 14.8431 30.06 14.7188 27.25ZM24.75 36.2431V46.9306C21.5413 44.5562 18.985 41.3419 17.2475 37.6331C19.6231 36.8387 22.1462 36.3581 24.75 36.2431ZM27.25 46.93V36.2425C29.8531 36.3587 32.3769 36.8381 34.7531 37.6319C33.0156 41.3406 30.4594 44.5556 27.25 46.93ZM27.25 33.7425V27.25H37.2812C37.1569 30.06 36.6169 32.78 35.7069 35.3194C33.0325 34.4075 30.1856 33.8625 27.25 33.7425ZM39.78 27.25H48.4638C48.2081 31.9037 46.5287 36.1831 43.8587 39.6644C42.0819 38.2975 40.1237 37.1431 38.0325 36.2238C39.0513 33.4 39.6525 30.375 39.78 27.25ZM39.78 24.75C39.6525 21.6275 39.0519 18.6044 38.0337 15.7813C40.1269 14.8625 42.0875 13.7106 43.865 12.3444C46.5319 15.8237 48.2075 20.1 48.4631 24.75H39.78ZM42.2294 10.4406C40.6606 11.6337 38.9369 12.6481 37.0969 13.4619C35.3569 9.68875 32.8331 6.37562 29.69 3.8075C34.5806 4.61812 38.94 7.01062 42.2294 10.4406ZM22.3106 3.8075C19.1681 6.37562 16.6444 9.68812 14.9037 13.4613C13.0644 12.6462 11.3387 11.6344 9.77 10.4413C13.0594 7.01125 17.4194 4.61812 22.3106 3.8075ZM9.77563 41.5644C11.3438 40.3713 13.0663 39.3563 14.905 38.5413C16.645 42.3125 19.1681 45.6238 22.3094 48.1919C17.4219 47.3819 13.0644 44.9919 9.77563 41.5644ZM29.6912 48.1925C32.8331 45.6238 35.3562 42.3112 37.0969 38.5387C38.9362 39.3531 40.6619 40.365 42.2306 41.5587C38.9412 44.9887 34.5812 47.3813 29.6912 48.1925Z" fill="#3964F9" stroke="#3964F9" stroke-width="0.7"/>
</svg>
