<svg width="1190" height="367" viewBox="0 0 1190 367" fill="none" xmlns="http://www.w3.org/2000/svg">
<path opacity="0.67" d="M565.065 259.749C636.843 259.749 695.03 201.602 695.03 129.874C695.03 58.1467 636.843 0 565.065 0C493.287 0 435.1 58.1467 435.1 129.874C435.1 201.602 493.287 259.749 565.065 259.749Z" fill="#E2E8FE"/>
<path d="M395.209 152.528C395.209 152.528 437.186 122.413 469.139 149.503C501.092 176.594 483.4 179.283 528.47 182.913C573.541 186.543 580.873 175.586 607.849 206.038C634.824 236.422 651.372 243.414 676.396 244.96C726.714 248.052 712.587 306.939 712.587 306.939H395.209V152.528Z" fill="#E2E8FE"/>
<path d="M374.221 208.054C374.221 208.054 379.401 197.568 409.605 195.954C439.809 194.341 451.312 220.356 467.995 214.777C484.678 209.197 502.706 213.634 508.491 224.322C514.344 235.011 534.928 240.389 552.284 233.129C569.639 225.936 618.544 242.338 629.038 270.437C639.533 298.536 629.038 306.872 629.038 306.872H374.221V208.054Z" fill="#CAD2F9"/>
<path d="M806.63 68.5672H559.751V306.872H806.63V68.5672Z" fill="#EBF1FF"/>
<path d="M806.294 59.0888H541.453V68.5672H806.294V59.0888Z" fill="#C5D2FF"/>
<path d="M806.967 306.939H611.885L806.967 68.5672V306.939Z" fill="#D2E0FF"/>
<path d="M0 42.8209C0 42.8209 52.134 -8.67175 91.8903 37.6447C131.647 83.9612 109.582 88.5996 165.618 94.8513C221.586 101.103 230.735 82.3479 264.235 134.378C297.735 186.409 318.32 198.24 349.399 200.929C411.892 206.239 394.402 307.006 394.402 307.006H0V42.8209Z" fill="#E2E8FE"/>
<path d="M0.268555 144.193C0.268555 144.193 6.99552 126.984 46.2137 124.295C85.4319 121.606 100.433 164.494 122.161 155.285C143.822 146.075 167.232 153.402 174.833 171.015C182.435 188.627 209.141 197.433 231.743 185.535C254.346 173.636 317.849 200.66 331.572 246.909C345.295 293.158 331.572 306.939 331.572 306.939H0.268555V144.193Z" fill="#CAD2F9"/>
<path d="M0.268555 164.561C0.268555 164.561 14.7315 143.991 41.2358 164.561C67.74 185.132 61.4167 216.457 94.5806 226.742C127.745 237.027 153.105 195.08 198.243 228.221C241.632 260.152 237.663 280.588 271.769 269.899C305.875 259.211 352.022 281.865 364.601 306.939H0.268555V164.561Z" fill="#5162BC"/>
<path d="M664.086 331.408C686.526 331.408 704.717 328.669 704.717 325.291C704.717 321.912 686.526 319.174 664.086 319.174C641.646 319.174 623.455 321.912 623.455 325.291C623.455 328.669 641.646 331.408 664.086 331.408Z" fill="#E2E8FE"/>
<path d="M344.69 331.274C388.975 331.274 424.875 328.535 424.875 325.157C424.875 321.778 388.975 319.039 344.69 319.039C300.404 319.039 264.504 321.778 264.504 325.157C264.504 328.535 300.404 331.274 344.69 331.274Z" fill="#E2E8FE"/>
<path d="M743.397 331.408C761.527 331.408 776.224 328.669 776.224 325.291C776.224 321.912 761.527 319.174 743.397 319.174C725.267 319.174 710.569 321.912 710.569 325.291C710.569 328.669 725.267 331.408 743.397 331.408Z" fill="#E2E8FE"/>
<path d="M795.396 327.173C809.254 327.173 820.488 325.157 820.488 322.669C820.488 320.182 809.254 318.165 795.396 318.165C781.539 318.165 770.305 320.182 770.305 322.669C770.305 325.157 781.539 327.173 795.396 327.173Z" fill="#E2E8FE"/>
<path d="M883.25 333.156C911.3 333.156 934.039 330.477 934.039 327.173C934.039 323.869 911.3 321.19 883.25 321.19C855.201 321.19 832.462 323.869 832.462 327.173C832.462 330.477 855.201 333.156 883.25 333.156Z" fill="#E2E8FE"/>
<path d="M397.025 33.0064H136.221V306.939H397.025V33.0064Z" fill="#C5D2FF"/>
<path d="M500.553 134.244H584.775C588.206 134.244 591.031 137.067 591.031 140.496V181.905C591.031 185.333 588.206 188.157 584.775 188.157H500.553C497.123 188.157 494.297 185.333 494.297 181.905V140.496C494.297 137.067 497.055 134.244 500.553 134.244Z" fill="#C5D2FF"/>
<path d="M1190 78.3145C1190 78.3145 1141.09 33.9475 1103.89 73.8106C1066.69 113.674 1087.28 117.707 1034.81 123.085C982.339 128.463 973.795 112.329 942.448 157.167C911.033 202.004 891.794 212.29 862.599 214.508C833.471 216.726 820.421 305.931 820.421 305.931H1190V78.3145Z" fill="#E2E8FE"/>
<path d="M128.956 33.0064H406.309V25.4102C406.309 20.6374 402.407 16.7385 397.631 16.7385H137.634C132.858 16.7385 128.956 20.6374 128.956 25.4102V33.0064Z" fill="#B1C5FC"/>
<path d="M189.566 16.7385H345.699V9.14229C345.699 4.36947 341.797 0.470551 337.021 0.470551H198.244C193.468 0.470551 189.566 4.36947 189.566 9.14229V16.7385Z" fill="#F0F5FF"/>
<path d="M860.177 16.7385H1016.31V9.14229C1016.31 4.36947 1012.41 0.470551 1007.63 0.470551H868.855C864.079 0.470551 860.177 4.36947 860.177 9.14229V16.7385Z" fill="#F0F5FF"/>
<path d="M626.348 59.0888H755.505C755.505 50.081 748.24 42.8209 739.226 42.8209H642.627C633.68 42.8209 626.348 50.081 626.348 59.0888Z" fill="#F0F5FF"/>
<path d="M1189.73 146.815C1189.73 146.815 1184.82 129.874 1156.23 127.253C1127.57 124.631 1116.68 166.78 1100.87 157.772C1085.06 148.764 1067.97 155.89 1062.46 173.233C1056.94 190.577 1037.43 199.181 1020.95 187.552C1004.47 175.922 958.121 202.475 948.166 247.918C938.21 293.36 948.166 306.939 948.166 306.939H1189.87V146.815H1189.73Z" fill="#CAD2F9"/>
<path d="M1189.73 164.292C1189.73 164.292 1175.27 143.655 1148.76 164.292C1122.26 184.93 1128.58 216.256 1095.42 226.608C1062.25 236.893 1045.17 201.534 1006.15 238.708C967.136 275.882 969.826 286.638 935.721 275.882C901.615 265.127 863.944 281.798 851.432 306.939H1189.73V164.292Z" fill="#5162BC"/>
<path d="M1071.13 29.5108H1019.27V306.939H1071.13V29.5108Z" fill="#B1C5FC"/>
<path d="M1019.27 29.5108H806.294V306.939H1019.27V29.5108Z" fill="#C5D2FF"/>
<path d="M1019.2 16.7385H786.651V29.5108H1019.2V16.7385Z" fill="#B1C5FC"/>
<path d="M1078.74 16.7385H1019.27V29.5108H1078.74V16.7385Z" fill="#ADBDEA"/>
<path d="M663.481 327.509C664.355 327.375 664.96 326.568 664.826 325.694L657.359 275.21L652.381 275.949L661.597 326.232C661.799 327.106 662.606 327.644 663.481 327.509Z" fill="#8B9AFF"/>
<path d="M627.76 327.509C628.635 327.711 629.509 327.106 629.711 326.232L641.214 274.941L636.304 273.866L626.55 325.627C626.415 326.434 626.953 327.308 627.76 327.509Z" fill="#8B9AFF"/>
<path d="M618.544 207.382C618.544 207.382 618.544 201.668 645.318 202.273C662.001 202.609 655.745 270.303 655.745 270.303L634.622 272.319L626.886 265.194L618.544 207.382Z" fill="white"/>
<path d="M617.266 208.458C617.266 208.458 622.984 259.883 625.54 266.135C628.164 272.387 633.344 275.21 639.734 275.815C646.192 276.42 659.444 275.949 659.444 275.949L643.3 270.37C643.3 270.37 632.133 270.236 629.577 264.589C628.164 261.429 622.85 208.861 621.773 207.786C620.764 206.643 619.284 204.895 617.266 208.458Z" fill="#C7DAE5"/>
<path d="M685.478 312.115C685.679 312.451 688.572 316.014 692.003 317.426C695.434 318.838 697.586 319.711 698.192 321.526C698.797 323.341 698.595 323.879 698.595 323.879L685.41 323.274L677.742 320.182L676.329 314.939L685.478 312.115Z" fill="#EF758A"/>
<path d="M678.213 316.283C678.28 316.35 679.423 319.779 682.989 321.526C686.554 323.274 690.994 325.022 691.532 326.367C692.07 327.644 692.003 328.585 692.003 328.585C692.003 328.585 670.409 329.123 669.467 328.249C668.526 327.442 671.284 318.098 671.284 317.09C671.284 316.081 678.213 316.283 678.213 316.283Z" fill="#FE8291"/>
<path d="M671.956 255.648C671.956 255.648 694.492 256.522 697.99 260.892C701.488 265.261 700.613 273.462 697.99 278.706C695.366 283.949 686.15 313.729 686.15 313.729C686.15 313.729 679.625 315.275 678.28 313.46C676.934 311.645 680.836 277.832 682.652 274.874C682.652 274.874 677.203 275.748 674.58 273.462C671.956 271.177 671.956 255.648 671.956 255.648Z" fill="#4258A0"/>
<path d="M692.339 232.725C692.474 232.591 694.559 230.843 695.164 229.835C695.837 228.826 698.057 223.448 698.528 223.112C698.999 222.776 699.672 224.188 699.47 225.196C699.268 226.205 699.066 227.011 699.066 227.011C699.066 227.011 707.004 225.062 708.753 226.07C708.753 226.07 708.887 227.011 707.811 227.616C706.735 228.221 702.766 228.826 702.631 228.961C702.497 229.095 703.977 233.129 703.17 234.473C702.295 235.817 697.99 235.75 697.048 235.549C696.106 235.414 695.164 235.885 695.164 235.885L692.339 232.725Z" fill="#F9C796"/>
<path d="M637.38 259.009C637.38 259.009 633.411 274.739 661.462 276.084C661.462 276.084 666.777 310.905 671.015 317.762C671.015 317.762 676.262 318.3 679.222 317.023C679.222 317.023 680.836 271.513 677.674 266.538C674.513 261.564 670.544 259.144 666.575 256.657C662.539 254.236 654.601 253.43 654.601 253.43L637.38 259.009Z" fill="#5162BC"/>
<path d="M664.019 213.567C664.019 213.567 664.22 227.28 664.288 233.129C664.422 238.977 662.808 248.791 662.808 248.791C662.808 248.791 658.637 247.178 658.368 247.111C658.099 247.044 656.417 216.726 656.417 216.726L658.368 211.752L664.019 213.567Z" fill="#F8FBFF"/>
<path d="M668.324 215.583L668.929 214.642C668.929 214.642 672.091 216.054 673.638 221.97C675.185 227.885 676.262 238.305 676.531 238.372C676.8 238.439 689.379 234.406 692.339 232.053C692.339 232.053 695.837 234.809 696.241 237.364C696.712 239.918 678.616 251.077 672.495 249.396C666.373 247.716 666.037 239.313 666.037 239.313L668.324 215.583Z" fill="#4CACFB"/>
<path d="M664.691 212.289C664.691 212.289 672.764 215.113 671.62 220.76C670.477 226.406 665.835 245.699 665.835 248.657C665.835 251.615 665.297 256.925 665.297 256.925C665.297 256.925 662.27 254.842 662.404 249.8C662.539 244.758 661.395 240.658 662.539 236.288C663.682 231.919 664.019 227.818 663.615 224.457C663.211 221.028 663.884 212.76 664.691 212.289Z" fill="#3A92CE"/>
<path d="M659.041 211.617C659.041 211.617 657.426 215.718 658.032 219.281C658.57 222.911 659.848 228.02 659.31 231.515C658.772 235.011 658.166 238.17 658.637 241.531C659.108 244.893 656.283 259.883 654.399 262.303C654.399 262.303 640.003 263.648 635.564 258.404C635.564 258.404 638.994 244.086 640.878 239.851C642.761 235.616 646.865 210.542 646.865 210.542C646.865 210.542 652.919 207.786 657.964 209.332C663.077 211.012 659.041 211.617 659.041 211.617Z" fill="#3A92CE"/>
<path d="M657.897 209.399C657.897 209.399 658.166 207.718 656.686 206.912C655.206 206.105 654.937 205.634 654.534 203.282C654.13 200.996 654.466 198.173 653.726 196.694C652.986 195.215 654.265 190.442 656.686 189.367C659.108 188.291 663.346 183.316 667.651 185.131C672.024 186.947 672.696 189.232 675.858 188.896C679.02 188.56 679.894 190.24 680.163 192.459C680.432 194.677 678.751 196.694 677.136 197.433C675.858 197.971 664.759 205.433 660.117 208.323C658.906 209.197 657.897 209.399 657.897 209.399Z" fill="#151C74"/>
<path d="M677.136 197.5C677.136 197.5 675.791 210.811 673.167 211.886C670.544 212.962 667.046 211.617 667.046 211.617C667.046 211.617 665.028 214.575 665.028 215.852C665.028 217.13 660.252 215.987 659.108 214.777C657.964 213.567 657.83 209.466 657.83 209.466C657.83 209.466 662.27 207.382 663.615 204.693C663.615 204.693 661.597 203.147 662.875 201.265C664.153 199.383 666.037 200.257 667.18 201.803C667.18 201.803 668.055 202.341 668.997 200.929C670.073 199.517 672.562 197.366 677.136 197.5Z" fill="#F9C796"/>
<path d="M665.297 249.396C665.499 249.464 670.477 251.01 671.822 252.825C673.167 254.64 674.647 257.799 675.589 258.74C676.531 259.682 677.069 261.295 676.127 261.429C675.185 261.497 672.562 261.698 671.082 260.824C669.602 259.95 667.046 256.724 665.768 256.253C664.49 255.85 663.211 256.119 662.808 255.178C662.471 254.169 665.297 249.396 665.297 249.396Z" fill="#F9C796"/>
<path d="M646.932 210.609C646.932 210.609 651.036 211.147 651.91 215.516C652.717 219.886 651.305 234.54 650.296 238.103C649.219 241.666 664.826 248.119 665.633 248.254C666.44 248.388 664.96 254.707 663.144 255.715C661.328 256.724 641.282 248.791 639.533 241.935C637.784 235.078 639.196 213.634 646.932 210.609Z" fill="#4CACFB"/>
<mask id="mask0" mask-type="alpha" maskUnits="userSpaceOnUse" x="607" y="107" width="76" height="55">
<path d="M651.843 107.422H645.116H638.322L607.378 161.133H645.116H682.787L651.843 107.422Z" fill="url(#paint0_linear)"/>
</mask>
<g mask="url(#mask0)">
<path d="M645.116 134.311C647.568 134.311 649.556 132.325 649.556 129.874C649.556 127.424 647.568 125.438 645.116 125.438C642.664 125.438 640.676 127.424 640.676 129.874C640.676 132.325 642.664 134.311 645.116 134.311Z" fill="white"/>
<path d="M648.614 101.708H645.116H641.551L625.339 129.874H645.116H664.826L648.614 101.708Z" fill="#9AACFE"/>
<path d="M645.116 101.708H641.551L625.339 129.874H645.116H647.605C624.531 127.253 645.116 101.708 645.116 101.708Z" fill="#768EE5"/>
</g>
<mask id="mask1" mask-type="alpha" maskUnits="userSpaceOnUse" x="826" y="65" width="71" height="51">
<path d="M867.577 65.475H861.321H855.064L826.408 115.22H861.321H896.233L867.577 65.475Z" fill="url(#paint1_linear)"/>
</mask>
<g mask="url(#mask1)">
<path d="M861.321 90.3474C863.587 90.3474 865.424 88.5115 865.424 86.2468C865.424 83.9821 863.587 82.1462 861.321 82.1462C859.054 82.1462 857.217 83.9821 857.217 86.2468C857.217 88.5115 859.054 90.3474 861.321 90.3474Z" fill="white"/>
<path d="M864.617 60.1644H861.321H858.024L843.023 86.2468H861.321H879.618L864.617 60.1644Z" fill="#9AACFE"/>
<path d="M861.321 60.1644H858.024L843.023 86.2468H861.321H863.675C842.216 83.8268 861.321 60.1644 861.321 60.1644Z" fill="#768EE5"/>
</g>
<path d="M989.066 152.394H883.452V157.839H989.066V152.394Z" fill="#E3F4FF"/>
<path d="M915.54 114.413H897.915V152.461H915.54V114.413Z" fill="#6A88E5"/>
<path d="M922.67 114.413H915.54V152.461H922.67V114.413Z" fill="#DCE2F8"/>
<path d="M931.079 114.413H922.67V152.461H931.079V114.413Z" fill="#7F9FEF"/>
<path d="M938.277 114.413H931.146V152.461H938.277V114.413Z" fill="#DCE2F8"/>
<path d="M946.686 114.413H938.277V152.461H946.686V114.413Z" fill="#7F9FEF"/>
<path d="M950.654 114.413H946.686V152.461H950.654V114.413Z" fill="#DCE2F8"/>
<path d="M978.101 133.504C976.486 132.227 976.082 130.076 977.024 128.194C977.562 127.185 977.764 125.975 977.63 124.765C977.562 123.959 977.293 123.219 976.957 122.614H966.126C965.656 123.488 965.454 124.429 965.454 125.438C965.454 126.446 965.723 127.454 966.126 128.261C967.068 130.076 966.53 132.227 964.916 133.504C962.225 135.656 960.61 139.017 960.947 142.848C961.418 147.756 965.387 151.789 970.297 152.394C976.688 153.133 982.137 148.092 982.137 141.84C982.137 138.412 980.59 135.387 978.101 133.504Z" fill="white"/>
<path d="M965.387 125.438C965.387 126.446 965.656 127.454 966.059 128.261C967.001 130.076 966.463 132.227 964.848 133.504C962.158 135.656 960.543 139.017 960.88 142.848C961.35 147.756 965.319 151.789 970.23 152.394C971.71 152.596 973.19 152.394 974.535 151.991C960.072 147.621 969.961 130.816 969.423 127.454C969.086 125.438 969.961 123.757 970.768 122.614H966.059C965.656 123.421 965.387 124.362 965.387 125.438Z" fill="#DCE2F8"/>
<path d="M1071.13 81.3395L1019.27 29.5108H1071.13V81.3395Z" fill="#9EB8EF"/>
<path d="M1155.29 277.428C1141.63 282.134 1137.13 292.957 1135.58 300.082C1136.92 285.898 1139.28 255.178 1132.08 265.732C1127.3 272.79 1126.43 281.462 1131.14 296.52C1128.65 293.293 1124.55 290.335 1117.69 289.394C1100.33 286.907 1132.75 300.082 1134.84 306.939C1134.84 306.939 1134.84 306.872 1134.84 306.737C1134.84 306.872 1134.84 306.939 1134.84 306.939C1134.84 306.872 1134.84 306.872 1134.84 306.805C1134.84 306.805 1134.84 306.805 1134.84 306.872C1134.84 306.872 1134.84 306.805 1134.84 306.737C1137.73 295.982 1176.28 270.236 1155.29 277.428Z" fill="#7C81EA"/>
<path d="M1185.69 292.083C1178.97 294.369 1176.75 299.746 1176.01 303.242C1176.68 296.251 1177.82 281.126 1174.26 286.369C1171.9 289.797 1171.43 294.1 1173.79 301.494C1172.58 299.881 1170.56 298.469 1167.2 297.999C1158.65 296.789 1174.6 303.242 1175.6 306.67C1175.6 306.67 1175.6 306.603 1175.6 306.536C1175.6 306.603 1175.6 306.67 1175.6 306.67V306.603C1175.6 306.603 1175.6 306.603 1175.6 306.536C1177.08 301.225 1196.05 288.52 1185.69 292.083Z" fill="#263287"/>
<path d="M46.0124 277.428C32.3566 282.134 27.8496 292.957 26.3024 300.082C27.6478 285.898 30.0022 255.178 22.8043 265.732C18.0282 272.79 17.1537 281.462 21.8626 296.52C19.3736 293.293 15.2701 290.335 8.40864 289.394C-8.94693 286.907 23.477 300.082 25.5624 306.939C25.5624 306.939 25.5624 306.872 25.5624 306.737C25.5624 306.872 25.5624 306.939 25.5624 306.939C25.5624 306.872 25.5624 306.872 25.5624 306.805C25.5624 306.805 25.5624 306.805 25.5624 306.872C25.5624 306.872 25.5624 306.805 25.5624 306.737C28.455 295.982 67.0005 270.236 46.0124 277.428Z" fill="#263287"/>
<path d="M129.629 286.907C120.413 290.066 117.318 297.461 116.242 302.301C117.184 292.688 118.731 271.916 113.888 279.042C110.659 283.815 110.053 289.663 113.282 299.881C111.6 297.73 108.842 295.713 104.133 295.041C92.3613 293.36 114.358 302.301 115.771 306.939C115.771 306.939 115.771 306.872 115.771 306.805C115.771 306.872 115.771 306.939 115.771 306.939V306.872C115.771 306.872 115.771 306.805 115.771 306.737C117.789 299.477 143.89 282.067 129.629 286.907Z" fill="#7C81EA"/>
<path d="M992.967 61.5088L993.976 59.9627C994.447 59.156 995.658 59.5594 995.658 60.5005L995.591 62.3827C995.591 62.7188 995.725 62.9877 995.994 63.1894L997.542 64.1977C998.349 64.6683 997.945 65.8783 997.003 65.8783L995.12 65.8111C994.783 65.8111 994.514 65.9455 994.313 66.2144L993.304 67.7605C992.833 68.5672 991.622 68.1639 991.622 67.2228L991.689 65.3405C991.689 65.0044 991.554 64.7355 991.285 64.5338L989.738 63.5255C988.931 63.0549 989.335 61.8449 990.276 61.8449L992.16 61.9122C992.496 61.9794 992.765 61.7777 992.967 61.5088Z" fill="#7C81EA"/>
<path d="M473.847 131.824L474.856 130.278C475.327 129.471 476.538 129.874 476.538 130.816L476.471 132.698C476.471 133.034 476.605 133.303 476.874 133.504L478.422 134.513C479.229 134.983 478.825 136.193 477.884 136.193L476 136.126C475.664 136.126 475.395 136.261 475.193 136.529L474.184 138.076C473.713 138.882 472.502 138.479 472.502 137.538L472.569 135.656C472.569 135.319 472.435 135.051 472.166 134.849L470.618 133.841C469.811 133.37 470.215 132.16 471.157 132.16L473.04 132.227C473.376 132.227 473.713 132.093 473.847 131.824Z" fill="#7C81EA"/>
<path d="M41.7744 54.8538L42.7835 53.3076C43.2544 52.501 44.4652 52.9043 44.4652 53.8454L44.3979 55.7277C44.3979 56.0638 44.5325 56.3327 44.8016 56.5343L46.3488 57.5427C47.156 58.0132 46.7524 59.2232 45.8106 59.2232L43.9271 59.156C43.5907 59.156 43.3216 59.2905 43.1198 59.5594L42.1108 61.1055C41.6399 61.9122 40.429 61.5088 40.429 60.5677L40.4963 58.6855C40.4963 58.3493 40.3618 58.0805 40.0927 57.8788L38.5455 56.8704C37.7383 56.3999 38.1419 55.1899 39.0836 55.1899L40.9672 55.2571C41.3035 55.3243 41.5726 55.1226 41.7744 54.8538Z" fill="#7C81EA"/>
<path d="M1160.8 30.7208L1161.81 29.1747C1162.28 28.368 1163.5 28.7713 1163.5 29.7125L1163.43 31.5947C1163.43 31.9308 1163.56 32.1997 1163.83 32.4014L1165.38 33.4097C1166.19 33.8803 1165.78 35.0903 1164.84 35.0903L1162.96 35.0231C1162.62 35.0231 1162.35 35.1575 1162.15 35.4264L1161.14 36.9725C1160.67 37.7792 1159.46 37.3758 1159.46 36.4347L1159.53 34.5525C1159.53 34.2164 1159.39 33.9475 1159.12 33.7458L1157.58 32.7375C1156.77 32.2669 1157.17 31.0569 1158.11 31.0569L1160 31.1241C1160.33 31.1241 1160.67 30.9897 1160.8 30.7208Z" fill="#7C81EA"/>
<path d="M1158.32 203.416L1157.04 201.265C1156.43 200.189 1157.64 198.979 1158.72 199.584L1160.87 200.862C1161.28 201.063 1161.68 201.063 1162.08 200.862L1164.24 199.584C1165.31 198.979 1166.52 200.189 1165.92 201.265L1164.64 203.416C1164.44 203.819 1164.44 204.223 1164.64 204.626L1165.92 206.777C1166.52 207.853 1165.31 209.063 1164.24 208.458L1162.08 207.181C1161.68 206.979 1161.28 206.979 1160.87 207.181L1158.72 208.458C1157.64 209.063 1156.43 207.853 1157.04 206.777L1158.32 204.626C1158.52 204.29 1158.52 203.819 1158.32 203.416Z" fill="#7C81EA"/>
<path d="M1042.07 166.376L1040.8 164.158C1040.19 163.082 1041.4 161.805 1042.48 162.477L1044.7 163.755C1045.1 163.956 1045.57 163.956 1045.91 163.755L1048.13 162.477C1049.2 161.872 1050.48 163.082 1049.81 164.158L1048.53 166.376C1048.33 166.78 1048.33 167.25 1048.53 167.586L1049.81 169.805C1050.42 170.88 1049.2 172.158 1048.13 171.485L1045.91 170.208C1045.5 170.006 1045.03 170.006 1044.7 170.208L1042.48 171.485C1041.4 172.09 1040.12 170.88 1040.8 169.805L1042.07 167.586C1042.28 167.25 1042.28 166.78 1042.07 166.376Z" fill="white"/>
<path d="M57.0447 252.825L55.7666 250.674C55.1612 249.598 56.372 248.388 57.4484 248.993L59.601 250.27C60.0046 250.472 60.4082 250.472 60.8118 250.27L62.9645 248.993C64.0408 248.388 65.2516 249.598 64.6462 250.674L63.3681 252.825C63.1663 253.228 63.1663 253.632 63.3681 254.035L64.6462 256.186C65.2516 257.262 64.0408 258.472 62.9645 257.867L60.8118 256.589C60.4082 256.388 60.0046 256.388 59.601 256.589L57.4484 257.867C56.372 258.472 55.1612 257.262 55.7666 256.186L57.0447 254.035C57.2465 253.632 57.2465 253.161 57.0447 252.825Z" fill="#7C81EA"/>
<path d="M1118.36 116.968L1118.22 115.287C1118.16 114.413 1119.23 114.077 1119.7 114.749L1120.71 116.161C1120.85 116.43 1121.18 116.564 1121.45 116.497L1123.13 116.363C1124.01 116.295 1124.34 117.371 1123.67 117.842L1122.26 118.85C1121.99 118.984 1121.86 119.32 1121.92 119.589L1122.06 121.27C1122.12 122.144 1121.05 122.48 1120.58 121.808L1119.57 120.396C1119.43 120.127 1119.1 119.993 1118.83 120.06L1117.15 120.194C1116.27 120.262 1115.94 119.186 1116.61 118.715L1118.02 117.707C1118.22 117.573 1118.36 117.304 1118.36 116.968Z" fill="white"/>
<path d="M60.139 144.193L60.0045 142.512C59.9372 141.638 61.0135 141.302 61.4844 141.974L62.4935 143.386C62.628 143.655 62.9644 143.79 63.2334 143.722L64.9152 143.588C65.7897 143.521 66.126 144.596 65.4533 145.067L64.0407 146.075C63.7716 146.21 63.6371 146.546 63.7043 146.815L63.8389 148.495C63.9061 149.369 62.8298 149.705 62.3589 149.033L61.3499 147.621C61.2153 147.352 60.879 147.218 60.6099 147.285L58.9282 147.42C58.0537 147.487 57.7173 146.411 58.39 145.941L59.8027 144.932C60.0045 144.798 60.139 144.462 60.139 144.193Z" fill="white"/>
<path d="M367.023 244.355L366.62 242.204C366.418 241.128 367.763 240.523 368.503 241.33L369.916 243.01C370.185 243.279 370.521 243.414 370.925 243.346L373.077 242.943C374.154 242.741 374.759 244.086 373.952 244.825L372.27 246.237C372.001 246.506 371.867 246.842 371.934 247.245L372.337 249.396C372.539 250.472 371.194 251.077 370.454 250.27L369.041 248.59C368.772 248.321 368.436 248.186 368.032 248.254L365.88 248.657C364.803 248.859 364.198 247.514 365.005 246.775L366.687 245.363C366.956 245.161 367.09 244.758 367.023 244.355Z" fill="white"/>
<path d="M785.44 314.065C785.44 314.065 783.153 318.031 779.05 319.779C774.946 321.527 774.744 322.132 774.341 323.207C774.004 324.283 791.562 324.417 795.464 322.669C795.464 322.669 797.414 319.039 796.002 314.468C794.589 309.897 785.44 314.065 785.44 314.065Z" fill="#FE8291"/>
<path d="M806.496 314.065C806.496 314.065 804.209 318.031 800.105 319.779C796.002 321.527 795.8 322.132 795.396 323.207C795.06 324.283 812.617 324.417 816.519 322.669C816.519 322.669 818.47 319.039 817.057 314.468C815.644 309.897 806.496 314.065 806.496 314.065Z" fill="#FE8291"/>
<path d="M783.759 221.365L785.911 314.199C785.911 314.199 794.993 316.418 796.203 315.275C797.414 314.132 804.814 259.614 804.814 259.614L794.724 220.692L783.759 221.365Z" fill="#151C74"/>
<path d="M791.629 222.642C791.629 222.642 800.643 307.342 807.168 313.796C807.168 313.796 813.021 316.619 816.586 313.393C816.586 313.393 819.142 230.843 816.115 224.793C813.088 218.743 791.629 222.642 791.629 222.642Z" fill="#263287"/>
<path d="M789.409 181.838C789.409 181.838 785.709 178.006 785.979 175.183C786.248 172.359 791.764 167.586 790.486 162.074C789.207 156.562 786.988 151.453 791.898 146.882C796.809 142.311 805.89 142.714 809.657 146.277C813.425 149.84 817.797 158.78 823.381 161.267C828.964 163.755 835.825 167.183 835.489 172.628C835.153 178.073 831.52 177.401 832.126 180.157C832.731 182.913 836.364 188.022 831.856 190.039C827.349 192.055 824.457 191.249 823.919 191.182C823.381 191.114 789.409 181.838 789.409 181.838Z" fill="#151C74"/>
<path d="M758.936 182.846C758.936 182.846 756.514 175.25 755.842 175.048C755.169 174.846 754.631 176.998 754.631 177.401C754.631 177.804 749.518 174.981 748.644 173.905C747.769 172.83 745.953 174.309 746.491 176.661C747.029 179.081 750.729 184.459 753.622 186.207C756.514 187.955 758.936 182.846 758.936 182.846Z" fill="#F9C796"/>
<path d="M792.705 174.174C792.705 174.174 773.265 188.224 771.919 189.568C771.919 189.568 759.878 183.653 758.936 181.636C758.936 181.636 754.698 185.333 753.824 187.552C753.824 187.552 765.865 198.71 772.794 200.862C779.722 203.013 793.378 187.417 793.378 187.417L792.705 174.174Z" fill="#6A88E5"/>
<path d="M807.37 171.351C807.707 171.149 816.721 175.855 817.192 177.065C817.663 178.275 813.963 215.382 817.192 227.818C817.192 227.818 794.32 237.095 783.355 220.961C783.355 220.961 785.709 209.802 784.835 203.551C783.96 197.299 789.14 175.317 792.638 174.174C796.136 172.964 800.576 171.216 801.72 171.351C802.796 171.552 807.37 171.351 807.37 171.351Z" fill="#8B9AFF"/>
<path d="M793.916 198.374L785.44 194.744C785.44 194.744 785.104 196.223 785.239 196.963C785.306 197.702 793.109 201.736 797.818 206.643C802.056 211.079 807.908 215.92 815.846 215.113L815.779 212.558L810.734 208.122L793.916 198.374Z" fill="#6A88E5"/>
<path d="M814.905 176.258C814.905 176.258 811.272 177.266 809.657 194.879C809.052 201.399 809.254 202.609 809.254 202.609H812.214L814.905 176.258Z" fill="#6A88E5"/>
<path d="M795.733 195.148C795.733 195.148 793.513 193.333 792.907 192.257C792.369 191.182 792.571 187.82 791.966 187.081C791.36 186.341 790.216 188.963 790.216 188.963C790.216 188.963 785.709 187.619 784.902 186.342C784.095 185.064 782.279 187.081 781.942 188.358C781.606 189.635 785.575 195.417 787.458 196.828C789.342 198.24 793.916 199.921 793.916 199.921L795.733 195.148Z" fill="#F9C796"/>
<path d="M795.262 192.862C795.262 192.862 791.629 197.299 792.1 199.45C792.1 199.45 805.487 214.306 815.913 213.365C826.34 212.424 823.582 191.921 823.044 189.03C822.035 183.922 819.008 176.46 815.174 176.258C811.339 176.056 811.541 198.778 811.205 200.189C810.936 201.399 796.809 194.543 795.262 192.862Z" fill="#8B9AFF"/>
<path d="M810.263 172.628C810.263 172.628 807.034 179.888 801.047 178.813C797.213 178.14 797.414 172.628 797.414 172.628C797.414 172.628 800.374 171.485 800.576 171.351C800.778 171.216 807.707 171.351 807.707 171.351L810.263 172.628Z" fill="#6A88E5"/>
<path d="M809.321 183.854C809.841 183.854 810.263 183.433 810.263 182.913C810.263 182.393 809.841 181.972 809.321 181.972C808.801 181.972 808.379 182.393 808.379 182.913C808.379 183.433 808.801 183.854 809.321 183.854Z" fill="#A6B5FF"/>
<path d="M812.685 177.199C813.205 177.199 813.626 176.778 813.626 176.258C813.626 175.738 813.205 175.317 812.685 175.317C812.164 175.317 811.743 175.738 811.743 176.258C811.743 176.778 812.164 177.199 812.685 177.199Z" fill="#A6B5FF"/>
<path d="M803.67 184.795C804.191 184.795 804.612 184.374 804.612 183.854C804.612 183.335 804.191 182.913 803.67 182.913C803.15 182.913 802.729 183.335 802.729 183.854C802.729 184.374 803.15 184.795 803.67 184.795Z" fill="#A6B5FF"/>
<path d="M806.563 196.29C807.083 196.29 807.505 195.869 807.505 195.349C807.505 194.83 807.083 194.408 806.563 194.408C806.043 194.408 805.621 194.83 805.621 195.349C805.621 195.869 806.043 196.29 806.563 196.29Z" fill="#A6B5FF"/>
<path d="M810.666 218.877C811.187 218.877 811.608 218.456 811.608 217.936C811.608 217.416 811.187 216.995 810.666 216.995C810.146 216.995 809.725 217.416 809.725 217.936C809.725 218.456 810.146 218.877 810.666 218.877Z" fill="#A6B5FF"/>
<path d="M817.73 187.148C818.25 187.148 818.672 186.727 818.672 186.207C818.672 185.687 818.25 185.266 817.73 185.266C817.21 185.266 816.788 185.687 816.788 186.207C816.788 186.727 817.21 187.148 817.73 187.148Z" fill="#A6B5FF"/>
<path d="M821.026 190.375C821.546 190.375 821.968 189.954 821.968 189.434C821.968 188.914 821.546 188.493 821.026 188.493C820.506 188.493 820.084 188.914 820.084 189.434C820.084 189.954 820.506 190.375 821.026 190.375Z" fill="#A6B5FF"/>
<path d="M816.115 179.485C816.635 179.485 817.057 179.063 817.057 178.544C817.057 178.024 816.635 177.603 816.115 177.603C815.595 177.603 815.174 178.024 815.174 178.544C815.174 179.063 815.595 179.485 816.115 179.485Z" fill="#A6B5FF"/>
<path d="M814.568 183.72C815.088 183.72 815.51 183.298 815.51 182.779C815.51 182.259 815.088 181.838 814.568 181.838C814.048 181.838 813.626 182.259 813.626 182.779C813.626 183.298 814.048 183.72 814.568 183.72Z" fill="#A6B5FF"/>
<path d="M814.904 190.106C815.425 190.106 815.846 189.685 815.846 189.165C815.846 188.645 815.425 188.224 814.904 188.224C814.384 188.224 813.963 188.645 813.963 189.165C813.963 189.685 814.384 190.106 814.904 190.106Z" fill="#A6B5FF"/>
<path d="M817.999 193.467C818.519 193.467 818.941 193.046 818.941 192.526C818.941 192.006 818.519 191.585 817.999 191.585C817.479 191.585 817.057 192.006 817.057 192.526C817.057 193.046 817.479 193.467 817.999 193.467Z" fill="#A6B5FF"/>
<path d="M818.47 199.786C818.99 199.786 819.412 199.365 819.412 198.845C819.412 198.325 818.99 197.904 818.47 197.904C817.95 197.904 817.528 198.325 817.528 198.845C817.528 199.365 817.95 199.786 818.47 199.786Z" fill="#A6B5FF"/>
<path d="M817.192 204.492C817.712 204.492 818.133 204.07 818.133 203.551C818.133 203.031 817.712 202.609 817.192 202.609C816.672 202.609 816.25 203.031 816.25 203.551C816.25 204.07 816.672 204.492 817.192 204.492Z" fill="#A6B5FF"/>
<path d="M821.362 196.627C821.883 196.627 822.304 196.205 822.304 195.685C822.304 195.166 821.883 194.744 821.362 194.744C820.842 194.744 820.421 195.166 820.421 195.685C820.421 196.205 820.842 196.627 821.362 196.627Z" fill="#A6B5FF"/>
<path d="M821.9 203.887C822.421 203.887 822.842 203.465 822.842 202.946C822.842 202.426 822.421 202.004 821.9 202.004C821.38 202.004 820.959 202.426 820.959 202.946C820.959 203.465 821.38 203.887 821.9 203.887Z" fill="#A6B5FF"/>
<path d="M818.941 208.592C819.461 208.592 819.882 208.171 819.882 207.651C819.882 207.131 819.461 206.71 818.941 206.71C818.42 206.71 817.999 207.131 817.999 207.651C817.999 208.171 818.42 208.592 818.941 208.592Z" fill="#A6B5FF"/>
<path d="M815.174 196.358C815.694 196.358 816.115 195.936 816.115 195.417C816.115 194.897 815.694 194.475 815.174 194.475C814.653 194.475 814.232 194.897 814.232 195.417C814.232 195.936 814.653 196.358 815.174 196.358Z" fill="#A6B5FF"/>
<path d="M813.357 202.072C813.877 202.072 814.299 201.65 814.299 201.131C814.299 200.611 813.877 200.189 813.357 200.189C812.837 200.189 812.415 200.611 812.415 201.131C812.415 201.65 812.837 202.072 813.357 202.072Z" fill="#A6B5FF"/>
<path d="M813.559 207.113C814.079 207.113 814.501 206.692 814.501 206.172C814.501 205.652 814.079 205.231 813.559 205.231C813.039 205.231 812.617 205.652 812.617 206.172C812.617 206.692 813.039 207.113 813.559 207.113Z" fill="#A6B5FF"/>
<path d="M808.514 209.869C809.034 209.869 809.456 209.448 809.456 208.928C809.456 208.409 809.034 207.987 808.514 207.987C807.994 207.987 807.572 208.409 807.572 208.928C807.572 209.448 807.994 209.869 808.514 209.869Z" fill="#A6B5FF"/>
<path d="M814.501 211.684C815.021 211.684 815.443 211.263 815.443 210.743C815.443 210.224 815.021 209.802 814.501 209.802C813.981 209.802 813.559 210.224 813.559 210.743C813.559 211.263 813.981 211.684 814.501 211.684Z" fill="#A6B5FF"/>
<path d="M808.85 204.626C809.37 204.626 809.792 204.205 809.792 203.685C809.792 203.165 809.37 202.744 808.85 202.744C808.33 202.744 807.908 203.165 807.908 203.685C807.908 204.205 808.33 204.626 808.85 204.626Z" fill="#A6B5FF"/>
<path d="M804.747 205.971C805.267 205.971 805.688 205.549 805.688 205.029C805.688 204.51 805.267 204.088 804.747 204.088C804.227 204.088 803.805 204.51 803.805 205.029C803.805 205.549 804.227 205.971 804.747 205.971Z" fill="#A6B5FF"/>
<path d="M806.563 216.659C807.083 216.659 807.505 216.238 807.505 215.718C807.505 215.198 807.083 214.777 806.563 214.777C806.043 214.777 805.621 215.198 805.621 215.718C805.621 216.238 806.043 216.659 806.563 216.659Z" fill="#A6B5FF"/>
<path d="M803.872 219.953C804.392 219.953 804.814 219.532 804.814 219.012C804.814 218.492 804.392 218.071 803.872 218.071C803.352 218.071 802.93 218.492 802.93 219.012C802.93 219.532 803.352 219.953 803.872 219.953Z" fill="#A6B5FF"/>
<path d="M806.025 225.263C806.545 225.263 806.967 224.842 806.967 224.322C806.967 223.803 806.545 223.381 806.025 223.381C805.505 223.381 805.083 223.803 805.083 224.322C805.083 224.842 805.505 225.263 806.025 225.263Z" fill="#A6B5FF"/>
<path d="M804.141 228.154C804.661 228.154 805.083 227.733 805.083 227.213C805.083 226.693 804.661 226.272 804.141 226.272C803.621 226.272 803.2 226.693 803.2 227.213C803.2 227.733 803.621 228.154 804.141 228.154Z" fill="#A6B5FF"/>
<path d="M810.666 228.154C811.187 228.154 811.608 227.733 811.608 227.213C811.608 226.693 811.187 226.272 810.666 226.272C810.146 226.272 809.725 226.693 809.725 227.213C809.725 227.733 810.146 228.154 810.666 228.154Z" fill="#A6B5FF"/>
<path d="M799.029 212.021C799.549 212.021 799.971 211.599 799.971 211.079C799.971 210.56 799.549 210.138 799.029 210.138C798.509 210.138 798.087 210.56 798.087 211.079C798.087 211.599 798.509 212.021 799.029 212.021Z" fill="#A6B5FF"/>
<path d="M812.012 224.322C812.532 224.322 812.954 223.901 812.954 223.381C812.954 222.861 812.532 222.44 812.012 222.44C811.492 222.44 811.07 222.861 811.07 223.381C811.07 223.901 811.492 224.322 812.012 224.322Z" fill="#A6B5FF"/>
<path d="M807.908 222.104C808.429 222.104 808.85 221.683 808.85 221.163C808.85 220.643 808.429 220.222 807.908 220.222C807.388 220.222 806.967 220.643 806.967 221.163C806.967 221.683 807.388 222.104 807.908 222.104Z" fill="#A6B5FF"/>
<path d="M801.451 222.507C801.971 222.507 802.392 222.086 802.392 221.566C802.392 221.046 801.971 220.625 801.451 220.625C800.93 220.625 800.509 221.046 800.509 221.566C800.509 222.086 800.93 222.507 801.451 222.507Z" fill="#A6B5FF"/>
<path d="M796.271 222.104C796.791 222.104 797.213 221.683 797.213 221.163C797.213 220.643 796.791 220.222 796.271 220.222C795.751 220.222 795.329 220.643 795.329 221.163C795.329 221.683 795.751 222.104 796.271 222.104Z" fill="#A6B5FF"/>
<path d="M792.1 220.76C792.62 220.76 793.042 220.338 793.042 219.818C793.042 219.299 792.62 218.877 792.1 218.877C791.58 218.877 791.158 219.299 791.158 219.818C791.158 220.338 791.58 220.76 792.1 220.76Z" fill="#A6B5FF"/>
<path d="M790.284 224.322C790.804 224.322 791.226 223.901 791.226 223.381C791.226 222.861 790.804 222.44 790.284 222.44C789.764 222.44 789.342 222.861 789.342 223.381C789.342 223.901 789.764 224.322 790.284 224.322Z" fill="#A6B5FF"/>
<path d="M792.975 217.062C793.495 217.062 793.916 216.641 793.916 216.121C793.916 215.601 793.495 215.18 792.975 215.18C792.454 215.18 792.033 215.601 792.033 216.121C792.033 216.641 792.454 217.062 792.975 217.062Z" fill="#A6B5FF"/>
<path d="M789.544 218.205C790.064 218.205 790.486 217.784 790.486 217.264C790.486 216.744 790.064 216.323 789.544 216.323C789.024 216.323 788.602 216.744 788.602 217.264C788.602 217.784 789.024 218.205 789.544 218.205Z" fill="#A6B5FF"/>
<path d="M786.584 222.104C787.104 222.104 787.526 221.683 787.526 221.163C787.526 220.643 787.104 220.222 786.584 220.222C786.064 220.222 785.642 220.643 785.642 221.163C785.642 221.683 786.064 222.104 786.584 222.104Z" fill="#A6B5FF"/>
<path d="M790.284 213.231C790.804 213.231 791.226 212.809 791.226 212.29C791.226 211.77 790.804 211.348 790.284 211.348C789.764 211.348 789.342 211.77 789.342 212.29C789.342 212.809 789.764 213.231 790.284 213.231Z" fill="#A6B5FF"/>
<path d="M786.786 216.188C787.306 216.188 787.727 215.767 787.727 215.247C787.727 214.728 787.306 214.306 786.786 214.306C786.266 214.306 785.844 214.728 785.844 215.247C785.844 215.767 786.266 216.188 786.786 216.188Z" fill="#A6B5FF"/>
<path d="M791.696 209.13C792.217 209.13 792.638 208.709 792.638 208.189C792.638 207.669 792.217 207.248 791.696 207.248C791.176 207.248 790.755 207.669 790.755 208.189C790.755 208.709 791.176 209.13 791.696 209.13Z" fill="#A6B5FF"/>
<path d="M787.728 209.668C788.248 209.668 788.669 209.246 788.669 208.727C788.669 208.207 788.248 207.786 787.728 207.786C787.207 207.786 786.786 208.207 786.786 208.727C786.786 209.246 787.207 209.668 787.728 209.668Z" fill="#A6B5FF"/>
<path d="M795.867 207.315C796.387 207.315 796.809 206.894 796.809 206.374C796.809 205.854 796.387 205.433 795.867 205.433C795.347 205.433 794.925 205.854 794.925 206.374C794.925 206.894 795.347 207.315 795.867 207.315Z" fill="#A6B5FF"/>
<path d="M790.284 205.029C790.804 205.029 791.226 204.608 791.226 204.088C791.226 203.569 790.804 203.147 790.284 203.147C789.764 203.147 789.342 203.569 789.342 204.088C789.342 204.608 789.764 205.029 790.284 205.029Z" fill="#A6B5FF"/>
<path d="M787.862 201.399C788.382 201.399 788.804 200.978 788.804 200.458C788.804 199.939 788.382 199.517 787.862 199.517C787.342 199.517 786.92 199.939 786.92 200.458C786.92 200.978 787.342 201.399 787.862 201.399Z" fill="#A6B5FF"/>
<path d="M801.181 204.626C801.702 204.626 802.123 204.205 802.123 203.685C802.123 203.165 801.702 202.744 801.181 202.744C800.661 202.744 800.24 203.165 800.24 203.685C800.24 204.205 800.661 204.626 801.181 204.626Z" fill="#A6B5FF"/>
<path d="M802.325 215.785C802.845 215.785 803.267 215.364 803.267 214.844C803.267 214.324 802.845 213.903 802.325 213.903C801.805 213.903 801.383 214.324 801.383 214.844C801.383 215.364 801.805 215.785 802.325 215.785Z" fill="#A6B5FF"/>
<path d="M798.087 217.6C798.607 217.6 799.029 217.179 799.029 216.659C799.029 216.139 798.607 215.718 798.087 215.718C797.567 215.718 797.145 216.139 797.145 216.659C797.145 217.179 797.567 217.6 798.087 217.6Z" fill="#A6B5FF"/>
<path d="M795.329 213.231C795.849 213.231 796.271 212.809 796.271 212.29C796.271 211.77 795.849 211.348 795.329 211.348C794.809 211.348 794.387 211.77 794.387 212.29C794.387 212.809 794.809 213.231 795.329 213.231Z" fill="#A6B5FF"/>
<path d="M799.029 226.137C799.549 226.137 799.971 225.716 799.971 225.196C799.971 224.677 799.549 224.255 799.029 224.255C798.509 224.255 798.087 224.677 798.087 225.196C798.087 225.716 798.509 226.137 799.029 226.137Z" fill="#A6B5FF"/>
<path d="M794.253 226.877C794.773 226.877 795.195 226.455 795.195 225.936C795.195 225.416 794.773 224.995 794.253 224.995C793.733 224.995 793.311 225.416 793.311 225.936C793.311 226.455 793.733 226.877 794.253 226.877Z" fill="#A6B5FF"/>
<path d="M805.083 201.601C805.603 201.601 806.025 201.18 806.025 200.66C806.025 200.14 805.603 199.719 805.083 199.719C804.563 199.719 804.141 200.14 804.141 200.66C804.141 201.18 804.563 201.601 805.083 201.601Z" fill="#A6B5FF"/>
<path d="M800.509 200.257C801.029 200.257 801.451 199.835 801.451 199.316C801.451 198.796 801.029 198.374 800.509 198.374C799.989 198.374 799.567 198.796 799.567 199.316C799.567 199.835 799.989 200.257 800.509 200.257Z" fill="#A6B5FF"/>
<path d="M796.338 201.399C796.858 201.399 797.28 200.978 797.28 200.458C797.28 199.939 796.858 199.517 796.338 199.517C795.818 199.517 795.396 199.939 795.396 200.458C795.396 200.978 795.818 201.399 796.338 201.399Z" fill="#A6B5FF"/>
<path d="M797.213 197.769C797.733 197.769 798.154 197.348 798.154 196.828C798.154 196.308 797.733 195.887 797.213 195.887C796.692 195.887 796.271 196.308 796.271 196.828C796.271 197.348 796.692 197.769 797.213 197.769Z" fill="#A6B5FF"/>
<path d="M819.411 183.518C819.932 183.518 820.353 183.097 820.353 182.577C820.353 182.057 819.932 181.636 819.411 181.636C818.891 181.636 818.47 182.057 818.47 182.577C818.47 183.097 818.891 183.518 819.411 183.518Z" fill="#A6B5FF"/>
<path d="M807.908 189.03C808.429 189.03 808.85 188.609 808.85 188.089C808.85 187.57 808.429 187.148 807.908 187.148C807.388 187.148 806.967 187.57 806.967 188.089C806.967 188.609 807.388 189.03 807.908 189.03Z" fill="#A6B5FF"/>
<path d="M802.594 190.24C803.114 190.24 803.536 189.819 803.536 189.299C803.536 188.78 803.114 188.358 802.594 188.358C802.074 188.358 801.652 188.78 801.652 189.299C801.652 189.819 802.074 190.24 802.594 190.24Z" fill="#A6B5FF"/>
<path d="M796.943 191.182C797.464 191.182 797.885 190.76 797.885 190.24C797.885 189.721 797.464 189.299 796.943 189.299C796.423 189.299 796.002 189.721 796.002 190.24C796.002 190.76 796.423 191.182 796.943 191.182Z" fill="#A6B5FF"/>
<path d="M801.181 195.349C801.702 195.349 802.123 194.928 802.123 194.408C802.123 193.888 801.702 193.467 801.181 193.467C800.661 193.467 800.24 193.888 800.24 194.408C800.24 194.928 800.661 195.349 801.181 195.349Z" fill="#A6B5FF"/>
<path d="M798.962 181.098C799.482 181.098 799.903 180.677 799.903 180.157C799.903 179.637 799.482 179.216 798.962 179.216C798.441 179.216 798.02 179.637 798.02 180.157C798.02 180.677 798.441 181.098 798.962 181.098Z" fill="#A6B5FF"/>
<path d="M807.908 179.485C808.429 179.485 808.85 179.063 808.85 178.544C808.85 178.024 808.429 177.603 807.908 177.603C807.388 177.603 806.967 178.024 806.967 178.544C806.967 179.063 807.388 179.485 807.908 179.485Z" fill="#A6B5FF"/>
<path d="M793.311 182.039C793.831 182.039 794.253 181.618 794.253 181.098C794.253 180.578 793.831 180.157 793.311 180.157C792.791 180.157 792.369 180.578 792.369 181.098C792.369 181.618 792.791 182.039 793.311 182.039Z" fill="#A6B5FF"/>
<path d="M786.786 181.77C787.306 181.77 787.727 181.349 787.727 180.829C787.727 180.309 787.306 179.888 786.786 179.888C786.266 179.888 785.844 180.309 785.844 180.829C785.844 181.349 786.266 181.77 786.786 181.77Z" fill="#A6B5FF"/>
<path d="M783.355 184.056C783.875 184.056 784.297 183.635 784.297 183.115C784.297 182.595 783.875 182.174 783.355 182.174C782.835 182.174 782.413 182.595 782.413 183.115C782.413 183.635 782.835 184.056 783.355 184.056Z" fill="#A6B5FF"/>
<path d="M780.059 186.61C780.579 186.61 781.001 186.189 781.001 185.669C781.001 185.15 780.579 184.728 780.059 184.728C779.539 184.728 779.117 185.15 779.117 185.669C779.117 186.189 779.539 186.61 780.059 186.61Z" fill="#A6B5FF"/>
<path d="M780.059 190.039C780.579 190.039 781.001 189.617 781.001 189.098C781.001 188.578 780.579 188.157 780.059 188.157C779.539 188.157 779.117 188.578 779.117 189.098C779.117 189.617 779.539 190.039 780.059 190.039Z" fill="#A6B5FF"/>
<path d="M782.144 194.475C782.664 194.475 783.086 194.054 783.086 193.534C783.086 193.015 782.664 192.593 782.144 192.593C781.624 192.593 781.202 193.015 781.202 193.534C781.202 194.054 781.624 194.475 782.144 194.475Z" fill="#A6B5FF"/>
<path d="M775.888 189.77C776.408 189.77 776.83 189.349 776.83 188.829C776.83 188.309 776.408 187.888 775.888 187.888C775.368 187.888 774.946 188.309 774.946 188.829C774.946 189.349 775.368 189.77 775.888 189.77Z" fill="#A6B5FF"/>
<path d="M770.843 191.854C771.363 191.854 771.785 191.432 771.785 190.913C771.785 190.393 771.363 189.972 770.843 189.972C770.323 189.972 769.901 190.393 769.901 190.913C769.901 191.432 770.323 191.854 770.843 191.854Z" fill="#A6B5FF"/>
<path d="M766.874 190.98C767.394 190.98 767.816 190.559 767.816 190.039C767.816 189.519 767.394 189.098 766.874 189.098C766.354 189.098 765.932 189.519 765.932 190.039C765.932 190.559 766.354 190.98 766.874 190.98Z" fill="#A6B5FF"/>
<path d="M763.78 192.66C764.3 192.66 764.721 192.239 764.721 191.719C764.721 191.2 764.3 190.778 763.78 190.778C763.259 190.778 762.838 191.2 762.838 191.719C762.838 192.239 763.259 192.66 763.78 192.66Z" fill="#A6B5FF"/>
<path d="M759.743 190.24C760.263 190.24 760.685 189.819 760.685 189.299C760.685 188.78 760.263 188.358 759.743 188.358C759.223 188.358 758.802 188.78 758.802 189.299C758.802 189.819 759.223 190.24 759.743 190.24Z" fill="#A6B5FF"/>
<path d="M763.78 189.165C764.3 189.165 764.721 188.744 764.721 188.224C764.721 187.704 764.3 187.283 763.78 187.283C763.259 187.283 762.838 187.704 762.838 188.224C762.838 188.744 763.259 189.165 763.78 189.165Z" fill="#A6B5FF"/>
<path d="M760.954 186.274C761.474 186.274 761.896 185.853 761.896 185.333C761.896 184.813 761.474 184.392 760.954 184.392C760.434 184.392 760.012 184.813 760.012 185.333C760.012 185.853 760.434 186.274 760.954 186.274Z" fill="#A6B5FF"/>
<path d="M778.175 193.265C778.695 193.265 779.117 192.844 779.117 192.324C779.117 191.805 778.695 191.383 778.175 191.383C777.655 191.383 777.234 191.805 777.234 192.324C777.234 192.844 777.655 193.265 778.175 193.265Z" fill="#A6B5FF"/>
<path d="M778.175 197.366C778.695 197.366 779.117 196.945 779.117 196.425C779.117 195.905 778.695 195.484 778.175 195.484C777.655 195.484 777.234 195.905 777.234 196.425C777.234 196.945 777.655 197.366 778.175 197.366Z" fill="#A6B5FF"/>
<path d="M775.014 194.475C775.534 194.475 775.955 194.054 775.955 193.534C775.955 193.015 775.534 192.593 775.014 192.593C774.493 192.593 774.072 193.015 774.072 193.534C774.072 194.054 774.493 194.475 775.014 194.475Z" fill="#A6B5FF"/>
<path d="M771.785 196.29C772.305 196.29 772.726 195.869 772.726 195.349C772.726 194.83 772.305 194.408 771.785 194.408C771.265 194.408 770.843 194.83 770.843 195.349C770.843 195.869 771.265 196.29 771.785 196.29Z" fill="#A6B5FF"/>
<path d="M767.816 195.887C768.336 195.887 768.758 195.466 768.758 194.946C768.758 194.426 768.336 194.005 767.816 194.005C767.296 194.005 766.874 194.426 766.874 194.946C766.874 195.466 767.296 195.887 767.816 195.887Z" fill="#A6B5FF"/>
<path d="M774.475 199.181C774.996 199.181 775.417 198.76 775.417 198.24C775.417 197.72 774.996 197.299 774.475 197.299C773.955 197.299 773.534 197.72 773.534 198.24C773.534 198.76 773.955 199.181 774.475 199.181Z" fill="#A6B5FF"/>
<path d="M786.18 185.199C786.7 185.199 787.122 184.777 787.122 184.258C787.122 183.738 786.7 183.316 786.18 183.316C785.66 183.316 785.239 183.738 785.239 184.258C785.239 184.777 785.66 185.199 786.18 185.199Z" fill="#A6B5FF"/>
<path d="M794.185 177.67C794.706 177.67 795.127 177.248 795.127 176.729C795.127 176.209 794.706 175.788 794.185 175.788C793.665 175.788 793.244 176.209 793.244 176.729C793.244 177.248 793.665 177.67 794.185 177.67Z" fill="#A6B5FF"/>
<path d="M797.549 186.274C798.069 186.274 798.491 185.853 798.491 185.333C798.491 184.813 798.069 184.392 797.549 184.392C797.029 184.392 796.607 184.813 796.607 185.333C796.607 185.853 797.029 186.274 797.549 186.274Z" fill="#A6B5FF"/>
<path d="M791.427 186.879C791.947 186.879 792.369 186.458 792.369 185.938C792.369 185.418 791.947 184.997 791.427 184.997C790.907 184.997 790.486 185.418 790.486 185.938C790.486 186.458 790.907 186.879 791.427 186.879Z" fill="#A6B5FF"/>
<path d="M790.082 155.217C790.082 155.217 792.436 169.469 794.589 170.41C796.742 171.351 798.02 170.746 798.827 170.41C799.634 170.074 798.491 175.451 798.289 175.989C798.087 176.594 802.729 177.804 805.016 176.191C807.303 174.578 808.783 173.905 808.245 172.695C807.707 171.485 806.227 166.78 806.092 165.839C805.958 164.897 809.456 163.889 807.505 161.066C805.554 158.242 803.67 160.461 803.67 160.461C803.67 160.461 803.334 159.587 802.661 158.108C801.989 156.629 793.782 158.847 790.082 155.217Z" fill="#F9C796"/>
<path d="M755.371 294.167C756.178 294.705 757.254 294.57 757.86 293.763L782.144 260.018C782.682 259.211 782.548 258.135 781.741 257.53C780.933 256.993 779.857 257.127 779.252 257.934L754.967 291.68C754.429 292.486 754.631 293.629 755.371 294.167Z" fill="#F8FBFF"/>
<path d="M733.172 294.1C732.365 294.637 731.288 294.503 730.683 293.696L706.466 260.018C705.928 259.211 706.062 258.135 706.869 257.53C707.677 256.993 708.753 257.127 709.358 257.934L733.575 291.612C734.181 292.419 733.979 293.495 733.172 294.1Z" fill="#F8FBFF"/>
<path d="M769.834 327.913C768.959 328.383 767.883 328.047 767.412 327.24L752.613 300.217C752.142 299.343 752.478 298.267 753.286 297.797C754.16 297.326 755.236 297.662 755.707 298.469L770.507 325.493C771.045 326.367 770.708 327.442 769.834 327.913Z" fill="#B0B6F0"/>
<path d="M718.574 327.913C719.449 328.383 720.525 328.047 720.996 327.24L735.795 300.217C736.266 299.343 735.93 298.267 735.123 297.797C734.248 297.326 733.172 297.662 732.701 298.469L717.902 325.493C717.431 326.367 717.767 327.442 718.574 327.913Z" fill="#B0B6F0"/>
<path d="M808.581 250.203V255.043C808.581 257.598 779.386 259.682 743.33 259.682C707.273 259.682 678.078 257.598 678.078 255.043V250.203H808.581Z" fill="#B0B6F0"/>
<path d="M743.329 255.11C779.367 255.11 808.581 253.034 808.581 250.472C808.581 247.91 779.367 245.834 743.329 245.834C707.292 245.834 678.078 247.91 678.078 250.472C678.078 253.034 707.292 255.11 743.329 255.11Z" fill="#C5D2FF"/>
<path d="M730.817 295.108C730.817 291.814 737.612 290.066 744.339 290.066C751.066 290.066 757.86 291.814 757.86 295.108C757.86 298.402 751.066 300.15 744.339 300.15C737.612 300.15 730.817 298.402 730.817 295.108ZM732.634 295.108C732.634 296.452 737.208 298.335 744.339 298.335C751.469 298.335 756.044 296.385 756.044 295.108C756.044 293.763 751.469 291.881 744.339 291.881C737.208 291.881 732.634 293.763 732.634 295.108Z" fill="#B0B6F0"/>
<path d="M743.397 299.343C744.339 299.343 745.146 298.536 745.146 297.595V259.816C745.146 258.875 744.339 258.068 743.397 258.068C742.455 258.068 741.648 258.875 741.648 259.816V297.595C741.648 298.536 742.455 299.343 743.397 299.343Z" fill="#F8FBFF"/>
<path d="M706.466 247.581L730.279 247.85V244.758H726.916L706.466 247.581Z" fill="#7C81EA"/>
<path d="M749.653 249.531H725.772L733.374 221.297H757.254L749.653 249.531Z" fill="white"/>
<path d="M726.378 247.581H706.466V249.531H726.378V247.581Z" fill="#B1C5FC"/>
<path d="M743.312 234.909C743.57 233.523 743.276 232.305 742.655 232.189C742.034 232.074 741.321 233.104 741.063 234.491C740.805 235.878 741.099 237.096 741.72 237.212C742.341 237.327 743.054 236.296 743.312 234.909Z" fill="#B0B6F0"/>
<path d="M765.529 161.133L756.716 154.209C756.716 154.007 756.784 153.738 756.784 153.537V143.319C756.784 133.437 748.778 125.438 738.89 125.438H729.674C719.785 125.438 711.78 133.437 711.78 143.319C711.78 153.201 719.785 161.2 729.674 161.2H749.115C749.249 161.2 749.451 161.2 749.586 161.2H765.529V161.133Z" fill="white"/>
<path d="M726.378 145.134C727.418 145.134 728.261 144.291 728.261 143.252C728.261 142.212 727.418 141.369 726.378 141.369C725.337 141.369 724.494 142.212 724.494 143.252C724.494 144.291 725.337 145.134 726.378 145.134Z" fill="#B1C5FC"/>
<path d="M734.383 145.134C735.423 145.134 736.266 144.291 736.266 143.252C736.266 142.212 735.423 141.369 734.383 141.369C733.342 141.369 732.499 142.212 732.499 143.252C732.499 144.291 733.342 145.134 734.383 145.134Z" fill="#B1C5FC"/>
<path d="M742.32 145.134C743.361 145.134 744.204 144.291 744.204 143.252C744.204 142.212 743.361 141.369 742.32 141.369C741.28 141.369 740.437 142.212 740.437 143.252C740.437 144.291 741.28 145.134 742.32 145.134Z" fill="#B1C5FC"/>
<path d="M397.025 306.939H136.221L397.025 73.2056V306.939Z" fill="#B1C5FC"/>
<path d="M1034.2 306.805H1019.81L962.629 366.297H976.957L1034.2 306.805Z" fill="#EEF6FF"/>
<path d="M1084.25 306.939H1049.88L992.631 366.297H1027.01L1084.25 306.939Z" fill="#EEF6FF"/>
<path d="M183.915 306.805H169.587L112.34 366.297H126.669L183.915 306.805Z" fill="#EEF6FF"/>
<path d="M233.964 306.939H199.589L142.343 366.297H176.717L233.964 306.939Z" fill="#EEF6FF"/>
<path d="M897.31 329.055C897.983 329.055 898.521 328.383 898.588 327.509L899.261 283.949L895.292 284.218L896.234 327.577C896.234 328.383 896.704 329.055 897.31 329.055Z" fill="#8B9AFF"/>
<path d="M927.918 328.854C928.59 328.787 929.061 327.98 928.994 327.039L924.352 281.663L920.451 282.47L926.639 327.509C926.774 328.249 927.312 328.921 927.918 328.854Z" fill="#8B9AFF"/>
<path d="M932.357 225.263C932.088 225.465 930.877 224.053 924.15 224.995C917.423 225.868 912.042 270.236 912.042 270.236L908.073 278.974L913.455 282.134C913.455 282.134 923.074 284.218 926.572 278.773C930.07 273.261 934.241 257.598 934.241 257.598L935.25 234.137L932.357 225.263Z" fill="white"/>
<path d="M852.777 311.846C852.643 312.048 851.297 314.065 851.297 314.065C851.297 314.065 848.876 318.031 844.301 320.518C839.66 323.005 834.951 323.678 834.278 325.089C833.538 326.501 834.278 327.308 834.278 327.308C834.278 327.308 852.306 328.249 853.114 327.24C853.921 326.232 855.334 325.224 855.334 325.224C855.334 325.224 855.67 327.644 856.477 327.845C857.284 328.047 864.348 327.509 864.348 327.509C864.348 327.509 865.155 320.115 864.617 318.434C864.079 316.754 862.464 313.527 862.464 313.527L852.777 311.846Z" fill="#FE8291"/>
<path d="M880.022 313.191C879.887 313.393 878.542 315.409 878.542 315.409C878.542 315.409 876.12 319.375 871.546 321.863C866.904 324.35 862.195 325.022 861.522 326.434C860.782 327.845 861.522 328.652 861.522 328.652C861.522 328.652 879.551 329.593 880.358 328.585C881.232 327.577 882.578 326.568 882.578 326.568C882.578 326.568 882.914 328.988 883.721 329.19C884.529 329.392 891.592 328.854 891.592 328.854C891.592 328.854 892.399 321.459 891.861 319.779C891.323 318.098 889.708 314.871 889.708 314.871L880.022 313.191Z" fill="#FE8291"/>
<path d="M891.525 256.32C890.247 256.32 855.468 257.463 854.459 268.488C853.45 279.512 851.297 314.132 851.297 314.132C851.297 314.132 859.37 317.426 862.599 315.006C865.828 312.586 868.317 281.663 868.317 281.663L873.967 279.176L897.781 262.236L899.53 257.598L891.525 256.32Z" fill="#4A5DAF"/>
<path d="M889.439 214.844H887.758C887.758 214.844 884.999 216.457 882.981 220.558C881.771 223.112 881.569 237.969 881.838 242.338C882.107 246.775 874.976 254.505 874.976 254.505L877.869 256.589L885.134 255.581L891.457 250.875L889.439 214.844Z" fill="#6A88E5"/>
<path d="M892.466 210.878C892.466 210.878 884.663 216.995 884.125 219.213C883.587 221.432 885.874 229.095 886.749 234.607C887.623 240.12 888.901 257.867 889.103 258.673C889.305 259.48 914.329 261.16 922.2 258.673C922.2 258.673 923.276 233.532 910.091 211.483C910.091 211.483 905.046 207.584 901.481 208.256C897.848 208.996 892.466 210.878 892.466 210.878Z" fill="#8B9AFF"/>
<path d="M890.112 251.211C889.641 251.548 882.174 251.48 880.56 252.623C878.945 253.766 877.398 255.043 877.129 255.783C876.793 256.522 877.465 259.009 877.6 259.009C877.734 259.009 879.887 259.48 882.645 258.673C885.403 257.867 891.726 258.203 892.13 258.135C892.534 258.001 890.112 251.211 890.112 251.211Z" fill="#FFBEBF"/>
<path d="M922.2 258.673C922.2 258.673 925.832 280.655 907.131 281.058C888.363 281.462 887.892 281.327 887.892 281.327C887.892 281.327 892.534 303.981 890.717 318.3C890.717 318.3 884.731 319.308 879.08 316.283C879.08 316.283 874.506 289.125 869.797 278.706C865.088 268.286 873.496 262.639 878.273 262.169C883.049 261.698 900.673 259.816 900.875 259.883C901.01 259.816 920.72 257.06 922.2 258.673Z" fill="#5162BC"/>
<path d="M932.223 225.264C932.223 225.264 935.99 254.102 929.868 267.211C923.747 280.319 922.738 279.916 911.167 280.588C899.597 281.26 887.825 281.327 887.825 281.327L888.43 285.361C888.43 285.361 918.567 285.293 923.209 283.546C927.85 281.798 931.079 274.336 933.703 267.816C936.461 260.824 937.739 252.69 937.066 240.994C936.394 229.297 936.864 226.003 932.223 225.264Z" fill="#C7DAE5"/>
<path d="M844.705 259.413H878.474L872.622 231.65C872.42 230.641 871.546 229.969 870.604 229.969H841.14C839.794 229.969 838.785 231.246 839.122 232.591L844.705 259.413Z" fill="white"/>
<path d="M900.068 206.105C900.068 206.105 902.221 204.962 903.095 202.004C903.97 199.047 905.719 195.82 904.979 190.24C904.239 184.661 897.175 182.51 893.543 182.577C889.91 182.644 886.614 184.594 885.134 184.526C883.654 184.526 881.098 184.728 881.098 184.728C881.098 184.728 881.3 189.77 883.52 192.257C885.739 194.812 900.068 206.105 900.068 206.105Z" fill="#151C74"/>
<path d="M883.452 192.257C883.452 192.257 883.25 206.508 886.143 208.525C889.036 210.542 891.592 210.071 891.592 210.071L891.794 213.5C891.794 213.5 893.946 214.71 896.435 213.298C898.924 211.886 901.413 208.323 901.413 208.323L900.942 205.298C900.942 205.298 899.597 202.677 899.664 201.87C899.732 201.131 902.288 199.921 900.001 197.702C897.713 195.484 896.704 199.047 896.704 199.047C896.704 199.047 894.148 197.501 893.677 194.274C893.812 194.207 885.672 195.08 883.452 192.257Z" fill="#F9C796"/>
<path d="M910.091 211.483C910.091 211.483 917.827 217.264 921.661 221.768C927.985 229.23 934.51 242.271 930.205 247.783C925.899 253.295 905.248 258.404 893.677 258.942H891.457C891.457 258.942 888.363 254.438 890.112 248.926C890.112 248.926 901.682 248.388 914.733 239.448C914.733 239.448 903.768 227.28 904.642 220.894C905.517 214.642 906.997 212.357 910.091 211.483Z" fill="#9FAFFF"/>
<path d="M857.103 247.375C857.985 247.241 858.513 245.912 858.284 244.407C858.054 242.903 857.154 241.792 856.272 241.926C855.391 242.06 854.862 243.389 855.092 244.893C855.321 246.398 856.222 247.509 857.103 247.375Z" fill="#B6C1FF"/>
<path d="M115.031 247.245C103.057 247.245 93.3702 237.498 93.3702 225.6V88.6668C93.3702 76.7012 103.124 67.0211 115.031 67.0211H315.36C327.334 67.0211 337.021 76.7684 337.021 88.6668V225.532C337.021 237.498 327.267 247.178 315.36 247.178H115.031V247.245Z" fill="#98B0E5"/>
<path d="M115.031 73.7434H315.36C323.634 73.7434 330.294 80.4657 330.294 88.6669V225.532C330.294 233.801 323.567 240.456 315.36 240.456H115.031C106.757 240.456 100.097 233.734 100.097 225.532V88.6669C100.097 80.3985 106.824 73.7434 115.031 73.7434Z" fill="#EBF0FF"/>
<path d="M255.356 306.939H260.67L231.004 255.648H240.825C244.861 255.648 248.09 252.421 248.09 248.388V247.178H182.301V248.388C182.301 252.421 185.53 255.648 189.566 255.648H197.907L168.174 306.939H173.488L203.154 255.648H225.622L255.356 306.939Z" fill="#EBF0FF"/>
<path d="M115.031 73.7434C106.757 73.7434 100.097 80.4657 100.097 88.6669V225.532C100.097 230.238 102.317 234.473 105.748 237.229L324.711 77.0373C322.154 75.0206 318.925 73.7434 315.36 73.7434H115.031Z" fill="#F8FAFF"/>
<path d="M126.669 84.4318H303.722C311.997 84.4318 318.656 91.1541 318.656 99.3553V214.844C318.656 223.112 311.929 229.767 303.722 229.767H126.669C118.395 229.767 111.735 223.045 111.735 214.844V99.3553C111.735 91.0869 118.395 84.4318 126.669 84.4318Z" stroke="#98B0E5" stroke-miterlimit="10"/>
<path d="M230.802 77.3062H199.656C193.938 77.3062 189.364 72.6678 189.364 67.0211H241.162C241.094 72.7351 236.453 77.3062 230.802 77.3062Z" fill="#98B0E5"/>
<path d="M483.602 289.865C483.602 289.865 483.938 262.774 495.979 254.976C508.02 247.178 513.267 250.808 516.025 243.548C518.784 236.288 522.618 247.313 519.793 257.867C516.9 268.42 510.711 266.942 506.81 270.235C502.841 273.529 505.868 280.386 493.154 285.831C480.44 291.209 483.602 289.865 483.602 289.865Z" fill="#979FFC"/>
<path d="M491.001 282.336L490.328 282.201C492.683 272.723 498.67 265.261 506.877 261.833C514.815 258.472 517.102 247.716 517.169 247.581L517.842 247.716C517.842 247.85 515.42 258.942 507.146 262.438C499.141 265.799 493.288 273.059 491.001 282.336Z" fill="white"/>
<path d="M479.162 287.781C479.162 287.781 484.072 276.823 475.865 270.101C467.659 263.379 464.564 261.967 463.084 253.026C461.604 244.086 457.299 233.868 449.832 231.381C442.365 228.894 452.523 240.321 450.707 246.304C448.89 252.287 448.016 256.119 453.263 261.9C458.51 267.681 454.406 273.126 457.635 279.512C460.864 285.898 462.546 288.587 468.533 287.848C474.453 287.041 479.162 287.781 479.162 287.781Z" fill="#5162BC"/>
<path d="M470.753 280.79C470.753 280.79 464.362 264.387 470.08 258.539C475.865 252.69 479.767 250.338 477.345 243.75C474.924 237.162 479.7 225.936 481.718 223.583C483.736 221.23 490.867 213.432 489.925 209.601C488.983 205.769 497.93 205.433 497.795 213.768C497.661 222.104 504.186 230.305 499.612 239.784C495.037 249.262 489.79 254.707 491.741 260.488C493.692 266.269 498.872 276.151 492.683 286.638C486.494 296.99 470.753 288.789 470.753 280.79Z" fill="#7C81EA"/>
<path d="M481.516 286.033C481.382 286.033 481.314 285.966 481.247 285.831C479.834 278.907 479.565 256.858 487.301 243.548C494.701 230.843 493.692 212.827 493.692 212.626C493.692 212.491 493.759 212.357 493.961 212.357C494.096 212.357 494.23 212.424 494.23 212.626C494.23 212.827 495.306 230.977 487.772 243.817C480.103 256.993 480.373 278.84 481.785 285.697C481.785 285.898 481.718 286.033 481.516 286.033Z" fill="#DCE2F8"/>
<path d="M472.636 286.033C472.569 286.033 472.502 286.033 472.502 285.966C463.353 278.907 458.644 262.169 457.837 253.228C456.963 243.884 451.177 235.616 451.11 235.481C451.043 235.347 451.043 235.212 451.178 235.145C451.312 235.078 451.447 235.078 451.514 235.212C451.581 235.28 457.501 243.683 458.375 253.161C459.183 261.967 463.824 278.571 472.838 285.495C472.973 285.562 472.973 285.764 472.906 285.831C472.838 286.033 472.771 286.033 472.636 286.033Z" fill="#7C81EA"/>
<path d="M497.257 287.041C497.257 286.369 496.652 285.831 495.979 285.831H479.498H478.96H462.479C461.806 285.831 461.201 286.369 461.201 287.041C461.133 288.923 461.133 292.688 461.604 296.587C462.142 300.956 463.421 304.519 464.026 305.998C464.228 306.469 464.699 306.805 465.237 306.805H478.96H479.431H493.154C493.692 306.805 494.163 306.469 494.365 305.998C494.97 304.452 496.248 300.889 496.786 296.587C497.325 292.688 497.257 288.923 497.257 287.041Z" fill="#263287"/>
<path d="M1024.99 294.772C1024.85 294.772 1024.72 294.637 1024.65 294.503C1021.35 261.16 1048.73 231.851 1049 231.582C1049.14 231.448 1049.34 231.448 1049.47 231.582C1049.61 231.717 1049.61 231.919 1049.47 232.053C1049.2 232.322 1021.96 261.362 1025.26 294.503C1025.32 294.57 1025.19 294.772 1024.99 294.772Z" fill="#7C81EA"/>
<path d="M1031.18 260.085C1031.18 260.085 1039.79 239.447 1050.68 249.262C1055.8 253.9 1042.81 252.489 1031.18 260.085Z" fill="#7C81EA"/>
<path d="M1031.18 259.48C1031.18 259.48 1036.02 237.632 1021.49 239.38C1014.63 240.187 1026 246.573 1031.18 259.48Z" fill="#7C81EA"/>
<path d="M1040.39 242.943C1040.39 242.943 1053.31 224.658 1061.78 236.624C1065.82 242.271 1053.44 238.103 1040.39 242.943Z" fill="#7C81EA"/>
<path d="M1040.59 242.338C1040.59 242.338 1050.08 222.037 1035.48 220.625C1028.55 220.02 1038.31 228.625 1040.59 242.338Z" fill="#7C81EA"/>
<path d="M1048.4 232.524C1048.4 232.524 1047.25 225.936 1055.12 220.356C1062.99 214.777 1063.53 227.751 1048.4 232.524Z" fill="#7C81EA"/>
<path d="M1020.35 294.772C1020.55 294.772 1020.68 294.637 1020.68 294.436C1024.31 257.396 993.976 224.995 993.64 224.658C993.505 224.524 993.304 224.524 993.169 224.658C993.034 224.793 993.034 224.995 993.169 225.129C993.505 225.465 1023.64 257.665 1020.01 294.368C1019.94 294.57 1020.08 294.772 1020.35 294.772C1020.28 294.772 1020.28 294.772 1020.35 294.772Z" fill="#F5F8FF"/>
<path d="M1019.87 278.033C1019.87 278.033 1012.95 251.548 998.08 261.564C991.084 266.337 1007.03 266.874 1019.87 278.033Z" fill="#F5F8FF"/>
<path d="M1019.94 277.294C1019.94 277.294 1017.79 250.001 1035.15 254.64C1043.35 256.858 1028.42 262.505 1019.94 277.294Z" fill="#F5F8FF"/>
<path d="M1013.48 256.253C1013.48 256.253 1003.93 233.33 991.824 244.288C986.106 249.464 1000.5 247.918 1013.48 256.253Z" fill="#F5F8FF"/>
<path d="M1013.42 255.581C1013.42 255.581 1008.04 231.381 1024.18 233.33C1031.85 234.271 1019.2 241.263 1013.42 255.581Z" fill="#F5F8FF"/>
<path d="M1003.19 237.296C1003.19 237.296 988.864 216.995 979.446 230.238C975.006 236.49 988.729 231.919 1003.19 237.296Z" fill="#F5F8FF"/>
<path d="M1002.99 236.624C1002.99 236.624 992.496 214.105 1008.64 212.558C1016.38 211.819 1005.55 221.432 1002.99 236.624Z" fill="#F5F8FF"/>
<path d="M994.312 225.734C994.312 225.734 995.591 218.407 986.846 212.222C978.101 206.038 977.495 220.423 994.312 225.734Z" fill="#F5F8FF"/>
<path d="M1038.91 289.192C1038.91 288.587 1038.37 288.117 1037.77 288.117H1023.1H1022.63H1007.97C1007.36 288.117 1006.82 288.587 1006.82 289.192C1006.76 290.873 1006.76 294.234 1007.16 297.73C1007.63 301.629 1008.78 304.788 1009.31 306.132C1009.52 306.536 1009.92 306.872 1010.39 306.872H1022.63H1023.1H1035.35C1035.82 306.872 1036.22 306.603 1036.42 306.132C1036.96 304.788 1038.11 301.629 1038.58 297.73C1038.98 294.234 1038.98 290.873 1038.91 289.192Z" fill="#263287"/>
<path d="M206.989 114.413H132.387V119.186H206.989V114.413Z" fill="#C5D2FF"/>
<path d="M196.764 141.571H132.387V146.344H196.764V141.571Z" fill="#E2E8FE"/>
<path d="M184.117 127.992H132.118V132.765H184.117V127.992Z" fill="#C5D2FF"/>
<path d="M160.842 155.486H132.118V160.259H160.842V155.486Z" fill="#E2E8FE"/>
<path d="M237.462 186.543H229.524V217.533H237.462V186.543Z" fill="#C5D2FF"/>
<path d="M237.462 199.786H229.524V217.466H237.462V199.786Z" fill="#9AACFE"/>
<path d="M254.952 172.695H247.014V217.533H254.952V172.695Z" fill="#C5D2FF"/>
<path d="M254.952 190.778H247.014V217.533H254.952V190.778Z" fill="#9AACFE"/>
<path d="M292.892 155.419H284.954V217.398H292.892V155.419Z" fill="#C5D2FF"/>
<path d="M292.892 171.821H284.954V217.466H292.892V171.821Z" fill="#9AACFE"/>
<path d="M273.047 162.612H265.11V217.398H273.047V162.612Z" fill="#C5D2FF"/>
<path d="M273.047 178.947H265.11V217.398H273.047V178.947Z" fill="#9AACFE"/>
<path d="M271.097 124.026V104.599C260.603 104.599 252.059 113.27 252.059 124.026C252.059 134.782 260.603 143.453 271.097 143.453C281.389 143.453 289.73 135.118 290.067 124.698L271.097 124.026Z" fill="#9AACFE"/>
<path d="M294.103 120.799C294.103 120.598 294.103 120.329 294.103 120.127C294.103 109.371 285.56 100.7 275.066 100.7V120.127L294.103 120.799Z" fill="#C5D2FF"/>
<path d="M373.75 163.62L373.346 161.469C373.145 160.394 374.49 159.789 375.23 160.595L376.643 162.276C376.912 162.545 377.248 162.679 377.652 162.612L379.804 162.209C380.881 162.007 381.486 163.351 380.679 164.091L378.997 165.502C378.728 165.771 378.593 166.107 378.661 166.511L379.064 168.662C379.266 169.737 377.921 170.342 377.181 169.536L375.768 167.855C375.499 167.586 375.163 167.452 374.759 167.519L372.606 167.922C371.53 168.124 370.925 166.78 371.732 166.04L373.414 164.629C373.683 164.36 373.817 164.024 373.75 163.62Z" fill="#DEE7FF"/>
<path d="M352.224 65.0044L351.955 63.3911C351.82 62.5844 352.829 62.1139 353.367 62.7189L354.444 63.9961C354.646 64.1978 354.915 64.3322 355.184 64.265L356.798 63.9961C357.605 63.8616 358.076 64.87 357.471 65.4078L356.193 66.4833C355.991 66.685 355.856 66.9539 355.924 67.2228L356.193 68.8361C356.327 69.6428 355.318 70.1134 354.78 69.5084L353.704 68.2311C353.502 68.0294 353.233 67.895 352.964 67.9622L351.349 68.2311C350.542 68.3656 350.071 67.3572 350.677 66.8194L351.955 65.7439C352.224 65.6094 352.291 65.2733 352.224 65.0044Z" fill="white"/>
<path d="M418.484 5.04172L418.215 3.42838C418.081 2.6217 419.09 2.15114 419.628 2.75615L420.704 4.03338C420.906 4.23505 421.175 4.3695 421.444 4.30227L423.059 4.03338C423.866 3.89894 424.337 4.90728 423.732 5.44506L422.453 6.52062C422.252 6.72229 422.117 6.99118 422.184 7.26008L422.453 8.87342C422.588 9.68009 421.579 10.1507 421.041 9.54565L419.964 8.26842C419.763 8.06675 419.494 7.9323 419.224 7.99953L417.61 8.26842C416.803 8.40286 416.332 7.39452 416.937 6.85674L418.215 5.78117C418.417 5.57951 418.552 5.31061 418.484 5.04172Z" fill="white"/>
<path d="M281.456 315.409L280.985 314.804C280.985 314.804 275.536 313.796 273.518 306.603C272.577 303.175 271.5 301.494 270.558 300.687C269.415 299.679 267.599 300.553 267.666 302.099C267.935 307.074 268.809 323.476 270.155 325.022C271.769 326.837 275.536 325.089 276.209 325.157C276.882 325.291 281.994 321.795 281.994 321.795L281.456 315.409Z" fill="#151C74"/>
<path d="M285.492 314.266L280.582 314.737C280.582 314.737 278.9 319.308 281.254 321.728C283.609 324.148 285.291 320.048 285.291 320.048L285.492 314.266Z" fill="#F9C796"/>
<path d="M350.677 308.754C350.677 308.754 299.013 308.082 284.752 314.065C284.752 314.065 283.541 320.72 284.752 322.804C285.963 324.888 326.325 326.837 333.456 325.157C333.456 325.157 361.776 326.972 373.01 325.157C384.244 323.342 367.427 314.535 365.812 314.065C364.198 313.594 350.677 308.754 350.677 308.754Z" fill="#4258A0"/>
<path d="M338.434 263.244L335.07 265.53L327.065 253.699C326.661 253.094 326.931 252.287 327.67 252.085L329.016 251.682C329.419 251.548 329.89 251.749 330.159 252.085L338.434 263.244Z" fill="#8896A0"/>
<path d="M358.345 245.296C358.345 245.296 356.596 244.556 356.731 242.136C356.865 239.716 357.874 232.927 367.292 233.263C376.172 233.666 379.468 236.893 382.024 242.54C384.581 248.254 385.455 252.959 393.393 256.657C401.398 260.354 402.743 265.933 400.322 271.58C397.9 277.227 392.653 275.949 391.644 276.017C390.635 276.084 374.961 257.463 374.961 257.463C374.961 257.463 370.185 251.951 369.31 251.346C368.436 250.741 358.345 245.296 358.345 245.296Z" fill="#151C74"/>
<path d="M404.425 311.846C404.425 311.846 406.376 316.686 409.067 318.501C411.757 320.249 423.126 322.333 423.395 325.157C423.395 325.157 424.471 325.694 421.646 325.627C418.821 325.493 409.739 324.82 407.923 325.627C406.107 326.434 405.232 327.577 403.147 327.913C401.062 328.249 403.012 324.081 402.272 322.333C401.532 320.518 398.505 314.535 398.505 314.535L404.425 311.846Z" fill="#F9C796"/>
<path d="M395.747 287.176C395.747 287.176 400.725 305.864 406.712 312.384C406.712 312.384 401.734 317.291 395.344 317.762C395.344 317.762 392.586 316.619 391.24 309.628C389.895 302.704 395.747 287.176 395.747 287.176Z" fill="#EA6E83"/>
<path d="M339.106 273.328C339.106 273.328 336.954 270.101 334.868 269.227C332.716 268.353 328.612 265.194 328.68 260.421C328.747 255.648 334.667 262.438 336.819 263.446C336.819 263.446 338.299 262.639 340.183 264.522C341.999 266.404 340.99 268.353 341.461 268.757C341.932 269.16 342.941 270.168 342.941 270.168L339.106 273.328Z" fill="#F9C796"/>
<path d="M357.605 244.556C357.605 244.556 357.202 257.127 361.036 260.018C364.871 262.841 371.396 259.48 371.396 259.48C371.396 259.48 372.876 262.505 372.068 264.118L381.015 262.034C381.015 262.034 378.93 260.69 375.23 256.791C371.598 252.959 371.598 251.682 371.598 251.682C371.598 251.682 373.952 251.144 373.279 248.993C372.607 246.842 369.849 245.901 368.234 250.338C368.234 250.338 366.956 249.598 365.745 247.985C364.602 246.304 359.624 244.153 357.605 244.556Z" fill="#F9C796"/>
<path d="M302.915 312.989C302.915 312.989 300.426 312.653 296.054 315.073C291.681 317.493 286.165 320.048 282.936 320.921C279.707 321.795 279.304 325.56 279.64 326.232C279.909 326.904 305.001 327.106 307.759 326.635C310.517 326.165 309.373 321.728 309.373 321.19C309.373 320.653 308.566 317.359 308.566 317.359L302.915 312.989Z" fill="#151C74"/>
<path d="M307.153 307.746L301.906 313.325C301.906 313.325 303.386 317.762 308.566 317.359C308.566 317.359 309.911 315.611 310.853 315.14C311.795 314.67 307.153 307.746 307.153 307.746Z" fill="#F9C796"/>
<path d="M375.97 302.704C375.97 302.704 344.757 287.646 335.272 287.781C325.787 287.915 306.077 307.477 306.077 307.477C306.077 307.477 307.759 314.939 310.988 316.485C314.217 318.031 332.447 311.645 338.366 303.242C338.366 303.242 365.341 338.131 387.742 319.779L389.357 317.762C389.424 317.829 378.392 312.989 375.97 302.704Z" fill="#5162BC"/>
<path d="M381.15 261.833C381.15 261.833 371.934 259.278 370.252 268.958C368.57 278.638 372.808 285.226 371.598 291.478C370.387 297.797 368.638 299.343 368.638 299.343C368.638 299.343 379.872 315.409 389.424 317.829C389.424 317.829 410.21 291.948 381.15 261.833Z" fill="#FE8291"/>
<path d="M376.643 261.698C376.643 261.698 370.992 261.9 356.933 280.05C356.933 280.05 348.659 270.706 343.546 269.429C343.546 269.429 339.308 271.042 337.828 273.664C337.828 273.664 344.824 291.68 353.233 292.083C361.642 292.486 380.275 279.042 381.419 271.042C382.63 263.11 378.863 261.765 376.643 261.698Z" fill="#FE8291"/>
<path d="M170.865 333.492C192.562 333.492 210.15 331.175 210.15 328.316C210.15 325.457 192.562 323.14 170.865 323.14C149.168 323.14 131.579 325.457 131.579 328.316C131.579 331.175 149.168 333.492 170.865 333.492Z" fill="#E2E8FE"/>
<path d="M181.224 318.233C181.224 318.233 183.512 322.199 187.615 323.947C191.719 325.694 191.92 326.299 192.324 327.375C192.66 328.45 175.103 328.585 171.201 326.837C171.201 326.837 169.25 323.207 170.663 318.636C172.076 314.065 181.224 318.233 181.224 318.233Z" fill="#FE8291"/>
<path d="M143.822 319.443C143.822 319.443 146.11 323.409 150.213 325.157C154.317 326.904 154.518 327.509 154.922 328.585C155.258 329.66 137.701 329.795 133.799 328.047C133.799 328.047 131.849 324.417 133.261 319.846C134.674 315.275 143.822 319.443 143.822 319.443Z" fill="#FE8291"/>
<path d="M169.99 222.642C169.99 223.381 181.224 318.838 181.224 318.838C181.224 318.838 173.287 320.115 170.73 318.569C170.73 318.569 154.384 279.042 151.357 259.614C148.262 240.254 158.756 222.911 158.756 222.911L169.99 222.642Z" fill="#151C74"/>
<path d="M159.564 229.767C159.564 229.767 147.051 315.208 144.226 319.039C141.401 322.871 132.992 319.107 132.992 319.107L131.176 228.49L140.392 223.112L159.564 229.767Z" fill="#263287"/>
<path d="M139.786 165.166C139.786 165.166 137.836 164.629 137.432 163.755C137.028 162.881 135.347 162.612 134.943 159.385C134.539 156.226 130.57 155.15 130.1 150.713C129.561 146.277 129.494 143.924 132.79 141.437C136.019 138.949 138.576 139.218 139.719 136.798C140.863 134.378 147.119 136.059 148.262 135.79C148.868 135.656 149.675 135.051 150.28 134.513C150.819 134.042 151.626 134.311 151.895 134.983C152.635 137.202 153.711 141.302 151.895 142.714C149.406 144.596 144.428 162.007 142.679 163.082C140.997 164.158 139.786 165.166 139.786 165.166Z" fill="#021551"/>
<path d="M189.97 127.925C189.902 127.723 192.795 120.53 193.266 118.783C193.804 117.035 201.136 110.985 201.473 111.388C201.809 111.791 197.84 118.648 197.84 118.648C197.84 118.648 200.665 123.421 200.598 125.303C200.531 127.185 194.409 129.74 194.409 129.74L192.593 131.353C192.66 131.353 190.642 131.488 189.97 127.925Z" fill="#F9C796"/>
<path d="M148.128 166.444L151.02 165.771C151.02 165.771 158.958 178.544 161.514 190.24C164.071 202.004 163.936 227.347 163.936 227.347C163.936 227.347 152.568 233.734 142.746 230.776L137.23 170.343L138.71 167.25L148.128 166.444Z" fill="white"/>
<path d="M189.499 127.925C189.499 127.925 193.333 131.219 193.468 131.891C193.602 132.563 182.839 169.401 166.156 181.501L153.038 164.158C153.106 164.158 165.685 164.292 189.499 127.925Z" fill="#4CACFB"/>
<path d="M135.885 168.931L135.279 168.528C135.279 168.528 119.807 177.871 116.915 194.946C114.022 212.021 120.614 222.507 124.583 229.364C128.552 236.221 130.57 238.91 130.57 238.91L135.01 235.212C135.01 235.212 124.785 211.08 128.754 199.988C132.723 188.963 136.019 177.132 135.885 168.931Z" fill="#4CACFB"/>
<path d="M149.07 164.427C149.07 164.427 154.317 163.553 156.806 165.301C159.295 167.049 164.542 171.015 167.3 182.577C169.99 194.139 174.565 211.819 179.812 214.911C179.812 214.911 171.807 227.818 163.936 227.482L162.927 227.213C162.927 227.213 162.86 200.458 159.564 191.383C156.267 182.308 150.886 173.636 149.944 169.603C149.002 165.502 149.07 164.427 149.07 164.427Z" fill="#4CACFB"/>
<path d="M139.315 165.368C139.315 165.368 135.279 167.519 133.059 171.821C130.84 176.124 128.821 191.047 130.167 205.5C131.512 219.953 128.821 223.583 128.821 223.583C128.821 223.583 134.876 233.465 143.15 230.843C143.15 230.843 150.011 218.541 145.235 197.433C140.459 176.325 137.836 169.536 139.383 165.973" fill="#4CACFB"/>
<path d="M151.962 142.445C151.962 142.445 158.891 159.654 155.124 161.805C151.357 163.956 149.809 164.158 149.809 164.158L149.944 169.536C149.944 169.536 146.379 172.762 140.594 168.527L138.71 167.317L139.315 164.091C139.315 164.091 142.275 163.351 143.015 160.125C143.755 156.965 143.284 156.495 143.284 156.495C143.284 156.495 139.652 157.503 139.517 154.68C139.383 151.856 143.217 151.52 143.217 151.52C143.217 151.52 142.141 147.688 142.813 146.613C143.553 145.537 151.895 144.663 151.962 142.445Z" fill="#F9C796"/>
<path d="M516.698 172.763C523.125 172.763 528.336 167.556 528.336 161.133C528.336 154.71 523.125 149.503 516.698 149.503C510.271 149.503 505.061 154.71 505.061 161.133C505.061 167.556 510.271 172.763 516.698 172.763Z" fill="#9AACFE"/>
<path d="M575.895 152.932H536.879V156.091H575.895V152.932Z" fill="#DEE7FF"/>
<path d="M567.285 161.133H536.879V164.292H567.285V161.133Z" fill="#DEE7FF"/>
<path d="M574.819 168.864H536.879V172.023H574.819V168.864Z" fill="#DEE7FF"/>
<defs>
<linearGradient id="paint0_linear" x1="645.087" y1="109.299" x2="645.087" y2="152.272" gradientUnits="userSpaceOnUse">
<stop stop-color="white"/>
<stop offset="0.0901431" stop-color="#F2F2F2"/>
<stop offset="0.2579" stop-color="#CFCFCF"/>
<stop offset="0.4851" stop-color="#969696"/>
<stop offset="0.7596" stop-color="#494949"/>
<stop offset="1"/>
</linearGradient>
<linearGradient id="paint1_linear" x1="861.325" y1="67.2056" x2="861.325" y2="107.032" gradientUnits="userSpaceOnUse">
<stop stop-color="white"/>
<stop offset="0.0901431" stop-color="#F2F2F2"/>
<stop offset="0.2579" stop-color="#CFCFCF"/>
<stop offset="0.4851" stop-color="#969696"/>
<stop offset="0.7596" stop-color="#494949"/>
<stop offset="1"/>
</linearGradient>
</defs>
</svg>
