<svg width="612" height="706" viewBox="0 0 612 706" fill="none" xmlns="http://www.w3.org/2000/svg">
<path d="M306.061 656.547C346.93 656.547 384.283 650.834 417.682 638.969L467.34 705.326H590.826L504.693 590.629C576.324 533.939 611.92 442.533 611.92 328.715C611.92 125.688 492.828 0.882812 306.061 0.882812C119.293 0.882812 0.201172 127.885 0.201172 328.715C0.201172 529.984 116.656 656.547 306.061 656.547ZM306.061 548.881C201.031 548.881 134.234 462.309 134.234 328.715C134.234 195.561 201.031 108.988 306.061 108.988C411.09 108.988 478.766 195.561 478.766 328.715C478.766 395.072 460.748 451.762 427.35 488.676L389.557 437.26H266.07L345.172 543.607C333.307 547.123 320.123 548.881 306.061 548.881Z" fill="white"/>
</svg>
