<svg width="22" height="24" viewBox="0 0 22 24" fill="none" xmlns="http://www.w3.org/2000/svg">
<path d="M9.05943 11.9986L1.11226 7.40545C0.743427 7.19222 0.270861 7.27867 0 7.61292V16.5686C0.282387 16.7991 0.674271 16.8337 0.991235 16.6551L9.05943 11.9986ZM10.7883 11.0016L19.4559 5.99352C19.7959 5.79757 19.963 5.39416 19.8535 5.01381L19.5077 4.8121L15.975 2.772L11.6701 0.282387C11.6355 0.265098 11.6067 0.247809 11.5779 0.23052L11.549 0.213231C11.5202 0.201705 11.4972 0.190179 11.4684 0.178653L11.4223 0.161364C11.3992 0.149838 11.3762 0.144075 11.3531 0.132549C11.3301 0.121023 11.3185 0.11526 11.2955 0.109497C11.2724 0.103734 11.2551 0.0979709 11.2321 0.0922079C11.209 0.086445 11.186 0.080682 11.1687 0.069156C11.1514 0.05763 11.1341 0.063393 11.1168 0.05763C11.0995 0.051867 11.065 0.046104 11.0419 0.040341L10.9958 0.034578C10.967 0.028815 10.9382 0.023052 10.9094 0.023052L10.869 0.017289C10.8402 0.011526 10.8114 0.011526 10.7826 0.005763H10.748C10.7192 0 10.6846 0 10.6558 0H10.6327C10.5982 0 10.5636 0 10.5232 0.005763H10.5117C10.2005 0.028815 9.90083 0.126786 9.63573 0.282387L8.85773 0.731901L5.32501 2.772L1.01429 5.26162C0.86445 5.34806 0.731901 5.44603 0.605115 5.56129C1.08344 5.54977 1.55601 5.66503 1.97094 5.90707L10.7883 11.0016ZM21.2597 6.55829C21.0349 6.94441 20.7122 7.26714 20.3203 7.4919L12.5172 11.9986L2.23604 17.9344L1.85568 18.1534C1.64822 18.2745 1.4177 18.3667 1.18718 18.4243C1.02005 18.4646 0.852924 18.4877 0.680034 18.4935C0.783768 18.5857 0.899028 18.6663 1.02005 18.7355L1.80382 19.1908L5.33077 21.2251L9.64149 23.7147C10.2639 24.0951 11.0477 24.0951 11.6758 23.7147L12.4538 23.2652L15.9866 21.2251L20.2973 18.7355C20.937 18.384 21.3288 17.7097 21.3116 16.9778V7.01933C21.3058 6.86373 21.2943 6.70813 21.2597 6.55829Z" fill="white"/>
</svg>
