<svg width="52" height="52" viewBox="0 0 52 52" fill="none" xmlns="http://www.w3.org/2000/svg">
<path d="M50.9322 1H1V17.5792H50.9322V1ZM21.8451 9.548L3.00879 15.2235V4.13313L21.8451 9.548ZM6.36835 3.00879H43.5472L25.3952 8.47859L6.36835 3.00879ZM25.4081 10.5726L42.7961 15.5704H8.82049L25.4081 10.5726ZM28.9588 9.5026L48.9234 3.48745V15.2414L28.9588 9.5026Z" fill="#3964F9" stroke="#3964F9" stroke-width="0.7"/>
<path d="M1.00061 34.4656H17.4902V20.9326H1.00061V34.4656ZM10.8585 27.6988L15.4819 24.0203V31.3784L10.8585 27.6988ZM13.6105 32.4568H4.87975L9.24483 28.9829L13.6105 32.4568ZM9.24539 26.4159L4.88031 22.942H13.611L9.24539 26.4159ZM7.6323 27.6988L3.00884 31.3779V24.0203L7.6323 27.6988Z" fill="#3964F9" stroke="#3964F9" stroke-width="0.7"/>
<path d="M51.1233 21.113H19.7909V23.1218H51.1233V21.113Z" fill="#3964F9" stroke="#3964F9" stroke-width="0.7"/>
<path d="M30.615 32.6064H19.7909V34.6152H30.615V32.6064Z" fill="#3964F9" stroke="#3964F9" stroke-width="0.7"/>
<path d="M47.6197 26.8604H19.7909V28.8686H47.6197V26.8604Z" fill="#3964F9" stroke="#3964F9" stroke-width="0.7"/>
<path d="M1.00061 50.8502H17.4902V37.3167H1.00061V50.8502ZM10.8585 44.0834L15.4819 40.4049V47.763L10.8585 44.0834ZM13.611 48.8414H4.87975L9.24539 45.3675L13.611 48.8414ZM9.24539 42.7999L4.87975 39.326H13.6116L9.24539 42.7999ZM7.6323 44.0834L3.00884 47.7625V40.4044L7.6323 44.0834Z" fill="#3964F9" stroke="#3964F9" stroke-width="0.7"/>
<path d="M51.1233 37.4983H19.7909V39.5065H51.1233V37.4983Z" fill="#3964F9" stroke="#3964F9" stroke-width="0.7"/>
<path d="M30.615 48.9912H19.7909V51H30.615V48.9912Z" fill="#3964F9" stroke="#3964F9" stroke-width="0.7"/>
<path d="M47.6197 43.2446H19.7909V45.2534H47.6197V43.2446Z" fill="#3964F9" stroke="#3964F9" stroke-width="0.7"/>
</svg>
