<!--<?xml-stylesheet type="text/css" href="../../build/app.css" ?>-->
<svg width="13" height="20" viewBox="0 0 13 20" fill="none" xmlns="http://www.w3.org/2000/svg" class="socialPath">
    <defs>
        <style type="text/css"><![CDATA[
       .socialPath:hover {
         fill: #fff;
       }
       .socialPath{
         fill: #010;
       }
    ]]></style>
    </defs>
<path d="M11.7199 0.00416134L9.02155 0C5.99003 0 4.03093 1.9319 4.03093 4.92203V7.19141H1.31785C1.0834 7.19141 0.893555 7.37409 0.893555 7.59943V10.8875C0.893555 11.1128 1.08362 11.2953 1.31785 11.2953H4.03093V19.5922C4.03093 19.8175 4.22078 20 4.45522 20H7.99502C8.22947 20 8.41932 19.8173 8.41932 19.5922V11.2953H11.5915C11.826 11.2953 12.0158 11.1128 12.0158 10.8875L12.0171 7.59943C12.0171 7.49124 11.9723 7.38762 11.8929 7.31105C11.8134 7.23448 11.7052 7.19141 11.5926 7.19141H8.41932V5.26763C8.41932 4.34298 8.64856 3.87358 9.90174 3.87358L11.7195 3.87295C11.9537 3.87295 12.1436 3.69027 12.1436 3.46514V0.411972C12.1436 0.187052 11.9539 0.00457747 11.7199 0.00416134Z" fill="#3964F9"/>
</svg>
