<svg width="22" height="22" viewBox="0 0 22 22" fill="none" xmlns="http://www.w3.org/2000/svg">
<path d="M10.9999 7.90615C12.7084 7.90615 14.0936 9.29112 14.0936 10.9999C14.0936 12.7084 12.7084 14.0936 10.9999 14.0936C9.29121 14.0936 7.90619 12.7084 7.90619 10.9999C7.90619 9.29112 9.29121 7.90615 10.9999 7.90615Z" fill="#3964F9"/>
<path fill-rule="evenodd" clip-rule="evenodd" d="M6.46526 0.0664668C7.6386 0.0129661 8.01352 0 11.0009 0C13.9863 0 14.3598 0.0129661 15.5327 0.0664668C16.7038 0.120093 17.5036 0.305395 18.2048 0.57743C18.929 0.858152 19.5409 1.23404 20.1527 1.84584C20.7646 2.45726 21.1405 3.07107 21.4223 3.79452C21.6927 4.49393 21.8784 5.2933 21.9334 6.46427C21.9861 7.63764 21.9998 8.01252 21.9998 11C21.9998 13.9874 21.9861 14.3614 21.9334 15.5347C21.8784 16.7053 21.6927 17.5049 21.4223 18.2046C21.1405 18.9278 20.7646 19.5415 20.1527 20.1529C19.5416 20.7648 18.9288 21.1416 18.2055 21.4226C17.5056 21.6945 16.7054 21.8799 15.5343 21.9335C14.361 21.9869 13.9872 22 10.9996 22C8.01237 22 7.63768 21.9869 6.46435 21.9335C5.29353 21.8799 4.49397 21.6945 3.79409 21.4226C3.07107 21.1416 2.45736 20.7648 1.84617 20.1529C1.23452 19.5415 0.858687 18.9278 0.577501 18.2043C0.305709 17.5049 0.120306 16.7056 0.0664589 15.5345C0.0132886 14.3612 0 13.9874 0 11C0 8.01252 0.013745 7.63739 0.0662229 6.46402C0.118937 5.29355 0.304561 4.49393 0.577273 3.79427C0.859143 3.07107 1.23498 2.45726 1.84685 1.84584C2.45827 1.23429 3.07199 0.858403 3.79547 0.57743C4.49489 0.305395 5.29422 0.120093 6.46526 0.0664668ZM15.9727 4.67017C15.9727 3.94118 16.5639 3.35066 17.2927 3.35066C18.0214 3.35066 18.6127 3.94143 18.6127 4.67017C18.6127 5.39892 18.0214 5.99019 17.2927 5.99019C16.5639 5.99019 15.9727 5.39892 15.9727 4.67017ZM10.9999 5.84366C13.8474 5.84366 16.1561 8.152 16.1561 10.9999C16.1561 13.8474 13.8474 16.1561 10.9999 16.1561C8.15207 16.1561 5.8437 13.8474 5.8437 10.9999C5.8437 8.152 8.15207 5.84366 10.9999 5.84366Z" fill="#3964F9"/>
</svg>
