<svg width="24" height="18" viewBox="0 0 24 18" fill="none" xmlns="http://www.w3.org/2000/svg">
<path d="M23.4769 2.07053C22.6181 2.42189 21.6966 2.66017 20.7284 2.76656C21.717 2.21996 22.4737 1.35299 22.8324 0.323092C21.9051 0.829273 20.8815 1.19683 19.7909 1.39607C18.9175 0.535822 17.6752 0 16.2973 0C13.6539 0 11.5105 1.979 11.5105 4.41841C11.5105 4.76439 11.5528 5.1023 11.6345 5.42543C7.6569 5.24096 4.12986 3.48142 1.76927 0.807729C1.35662 1.45933 1.12188 2.21859 1.12188 3.02906C1.12188 4.56246 1.96756 5.91545 3.25067 6.70702C2.46622 6.6828 1.72843 6.48355 1.08253 6.15236V6.20756C1.08253 8.34811 2.73306 10.1346 4.9216 10.5412C4.52062 10.6408 4.0978 10.696 3.66037 10.696C3.35128 10.696 3.05237 10.6677 2.75929 10.6139C3.36875 12.3707 5.13594 13.6483 7.22973 13.6833C5.59232 14.8681 3.52769 15.5722 1.28521 15.5722C0.898839 15.5722 0.518261 15.5506 0.143555 15.5116C2.26213 16.7676 4.77729 17.5 7.48053 17.5C16.2858 17.5 21.0988 10.766 21.0988 4.92597L21.0828 4.35382C22.0232 3.73449 22.8368 2.95637 23.4769 2.07053Z" fill="#3964F9"/>
</svg>
