<svg width="27" height="15" viewBox="0 0 27 15" fill="none" xmlns="http://www.w3.org/2000/svg">
<path fill-rule="evenodd" clip-rule="evenodd" d="M14.9257 14.9373C14.9257 14.9373 15.4047 14.8846 15.65 14.6235C15.8745 14.3843 15.8667 13.933 15.8667 13.933C15.8667 13.933 15.8369 11.8252 16.8247 11.514C17.7982 11.208 19.0481 13.5523 20.3747 14.4538C21.3767 15.1353 22.1374 14.9862 22.1374 14.9862L25.6822 14.9373C25.6822 14.9373 27.5357 14.8241 26.657 13.38C26.5843 13.2617 26.1443 12.3113 24.0221 10.3592C21.7986 8.31579 22.0971 8.64629 24.7736 5.11113C26.4039 2.9584 27.0555 1.64413 26.8517 1.08215C26.6583 0.544615 25.4589 0.687359 25.4589 0.687359L21.4689 0.711793C21.4689 0.711793 21.173 0.671927 20.9536 0.801811C20.7394 0.929123 20.6005 1.22618 20.6005 1.22618C20.6005 1.22618 19.9697 2.89153 19.1273 4.30868C17.3504 7.2973 16.6404 7.45547 16.3496 7.27029C15.6733 6.83692 15.8421 5.53165 15.8421 4.60445C15.8421 1.70714 16.286 0.499606 14.9789 0.187113C14.5454 0.0829483 14.2261 0.0147914 13.1163 0.00321757C11.6924 -0.0109282 10.4878 0.00836147 9.8051 0.338858C9.3508 0.558761 9.00034 1.05001 9.21451 1.0783C9.478 1.11302 10.0751 1.23776 10.3918 1.6647C10.8007 2.21639 10.7864 3.4535 10.7864 3.4535C10.7864 3.4535 11.0213 6.86392 10.2373 7.28701C9.69996 7.57764 8.9627 6.9848 7.37784 4.27267C6.5666 2.88381 5.95394 1.34835 5.95394 1.34835C5.95394 1.34835 5.83582 1.06158 5.62425 0.907262C5.36854 0.720794 5.01159 0.662925 5.01159 0.662925L1.22015 0.687359C1.22015 0.687359 0.650325 0.702791 0.441347 0.948413C0.255733 1.16574 0.427069 1.61712 0.427069 1.61712C0.427069 1.61712 3.39559 8.4984 6.7574 11.9667C9.84014 15.1456 13.3395 14.9373 13.3395 14.9373H14.9257Z" fill="#3964F9"/>
</svg>
