<svg width="52" height="52" viewBox="0 0 52 52" fill="none" xmlns="http://www.w3.org/2000/svg">
<path d="M25.0385 1H1V25.0385V26.9615V51H25.0385H26.9615H51V26.9615V25.0385V1H26.9615H25.0385ZM2.92308 2.92308H25.0385V10.201L25.1396 10.4038C25.1461 10.4169 25.1716 10.4671 25.2164 10.5449C25.2724 10.6421 25.3583 10.7824 25.4749 10.9473C25.8246 11.442 26.4495 12.158 27.3642 12.5963C27.8519 12.8301 28.4221 12.9848 29.0768 12.9848C29.0771 12.9848 29.0771 12.9848 29.0771 12.9848C29.7795 12.9848 30.506 12.8008 31.2346 12.4383C32.4153 11.8536 33.3007 11.5569 33.866 11.5569C34.1609 11.5569 34.6538 11.5569 34.6538 13.1795V14.7821C34.6538 16.4046 34.1609 16.4046 33.866 16.4046C33.3007 16.4046 32.4153 16.1079 31.2356 15.5239C30.5056 15.1608 29.7795 14.9767 29.0768 14.9767C27.0715 14.9767 25.8597 16.4281 25.3782 17.1555C25.3094 17.2595 25.2556 17.3486 25.2164 17.4167C25.1716 17.4944 25.1461 17.5446 25.1396 17.5577L25.0385 17.7606V25.0385H18.2354C17.6829 24.7023 16.261 23.6012 17.246 21.6192C18.0686 19.9597 18.7963 18.0811 17.9568 16.7283C17.4119 15.85 16.3733 15.4231 14.7821 15.4231H13.1795C11.5882 15.4231 10.5497 15.85 10.0047 16.7283C9.16525 18.0811 9.89298 19.9597 10.7159 21.6205C11.6915 23.583 10.3143 24.6791 9.72458 25.0385H2.92308V2.92308ZM25.0385 49.0769H2.92308V26.9615H10.201L10.4038 26.8601C12.0348 26.0463 13.9226 23.7514 12.4383 20.7654C11.366 18.6019 11.5218 17.9302 11.6389 17.7424C11.7926 17.4939 12.3685 17.3462 13.1795 17.3462H14.7821C15.593 17.3462 16.169 17.4939 16.3226 17.7424C16.4397 17.9302 16.5956 18.6019 15.5236 20.7641C14.039 23.7514 15.9267 26.0463 17.5577 26.8601L17.7606 26.9615H25.0385V33.7537C24.7834 34.1493 24.0528 35.1002 22.9232 35.1002C22.5204 35.1002 22.0819 34.9837 21.6192 34.754C20.13 34.016 19.0226 33.6723 18.134 33.6723C17.1214 33.6723 15.4231 34.1324 15.4231 37.2179V38.8205C15.4231 39.0644 15.4371 39.2863 15.4571 39.4984C15.4641 39.5749 15.4731 39.649 15.4825 39.7223C15.5023 39.8712 15.527 40.0116 15.5562 40.1446C15.5767 40.2392 15.5997 40.3309 15.6252 40.4194C15.6617 40.5454 15.702 40.6642 15.7467 40.7749C15.7702 40.8326 15.7938 40.8905 15.82 40.9452C15.8898 41.0931 15.9666 41.2265 16.0497 41.346C16.0556 41.3544 16.0594 41.3651 16.0654 41.3733C16.0936 41.4124 16.1271 41.4525 16.1598 41.4924C16.2354 41.5854 16.316 41.665 16.398 41.74C16.4464 41.7841 16.5014 41.8261 16.5566 41.8681C16.5939 41.8964 16.6309 41.9257 16.669 41.951C16.7437 42.0007 16.8195 42.043 16.8962 42.0819C16.9262 42.0971 16.9557 42.1146 16.9859 42.1283C17.1068 42.1831 17.2284 42.2298 17.3492 42.2629C17.3755 42.2703 17.4025 42.2768 17.4296 42.2834C17.5313 42.3079 17.6319 42.3281 17.7294 42.3406C17.7399 42.342 17.7512 42.3425 17.7618 42.3437C17.8922 42.3591 18.018 42.3662 18.134 42.3662C19.0229 42.3662 20.1303 42.0225 21.6202 41.2838C22.0819 41.0547 22.5204 40.9383 22.9232 40.9383C23.1296 40.9383 23.318 40.978 23.4974 41.0325C23.9835 41.1801 24.368 41.4852 24.6422 41.7813C24.82 41.9732 24.9564 42.1587 25.0385 42.2861V49.0769ZM49.0769 49.0769H26.9615V41.799L26.8604 41.5962C26.8539 41.5831 26.8284 41.5329 26.7836 41.4551C26.764 41.4211 26.7408 41.3818 26.7138 41.338C26.3093 40.6813 25.0718 39.0152 22.9232 39.0152C22.2205 39.0152 21.4944 39.1992 20.7654 39.5617C19.8799 40.0002 19.1605 40.2767 18.6176 40.3876C18.4366 40.4246 18.2751 40.4431 18.1337 40.4431C18.1336 40.4431 18.1337 40.4431 18.1336 40.4431C18.0442 40.4433 17.9725 40.4356 17.9125 40.4236C17.908 40.4225 17.9035 40.4217 17.8989 40.4205C17.8668 40.4135 17.8454 40.403 17.8205 40.3935C17.7136 40.3453 17.6087 40.2488 17.5246 40.0609C17.4358 39.8466 17.3462 39.4719 17.3462 38.8205V37.2179C17.3462 35.5954 17.8391 35.5954 18.134 35.5954C18.6993 35.5954 19.5847 35.8921 20.7644 36.4761C21.4944 36.8392 22.2205 37.0233 22.9232 37.0233C25.0718 37.0233 26.3093 35.3572 26.7138 34.7004C26.7408 34.6567 26.764 34.6174 26.7836 34.5833C26.8284 34.5056 26.8539 34.4554 26.8604 34.4423L26.9615 34.2394V26.9615H33.7646C34.3171 27.2977 35.739 28.3988 34.754 30.3808C33.9314 32.0403 33.2037 33.9189 34.0432 35.2717C34.5881 36.15 35.6267 36.5769 37.2179 36.5769H38.8205C40.4118 36.5769 41.4503 36.15 41.9953 35.2717C42.8348 33.9189 42.107 32.0403 41.2841 30.3795C40.3085 28.417 41.6857 27.3209 42.2754 26.9615H49.0769V49.0769ZM49.0769 25.0385H41.799L41.5962 25.1399C39.9652 25.9537 38.0774 28.2486 39.5617 31.2346C40.634 33.3981 40.4782 34.0698 40.3611 34.2576C40.2074 34.5061 39.6315 34.6538 38.8205 34.6538H37.2179C36.407 34.6538 35.831 34.5061 35.6774 34.2576C35.5603 34.0698 35.4044 33.3981 36.4765 31.2359C37.961 28.2486 36.0733 25.9537 34.4423 25.1399L34.2394 25.0385H26.9615V18.2463C27.2166 17.8507 27.9472 16.8998 29.0768 16.8998C29.4796 16.8998 29.9181 17.0163 30.3808 17.246C31.87 17.9841 32.9774 18.3277 33.866 18.3277C34.8786 18.3277 36.5769 17.8676 36.5769 14.7821V13.1795C36.5769 10.0939 34.8786 9.63381 33.866 9.63381C32.9774 9.63381 31.87 9.97749 30.3798 10.7162C30.2644 10.7734 30.1504 10.8237 30.0381 10.8668C29.8276 10.9477 29.6255 10.9945 29.4277 11.025C29.309 11.0434 29.1903 11.0617 29.077 11.0617C27.9487 11.0616 27.2169 10.1096 26.9615 9.71394V2.92308H49.0769V25.0385Z" fill="#3964F9" stroke="#3964F9" stroke-width="1.5"/>
</svg>
