<svg width="52" height="52" viewBox="0 0 52 52" fill="none" xmlns="http://www.w3.org/2000/svg">
<path d="M4.125 47.875V44.7012C4.125 43.8874 4.54818 43.2852 5.39453 42.8945L19.1152 36.4004C20.1895 35.9121 20.7917 35.0983 20.9219 33.959C21.0521 32.8197 20.6777 31.8757 19.7988 31.127C18.3014 29.9551 17.1296 28.2135 16.2832 25.9023C15.4368 23.5911 15.0137 21.5404 15.0137 19.75V11.9375C15.0137 11.4167 15.1683 10.847 15.4775 10.2285C15.7868 9.61003 16.1937 9.01595 16.6982 8.44629C17.2028 7.87663 17.8132 7.33138 18.5293 6.81055C19.2454 6.28971 20.0023 5.83398 20.7998 5.44336C21.5973 5.05273 22.4437 4.73535 23.3389 4.49121C24.234 4.24707 25.1048 4.125 25.9512 4.125C27.6439 4.125 29.361 4.54818 31.1025 5.39453C32.8441 6.24089 34.2438 7.26628 35.3018 8.4707C36.3597 9.67513 36.8887 10.8307 36.8887 11.9375V19.75C36.8887 21.6055 36.498 23.6725 35.7168 25.9512C34.9355 28.2298 33.7962 29.9551 32.2988 31.127C32.0059 31.3548 31.7699 31.6234 31.5908 31.9326C31.4118 32.2419 31.2816 32.5674 31.2002 32.9092C31.1188 33.251 31.0944 33.6009 31.127 33.959C31.1921 34.5124 31.3874 35.0088 31.7129 35.4482C32.0384 35.8877 32.4453 36.2214 32.9336 36.4492L40.8438 40.209L42.6992 37.5723L34.252 33.6172C36.2051 32.0547 37.6536 29.9307 38.5977 27.2451C39.5417 24.5596 40.0137 22.0612 40.0137 19.75V11.9375C40.0137 10.2448 39.3301 8.55208 37.9629 6.85938C36.5957 5.16667 34.8135 3.76693 32.6162 2.66016C30.4189 1.55339 28.2054 1 25.9756 1C23.7458 1 21.5241 1.55339 19.3105 2.66016C17.097 3.76693 15.3066 5.16667 13.9395 6.85938C12.5723 8.55208 11.8887 10.2448 11.8887 11.9375V19.75C11.8887 21.8984 12.3851 24.348 13.3779 27.0986C14.3708 29.8493 15.8438 32.0059 17.7969 33.5684L4.07617 40.0625C4.04362 40.0625 3.99479 40.0869 3.92969 40.1357C3.86458 40.1846 3.7181 40.2659 3.49023 40.3799C3.26237 40.4938 3.05078 40.6159 2.85547 40.7461C2.66016 40.8763 2.44043 41.0391 2.19629 41.2344C1.95215 41.4297 1.7487 41.625 1.58594 41.8203C1.42318 42.0156 1.28483 42.2272 1.1709 42.4551C1.05697 42.6829 1 42.9271 1 43.1875V47.875C1 48.7214 1.30111 49.4538 1.90332 50.0723C2.50553 50.6908 3.22982 51 4.07617 51H35.3262L32.7871 47.875H4.125ZM50.4141 36.3516C50.2839 36.2214 50.1374 36.1318 49.9746 36.083C49.8118 36.0342 49.6572 36.0098 49.5107 36.0098C49.3643 36.0098 49.2096 36.026 49.0469 36.0586C48.8841 36.0911 48.7376 36.1562 48.6074 36.2539C48.4772 36.3516 48.347 36.4655 48.2168 36.5957L41.5273 46.8008L37.377 42.6504C37.084 42.3249 36.7259 42.1621 36.3027 42.1621C35.8796 42.1621 35.5052 42.3249 35.1797 42.6504C35.0495 42.748 34.9518 42.8701 34.8867 43.0166C34.8216 43.1631 34.7728 43.3177 34.7402 43.4805C34.7077 43.6432 34.7077 43.806 34.7402 43.9688C34.7728 44.1315 34.8216 44.2861 34.8867 44.4326C34.9518 44.5791 35.0495 44.7174 35.1797 44.8477L40.6973 50.3652C41.0228 50.6582 41.3971 50.8047 41.8203 50.8047C42.2435 50.8047 42.6178 50.6582 42.9434 50.3652C43.0736 50.235 43.1712 50.0723 43.2363 49.877L50.707 38.5C50.9674 38.1745 51.0732 37.8001 51.0244 37.377C50.9756 36.9538 50.7721 36.612 50.4141 36.3516Z" fill="#3964F9" stroke="#3964F9" stroke-width="0.8"/>
</svg>
