<svg width="63" height="52" viewBox="0 0 63 52" fill="none" xmlns="http://www.w3.org/2000/svg">
<path d="M48.6943 27.03C47.8516 27.4981 46.8216 28.4657 46.7904 30.3383C46.7592 31.1498 46.9153 31.9613 47.0401 32.6792C47.1025 32.9601 47.1337 33.2097 47.1649 33.4594L47.1962 33.7091C47.3522 34.8015 47.5395 36.1748 48.5382 37.236C49.4121 38.1411 50.6294 38.6717 51.7218 38.6092C51.7842 38.6092 51.8466 38.6092 51.909 38.6092C52.9702 38.6092 54.0938 38.1099 54.9053 37.236C55.904 36.1748 56.0913 34.8015 56.2473 33.7091L56.2786 33.4594C56.3098 33.2097 56.3722 32.9601 56.4034 32.6792C56.5282 31.9613 56.6843 31.1498 56.6531 30.3383C56.6219 28.4657 55.5919 27.4981 54.7492 27.03C53.8753 26.5306 52.8141 26.3121 51.7218 26.3121C50.5982 26.2809 49.5682 26.5306 48.6943 27.03ZM53.5944 29.1211C54.0002 29.3396 54.2498 29.6517 54.2811 30.4008C54.2811 30.9626 54.1874 31.6492 54.0626 32.2734C54.0002 32.5855 53.9689 32.8664 53.9065 33.1473L53.8753 33.397C53.7505 34.2709 53.6568 35.1136 53.1887 35.613C52.8141 36.0187 52.2523 36.2684 51.8466 36.2372H51.753H51.6593C51.2536 36.2684 50.6918 36.0187 50.3173 35.613C49.8491 35.1136 49.7242 34.2709 49.6306 33.397L49.5994 33.1473C49.5682 32.8664 49.5058 32.5855 49.4433 32.2734C49.3185 31.618 49.2249 30.9626 49.2249 30.4008C49.2249 29.6517 49.5058 29.3396 49.9115 29.1211C50.4109 28.8402 51.0351 28.6841 51.7218 28.7154H51.7842H51.8466C52.4708 28.6841 53.095 28.8402 53.5944 29.1211Z" fill="#3964F9" stroke="#3964F9"/>
<path d="M61.8342 48.7528C61.6782 47.4732 61.5533 46.2247 61.3973 44.9763C61.3973 44.8202 61.3661 44.6954 61.3348 44.633C61.2724 44.2584 61.1788 43.9775 61.0539 43.7278C60.9291 43.5094 60.8043 43.2909 60.617 43.1036L60.4609 42.9476L60.2737 42.8539C60.18 42.8227 60.0552 42.7603 59.9616 42.7291L59.6182 42.6042H59.587C58.6507 42.2921 55.4048 41.3246 54.999 41.1998L54.843 41.1373H48.5696L45.4485 42.1049C44.8242 42.2921 44.4497 42.9788 44.6682 43.603C44.8554 44.2272 45.5421 44.6017 46.1663 44.3833L48.9441 43.5406H54.4996C56.1538 44.04 58.5259 44.7578 58.9628 44.9139C58.9628 44.9451 58.994 45.0075 58.994 45.0699C58.994 45.1011 58.994 45.1635 59.0252 45.1948C59.1501 46.2871 59.2437 47.3795 59.3686 48.4719H46.8842C46.2287 48.4719 45.6981 49.0025 45.6981 49.6579C45.6981 50.3134 46.2287 50.844 46.8842 50.844H59.6807H60.1176C60.617 50.844 61.0852 50.6255 61.3973 50.2822C61.7406 49.9076 61.8966 49.4395 61.8342 48.9401V48.7528Z" fill="#3964F9" stroke="#3964F9"/>
<path d="M6.52823 33.4594L6.55944 33.7091C6.71549 34.8015 6.90276 36.1748 7.90151 37.236C8.77542 38.1411 9.99265 38.6717 11.085 38.6092C11.1475 38.6092 11.2099 38.6092 11.2723 38.6092C12.3335 38.6092 13.4571 38.1099 14.2686 37.236C15.2673 36.1748 15.4546 34.8015 15.6106 33.7091L15.6418 33.4594C15.673 33.2097 15.7355 32.9601 15.7667 32.6792C15.8915 31.9613 16.0476 31.1498 16.0164 30.3383C15.9852 28.4657 14.9552 27.4981 14.1125 27.03C13.2386 26.5306 12.1774 26.2809 11.085 26.3121C9.99265 26.2809 8.93147 26.5306 8.05757 27.03C7.21487 27.4981 6.18491 28.4657 6.1537 30.3383C6.12249 31.1498 6.27854 31.9613 6.40338 32.6792C6.43459 32.9601 6.49702 33.2097 6.52823 33.4594ZM9.21237 29.1211C9.71175 28.8402 10.336 28.6841 11.0226 28.7154H11.085H11.1475C11.8341 28.6841 12.4583 28.809 12.9577 29.1211C13.3634 29.3396 13.6131 29.6517 13.6443 30.4008C13.6443 30.9626 13.5507 31.6492 13.4259 32.2734C13.3634 32.5855 13.3322 32.8664 13.2698 33.1473L13.2386 33.397C13.1137 34.2709 13.0201 35.1136 12.5519 35.613C12.1774 36.0187 11.6156 36.2684 11.2099 36.2372H11.1162H11.0226C10.6169 36.2684 10.0551 36.0187 9.68054 35.613C9.21237 35.1136 9.08753 34.3021 8.9939 33.397L8.96269 33.1473C8.93147 32.8664 8.86905 32.5855 8.80663 32.2734C8.68179 31.618 8.58815 30.9626 8.58815 30.4008C8.55694 29.6517 8.83784 29.3396 9.21237 29.1211Z" fill="#3964F9" stroke="#3964F9"/>
<path d="M17.3585 42.1049C16.0164 41.6679 14.3934 41.1998 14.3934 41.1998L14.2374 41.1373H7.96397L7.80792 41.1998C7.40217 41.3246 4.15623 42.3233 3.2199 42.6042L2.84537 42.7291C2.75173 42.7603 2.6581 42.7915 2.56447 42.8227L2.34599 42.9164L2.18994 43.0724C2.00267 43.2597 1.87783 43.4469 1.75298 43.6966C1.62814 43.9463 1.53451 44.2272 1.47208 44.6018V44.7266C1.47208 44.8202 1.44087 44.9139 1.44087 45.0075C1.31603 46.2559 1.15997 47.4732 1.03513 48.7216L1.00392 48.9713C0.972709 49.4707 1.12876 49.9388 1.44087 50.3134C1.78419 50.6879 2.25236 50.8752 2.72052 50.8752H15.9852C16.6406 50.8752 17.1712 50.3446 17.1712 49.6891C17.1712 49.0337 16.6406 48.5031 15.9852 48.5031H3.43838C3.56322 47.4107 3.68806 46.3184 3.81291 45.226L3.84412 45.0075C3.84412 44.9763 3.84412 44.9451 3.84412 44.9451C4.31228 44.789 6.68432 44.0712 8.30729 43.5718H13.8628C14.2998 43.6966 15.5482 44.1024 16.6406 44.4145C17.2648 44.6017 17.9515 44.2584 18.1388 43.6342C18.326 42.9788 17.9827 42.2921 17.3585 42.1049Z" fill="#3964F9" stroke="#3964F9"/>
<path d="M43.7318 49.5331C43.6381 48.7528 43.5445 48.1598 43.4509 47.598C43.3572 47.005 43.2636 46.4432 43.2012 45.6629C43.2012 45.5069 43.17 45.3508 43.1387 45.226C43.0763 44.789 42.9515 44.4457 42.8266 44.196C42.7018 43.9151 42.5145 43.6966 42.296 43.4781L42.14 43.3533L41.9527 43.2597C41.7967 43.1972 41.6094 43.1036 41.3909 43.0412L41.2037 42.9788H41.1724C40.1113 42.6354 35.8978 41.3558 35.3984 41.1997L34.8366 41.0125L31.4034 43.4781L27.939 40.9813L27.3772 41.1685C26.8778 41.3246 22.6643 42.6042 21.6032 42.9476L21.3847 43.01C21.1974 43.0724 21.0101 43.1348 20.8541 43.2285L20.6668 43.3221L20.5108 43.4469C20.2923 43.6654 20.105 43.9151 20.0114 44.1336C19.8553 44.4457 19.7617 44.789 19.6993 45.1947C19.6681 45.3508 19.6369 45.5069 19.6369 45.6317C19.5432 46.4432 19.4496 47.0362 19.356 47.598C19.2623 48.1598 19.1687 48.7216 19.0751 49.5331C18.9502 50.1573 19.3248 50.7815 19.949 50.9376C20.5732 51.0936 21.2286 50.7191 21.4159 50.0637L21.4471 49.8452C21.5407 49.0649 21.6344 48.5031 21.6968 47.9725C21.7904 47.3483 21.8841 46.7553 21.9777 45.8502C21.9777 45.7878 21.9777 45.6941 22.0089 45.6005C22.0401 45.4756 22.0401 45.4132 22.0713 45.3508L22.165 45.3196C22.5707 45.1635 25.7542 44.196 27.4708 43.6654L31.341 46.4432L35.2736 43.6654C36.9902 44.196 40.1737 45.1635 40.5794 45.3196L40.6731 45.3508C40.7043 45.4132 40.7043 45.5069 40.7355 45.6629C40.7355 45.7253 40.7667 45.819 40.7667 45.9126C40.8603 46.7865 40.954 47.3795 41.0476 48.0037C41.1412 48.5655 41.2349 49.0961 41.2973 49.8764L41.3285 50.0324V50.0637C41.4533 50.6255 41.9839 51 42.5145 51C42.6082 51 42.7018 51 42.7954 50.9688C43.5133 50.8127 43.8878 50.1885 43.7318 49.5331Z" fill="#3964F9" stroke="#3964F9"/>
<path d="M25.2237 26.9363C24.5059 27.9663 24.0377 29.1211 23.8504 30.2759C23.6944 31.3371 23.8192 32.367 23.9753 33.3346C24.1625 34.5206 24.3186 35.5818 23.8504 36.4245L23.7256 36.6742V36.9551C23.7256 37.5168 23.9753 38.0474 24.4122 38.3908C24.818 38.7341 25.3486 38.8589 25.8791 38.7341C26.9403 38.5156 28.0015 38.3283 29.0315 38.2347C29.6869 38.1723 30.1551 37.5793 30.0926 36.9238C30.0302 36.2684 29.4372 35.769 28.7818 35.8627C28.0327 35.9251 27.2524 36.0499 26.4722 36.206C26.6906 35.0824 26.5346 33.99 26.3785 32.96C26.2537 32.1173 26.1288 31.3059 26.2537 30.6192C26.3785 29.8077 26.7218 28.9962 27.2212 28.2472C28.22 26.7803 29.8429 25.9064 31.4035 25.9064C31.5283 25.9064 31.6532 25.9064 31.7468 25.9064C32.0901 25.9376 32.4335 26 32.7456 26.0936C33.9628 26.4369 35.024 27.3109 35.7418 28.4657C36.21 29.2147 36.4909 30.0886 36.6157 30.9938C36.6469 31.2122 36.6469 31.4619 36.6469 31.774V31.9301C36.6157 32.3358 36.5533 32.7104 36.4909 33.1161C36.366 33.99 36.2412 34.8639 36.3348 35.8627C36.3348 35.9875 36.366 36.1124 36.3972 36.2372C35.617 36.1124 34.8679 35.9875 34.0876 35.8939C33.4322 35.8002 32.8392 36.2996 32.7768 36.9551C32.7144 37.6105 33.1825 38.2035 33.8379 38.2659C34.8679 38.3908 35.8979 38.5468 36.9278 38.7653C37.0527 38.7965 37.1463 38.7965 37.2712 38.7965C37.6769 38.7965 38.0514 38.6717 38.3635 38.3908C38.8005 38.0474 39.0502 37.5168 39.0502 36.9551C39.0502 36.5181 38.8941 36.1124 38.8005 35.8315C38.7693 35.7378 38.7069 35.5818 38.7069 35.5506C38.6444 34.8951 38.7381 34.1773 38.8317 33.4282C38.8941 32.9913 38.9565 32.5543 38.9878 32.1486C38.9878 32.0549 38.9878 31.9925 39.019 31.8677C39.0502 31.4619 39.019 31.0874 38.9878 30.7129C38.8317 29.4644 38.426 28.2472 37.7705 27.2172C36.7406 25.563 35.2112 24.3458 33.4322 23.8152C32.964 23.6592 32.4335 23.5655 31.9029 23.5343C31.7468 23.5343 31.5595 23.5031 31.4035 23.5031C29.0002 23.5343 26.6906 24.814 25.2237 26.9363Z" fill="#3964F9" stroke="#3964F9"/>
<path d="M51.8778 11.6429C52.502 11.4557 52.9078 10.9251 52.9078 10.2697C52.9078 9.61423 52.502 9.08365 51.8778 8.89638C48.5694 7.96005 45.9477 5.33833 45.0114 2.02996C44.8241 1.40574 44.2935 1 43.6381 1C42.9827 1 42.4521 1.40574 42.2648 2.02996C41.3285 5.33833 38.7068 7.96005 35.4296 8.89638C34.8054 9.08365 34.3997 9.61423 34.3997 10.2697C34.3997 10.9251 34.8054 11.4557 35.4296 11.6429C38.738 12.5793 41.3597 15.201 42.296 18.5094C42.4833 19.1336 43.0139 19.5393 43.6693 19.5393C44.3248 19.5393 44.8553 19.1336 45.0426 18.5094C45.9789 15.201 48.6007 12.5793 51.8778 11.6429ZM43.6693 15.5131C42.5145 13.2971 40.6731 11.4557 38.4259 10.2697C40.6419 9.11486 42.4833 7.27341 43.6693 5.02622C44.8241 7.2422 46.6656 9.08365 48.9128 10.2697C46.6656 11.4557 44.8241 13.2971 43.6693 15.5131Z" fill="#3964F9" stroke="#3964F9"/>
<path d="M20.2924 24.9388C20.8854 24.9388 21.4472 24.5331 21.6032 23.9401C22.2275 21.6617 24.0377 19.8826 26.3161 19.2272C26.9091 19.0711 27.3148 18.5093 27.3148 17.9163C27.3148 17.3233 26.9091 16.7615 26.3161 16.6055C24.0377 15.9813 22.2587 14.171 21.6032 11.8926C21.4472 11.2996 20.8854 10.8939 20.2924 10.8939C19.6994 10.8939 19.1376 11.2996 18.9815 11.8926C18.3573 14.171 16.5471 15.95 14.2686 16.6055C13.6756 16.7615 13.2699 17.3233 13.2699 17.9163C13.2699 18.5093 13.6756 19.0711 14.2686 19.2272C16.5471 19.8514 18.3261 21.6617 18.9815 23.9401C19.1376 24.5331 19.6682 24.9388 20.2924 24.9388ZM17.2025 17.9475C18.4509 17.1673 19.5121 16.1061 20.2924 14.8577C21.0726 16.1061 22.1338 17.1673 23.3823 17.9475C22.1338 18.7278 21.0726 19.789 20.2924 21.0374C19.5121 19.789 18.4509 18.6966 17.2025 17.9475Z" fill="#3964F9" stroke="#3964F9"/>
</svg>
