<svg width="50" height="50" viewBox="0 0 50 50" fill="none" xmlns="http://www.w3.org/2000/svg">
<rect width="50" height="50" rx="25" fill="white"/>
<path d="M31.857 23.6832C31.8455 21.7159 32.7368 20.2333 34.5367 19.1401C33.53 17.6978 32.007 16.9046 29.9994 16.7517C28.0985 16.6017 26.0188 17.8593 25.2573 17.8593C24.4525 17.8593 22.6122 16.8036 21.1642 16.8036C18.1758 16.8498 15 19.1862 15 23.9399C15 25.3446 15.2567 26.7955 15.7702 28.2897C16.4567 30.2569 18.9316 35.0769 21.5132 34.9991C22.8632 34.9673 23.8179 34.0414 25.5746 34.0414C27.2793 34.0414 28.162 34.9991 29.6677 34.9991C32.2724 34.9616 34.5108 30.58 35.1627 28.607C31.6695 26.96 31.857 23.7841 31.857 23.6832ZM28.8254 14.8854C30.2879 13.149 30.1552 11.5682 30.1119 11C28.8197 11.075 27.3255 11.8798 26.4746 12.8692C25.5371 13.9307 24.9861 15.2431 25.1044 16.7229C26.5005 16.8296 27.7755 16.1113 28.8254 14.8854Z" fill="#3964F9"/>
</svg>
