<svg width="50" height="50" viewBox="0 0 50 50" fill="none" xmlns="http://www.w3.org/2000/svg">
<rect width="50" height="50" rx="25" fill="white"/>
<path d="M26.1043 15C24.5362 14.9985 22.9853 15.3257 21.5535 15.9602V21.4956C22.1599 20.8916 22.8829 20.4153 23.6794 20.0952C24.4761 19.7752 25.3296 19.6181 26.189 19.6333C27.8737 19.6766 29.4755 20.3668 30.6568 21.5581C31.8381 22.7494 32.5066 24.3489 32.5211 26.0193C32.5082 27.7079 31.8191 29.3222 30.6053 30.5072C29.3915 31.6919 27.7527 32.3504 26.0491 32.3378C24.3455 32.3249 22.717 31.6419 21.5215 30.4386C20.3262 29.2356 19.6619 27.6113 19.6747 25.9227V17.3134C19.6731 16.6993 19.4256 16.1108 18.987 15.6772C18.5482 15.2435 17.9538 15 17.3342 15C16.7153 15 16.1216 15.2437 15.6839 15.6776C15.2463 16.1114 15.0004 16.6999 15.0004 17.3134V25.9033C14.981 28.0826 15.6152 30.2185 16.8226 32.04C18.0299 33.8615 19.7559 35.2865 21.7816 36.134C23.8073 36.9817 26.0412 37.2137 28.2002 36.8006C30.3593 36.3878 32.3457 35.3485 33.9077 33.8147C35.4698 32.2809 36.5369 30.3217 36.9739 28.1858C37.4108 26.0497 37.1977 23.8334 36.3617 21.8176C35.5257 19.8018 34.1045 18.0777 32.2783 16.8639C30.4521 15.6501 28.3031 15.0014 26.1043 15Z" fill="#3964F9"/>
</svg>
