<svg width="23" height="22" viewBox="0 0 23 22" fill="none" xmlns="http://www.w3.org/2000/svg">
<path d="M11.1043 5.27433e-06C9.53618 -0.00151517 7.98534 0.325707 6.55355 0.960153V6.49557C7.15985 5.89158 7.88288 5.41526 8.67936 5.09522C9.47607 4.77518 10.3296 4.61806 11.189 4.63327C12.8737 4.67663 14.4755 5.36675 15.6568 6.5581C16.8381 7.74945 17.5066 9.34891 17.5211 11.0193C17.5082 12.7079 16.8191 14.3222 15.6053 15.5072C14.3915 16.6919 12.7527 17.3504 11.0491 17.3378C9.34555 17.3249 7.71703 16.6419 6.5215 15.4386C5.32619 14.2356 4.66188 12.6113 4.67474 10.9227V2.3134C4.6731 1.69925 4.42563 1.11084 3.98704 0.677188C3.54821 0.243511 2.95384 5.27433e-06 2.3342 5.27433e-06C1.71526 5.27433e-06 1.12158 0.24372 0.68393 0.677585C0.246276 1.11143 0.000432825 1.69986 0.000432825 2.3134V10.9033C-0.0189821 13.0826 0.61516 15.2185 1.82263 17.04C3.02986 18.8615 4.75591 20.2865 6.78161 21.134C8.80731 21.9817 11.0412 22.2137 13.2002 21.8006C15.3593 21.3878 17.3457 20.3485 18.9077 18.8147C20.4698 17.2809 21.5369 15.3217 21.9739 13.1858C22.4108 11.0497 22.1977 8.83336 21.3617 6.81756C20.5257 4.80182 19.1045 3.07769 17.2783 1.86388C15.4521 0.6501 13.3031 0.00136198 11.1043 5.27433e-06Z" fill="#3964F9"/>
</svg>
