<svg width="23" height="26" viewBox="0 0 23 26" fill="none" xmlns="http://www.w3.org/2000/svg">
<path d="M2.81447 8.1452L0 6.52408V19.4705L2.81447 17.8551V8.1452Z" fill="#3964F9"/>
<path d="M2.81447 17.8719V17.8551L0 19.4704V19.4986L11.2578 26V22.7464L2.81447 17.8719Z" fill="#3964F9"/>
<path d="M2.81447 8.12281L11.2579 3.24814V0.000256487L0 6.50164V6.52408L2.81447 8.1452V8.12281Z" fill="#3964F9"/>
<path d="M16.8981 6.50703L19.7182 4.88591L11.2579 0V3.24789L16.8981 6.50703Z" fill="#3964F9"/>
<path d="M19.7013 8.12251V8.14502L22.5157 6.5239V6.50134L19.7182 4.88591L16.8981 6.50703L19.7013 8.12251Z" fill="#3964F9"/>
<path d="M19.7012 17.8719L11.2578 22.7464V26L22.5157 19.4986V19.4704L19.7012 17.8549V17.8719Z" fill="#3964F9"/>
<path d="M19.7012 11.3537V17.8549L22.5157 19.4707V9.72134L19.7012 11.3537Z" fill="#3964F9"/>
<path d="M19.7012 11.3537L22.5157 9.72134V6.52408L19.7012 8.1452V11.3537Z" fill="#3964F9"/>
<path d="M16.8869 9.7494V9.76065L19.7014 8.14519V8.12263L16.8981 6.50703L14.0781 8.12828L16.8869 9.7494Z" fill="#3964F9"/>
<path d="M11.2579 16.2619V19.4986L16.8867 16.2507V16.2339L14.0836 14.624L11.2579 16.2619Z" fill="#3964F9"/>
<path d="M11.2579 16.2507V16.2619L14.0836 14.624L14.0723 14.6183V14.6239L11.2579 16.2507Z" fill="#3964F9"/>
<path d="M11.2579 16.2507L8.44347 14.6239V14.6183L5.62901 16.2337V16.2507L11.2579 19.4986V16.2619V16.2507Z" fill="#3964F9"/>
<path d="M16.8867 16.2339L16.8868 12.9915L14.0836 14.624L16.8867 16.2339Z" fill="#3964F9"/>
<path d="M8.44347 11.3761L11.2579 9.74934V6.50144L5.62901 9.74934V9.7606L8.44347 11.3818V11.3761Z" fill="#3964F9"/>
<path d="M8.44347 11.3818L5.62901 9.7606V16.2337L8.44347 14.6183V11.3818Z" fill="#3964F9"/>
<path d="M14.0781 8.12828L11.2579 9.74934L14.0723 11.3761V11.3817L16.8867 9.7606V9.74935L14.0781 8.12828Z" fill="#3964F9"/>
<path d="M14.0781 8.12828L11.2579 6.50144V9.74934L14.0781 8.12828Z" fill="#3964F9"/>
<path d="M8.44347 14.6183V14.6239L11.2579 16.2507L11.2579 12.9972L8.44347 14.6183Z" fill="#3964F9"/>
<path d="M14.0723 11.3817V11.3761L11.2579 9.74934L11.2579 12.9972L14.0723 11.3817Z" fill="#3964F9"/>
<path d="M8.44349 11.382V14.6186L11.2579 12.9975L8.44349 11.382Z" fill="#3964F9"/>
<path d="M8.44347 11.3818L11.2579 12.9972L11.2579 9.74934L8.44347 11.3761V11.3818Z" fill="#3964F9"/>
</svg>
