<svg width="50" height="50" viewBox="0 0 50 50" fill="none" xmlns="http://www.w3.org/2000/svg">
<rect width="50" height="50" rx="25" fill="white"/>
<path d="M16.8145 20.1452L14 18.5241V31.4705L16.8145 29.8551V20.1452Z" fill="#3964F9"/>
<path d="M16.8145 29.8719V29.8551L14 31.4704V31.4986L25.2578 38V34.7464L16.8145 29.8719Z" fill="#3964F9"/>
<path d="M16.8145 20.1228L25.2579 15.2481V12.0003L14 18.5016V18.5241L16.8145 20.1452V20.1228Z" fill="#3964F9"/>
<path d="M30.8981 18.507L33.7182 16.8859L25.2579 12V15.2479L30.8981 18.507Z" fill="#3964F9"/>
<path d="M33.7013 20.1225V20.145L36.5157 18.5239V18.5013L33.7182 16.8859L30.8981 18.507L33.7013 20.1225Z" fill="#3964F9"/>
<path d="M33.7012 29.8719L25.2578 34.7464V38L36.5157 31.4986V31.4704L33.7012 29.8549V29.8719Z" fill="#3964F9"/>
<path d="M33.7012 23.3537V29.8549L36.5157 31.4707V21.7213L33.7012 23.3537Z" fill="#3964F9"/>
<path d="M33.7012 23.3537L36.5157 21.7213V18.5241L33.7012 20.1452V23.3537Z" fill="#3964F9"/>
<path d="M30.8869 21.7494V21.7607L33.7014 20.1452V20.1226L30.8981 18.507L28.0781 20.1283L30.8869 21.7494Z" fill="#3964F9"/>
<path d="M25.2579 28.2619V31.4986L30.8867 28.2507V28.2339L28.0836 26.624L25.2579 28.2619Z" fill="#3964F9"/>
<path d="M25.2579 28.2507V28.2619L28.0836 26.624L28.0723 26.6183V26.6239L25.2579 28.2507Z" fill="#3964F9"/>
<path d="M25.2579 28.2507L22.4435 26.6239V26.6183L19.629 28.2337V28.2507L25.2579 31.4986V28.2619V28.2507Z" fill="#3964F9"/>
<path d="M30.8867 28.2339L30.8868 24.9915L28.0836 26.624L30.8867 28.2339Z" fill="#3964F9"/>
<path d="M22.4435 23.3761L25.2579 21.7493V18.5014L19.629 21.7493V21.7606L22.4435 23.3818V23.3761Z" fill="#3964F9"/>
<path d="M22.4435 23.3818L19.629 21.7606V28.2337L22.4435 26.6183V23.3818Z" fill="#3964F9"/>
<path d="M28.0781 20.1283L25.2579 21.7493L28.0723 23.3761V23.3817L30.8867 21.7606V21.7493L28.0781 20.1283Z" fill="#3964F9"/>
<path d="M28.0781 20.1283L25.2579 18.5014V21.7493L28.0781 20.1283Z" fill="#3964F9"/>
<path d="M22.4435 26.6183V26.6239L25.2579 28.2507L25.2579 24.9972L22.4435 26.6183Z" fill="#3964F9"/>
<path d="M28.0723 23.3817V23.3761L25.2579 21.7493L25.2579 24.9972L28.0723 23.3817Z" fill="#3964F9"/>
<path d="M22.4435 23.382V26.6186L25.2579 24.9975L22.4435 23.382Z" fill="#3964F9"/>
<path d="M22.4435 23.3818L25.2579 24.9972L25.2579 21.7493L22.4435 23.3761V23.3818Z" fill="#3964F9"/>
</svg>
