<svg width="50" height="50" viewBox="0 0 50 50" fill="none" xmlns="http://www.w3.org/2000/svg">
<rect width="50" height="50" rx="25" fill="white"/>
<path d="M23.0594 24.9986L15.1123 20.4055C14.7434 20.1922 14.2709 20.2787 14 20.6129V29.5686C14.2824 29.7991 14.6743 29.8337 14.9912 29.6551L23.0594 24.9986ZM24.7883 24.0016L33.4559 18.9935C33.7959 18.7976 33.963 18.3942 33.8535 18.0138L33.5077 17.8121L29.975 15.772L25.6701 13.2824C25.6355 13.2651 25.6067 13.2478 25.5779 13.2305L25.549 13.2132C25.5202 13.2017 25.4972 13.1902 25.4684 13.1787L25.4223 13.1614C25.3992 13.1498 25.3762 13.1441 25.3531 13.1325C25.3301 13.121 25.3185 13.1153 25.2955 13.1095C25.2724 13.1037 25.2551 13.098 25.2321 13.0922C25.209 13.0864 25.186 13.0807 25.1687 13.0692C25.1514 13.0576 25.1341 13.0634 25.1168 13.0576C25.0995 13.0519 25.065 13.0461 25.0419 13.0403L24.9958 13.0346C24.967 13.0288 24.9382 13.0231 24.9094 13.0231L24.869 13.0173C24.8402 13.0115 24.8114 13.0115 24.7826 13.0058H24.748C24.7192 13 24.6846 13 24.6558 13H24.6327C24.5982 13 24.5636 13 24.5232 13.0058H24.5117C24.2005 13.0288 23.9008 13.1268 23.6357 13.2824L22.8577 13.7319L19.325 15.772L15.0143 18.2616C14.8644 18.3481 14.7319 18.446 14.6051 18.5613C15.0834 18.5498 15.556 18.665 15.9709 18.9071L24.7883 24.0016ZM35.2597 19.5583C35.0349 19.9444 34.7122 20.2671 34.3203 20.4919L26.5172 24.9986L16.236 30.9344L15.8557 31.1534C15.6482 31.2745 15.4177 31.3667 15.1872 31.4243C15.0201 31.4646 14.8529 31.4877 14.68 31.4935C14.7838 31.5857 14.899 31.6663 15.0201 31.7355L15.8038 32.1908L19.3308 34.2251L23.6415 36.7147C24.2639 37.0951 25.0477 37.0951 25.6758 36.7147L26.4538 36.2652L29.9866 34.2251L34.2973 31.7355C34.937 31.384 35.3288 30.7097 35.3116 29.9778V20.0193C35.3058 19.8637 35.2943 19.7081 35.2597 19.5583Z" fill="#3964F9"/>
</svg>
