<svg width="22" height="22" viewBox="0 0 22 22" fill="none" xmlns="http://www.w3.org/2000/svg">
<path d="M0.271456 4.82117C0.388719 2.35864 2.35864 0.388719 4.82117 0.271456L10.5217 0L10.2916 4.83199C10.1509 7.78703 7.78703 10.1509 4.83199 10.2916L0 10.5217L0.271456 4.82117Z" fill="#3964F9"/>
<path d="M0.271456 17.1788C0.388719 19.6414 2.35864 21.6113 4.82117 21.7285L10.5217 22L10.2916 17.168C10.1509 14.213 7.78703 11.8491 4.83199 11.7084L0 11.4783L0.271456 17.1788Z" fill="#3964F9"/>
<path d="M21.7285 4.82117C21.6113 2.35864 19.6414 0.388719 17.1788 0.271456L11.4783 0L11.7084 4.83199C11.8491 7.78703 14.213 10.1509 17.168 10.2916L22 10.5217L21.7285 4.82117Z" fill="#3964F9"/>
<path d="M21.7285 17.1788C21.6113 19.6414 19.6414 21.6113 17.1788 21.7285L11.4783 22L11.7084 17.168C11.8491 14.213 14.213 11.8491 17.168 11.7084L22 11.4783L21.7285 17.1788Z" fill="#3964F9"/>
</svg>
