<svg width="50" height="50" viewBox="0 0 50 50" fill="none" xmlns="http://www.w3.org/2000/svg">
<rect width="50" height="50" rx="25" fill="white"/>
<path d="M14.2715 18.8212C14.3887 16.3586 16.3586 14.3887 18.8212 14.2715L24.5217 14L24.2916 18.832C24.1509 21.787 21.787 24.1509 18.832 24.2916L14 24.5217L14.2715 18.8212Z" fill="#3964F9"/>
<path d="M14.2715 31.1788C14.3887 33.6414 16.3586 35.6113 18.8212 35.7285L24.5217 36L24.2916 31.168C24.1509 28.213 21.787 25.8491 18.832 25.7084L14 25.4783L14.2715 31.1788Z" fill="#3964F9"/>
<path d="M35.7285 18.8212C35.6113 16.3586 33.6414 14.3887 31.1788 14.2715L25.4783 14L25.7084 18.832C25.8491 21.787 28.213 24.1509 31.168 24.2916L36 24.5217L35.7285 18.8212Z" fill="#3964F9"/>
<path d="M35.7285 31.1788C35.6113 33.6414 33.6414 35.6113 31.1788 35.7285L25.4783 36L25.7084 31.168C25.8491 28.213 28.213 25.8491 31.168 25.7084L36 25.4783L35.7285 31.1788Z" fill="#3964F9"/>
</svg>
