<svg width="45" height="50" viewBox="0 0 45 50" fill="none" xmlns="http://www.w3.org/2000/svg">
<path d="M0 0L3.96635 44.8678L22.0433 50L40.0481 44.8678L44.0925 0H0ZM36.7127 42.1034L22.0433 46.2861L7.30769 42.1034L3.90024 3.56971H40.1863L36.7127 42.1034ZM8.17308 9.19471L8.27524 10.655L9.63942 25.8894H22.0493V25.8834H28.8341L28.149 33.0048L21.9952 34.6695V34.6815H21.9471L15.7933 33.0168L15.4026 28.6178H9.93389L10.613 37.3137L21.9471 40.4387H22.0493V40.4147L33.3293 37.3077L33.4315 36.3281L34.7055 21.7728L34.8978 20.3125H21.9952V20.3245H14.7175L14.2248 14.6635H35.3846L35.4868 13.4916L35.7752 10.655L35.8774 9.19471H21.9952H8.17308Z" fill="#3964F9"/>
</svg>
