<svg width="572" height="441" viewBox="0 0 572 441" fill="none" xmlns="http://www.w3.org/2000/svg">
<path d="M137.828 124.524V223.037C137.828 226.624 134.988 229.465 131.4 229.465H6.42801C2.84028 229.465 0 226.624 0 223.037V124.524C0 120.936 2.84028 118.096 6.42801 118.096H131.4C134.988 118.096 137.828 120.936 137.828 124.524Z" fill="#3964F9"/>
<path d="M58.3006 135.138H11.8097C10.4643 135.138 9.41785 134.091 9.41785 132.746C9.41785 131.4 10.4643 130.354 11.8097 130.354H58.3006C59.646 130.354 60.6924 131.4 60.6924 132.746C60.6924 133.942 59.646 135.138 58.3006 135.138Z" fill="#002A66"/>
<path d="M58.3006 151.731H11.8097C10.4643 151.731 9.41785 150.684 9.41785 149.339C9.41785 147.994 10.4643 146.947 11.8097 146.947H58.3006C59.646 146.947 60.6924 147.994 60.6924 149.339C60.6924 150.684 59.646 151.731 58.3006 151.731Z" fill="#EEF8FF"/>
<path d="M73.8474 168.324H11.8097C10.4643 168.324 9.41785 167.278 9.41785 165.932C9.41785 164.587 10.4643 163.541 11.8097 163.541H73.8474C75.1928 163.541 76.2392 164.587 76.2392 165.932C76.2392 167.278 75.1928 168.324 73.8474 168.324Z" fill="#002A66"/>
<path d="M73.8474 214.965H11.8097C10.4643 214.965 9.41785 213.918 9.41785 212.573C9.41785 211.228 10.4643 210.181 11.8097 210.181H73.8474C75.1928 210.181 76.2392 211.228 76.2392 212.573C76.2392 213.769 75.1928 214.965 73.8474 214.965Z" fill="#002A66"/>
<path d="M118.993 214.965H87.7497C86.4043 214.965 85.3579 213.918 85.3579 212.573C85.3579 211.228 86.4043 210.181 87.7497 210.181H118.993C120.338 210.181 121.385 211.228 121.385 212.573C121.385 213.769 120.338 214.965 118.993 214.965Z" fill="#EEF8FF"/>
<path d="M44.8466 179.536V186.562C44.8466 187.16 45.2951 187.608 45.893 187.608H49.7797C50.3777 187.608 50.8261 187.16 50.8261 186.562V179.536C50.8261 178.938 51.2746 178.489 51.8726 178.489H52.321C52.919 178.489 53.3675 178.938 53.3675 179.536V198.82C53.3675 199.418 52.919 199.866 52.321 199.866H51.8726C51.2746 199.866 50.8261 199.418 50.8261 198.82V190.897C50.8261 190.299 50.3777 189.85 49.7797 189.85H45.893C45.2951 189.85 44.8466 190.299 44.8466 190.897V198.82C44.8466 199.418 44.3981 199.866 43.8002 199.866H43.3517C42.7538 199.866 42.3053 199.418 42.3053 198.82V179.536C42.3053 178.938 42.7538 178.489 43.3517 178.489H43.8002C44.3981 178.489 44.8466 178.938 44.8466 179.536Z" fill="white"/>
<path d="M58.4501 180.732H56.6563C56.0583 180.732 55.6099 180.283 55.6099 179.685V179.536C55.6099 178.938 56.0583 178.489 56.6563 178.489H64.7287C65.3266 178.489 65.7751 178.938 65.7751 179.536V179.685C65.7751 180.283 65.3266 180.732 64.7287 180.732H62.9348C62.3368 180.732 61.8884 181.18 61.8884 181.778V198.82C61.8884 199.418 61.4399 199.866 60.842 199.866H60.3935C59.7955 199.866 59.3471 199.418 59.3471 198.82V181.778C59.4966 181.18 59.0481 180.732 58.4501 180.732Z" fill="white"/>
<path d="M81.0229 190.598C80.8734 187.757 80.724 184.618 80.8734 182.226H80.724C80.2755 184.618 79.6775 187.16 79.0796 189.551L76.3888 199.567H74.8939L72.3526 190C71.6052 187.309 71.0072 184.618 70.5587 182.226H70.4092C70.4092 184.768 70.2598 187.757 70.1103 190.747L69.8113 198.82C69.8113 199.418 69.3628 199.866 68.7649 199.866H68.6154C68.0174 199.866 67.569 199.418 67.569 198.82L68.7649 179.536C68.7649 178.938 69.2133 178.639 69.8113 178.639H70.7082C71.1567 178.639 71.6052 178.938 71.7546 179.386L73.997 188.355C74.7444 191.196 75.1929 193.289 75.6413 195.68H75.7908C76.2393 193.289 76.6878 191.196 77.4352 188.355L79.6775 179.386C79.827 178.938 80.2755 178.639 80.724 178.639H81.6209C82.2188 178.639 82.6673 179.087 82.6673 179.536L83.7137 198.82C83.7137 199.418 83.2653 199.866 82.6673 199.866H82.5178C81.9199 199.866 81.4714 199.418 81.4714 198.82L81.0229 190.598Z" fill="white"/>
<path d="M88.0489 178.489H88.4973C89.0953 178.489 89.5437 178.938 89.5437 179.536V196.727C89.5437 197.325 89.9922 197.773 90.5902 197.773H94.4769C95.0748 197.773 95.5233 198.222 95.5233 198.82C95.5233 199.418 95.0748 199.866 94.4769 199.866H88.0489C87.4509 199.866 87.0024 199.418 87.0024 198.82V179.536C87.0024 178.938 87.4509 178.489 88.0489 178.489Z" fill="white"/>
<path opacity="0.25" d="M137.828 124.524V168.025H67.2698C64.28 168.025 61.8882 165.633 61.8882 162.643V118.096H131.4C134.988 118.096 137.828 120.936 137.828 124.524Z" fill="black"/>
<path d="M312.431 9.71675H71.007V4.48466C71.007 1.94335 73.0998 0 75.4916 0H307.797C310.338 0 312.281 2.09284 312.281 4.48466V9.71675H312.431Z" fill="url(#paint0_linear)"/>
<path opacity="0.86" d="M307.049 158.906H76.3885C73.3988 158.906 71.007 156.515 71.007 153.525V9.7168H312.431V153.525C312.431 156.515 310.039 158.906 307.049 158.906Z" fill="#3964F9"/>
<path d="M301.967 4.78384C301.967 5.68077 301.219 6.42822 300.322 6.42822C299.425 6.42822 298.678 5.68077 298.678 4.78384C298.678 3.88691 299.425 3.13947 300.322 3.13947C301.219 2.98998 301.967 3.88691 301.967 4.78384Z" fill="#EEF8FF"/>
<path d="M291.503 4.78384C291.503 5.68077 290.755 6.42822 289.858 6.42822C288.961 6.42822 288.214 5.68077 288.214 4.78384C288.214 3.88691 288.961 3.13947 289.858 3.13947C290.755 2.98998 291.503 3.88691 291.503 4.78384Z" fill="#EEF8FF"/>
<path d="M281.188 4.78384C281.188 5.68077 280.44 6.42822 279.543 6.42822C278.646 6.42822 277.899 5.68077 277.899 4.78384C277.899 3.88691 278.646 3.13947 279.543 3.13947C280.44 2.98998 281.188 3.88691 281.188 4.78384Z" fill="#EEF8FF"/>
<path d="M218.851 28.2534H95.3736C94.0282 28.2534 92.9818 27.2069 92.9818 25.8615C92.9818 24.5161 94.0282 23.4697 95.3736 23.4697H218.851C220.197 23.4697 221.243 24.5161 221.243 25.8615C221.392 27.0574 220.197 28.2534 218.851 28.2534Z" fill="white"/>
<path d="M218.851 43.6508H95.3736C94.0282 43.6508 92.9818 42.6044 92.9818 41.259C92.9818 39.9136 94.0282 38.8672 95.3736 38.8672H218.851C220.197 38.8672 221.243 39.9136 221.243 41.259C221.392 42.6044 220.197 43.6508 218.851 43.6508Z" fill="white"/>
<path d="M152.179 59.1972H95.3736C94.0282 59.1972 92.9818 58.1508 92.9818 56.8054C92.9818 55.46 94.0282 54.4136 95.3736 54.4136H152.179C153.525 54.4136 154.571 55.46 154.571 56.8054C154.721 58.0013 153.525 59.1972 152.179 59.1972Z" fill="#002A66"/>
<path d="M218.851 120.488H95.3736C94.0282 120.488 92.9818 119.441 92.9818 118.096C92.9818 116.751 94.0282 115.704 95.3736 115.704H218.851C220.197 115.704 221.243 116.751 221.243 118.096C221.392 119.441 220.197 120.488 218.851 120.488Z" fill="#002A66"/>
<path d="M152.179 136.035H95.3736C94.0282 136.035 92.9818 134.988 92.9818 133.643C92.9818 132.297 94.0282 131.251 95.3736 131.251H152.179C153.525 131.251 154.571 132.297 154.571 133.643C154.721 134.839 153.525 136.035 152.179 136.035Z" fill="#002A66"/>
<path d="M269.079 38.4185C257.569 38.4185 248.3 47.6867 248.3 59.1974C248.3 70.708 257.569 79.9763 269.079 79.9763C280.59 79.9763 289.858 70.708 289.858 59.1974C289.858 47.6867 280.59 38.4185 269.079 38.4185ZM269.079 76.3885C259.512 76.3885 251.888 68.6151 251.888 59.1974C251.888 49.7796 259.661 42.0062 269.079 42.0062C278.646 42.0062 286.27 49.7796 286.27 59.1974C286.27 68.6151 278.646 76.3885 269.079 76.3885Z" fill="#002A66"/>
<path d="M277.749 63.8315C272.966 68.6151 265.192 68.6151 260.558 63.8315C260.11 63.383 259.213 63.383 258.764 63.8315C258.316 64.2799 258.316 65.1769 258.764 65.6253C261.605 68.4656 265.342 69.9605 269.079 69.9605C272.816 69.9605 276.554 68.4656 279.394 65.6253C279.842 65.1769 279.842 64.2799 279.394 63.8315C278.945 63.383 278.198 63.383 277.749 63.8315Z" fill="#002A66"/>
<path d="M261.605 58.0016C262.801 58.0016 263.698 57.1047 263.698 55.9088C263.698 54.7128 262.801 53.8159 261.605 53.8159C260.409 53.8159 259.512 54.7128 259.512 55.9088C259.512 57.1047 260.409 58.0016 261.605 58.0016Z" fill="#002A66"/>
<path d="M276.554 58.0016C277.749 58.0016 278.646 57.1047 278.646 55.9088C278.646 54.7128 277.749 53.8159 276.554 53.8159C275.358 53.8159 274.461 54.7128 274.461 55.9088C274.461 57.1047 275.358 58.0016 276.554 58.0016Z" fill="#002A66"/>
<path d="M104.044 103.147C103.595 103.147 102.997 102.998 102.549 102.549L93.4301 92.8324C92.6826 91.9355 92.6826 90.5901 93.4301 89.8427L102.698 79.9764C103.446 79.0795 104.791 79.0795 105.539 79.9764C106.286 80.8733 106.286 82.2187 105.539 82.9662L97.6158 91.3375L105.389 99.5594C106.137 100.456 106.137 101.802 105.389 102.549C105.09 102.848 104.642 103.147 104.044 103.147Z" fill="#00BFFF"/>
<path d="M133.344 103.147C132.895 103.147 132.297 102.998 131.849 102.549C131.101 101.652 131.101 100.307 131.849 99.5594L139.622 91.3375L131.699 82.9662C130.952 82.0692 130.952 80.7239 131.699 79.9764C132.447 79.0795 133.792 79.0795 134.539 79.9764L143.808 89.8427C144.256 90.2911 144.406 90.7396 144.406 91.3375C144.406 91.9355 144.256 92.5335 143.808 92.8324L134.689 102.549C134.39 102.848 133.792 103.147 133.344 103.147Z" fill="#00BFFF"/>
<path d="M114.209 105.838C113.91 105.838 113.761 105.838 113.462 105.688C112.415 105.24 111.967 104.044 112.415 102.848L121.534 79.0795C121.982 78.033 123.178 77.4351 124.225 77.8836C125.271 78.332 125.72 79.5279 125.271 80.7238L116.152 104.493C115.704 105.24 114.956 105.838 114.209 105.838Z" fill="#00BFFF"/>
<path d="M301.219 97.0182H237.089C233.95 97.0182 231.259 94.4769 231.259 91.1882V27.0576C231.259 23.9183 233.8 21.2275 237.089 21.2275H301.219C304.359 21.2275 307.049 23.7688 307.049 27.0576V91.1882C306.9 94.4769 304.359 97.0182 301.219 97.0182ZM236.939 24.8153C235.743 24.8153 234.697 25.8617 234.697 27.0576V91.1882C234.697 92.3841 235.743 93.4305 236.939 93.4305H301.07C302.266 93.4305 303.312 92.3841 303.312 91.1882V27.0576C303.312 25.8617 302.266 24.8153 301.07 24.8153H236.939Z" fill="#002A66"/>
<path d="M207.789 80.8734V78.93C207.789 78.1826 207.191 77.5846 206.444 77.5846H203.155C202.856 76.5382 202.407 75.4918 201.959 74.5949L204.201 72.3525C204.799 71.7546 204.799 71.0072 204.201 70.4092L202.856 69.0638C202.258 68.4658 201.511 68.4658 200.913 69.0638L198.67 71.3061C197.773 70.7082 196.727 70.2597 195.68 70.1102V66.8215C195.68 66.074 195.083 65.4761 194.335 65.4761H192.392C191.644 65.4761 191.046 66.074 191.046 66.8215V70.1102C190 70.4092 188.953 70.8577 188.057 71.3061L185.814 69.0638C185.216 68.4658 184.469 68.4658 183.871 69.0638L182.525 70.4092C181.928 71.0072 181.928 71.7546 182.525 72.3525L184.768 74.5949C184.17 75.4918 183.721 76.5382 183.572 77.5846H180.283C179.536 77.5846 178.938 78.1826 178.938 78.93V80.8734C178.938 81.6208 179.536 82.2188 180.283 82.2188H183.572C183.871 83.2652 184.319 84.3116 184.768 85.2086L182.525 87.4509C181.928 88.0488 181.928 88.7963 182.525 89.3942L183.871 90.7396C184.469 91.3376 185.216 91.3376 185.814 90.7396L188.057 88.4973C188.953 89.0953 190 89.5437 191.046 89.6932V93.1315C191.046 93.8789 191.644 94.4769 192.392 94.4769H194.335C195.083 94.4769 195.68 93.8789 195.68 93.1315V89.8427C196.727 89.5437 197.773 89.0953 198.67 88.6468L200.913 90.8891C201.511 91.4871 202.258 91.4871 202.856 90.8891L204.201 89.5437C204.799 88.9458 204.799 88.1983 204.201 87.6004L201.959 85.3581C202.557 84.4611 203.005 83.4147 203.155 82.3683H206.444C207.191 82.2188 207.789 81.6208 207.789 80.8734ZM194.036 85.5075C190.149 86.1055 186.861 82.8167 187.459 78.93C187.907 76.5382 189.701 74.7444 192.093 74.2959C195.979 73.6979 199.268 76.9867 198.67 80.8734C198.371 83.2652 196.428 85.0591 194.036 85.5075Z" fill="#00BFFF"/>
<path d="M429.78 436.955L466.853 434.862C466.853 434.862 481.652 434.713 468.796 427.089C466.554 425.743 464.461 424.248 462.667 422.753C456.837 417.671 453.399 411.99 451.904 409L444.579 410.944L431.872 414.233C431.723 414.233 431.723 414.233 431.574 414.233C430.677 421.857 429.78 436.955 429.78 436.955Z" fill="#3964F9"/>
<path d="M479.111 440.542C479.111 440.542 478.363 428.284 468.796 427.088C459.229 425.892 458.033 435.31 458.033 435.31L429.929 433.666L429.182 440.393H479.111V440.542Z" fill="#010D19"/>
<path d="M444.579 410.944C445.775 414.681 448.914 422.903 454.894 425.444C457.734 423.052 460.724 422.753 462.667 422.753C456.837 417.671 453.399 411.99 451.904 409L444.579 410.944Z" fill="#010D19"/>
<path d="M453.1 406.16L428.285 408.851C428.285 408.851 418.568 331.117 409.748 298.977C406.908 305.555 401.227 329.473 395.846 353.391C389.567 381.196 383.887 409.001 383.887 409.001C383.887 409.001 369.685 410.645 361.762 404.217C364.154 359.819 381.345 271.322 383.588 258.466C383.588 258.615 383.588 258.615 383.588 258.765C383.737 259.363 383.887 259.811 384.186 260.26C384.335 260.409 384.485 260.708 384.634 260.857C386.727 263.1 392.856 265.641 401.377 265.791C410.645 266.09 422.754 263.847 435.61 255.924C435.909 255.326 435.909 253.832 435.759 251.888C436.208 252.337 436.955 257.569 438.151 265.791C443.234 303.761 453.1 406.16 453.1 406.16Z" fill="url(#paint1_linear)"/>
<path d="M383.438 213.021L381.644 219.748L381.495 220.196L381.046 221.841C381.046 221.841 377.907 222.14 373.572 220.645C371.479 220.047 369.237 219 366.994 217.356C366.397 216.908 365.799 216.609 365.35 216.011C366.098 206.892 369.087 190.747 370.134 185.664C370.283 184.618 370.433 184.02 370.433 184.02L383.438 213.021Z" fill="#00BFFF"/>
<path d="M384.036 220.944C384.036 220.944 382.242 229.166 379.851 236.64C378.206 242.022 376.263 246.955 374.469 248.599C370.283 252.635 359.52 259.063 359.52 259.063L353.242 246.207L362.51 238.135L366.098 221.99L367.144 217.356C374.17 222.289 381.196 221.691 381.196 221.691L381.644 220.047L384.036 220.944Z" fill="url(#paint2_linear)"/>
<path d="M435.909 255.924C423.053 263.698 410.944 266.089 401.676 265.791C393.005 265.492 386.876 262.95 384.783 260.708C384.634 260.558 384.485 260.259 384.335 260.11C384.186 259.661 383.887 259.213 383.737 258.615C383.737 258.466 383.737 258.466 383.737 258.316C383.139 255.476 382.99 250.692 382.99 245.61C382.99 244.862 382.99 244.115 382.99 243.218C382.99 241.125 382.99 239.032 383.139 236.939C383.139 234.248 383.139 231.857 382.99 229.913C382.99 229.016 382.84 228.269 382.84 227.671C382.84 227.372 382.691 227.222 382.691 227.073C382.691 227.073 382.691 226.923 382.691 226.774C382.392 225.578 381.943 223.934 381.345 221.841C380.747 219.898 380 217.655 379.252 215.263C378.953 214.516 378.804 213.768 378.505 213.021C377.758 210.779 377.01 208.536 376.263 206.145C375.665 204.351 375.067 202.557 374.469 200.763C374.17 200.016 374.02 199.268 373.721 198.521C372.226 193.588 370.881 189.103 370.433 186.113C370.433 185.964 370.433 185.814 370.433 185.665C370.433 185.366 370.283 185.067 370.283 184.768C370.433 184.618 370.582 184.319 370.732 184.17C370.881 184.02 370.881 183.871 371.031 183.721C373.721 179.835 377.608 176.247 380.897 173.556C381.794 172.809 382.84 172.061 383.737 171.463C384.485 171.015 385.082 170.417 385.68 170.118L389.717 167.876C394.201 167.128 398.387 166.829 402.124 166.829C407.356 166.829 411.691 167.278 414.98 167.876C419.166 168.623 421.558 169.37 421.558 169.37L421.707 171.912L421.857 174.154L422.903 187.16L423.053 189.402L423.202 190.448C423.352 190.897 424.398 195.381 426.042 201.959C426.192 202.706 426.341 203.454 426.64 204.201C427.537 207.938 428.584 212.274 429.63 216.758C429.78 217.506 429.929 218.253 430.079 219.001C430.975 223.186 432.022 227.521 432.769 231.558C432.919 232.305 433.068 233.053 433.218 233.8C434.115 238.434 435.012 242.919 435.61 246.507C435.759 247.254 435.909 248.001 435.909 248.749C436.058 249.945 436.208 250.991 436.208 251.888C436.208 253.981 436.208 255.326 435.909 255.924Z" fill="#00BFFF"/>
<path opacity="0.25" d="M414.831 167.726C412.439 174.453 407.207 183.871 396.294 184.17C383.438 184.618 381.046 177.144 380.747 173.556C381.644 172.809 382.691 172.061 383.588 171.463C384.335 171.015 384.933 170.417 385.531 170.118L389.567 167.875C394.052 167.128 398.237 166.829 401.975 166.829C407.057 166.68 411.542 167.278 414.831 167.726Z" fill="black"/>
<path d="M396.294 177.443C395.248 178.489 394.052 178.938 392.557 178.788C389.717 178.34 388.072 176.397 387.026 174.902C386.428 174.005 386.129 173.108 385.98 172.958C385.98 172.958 385.382 173.257 383.737 173.108C383.588 173.108 383.588 173.108 383.438 173.108H383.289C382.093 172.809 380.299 172.211 378.057 171.015C374.618 169.072 371.928 166.231 369.835 163.391C369.386 162.793 368.938 162.195 368.639 161.597C368.19 160.85 367.742 160.252 367.443 159.654C375.216 158.906 380.299 153.375 382.541 146.798C382.541 146.798 386.727 153.824 387.773 153.824C388.67 153.824 389.418 147.246 392.258 147.097C392.707 147.097 393.155 147.246 393.454 147.396C395.098 148.442 395.098 152.03 393.753 155.767C392.856 158.159 396.444 160.102 397.191 160.252C397.191 160.252 397.341 160.252 397.341 160.102C397.49 162.644 397.939 165.334 398.387 167.278C398.537 168.324 398.836 169.221 398.985 169.819C399.583 171.015 398.537 175.201 396.294 177.443Z" fill="url(#paint3_linear)"/>
<path d="M375.964 151.133C375.814 151.432 373.273 156.514 367.443 158.906C367.144 158.458 366.994 158.009 366.845 157.71C371.629 155.318 375.814 151.432 375.964 151.133Z" fill="#FFB7A9"/>
<path d="M403.171 144.406C401.975 151.88 398.536 158.757 397.49 159.654C397.341 159.803 397.341 159.803 397.341 159.803C396.593 159.654 393.155 157.561 393.902 155.318C395.547 150.834 395.248 146.499 392.407 146.648C389.567 146.798 388.82 153.375 387.923 153.375C387.026 153.375 382.691 146.349 382.691 146.349C380.448 152.927 375.366 158.458 367.592 159.205C367.293 159.205 366.994 159.205 366.695 159.205C366.994 159.056 367.144 159.056 367.443 158.906C373.273 156.514 375.814 151.432 375.964 151.133C375.665 151.432 371.629 155.319 366.695 157.561C364.304 158.607 361.762 159.355 359.52 159.056C359.371 158.757 359.221 158.607 359.072 158.308C352.195 148.143 357.128 127.065 366.695 122.879C366.695 122.879 364.154 122.132 361.314 120.039C365.5 120.936 376.412 117.199 380.149 117.647C383.887 118.096 385.083 121.086 385.083 121.086C385.083 121.086 389.866 116.75 395.248 118.544C392.557 118.395 390.614 121.684 390.614 121.684C390.614 121.684 400.779 123.926 403.171 134.689C403.769 137.828 403.769 141.117 403.171 144.406Z" fill="url(#paint4_linear)"/>
<path opacity="0.25" d="M396.294 177.443C395.248 178.489 394.052 178.937 392.557 178.788C389.717 178.34 388.072 176.396 387.026 174.901C386.428 174.004 386.129 173.107 385.979 172.958C387.773 172.509 390.315 171.015 392.258 166.231C394.052 167.427 393.753 175.35 396.294 177.443Z" fill="black"/>
<path opacity="0.25" d="M367.443 158.906C367.144 158.458 366.994 158.009 366.845 157.71C371.629 155.468 375.814 151.432 376.113 151.282C375.814 151.432 373.422 156.514 367.443 158.906Z" fill="black"/>
<path opacity="0.25" d="M393.753 146.798C389.268 148.292 391.062 155.468 388.67 155.916C385.681 156.365 384.186 151.88 384.186 151.88C384.186 151.88 382.242 155.617 376.562 158.906C374.02 160.401 371.18 160.85 368.788 161.148C368.34 160.401 367.891 159.803 367.592 159.205C375.366 158.458 380.448 152.927 382.691 146.349C382.691 146.349 386.876 153.375 387.923 153.375C388.82 153.375 389.567 146.798 392.408 146.648C393.005 146.499 393.304 146.648 393.753 146.798Z" fill="black"/>
<path opacity="0.25" d="M392.258 166.082C390.315 170.865 387.923 172.36 385.98 172.809C385.98 172.809 385.232 173.257 383.438 172.809H383.289C382.093 172.51 380.299 171.912 378.057 170.716C374.618 168.772 371.928 165.932 369.835 163.092C370.433 163.092 371.18 163.241 372.227 163.989C374.618 165.783 376.711 170.118 381.943 171.164C387.474 172.211 390.913 168.025 392.258 166.082Z" fill="white"/>
<path opacity="0.25" d="M392.557 149.638C392.557 149.638 391.66 152.328 392.109 153.076C392.408 153.973 395.248 151.282 392.557 149.638Z" fill="black"/>
<path opacity="0.25" d="M403.171 144.406C401.975 151.88 398.536 158.757 397.49 159.654C397.34 159.803 397.34 159.803 397.34 159.803C396.593 159.654 393.155 157.561 393.902 155.319C395.547 150.834 395.248 146.499 392.407 146.648C389.567 146.798 388.82 153.375 387.923 153.375C387.026 153.375 382.691 146.349 382.691 146.349C380.448 152.927 375.366 158.458 367.592 159.205C367.293 159.205 366.994 159.205 366.695 159.205C366.994 159.056 367.144 159.056 367.443 158.906C373.273 156.514 375.814 151.432 375.964 151.133C375.665 151.432 371.628 155.319 366.695 157.561C364.304 158.607 361.762 159.355 359.52 159.056C359.37 158.757 359.221 158.607 359.071 158.308C364.304 154.721 377.459 145.004 377.16 135.287C379.701 140.071 379.103 146.2 379.103 146.2C379.103 146.2 381.495 139.772 381.046 134.39C384.933 139.772 385.979 144.406 385.979 144.406C385.979 144.406 386.428 139.024 392.706 137.978C398.985 136.931 399.134 146.05 399.134 146.05C399.134 146.05 401.227 142.762 398.835 136.931C400.629 138.127 402.124 140.968 403.171 144.406Z" fill="black"/>
<path d="M394.65 181.778C387.026 182.824 384.485 175.499 383.737 172.808C385.381 173.107 385.979 172.659 385.979 172.659C386.129 172.958 386.428 173.705 387.026 174.602C387.923 176.097 389.717 178.04 392.557 178.489C394.052 178.788 395.397 178.19 396.294 177.144C398.536 174.901 399.583 170.716 399.134 169.071C398.985 168.473 398.835 167.726 398.536 166.53C399.732 166.53 400.779 166.38 401.975 166.38C402.274 172.808 401.377 181.03 394.65 181.778Z" fill="#0049B2"/>
<path opacity="0.25" d="M383.139 237.089C383.139 232.903 383.139 229.166 382.691 227.073C382.392 226.027 381.943 224.233 381.196 221.99C381.196 221.99 378.057 222.289 373.721 220.794C374.469 218.403 374.319 213.469 374.469 207.49C374.469 205.098 374.319 201.51 373.721 199.268C376.562 205.696 380.448 213.021 381.644 219.748C383.139 227.073 383.588 233.351 383.139 237.089Z" fill="black"/>
<path opacity="0.25" d="M435.909 255.924C423.053 263.698 410.944 266.09 401.676 265.791C412.738 261.156 409.449 250.094 399.284 248.001C409.449 240.377 417.671 233.8 416.027 209.284C415.13 196.727 416.924 186.412 416.924 186.412L423.053 190.448C423.501 192.242 438.3 251.141 435.909 255.924Z" fill="black"/>
<path d="M436.208 198.67C436.208 198.82 436.058 199.118 436.058 199.268C435.46 200.464 433.816 201.66 431.723 202.706C427.986 204.65 423.202 206.144 420.96 206.742C420.212 206.892 419.913 207.041 419.913 207.041C419.913 207.041 413.784 194.933 412.738 184.319C411.99 177.592 413.336 171.463 419.614 169.52C420.212 169.37 420.81 169.221 421.408 169.071C421.408 169.071 429.929 173.855 435.909 197.474C435.909 197.923 436.058 198.371 436.208 198.67Z" fill="#00BFFF"/>
<path d="M441.739 230.661C439.347 235.444 400.181 254.429 400.181 254.429C400.181 254.429 397.191 260.11 391.66 261.156C386.129 262.352 382.093 259.213 378.804 259.064C375.515 258.914 371.031 262.203 371.031 262.203C371.031 262.203 370.433 262.203 369.984 262.053C369.386 261.754 368.938 261.007 369.984 259.213C374.17 251.589 389.717 250.393 390.913 249.795C391.511 249.496 399.284 243.218 407.356 236.64C416.475 229.315 425.743 221.691 425.743 221.691L422.006 210.33L420.81 206.743C424.249 205.696 434.264 202.407 435.909 199.119C436.357 200.464 436.806 202.407 437.553 204.65C439.945 213.619 443.383 227.521 441.739 230.661Z" fill="url(#paint5_linear)"/>
<path opacity="0.25" d="M437.553 204.799C432.47 209.583 425.594 210.33 422.156 210.48L420.96 206.892C424.398 205.846 434.414 202.557 436.058 199.268C436.357 200.613 436.955 202.557 437.553 204.799Z" fill="black"/>
<path opacity="0.25" d="M382.541 226.774C381.794 229.614 380.897 233.202 379.701 236.64C374.917 233.65 369.087 226.325 365.948 221.99L366.995 217.356C374.02 222.289 381.046 221.691 381.046 221.691C381.794 224.083 382.392 225.727 382.541 226.774Z" fill="black"/>
<path d="M452.352 412.588L431.274 414.382C429.331 414.532 427.687 413.037 427.388 411.093V410.645C427.238 408.702 428.733 407.057 430.677 406.758L451.754 404.964C453.698 404.815 455.342 406.31 455.641 408.253V408.702C455.641 410.645 454.296 412.439 452.352 412.588Z" fill="#A2A5AA"/>
<path d="M386.577 411.542C386.129 413.186 384.634 414.382 382.99 414.382C382.84 414.382 382.541 414.382 382.392 414.382C382.242 414.382 382.242 414.382 382.093 414.382L362.061 409.15L361.015 408.851C358.922 408.253 357.726 406.31 358.324 404.217C358.773 402.572 360.267 401.376 361.912 401.376C362.211 401.376 362.51 401.376 362.809 401.526L383.887 407.057C385.979 407.505 387.175 409.449 386.577 411.542Z" fill="#A2A5AA"/>
<path d="M384.186 436.955L347.112 434.862C347.112 434.862 332.313 434.713 345.169 427.089C347.411 425.743 349.504 424.248 351.298 422.753C357.128 417.671 360.566 411.99 362.061 409L369.386 410.944L382.093 414.233C382.242 414.233 382.242 414.233 382.392 414.233C383.289 421.857 384.186 436.955 384.186 436.955Z" fill="#3964F9"/>
<path d="M334.854 440.542C334.854 440.542 335.602 428.284 345.169 427.088C354.736 425.892 355.932 435.31 355.932 435.31L384.036 433.666L384.784 440.393H334.854V440.542Z" fill="#010D19"/>
<path d="M369.237 410.944C368.041 414.681 364.902 422.903 358.922 425.444C356.082 423.052 353.092 422.753 351.149 422.753C356.979 417.671 360.417 411.99 361.912 409L369.237 410.944Z" fill="#010D19"/>
<path opacity="0.25" d="M436.207 198.67C436.207 198.82 436.058 199.118 436.058 199.268C435.46 200.464 433.816 201.66 431.723 202.706C431.723 198.371 431.125 192.242 429.331 186.113C426.939 178.19 422.156 172.36 419.614 169.52C420.212 169.37 420.81 169.221 421.408 169.071C421.408 169.071 429.929 173.855 435.908 197.474C435.908 197.923 436.058 198.371 436.207 198.67Z" fill="black"/>
<path opacity="0.25" d="M409.748 298.977C406.908 305.555 401.227 329.473 395.846 353.391C395.696 340.983 395.995 327.529 397.341 317.514C400.779 292.549 409.748 298.977 409.748 298.977Z" fill="black"/>
<path opacity="0.25" d="M438.45 265.791C402.124 283.879 385.681 261.754 384.933 260.857C387.026 263.1 393.155 265.641 401.676 265.791C410.944 266.09 423.053 263.847 435.909 255.924C436.208 255.326 436.208 253.832 436.058 251.888C436.507 252.337 437.254 257.569 438.45 265.791Z" fill="black"/>
<path opacity="0.25" d="M407.506 236.79C406.011 242.62 393.603 252.037 391.361 251.888C388.82 251.738 377.309 254.728 373.721 256.821C370.881 258.465 370.283 261.156 370.134 262.203C369.536 261.904 369.087 261.156 370.134 259.362C374.319 251.738 389.866 250.542 391.062 249.945C391.51 249.646 399.284 243.367 407.506 236.79Z" fill="white"/>
<path d="M175.201 281.038L172.361 278.945L169.52 276.853C169.072 277.45 158.608 292.399 148.143 320.204C138.427 345.767 126.916 387.175 126.916 440.393H133.942C133.792 341.133 174.752 281.636 175.201 281.038Z" fill="#002CA7"/>
<path d="M238.135 281.038L235.295 278.945L232.455 276.853C232.006 277.45 221.542 292.399 211.078 320.204C201.361 345.767 189.851 387.175 189.851 440.393H196.877C196.877 341.133 237.836 281.636 238.135 281.038Z" fill="#002CA7"/>
<path d="M440.393 281.038L443.234 278.945L446.074 276.853C446.522 277.45 456.987 292.399 467.451 320.204C477.167 345.767 488.678 387.175 488.678 440.393H481.652C481.652 341.133 440.842 281.636 440.393 281.038Z" fill="#002CA7"/>
<path d="M377.309 281.038L380.15 278.945L382.99 276.853C383.438 277.45 393.903 292.399 404.367 320.204C414.084 345.767 425.594 387.175 425.594 440.393H418.568C418.718 341.133 377.758 281.636 377.309 281.038Z" fill="#002CA7"/>
<path d="M446.821 277.6C446.821 278.946 446.373 279.992 445.476 280.889C444.579 281.786 443.533 282.234 442.187 282.234H125.869C123.328 282.234 121.235 280.141 121.235 277.6C121.235 276.255 121.684 275.208 122.581 274.311C123.478 273.414 124.524 272.966 125.869 272.966H442.187C444.729 272.817 446.821 274.909 446.821 277.6Z" fill="#002CA7"/>
<path d="M502.73 277.6C502.73 278.946 502.282 279.992 501.385 280.889C500.488 281.786 499.441 282.234 498.096 282.234H442.187C443.533 282.234 444.579 281.786 445.476 280.889C446.373 279.992 446.821 278.946 446.821 277.6C446.821 275.059 444.728 272.966 442.187 272.966H498.096C500.637 272.817 502.73 274.909 502.73 277.6Z" fill="#002CA7"/>
<path d="M235.295 136.184V238.583H161.447C155.617 238.583 150.834 233.8 150.834 227.97V146.797C150.834 140.967 155.617 136.184 161.447 136.184H235.295Z" fill="#EEF8FF"/>
<path d="M235.295 238.583V136.184C229.465 136.184 224.681 140.967 224.681 146.797V227.97C224.681 233.8 229.465 238.583 235.295 238.583Z" fill="#C7CFFF"/>
<path opacity="0.25" d="M198.67 238.583H172.809L179.237 198.819C179.237 198.819 182.226 192.989 188.953 196.727C194.185 199.866 191.644 226.624 198.67 238.583Z" fill="black"/>
<path d="M162.046 260.708L179.087 198.819C179.685 196.577 182.675 195.979 184.02 197.923C186.562 201.51 189.402 207.789 188.654 216.758C187.309 232.305 178.19 262.203 178.19 262.203L162.046 260.708Z" fill="#9CACF2"/>
<path d="M192.392 259.063H157.86C154.123 259.063 150.983 262.203 150.983 265.94C150.983 269.677 154.123 272.816 157.86 272.816H192.392C196.129 272.816 199.268 269.677 199.268 265.94C199.268 262.203 196.129 259.063 192.392 259.063Z" fill="#7189E2"/>
<path d="M188.804 178.489C188.804 183.422 186.263 187.309 182.974 187.309C179.685 187.309 177.144 183.272 177.144 178.489C177.144 173.705 179.685 169.669 182.974 169.669C186.263 169.669 188.804 173.556 188.804 178.489Z" fill="url(#paint6_linear)"/>
<path d="M404.366 268.033L359.819 265.791V272.816H404.366V268.033Z" fill="#9CACF2"/>
<path d="M369.237 272.816H283.281C282.234 272.816 281.337 272.069 281.188 271.172L267.584 215.412C267.285 214.067 268.332 212.722 269.677 212.722H355.633C356.68 212.722 357.577 213.469 357.726 214.366L371.329 270.125C371.628 271.62 370.582 272.816 369.237 272.816Z" fill="#C7CFFF"/>
<path d="M366.396 270.275H280.44C279.394 270.275 278.497 269.528 278.348 268.631L264.744 212.871C264.595 212.124 264.744 211.526 265.193 210.928C265.641 210.48 266.239 210.181 266.837 210.181H352.793C353.839 210.181 354.736 210.928 354.886 211.825L368.489 267.584C368.938 268.93 367.891 270.275 366.396 270.275Z" fill="#EEF8FF"/>
<path d="M319.905 241.125C321.101 244.115 319.905 247.254 317.514 248.151C315.122 249.048 312.132 247.403 311.086 244.563C309.89 241.573 311.086 238.434 313.477 237.537C315.869 236.491 318.859 238.135 319.905 241.125Z" fill="url(#paint7_linear)"/>
<path d="M531.581 82.069V146.947C531.581 150.385 528.741 153.226 525.303 153.226H421.109C417.671 153.226 414.831 150.385 414.831 146.947V82.069C414.831 78.6308 417.671 75.7905 421.109 75.7905H525.303C528.89 75.7905 531.581 78.6308 531.581 82.069Z" fill="#3964F9"/>
<path d="M450.409 139.323C446.971 139.323 444.13 136.483 444.13 133.045V121.833C444.13 120.936 443.831 120.189 443.233 119.591L440.991 117.349C439.496 115.854 439.496 113.462 440.991 111.967L443.233 109.725C443.831 109.127 444.13 108.379 444.13 107.482V96.1213C444.13 92.6831 446.971 89.8428 450.409 89.8428V92.982C448.615 92.982 447.27 94.3274 447.27 96.1213V107.333C447.27 108.977 446.672 110.622 445.476 111.818L443.233 114.06C442.934 114.359 442.934 114.807 443.233 115.106L445.476 117.349C446.672 118.545 447.27 120.039 447.27 121.833V133.045C447.27 134.839 448.615 136.184 450.409 136.184V139.323Z" fill="#EEF8FF"/>
<path d="M496.152 89.8428C499.591 89.8428 502.431 92.6831 502.431 96.1213V107.333C502.431 108.23 502.73 108.977 503.328 109.575L505.57 111.818C507.065 113.312 507.065 115.704 505.57 117.199L503.328 119.441C502.73 120.039 502.431 120.787 502.431 121.684V132.895C502.431 136.334 499.591 139.174 496.152 139.174V136.035C497.946 136.035 499.292 134.689 499.292 132.895V121.684C499.292 120.039 499.89 118.395 501.085 117.199L503.328 114.957C503.627 114.658 503.627 114.209 503.328 113.91L501.085 111.668C499.89 110.472 499.292 108.977 499.292 107.183V96.1213C499.292 94.3274 497.946 92.982 496.152 92.982V89.8428Z" fill="#EEF8FF"/>
<path d="M487.631 105.24C484.941 102.549 480.755 102.549 478.064 105.24L473.281 110.023L468.497 105.24C465.806 102.549 461.62 102.549 458.93 105.24C456.239 107.931 456.239 112.116 458.93 114.807L463.713 119.591L473.281 129.158L482.848 119.591L487.631 114.807C490.322 112.116 490.322 107.931 487.631 105.24Z" fill="#EEF8FF"/>
<path d="M398.237 81.4708V78.4811C398.237 77.2851 397.34 76.3882 396.145 76.3882H391.211C390.763 74.7438 390.165 73.249 389.268 71.7541L392.706 68.3158C393.454 67.5684 393.454 66.223 392.706 65.3261L390.613 63.2332C389.866 62.4858 388.521 62.4858 387.624 63.2332L384.185 66.6715C382.84 65.7745 381.196 65.1766 379.551 64.7281V59.795C379.551 58.5991 378.654 57.7021 377.458 57.7021H374.469C373.273 57.7021 372.376 58.5991 372.376 59.795V64.7281C370.732 65.1766 369.237 65.7745 367.742 66.6715L364.303 63.2332C363.556 62.4858 362.211 62.4858 361.314 63.2332L359.221 65.3261C358.473 66.0735 358.473 67.4189 359.221 68.3158L362.659 71.7541C361.762 73.0995 361.164 74.7438 360.716 76.3882H355.783C354.587 76.3882 353.69 77.2851 353.69 78.4811V81.4708C353.69 82.6667 354.587 83.5637 355.783 83.5637H360.716C361.164 85.208 361.762 86.7029 362.659 88.1978L359.221 91.636C358.473 92.3835 358.473 93.7289 359.221 94.6258L361.314 96.7187C362.061 97.4661 363.407 97.4661 364.303 96.7187L367.742 93.2804C369.087 94.1774 370.732 94.7753 372.376 95.2238V100.157C372.376 101.353 373.273 102.25 374.469 102.25H377.458C378.654 102.25 379.551 101.353 379.551 100.157V95.2238C381.196 94.7753 382.691 94.1774 384.185 93.2804L387.624 96.7187C388.371 97.4661 389.717 97.4661 390.613 96.7187L392.706 94.6258C393.454 93.8784 393.454 92.533 392.706 91.636L389.268 88.1978C390.165 86.8524 390.763 85.208 391.211 83.5637H396.145C397.34 83.5637 398.237 82.5172 398.237 81.4708ZM377.608 88.3473C371.778 89.2442 366.695 84.3111 367.742 78.4811C368.34 74.8933 371.18 72.0531 374.768 71.4551C380.598 70.5582 385.68 75.4913 384.634 81.3213C383.886 84.9091 381.046 87.7494 377.608 88.3473Z" fill="#00BFFF"/>
<path d="M333.06 152.029C331.864 152.029 330.968 151.133 330.818 150.086C329.772 140.967 321.998 133.642 312.58 133.642C304.807 133.642 298.08 138.575 295.389 145.452L299.724 146.349L294.343 150.385L292.101 152.029H291.503L289.858 149.189L286.569 143.658L290.905 144.555C294.044 135.586 302.415 129.158 312.431 129.158C324.091 129.158 333.808 138.127 335.153 149.488C335.303 150.834 334.406 152.029 333.06 152.029Z" fill="#00BFFF"/>
<path d="M291.652 158.009C292.848 158.009 293.745 158.906 293.894 159.953C294.941 169.071 302.714 176.396 312.132 176.396C319.905 176.396 326.632 171.463 329.323 164.587L324.988 163.69L330.37 159.654L332.612 158.009H333.06L334.705 160.85L337.994 166.381L333.658 165.484C330.519 174.453 322.148 180.881 312.132 180.881C300.472 180.881 290.755 171.912 289.41 160.551C289.41 159.205 290.456 158.009 291.652 158.009Z" fill="#00BFFF"/>
<path d="M291.951 152.03L291.652 152.179L291.503 152.03H291.951Z" fill="#00BFFF"/>
<path d="M496.153 180.881H570" stroke="#00BFFF" stroke-width="2.9479" stroke-miterlimit="10" stroke-linecap="round" stroke-linejoin="round"/>
<path d="M496.153 194.036H543.989" stroke="#00BFFF" stroke-width="2.9479" stroke-miterlimit="10" stroke-linecap="round" stroke-linejoin="round"/>
<path d="M496.153 206.892H543.989" stroke="#00BFFF" stroke-width="2.9479" stroke-miterlimit="10" stroke-linecap="round" stroke-linejoin="round"/>
<path d="M112.565 252.935H38.7174" stroke="#00BFFF" stroke-width="2.9479" stroke-miterlimit="10" stroke-linecap="round" stroke-linejoin="round"/>
<path d="M112.565 266.089H64.7284" stroke="#00BFFF" stroke-width="2.9479" stroke-miterlimit="10" stroke-linecap="round" stroke-linejoin="round"/>
<path d="M112.565 278.945H64.7284" stroke="#00BFFF" stroke-width="2.9479" stroke-miterlimit="10" stroke-linecap="round" stroke-linejoin="round"/>
<path d="M368.639 254.517L355.035 211.201C354.736 210.388 353.989 209.923 352.942 209.923H266.986C266.239 209.923 265.641 210.155 265.342 210.504L264.894 210.272L280.739 143.729C280.739 143.729 404.815 95.884 429.331 153.136C430.826 156.736 471.786 202.839 472.533 205.975C483.745 253.239 368.639 254.517 368.639 254.517Z" fill="url(#paint8_radial)"/>
<path d="M166.231 223.336C166.231 223.336 142.911 347.561 243.218 360.865C319.457 371.031 402.871 309.89 382.093 269.229" stroke="#66D7FF" stroke-width="1.1792" stroke-miterlimit="10" stroke-linecap="round" stroke-linejoin="round"/>
<path d="M202.258 220.944C202.258 220.944 170.566 277.152 202.258 356.53C233.949 435.909 426.341 458.033 391.211 270.873" stroke="#0098FF" stroke-width="1.1792" stroke-miterlimit="10" stroke-linecap="round" stroke-linejoin="round"/>
<path d="M81.1724 382.242C81.1724 382.242 46.1921 360.865 33.0371 319.457C69.6618 324.091 102.25 384.186 102.25 384.186L81.1724 382.242Z" fill="#B3CEE8"/>
<g opacity="0.25">
<path opacity="0.25" d="M33.0371 319.457C42.9034 328.426 52.6201 337.695 62.0379 347.112C71.4557 356.53 80.7239 366.247 89.2448 376.562L87.8994 377.608C79.528 367.144 70.5587 357.278 61.4399 347.561C52.1716 338.143 42.7539 328.725 33.0371 319.457Z" fill="black"/>
</g>
<path d="M121.385 417.222C120.787 417.521 120.039 417.521 119.441 417.372C111.668 410.645 103.147 402.572 94.3273 392.856C51.1251 368.19 9.41785 420.063 9.41785 420.063C9.41785 420.063 26.908 359.37 75.6413 369.685C124.524 380 121.385 417.222 121.385 417.222Z" fill="#3964F9"/>
<g opacity="0.25">
<path opacity="0.25" d="M9.41785 420.063C15.3974 410.645 22.5728 401.975 30.9442 394.5C39.3156 387.175 49.0323 380.897 60.2439 378.505C65.775 377.309 71.4556 377.309 77.1362 378.355C82.6672 379.402 88.0488 381.495 92.8325 384.484C94.0284 385.232 95.2243 385.979 96.4202 386.876L98.214 388.072L99.8584 389.418C100.905 390.315 102.101 391.211 103.147 392.108L104.642 393.603L106.137 395.248C108.08 397.341 109.575 399.882 110.771 402.423C111.967 405.114 112.864 407.805 113.013 410.794H111.22C111.07 408.253 110.323 405.562 109.276 403.021C108.23 400.48 106.735 398.237 104.941 396.145L103.596 394.65L102.101 393.155C101.054 392.258 100.008 391.361 98.9615 390.464L97.1676 389.119L95.5233 387.923C94.3273 387.175 93.2809 386.278 92.085 385.531C87.4509 382.541 82.2188 380.448 76.8372 379.402C71.4556 378.355 65.775 378.355 60.3934 379.402C49.4808 381.495 39.6145 387.624 31.2432 394.799C22.7223 402.124 15.3974 410.794 9.41785 420.063Z" fill="black"/>
</g>
<defs>
<linearGradient id="paint0_linear" x1="191.694" y1="-45.2795" x2="191.694" y2="122.146" gradientUnits="userSpaceOnUse">
<stop stop-color="#3E84FF"/>
<stop offset="1" stop-color="#7440FF"/>
</linearGradient>
<linearGradient id="paint1_linear" x1="417.576" y1="237.665" x2="409.077" y2="378.177" gradientUnits="userSpaceOnUse">
<stop stop-color="#2B2B2B"/>
<stop offset="1" stop-color="#111111"/>
</linearGradient>
<linearGradient id="paint2_linear" x1="377.27" y1="210.961" x2="359.422" y2="261.953" gradientUnits="userSpaceOnUse">
<stop stop-color="#F78B7C"/>
<stop offset="1" stop-color="#FFB7A9"/>
</linearGradient>
<linearGradient id="paint3_linear" x1="386.195" y1="150.578" x2="381.379" y2="175.791" gradientUnits="userSpaceOnUse">
<stop stop-color="#F78B7C"/>
<stop offset="1" stop-color="#FFB7A9"/>
</linearGradient>
<linearGradient id="paint4_linear" x1="377.224" y1="129.393" x2="382.324" y2="156.873" gradientUnits="userSpaceOnUse">
<stop stop-color="#2B2B2B"/>
<stop offset="1" stop-color="#111111"/>
</linearGradient>
<linearGradient id="paint5_linear" x1="433.559" y1="177.009" x2="401.263" y2="256.331" gradientUnits="userSpaceOnUse">
<stop stop-color="#F78B7C"/>
<stop offset="1" stop-color="#FFB7A9"/>
</linearGradient>
<linearGradient id="paint6_linear" x1="186.37" y1="226.635" x2="180.713" y2="144.609" gradientUnits="userSpaceOnUse">
<stop stop-color="#3E84FF"/>
<stop offset="1" stop-color="#7440FF"/>
</linearGradient>
<linearGradient id="paint7_linear" x1="330.783" y1="294.811" x2="303.976" y2="203.499" gradientUnits="userSpaceOnUse">
<stop stop-color="#3E84FF"/>
<stop offset="1" stop-color="#7440FF"/>
</linearGradient>
<radialGradient id="paint8_radial" cx="0" cy="0" r="1" gradientUnits="userSpaceOnUse" gradientTransform="translate(208.786 384.497) scale(347.827 270.207)">
<stop stop-color="#FF00FF"/>
<stop offset="1" stop-color="#00FFFF" stop-opacity="0"/>
</radialGradient>
</defs>
</svg>
