<svg width="570" height="485" viewBox="0 0 570 485" fill="none" xmlns="http://www.w3.org/2000/svg">
<path d="M546.974 93.0813V398.278C546.974 405.498 541.12 411.353 533.9 411.353H30.4417C23.2216 411.353 17.3674 405.498 17.3674 398.278V93.0813C17.3674 85.8612 23.2216 80.007 30.4417 80.007H533.9C541.12 79.8119 546.974 85.8612 546.974 93.0813Z" fill="#3964F9"/>
<path d="M336.029 467.552H228.312L240.021 421.5L242.557 411.157L247.826 390.863H316.515L321.589 411.157L324.321 421.5L336.029 467.552Z" fill="#3964F9"/>
<path d="M324.321 421.5H240.021L242.558 411.157H321.589L324.321 421.5Z" fill="#425DE2"/>
<path d="M377.398 480.236H186.943C182.455 480.236 178.747 476.529 178.747 472.041C178.747 467.552 182.455 463.845 186.943 463.845H377.398C381.886 463.845 385.594 467.552 385.594 472.041C385.594 476.529 381.886 480.236 377.398 480.236Z" fill="#3B5BD1"/>
<path opacity="0.2" d="M546.974 127.035H16.1966V358.665H546.974V127.035Z" fill="#60F4DF"/>
<path d="M282.171 396.327C275.536 396.327 269.877 390.863 269.877 384.033C269.877 377.399 275.341 371.74 282.171 371.74C288.805 371.74 294.464 377.203 294.464 384.033C294.269 390.863 288.805 396.327 282.171 396.327Z" fill="#3B5BD1"/>
<path opacity="0.2" d="M528.826 276.317H206.262C202.749 276.317 199.822 273.389 199.822 269.877V139.524C199.822 136.012 202.749 133.085 206.262 133.085H528.826C532.338 133.085 535.266 136.012 535.266 139.524V269.877C535.07 273.585 532.338 276.317 528.826 276.317Z" fill="white"/>
<path opacity="0.39" d="M526.094 209.774V264.218C526.094 266.56 524.143 268.511 521.606 268.511H211.921C209.579 268.511 207.433 266.56 207.433 264.218V144.793C236.118 144.793 250.363 155.526 258.559 169.576C259.144 170.551 259.535 171.332 260.12 172.308C274.17 199.042 270.072 235.728 301.099 235.728C302.27 235.728 303.441 235.532 304.417 235.337C305.002 235.142 305.782 234.947 306.368 234.752C327.248 225.971 323.93 163.526 361.202 163.917C369.203 163.917 375.057 167.039 379.74 171.917C380.13 172.308 380.716 172.893 381.106 173.478C397.693 192.992 398.083 236.508 423.646 244.509C432.818 247.436 441.014 243.533 449.014 237.094C449.6 236.703 449.99 236.313 450.575 235.728C467.552 221.678 484.529 197.48 510.678 203.335C511.459 203.53 512.239 203.725 513.02 203.92C517.118 205.091 521.411 207.042 526.094 209.774Z" fill="white"/>
<path opacity="0.8" d="M526.094 198.846C520.435 198.846 516.337 200.798 512.825 203.725C506.58 209.384 503.068 218.946 499.75 228.312C494.872 242.362 489.603 256.803 474.577 256.803C473.797 256.803 473.016 256.803 472.041 256.607C462.284 255.632 455.064 247.631 448.819 236.703C444.916 229.873 441.209 222.068 437.501 213.872C427.159 191.041 416.426 167.624 396.522 167.039C396.327 167.039 396.132 167.039 395.937 167.039C389.887 167.039 385.009 169.38 380.911 173.088C372.52 180.698 367.251 194.553 361.982 208.018C354.372 227.922 346.371 248.607 328.419 248.997C315.539 249.192 309.685 244.314 304.417 235.142C302.465 231.63 300.514 227.337 298.172 222.458C294.074 213.482 289.001 202.554 280.61 189.675C274.951 181.089 267.73 175.625 260.12 172.307C239.435 163.331 215.043 169.966 207.433 172.307V170.356C215.628 167.819 238.46 161.965 258.559 169.576C267.34 172.893 275.731 178.747 282.171 188.699C290.757 201.773 295.83 212.896 299.928 221.678C302.27 226.751 304.221 231.044 306.173 234.557C311.051 243.143 316.515 247.436 328.223 247.046C344.81 246.655 352.225 227.532 360.031 207.432C365.3 193.773 370.764 179.723 379.35 171.722C384.033 167.624 389.497 165.087 396.327 165.282C417.402 165.868 428.33 190.065 439.062 213.287C442.77 221.287 446.282 228.898 449.99 235.532C456.039 246.07 462.869 253.875 472.041 254.656C487.457 256.217 492.335 242.362 497.604 227.727C500.921 218.555 504.239 209.189 510.093 203.335C513.995 199.432 518.874 197.09 525.509 197.09L526.094 198.846Z" fill="white"/>
<path opacity="0.5" d="M529.802 313.783H363.348C360.421 313.783 357.884 311.441 357.884 308.319V287.83C357.884 284.903 360.226 282.366 363.348 282.366H529.802C532.729 282.366 535.266 284.707 535.266 287.83V308.319C535.07 311.441 532.729 313.783 529.802 313.783Z" fill="#9CD7FF"/>
<path opacity="0.2" d="M529.802 351.64H363.348C360.421 351.64 357.885 349.298 357.885 346.176V325.687C357.885 322.759 360.226 320.223 363.348 320.223H529.802C532.729 320.223 535.266 322.564 535.266 325.687V346.176C535.07 349.298 532.729 351.64 529.802 351.64Z" fill="white"/>
<path opacity="0.2" d="M188.114 202.554H36.296C32.7835 202.554 29.8564 199.627 29.8564 196.115V139.524C29.8564 136.012 32.7835 133.085 36.296 133.085H188.114C191.626 133.085 194.553 136.012 194.553 139.524V196.115C194.358 199.627 191.626 202.554 188.114 202.554Z" fill="#9CD7FF"/>
<g opacity="0.3">
<path opacity="0.3" d="M171.332 196.505H163.136C162.16 196.505 161.575 195.724 161.575 194.944V152.208C161.575 151.233 162.355 150.647 163.136 150.647H171.332C172.308 150.647 172.893 151.428 172.893 152.208V194.944C172.893 195.919 172.112 196.505 171.332 196.505Z" fill="white"/>
<path opacity="0.3" d="M186.748 196.505H178.942C177.967 196.505 177.186 195.724 177.186 194.749V141.671C177.186 140.695 177.967 139.915 178.942 139.915H186.748C187.724 139.915 188.504 140.695 188.504 141.671V194.944C188.504 195.724 187.724 196.505 186.748 196.505Z" fill="white"/>
<path opacity="0.3" d="M46.0528 196.505H38.2473C37.2716 196.505 36.491 195.724 36.491 194.749V141.671C36.491 140.695 37.2716 139.915 38.2473 139.915H46.0528C47.0285 139.915 47.8091 140.695 47.8091 141.671V194.944C47.8091 195.724 47.0285 196.505 46.0528 196.505Z" fill="white"/>
<path opacity="0.3" d="M61.8591 196.505H53.4682C52.6876 196.505 51.9071 195.724 51.9071 194.944V154.745C51.9071 153.964 52.6876 153.184 53.4682 153.184H61.664C62.4446 153.184 63.2251 153.964 63.2251 154.745V194.944C63.4203 195.919 62.6397 196.505 61.8591 196.505Z" fill="white"/>
<path opacity="0.3" d="M77.275 196.505H69.4695C68.4938 196.505 67.7132 195.724 67.7132 194.749V141.671C67.7132 140.695 68.4938 139.915 69.4695 139.915H77.275C78.2507 139.915 79.0313 140.695 79.0313 141.671V194.944C79.0313 195.724 78.2507 196.505 77.275 196.505Z" fill="white"/>
<path opacity="0.3" d="M93.2765 196.505H84.6904C83.9098 196.505 83.3244 195.92 83.3244 195.139V166.454C83.3244 165.673 83.9098 165.088 84.6904 165.088H93.4716C94.2522 165.088 94.8376 165.673 94.8376 166.454V195.139C94.6425 195.92 94.0571 196.505 93.2765 196.505Z" fill="white"/>
<path opacity="0.3" d="M108.497 196.505H100.692C99.7159 196.505 98.9354 195.724 98.9354 194.749V141.671C98.9354 140.695 99.7159 139.915 100.692 139.915H108.497C109.473 139.915 110.253 140.695 110.253 141.671V194.944C110.253 195.724 109.473 196.505 108.497 196.505Z" fill="white"/>
<path opacity="0.3" d="M124.304 196.505H116.108C115.132 196.505 114.547 195.724 114.547 194.944V152.208C114.547 151.233 115.327 150.647 116.108 150.647H124.304C125.279 150.647 125.865 151.428 125.865 152.208V194.944C125.865 195.919 125.279 196.505 124.304 196.505Z" fill="white"/>
<path opacity="0.3" d="M139.719 196.505H131.914C130.938 196.505 130.158 195.724 130.158 194.749V141.671C130.158 140.695 130.938 139.915 131.914 139.915H139.719C140.695 139.915 141.476 140.695 141.476 141.671V194.944C141.671 195.724 140.695 196.505 139.719 196.505Z" fill="white"/>
<path opacity="0.3" d="M155.721 196.505H147.525C146.744 196.505 145.964 195.724 145.964 194.944V154.745C145.964 153.964 146.744 153.184 147.525 153.184H155.721C156.501 153.184 157.282 153.964 157.282 154.745V194.944C157.282 195.919 156.501 196.505 155.721 196.505Z" fill="white"/>
</g>
<path opacity="0.2" d="M188.114 277.097H36.296C32.7835 277.097 29.8564 274.17 29.8564 270.657V214.067C29.8564 210.555 32.7835 207.628 36.296 207.628H188.114C191.626 207.628 194.553 210.555 194.553 214.067V270.657C194.358 274.17 191.626 277.097 188.114 277.097Z" fill="white"/>
<path opacity="0.2" d="M188.114 351.64H36.296C32.7835 351.64 29.8564 348.713 29.8564 345.2V288.61C29.8564 285.098 32.7835 282.171 36.296 282.171H188.114C191.626 282.171 194.553 285.098 194.553 288.61V345.2C194.358 348.908 191.626 351.64 188.114 351.64Z" fill="white"/>
<path opacity="0.5" d="M186.162 216.799C184.406 216.799 183.04 218.165 183.04 219.922C183.04 220.507 183.235 221.092 183.431 221.483L158.258 249.973C157.867 249.778 157.477 249.778 157.087 249.778C156.697 249.778 156.306 249.973 155.916 249.973L128.792 223.434C128.987 223.044 128.987 222.653 128.987 222.068C128.987 220.312 127.621 218.946 125.865 218.946C124.108 218.946 122.742 220.312 122.742 222.068C122.742 222.458 122.938 223.044 123.133 223.434L88.398 261.096C87.8126 260.706 87.2271 260.51 86.6417 260.51C86.0563 260.51 85.666 260.706 85.0806 260.901L66.1522 235.923C66.5424 235.337 66.7376 234.752 66.7376 234.167C66.7376 232.41 65.3716 231.044 63.6154 231.044C61.8591 231.044 60.4931 232.41 60.4931 234.167C60.4931 234.752 60.6883 235.142 60.8834 235.728L39.6133 263.242C39.223 263.047 38.8327 263.047 38.4425 263.047C36.6862 263.047 35.3203 264.413 35.3203 266.169C35.3203 267.926 36.6862 269.292 38.4425 269.292C40.1987 269.292 41.5647 267.926 41.5647 266.169C41.5647 265.584 41.3695 264.999 40.9793 264.413L62.2494 236.899C62.6397 237.094 63.0299 237.094 63.4202 237.094C63.8105 237.094 64.0056 237.094 64.3959 236.899L83.7146 262.071C83.5195 262.462 83.5195 262.852 83.5195 263.242C83.5195 264.999 84.8855 266.365 86.6417 266.365C88.398 266.365 89.7639 264.999 89.7639 263.242C89.7639 262.852 89.7639 262.657 89.5688 262.267L124.499 224.41C124.889 224.605 125.474 224.8 125.865 224.8C126.45 224.8 126.84 224.605 127.426 224.41L154.355 250.949C154.16 251.339 153.965 251.924 153.965 252.51C153.965 254.266 155.331 255.632 157.087 255.632C158.843 255.632 160.209 254.266 160.209 252.51C160.209 251.924 160.014 251.339 159.819 250.949L184.992 222.653C185.382 222.849 185.772 222.849 186.162 222.849C187.919 222.849 189.285 221.483 189.285 219.726C189.285 218.165 187.919 216.799 186.162 216.799Z" fill="white"/>
<path opacity="0.3" d="M172.308 293.489H38.6375C37.0764 293.489 35.9056 292.318 35.9056 290.757V290.562C35.9056 289.001 37.0764 287.83 38.6375 287.83H172.308C173.869 287.83 175.039 289.001 175.039 290.562V290.757C175.039 292.318 173.869 293.489 172.308 293.489Z" fill="white"/>
<path opacity="0.3" d="M158.453 304.026H38.4425C37.0766 304.026 35.7106 302.856 35.7106 301.294V300.709C35.7106 299.343 36.8814 297.977 38.4425 297.977H158.453C159.819 297.977 161.185 299.148 161.185 300.709V301.294C161.185 302.856 159.819 304.026 158.453 304.026Z" fill="white"/>
<path opacity="0.3" d="M186.358 314.369H38.8327C37.2715 314.369 35.9056 313.003 35.9056 311.441C35.9056 309.88 37.2715 308.514 38.8327 308.514H186.358C187.919 308.514 189.285 309.88 189.285 311.441C189.285 313.198 187.919 314.369 186.358 314.369Z" fill="white"/>
<path opacity="0.3" d="M144.793 324.906H38.4424C37.0764 324.906 35.9056 323.735 35.9056 322.369V321.589C35.9056 320.223 37.0764 319.052 38.4424 319.052H144.793C146.159 319.052 147.33 320.223 147.33 321.589V322.369C147.33 323.735 146.159 324.906 144.793 324.906Z" fill="white"/>
<path opacity="0.3" d="M173.674 335.249H38.6375C37.0764 335.249 35.9056 334.078 35.9056 332.517V332.322C35.9056 330.76 37.0764 329.59 38.6375 329.59H173.674C175.235 329.59 176.405 330.76 176.405 332.322V332.517C176.601 334.078 175.235 335.249 173.674 335.249Z" fill="white"/>
<path opacity="0.3" d="M186.358 345.786H38.8327C37.2715 345.786 35.9056 344.42 35.9056 342.859C35.9056 341.298 37.2715 339.932 38.8327 339.932H186.358C187.919 339.932 189.285 341.298 189.285 342.859C189.285 344.42 187.919 345.786 186.358 345.786Z" fill="white"/>
<path opacity="0.5" d="M269.487 317.1C269.487 336.224 253.876 351.835 234.752 351.835C215.628 351.835 200.017 336.419 200.017 317.1C200.017 297.977 215.628 282.366 234.752 282.366C237.484 282.366 240.216 282.756 242.753 283.341C257.193 286.659 268.121 299.148 269.292 314.368C269.487 315.149 269.487 316.125 269.487 317.1Z" fill="#9CD7FF"/>
<path d="M269.487 314.368L234.947 317.1L242.948 283.341C257.388 286.854 268.316 299.148 269.487 314.368Z" fill="#9CD7FF"/>
<path opacity="0.5" d="M346.762 288.025H280.024C278.853 288.025 277.682 287.049 277.682 285.683C277.682 284.512 278.658 283.341 280.024 283.341H346.762C347.932 283.341 349.103 284.317 349.103 285.683C348.908 286.854 347.932 288.025 346.762 288.025Z" fill="#9CD7FF"/>
<path opacity="0.5" d="M336.81 297.001H279.829C278.658 297.001 277.682 296.026 277.682 294.855V294.464C277.682 293.294 278.658 292.318 279.829 292.318H336.81C337.98 292.318 338.956 293.294 338.956 294.464V294.855C338.956 296.026 337.98 297.001 336.81 297.001Z" fill="#9CD7FF"/>
<path opacity="0.5" d="M323.15 306.173H279.634C278.658 306.173 277.682 305.392 277.682 304.221V303.441C277.682 302.465 278.463 301.489 279.634 301.489H323.15C324.126 301.489 325.101 302.27 325.101 303.441V304.221C325.101 305.197 324.126 306.173 323.15 306.173Z" fill="#9CD7FF"/>
<path opacity="0.5" d="M346.762 315.149H280.024C278.853 315.149 277.682 314.173 277.682 312.807C277.682 311.637 278.658 310.466 280.024 310.466H346.762C347.932 310.466 349.103 311.442 349.103 312.807C348.908 314.173 347.932 315.149 346.762 315.149Z" fill="#9CD7FF"/>
<path opacity="0.5" d="M338.956 324.321H279.829C278.658 324.321 277.682 323.345 277.682 322.174V321.784C277.682 320.613 278.658 319.637 279.829 319.637H338.956C340.127 319.637 341.103 320.613 341.103 321.784V321.979C341.103 323.345 340.127 324.321 338.956 324.321Z" fill="#9CD7FF"/>
<path opacity="0.5" d="M346.762 333.297H280.024C278.853 333.297 277.682 332.321 277.682 330.955C277.682 329.785 278.658 328.614 280.024 328.614H346.762C347.932 328.614 349.103 329.589 349.103 330.955C348.908 332.321 347.932 333.297 346.762 333.297Z" fill="#9CD7FF"/>
<path opacity="0.5" d="M333.297 342.469H279.829C278.658 342.469 277.682 341.493 277.682 340.322V339.932C277.682 338.761 278.658 337.785 279.829 337.785H333.297C334.468 337.785 335.444 338.761 335.444 339.932V340.322C335.248 341.493 334.468 342.469 333.297 342.469Z" fill="#9CD7FF"/>
<path opacity="0.5" d="M346.762 351.445H280.024C278.853 351.445 277.682 350.469 277.682 349.103C277.682 347.932 278.658 346.761 280.024 346.761H346.762C347.932 346.761 349.103 347.737 349.103 349.103C348.908 350.469 347.932 351.445 346.762 351.445Z" fill="#9CD7FF"/>
<g opacity="0.3">
<g opacity="0.3">
<path opacity="0.3" d="M191.431 240.411C191.626 239.63 190.651 239.435 189.87 240.996C188.699 243.143 186.748 244.119 184.211 244.704C184.016 244.314 184.601 244.119 184.991 243.338C185.382 242.362 185.187 241.777 184.796 241.582C184.406 241.387 183.821 242.557 183.43 242.753C182.455 243.533 181.479 244.314 180.503 245.094C179.528 246.07 178.942 246.655 178.357 247.826C178.357 247.826 178.357 248.216 178.162 248.607C171.917 253.485 150.842 259.534 148.11 261.291C147.525 261.681 143.037 261.876 137.768 261.681C137.768 261.096 137.768 260.51 137.768 260.51C137.768 260.51 129.182 259.144 124.889 256.607C122.547 255.241 120.01 255.241 119.035 255.437C118.839 255.046 118.644 254.851 118.449 254.461C118.449 254.461 118.449 254.266 118.254 254.266C117.278 253.095 115.717 252.314 114.742 251.144C114.546 249.582 114.546 246.07 115.327 244.509C115.912 243.338 118.254 241.191 120.986 239.045C122.157 238.069 123.133 236.118 122.352 232.8C121.181 228.117 120.791 225.971 120.205 224.605C119.815 223.629 118.839 222.848 118.449 222.068C118.254 221.873 118.254 221.873 118.254 221.678C119.425 220.312 115.912 210.164 104.789 210.555C102.058 210.555 99.1305 210.75 96.5937 212.116C94.0569 213.287 91.3249 215.628 91.5201 217.775C87.6173 218.555 87.0319 222.458 86.8367 224.019C86.4464 226.166 86.2513 228.312 86.6416 230.459C87.0319 233.581 88.2027 236.703 88.7881 239.825C89.3735 242.362 89.3735 245.289 88.3978 247.631C87.4221 249.973 85.0805 251.144 83.9096 253.485C82.3485 256.412 82.5437 259.925 84.1048 262.852C84.8853 264.218 85.4708 265.194 86.2513 266.364C85.2756 269.487 83.9096 273.975 82.9339 278.268L53.8583 283.146C53.0777 283.341 52.4923 284.122 52.4923 284.903L59.7124 327.248C59.9076 328.028 60.6881 328.614 61.4687 328.614L86.0562 324.516C85.6659 327.638 85.6659 331.15 86.0562 334.468C86.4464 337.395 89.3735 345.2 89.7638 348.127C90.7395 354.762 92.886 364.324 92.6909 371.739C93.2763 372.13 94.0569 372.715 94.6423 373.105C96.2034 382.082 97.5694 390.277 97.3742 391.448C96.9839 394.18 93.8617 401.986 92.886 410.377C92.886 410.767 92.886 411.157 92.6909 411.548H108.692C109.863 405.693 110.644 400.425 111.229 396.522C111.424 395.546 111.424 394.57 111.619 393.79V393.595C111.619 393.205 111.619 392.814 111.814 392.424C111.814 391.643 111.814 391.058 112.01 390.277C112.01 390.082 112.01 389.887 112.01 389.692C112.01 389.107 112.01 388.521 112.01 387.741C112.01 387.546 112.01 387.35 112.01 387.155C112.01 386.375 112.01 385.594 112.01 384.618C112.01 384.423 112.01 384.033 112.01 383.838C112.01 383.252 112.01 382.472 112.01 381.886C112.01 381.496 112.01 381.301 112.01 380.911V380.13C114.742 387.936 116.888 393.985 116.888 393.985C116.888 393.985 114.546 401.986 113.961 411.743H129.377C129.767 402.766 130.353 395.351 130.353 391.839C130.548 385.789 130.353 379.74 129.962 373.3C130.938 364.324 130.743 357.104 129.962 344.81C129.377 334.858 126.84 325.491 124.498 318.466L139.719 315.93C140.5 315.734 141.085 314.954 141.085 314.173L134.451 274.755C136.012 274.755 136.792 274.95 136.792 274.95C136.987 274.365 136.987 273.78 137.183 273.194C142.646 272.804 147.135 272.219 148.305 272.023C157.087 270.267 179.137 255.437 181.089 254.071C182.455 254.461 186.553 252.9 187.528 251.339C187.919 250.753 188.114 250.168 187.919 249.582C188.504 248.802 189.675 246.265 187.723 246.85C190.26 244.704 190.846 242.753 191.431 240.411Z" fill="#5FB0E7"/>
</g>
</g>
<path d="M105.96 327.638L85.2753 311.051C85.2753 311.051 80.3969 322.76 84.2996 334.858C86.251 340.907 84.1045 345.201 85.2753 347.932C86.251 350.664 93.276 388.521 92.8857 391.253C92.4955 393.985 89.3732 401.986 88.3975 410.182C87.2267 420.134 88.2024 452.137 87.2267 460.528C86.251 469.114 94.0566 470.284 94.4468 467.357C97.5691 442.77 106.35 404.132 107.521 391.839C108.302 379.74 107.326 357.299 105.96 327.638Z" fill="#FFE1BD"/>
<path d="M106.546 351.835L98.1546 372.13C102.057 378.374 104.399 385.594 104.789 393.205C104.984 397.107 104.789 401.01 104.984 404.913C104.984 405.108 104.984 405.498 105.18 405.694C106.155 399.839 106.936 395.156 107.326 392.034C108.107 383.253 107.716 369.593 106.936 351.835C106.936 351.835 106.741 351.835 106.546 351.835Z" fill="#FCCB95"/>
<path d="M95.4226 459.747C95.4226 459.747 93.6664 468.723 94.2518 469.894C94.8372 471.065 96.5935 474.187 98.5448 475.358C100.496 476.529 104.984 477.895 105.18 478.48C105.57 479.066 105.57 479.846 104.984 480.237C103.423 481.603 100.691 482.188 98.9351 481.993C93.081 481.212 92.3004 478.48 88.983 478.285C88.3976 478.285 87.2268 479.066 85.6657 478.285C84.1046 477.505 83.1289 475.943 83.324 474.578C83.5192 472.041 84.8851 470.089 85.8608 468.138C86.8365 466.382 87.2268 457.991 87.2268 457.991" fill="#FFE1BD"/>
<path d="M105.57 480.627C105.96 479.846 106.155 478.675 105.57 478.48C104.984 478.09 103.033 476.919 101.862 476.334C100.691 475.748 98.9352 475.358 99.5206 475.748C100.106 476.139 98.9352 477.309 97.9595 477.309C94.2518 477.114 91.5199 474.773 89.3734 474.382C86.2512 473.602 84.8852 470.089 84.8852 469.504C84.2998 469.894 83.1289 472.821 82.7387 473.797C82.5435 474.577 82.1532 476.139 82.3484 476.919C82.5435 477.505 82.9338 478.675 82.7387 479.846C82.7387 479.846 83.3241 480.236 84.8852 480.627C85.8609 480.822 87.2268 480.627 87.2268 480.627L87.422 478.675C87.422 478.675 88.2025 478.675 89.3734 478.871C90.3491 479.066 92.1053 480.041 92.3005 480.041C92.6907 480.627 93.081 481.407 93.6664 481.798C95.2275 482.578 96.5935 482.773 98.5449 482.968C102.643 483.164 104.984 481.993 105.57 480.627Z" fill="#594A5F"/>
<path d="M135.621 478.675C135.231 478.285 130.548 477.505 128.206 476.529C126.06 475.748 123.523 472.821 122.937 471.65C122.352 470.48 122.547 464.43 122.547 461.894C122.742 444.331 125.669 401.596 126.06 391.448C126.645 373.691 124.108 355.348 117.083 326.858L91.3248 307.539C91.3248 307.539 84.2998 320.808 86.8366 333.492C88.2026 340.908 94.447 341.883 95.4227 344.81C96.3984 347.737 112.4 393.595 112.4 393.595C112.4 393.595 109.473 403.547 109.473 414.475C109.473 423.841 113.961 451.941 114.741 462.674C114.937 464.821 115.327 469.699 114.741 471.455C113.961 473.407 112.01 475.748 112.205 478.285C112.205 479.651 113.375 481.017 115.132 481.603C116.888 482.188 117.864 481.017 118.644 481.017C122.157 480.822 123.328 483.359 129.377 483.164C131.328 483.164 134.06 481.993 135.426 480.627C136.207 480.041 136.012 479.261 135.621 478.675Z" fill="#FFE1BD"/>
<path d="M136.207 481.017C136.597 480.237 136.402 479.066 136.012 478.871C135.426 478.675 133.084 477.7 131.914 477.309C130.743 476.919 128.791 476.919 129.377 477.114C130.157 477.309 128.987 478.871 128.011 478.871C124.108 479.261 120.986 477.309 118.839 477.114C115.522 476.919 114.351 473.602 114.156 473.016C113.571 473.407 112.01 476.529 112.01 477.505C111.814 478.285 111.619 479.846 112.01 480.627C112.205 481.212 112.79 482.383 112.79 483.554C112.79 483.554 113.571 483.944 115.132 483.944C116.107 483.944 117.473 483.554 117.473 483.554V481.602C117.473 481.602 118.254 481.407 119.425 481.407C120.596 481.407 121.962 481.993 122.547 482.578C123.132 482.968 123.718 483.554 124.303 483.749C126.059 484.139 127.425 484.334 129.377 484.139C133.475 483.749 135.621 482.383 136.207 481.017Z" fill="#594A5F"/>
<path d="M176.6 253.485C177.966 253.876 182.064 252.315 183.04 250.753C183.43 250.168 183.625 249.583 183.43 248.997C184.016 248.217 185.187 245.68 183.235 246.265C185.187 244.899 185.577 242.948 186.162 240.801C186.357 240.021 185.577 239.826 184.601 241.387C183.43 243.338 181.479 244.509 178.942 245.094C178.747 244.704 179.332 244.509 179.723 243.728C180.113 242.753 179.918 242.167 179.528 241.972C179.137 241.777 178.552 242.948 178.162 243.143C177.186 243.924 176.21 244.704 175.234 245.485C174.259 246.46 173.673 247.046 173.088 248.217C173.088 248.412 172.503 250.558 173.478 250.363" fill="#FFE1BD"/>
<path d="M114.742 273.585C124.303 273.389 141.476 271.828 143.817 271.438C153.184 269.682 176.796 253.29 176.796 253.29C176.796 253.29 177.186 249.582 173.673 248.412C167.624 253.29 146.159 259.535 143.232 261.291C141.28 262.462 111.229 261.096 111.229 261.096" fill="#FFE1BD"/>
<path d="M82.9339 261.876C82.9339 261.876 78.836 272.804 77.47 281.585L87.2269 283.146V269.096" fill="#00BFFF"/>
<path d="M135.426 315.344L56.7853 328.614C56.0048 328.809 55.0291 328.223 55.0291 327.248L47.8089 284.903C47.6138 284.122 48.1992 283.146 49.1749 283.146L127.816 269.877C128.596 269.682 129.572 270.267 129.572 271.243L136.792 313.588C136.792 314.369 136.207 315.344 135.426 315.344Z" fill="#2C1E56"/>
<path d="M132.694 312.807L58.5414 325.687C57.7609 325.882 57.1755 325.296 56.9803 324.516L50.7359 287.635C50.5407 286.854 51.1262 286.269 51.9067 286.073L126.059 273.194C126.84 272.999 127.425 273.585 127.621 274.365L133.865 311.246C133.865 311.832 133.475 312.612 132.694 312.807Z" fill="#39297F"/>
<path d="M62.4443 322.174L61.2734 322.369C60.688 322.564 60.1026 321.979 59.9075 321.393L54.4436 289.586C54.2484 289 54.8339 288.415 55.4193 288.22L56.5901 288.025C57.1755 287.829 57.7609 288.415 57.9561 289L63.42 320.808C63.42 321.393 63.0297 322.174 62.4443 322.174Z" fill="#4C4199"/>
<path d="M69.079 321.003L67.9082 321.198C67.3228 321.393 66.7374 320.808 66.5422 320.223L61.0783 288.415C60.8832 287.83 61.4686 287.244 62.054 287.049L63.2249 286.854C63.8103 286.659 64.3957 287.244 64.5908 287.83L70.0547 319.637C70.0547 320.223 69.6644 320.808 69.079 321.003Z" fill="#4C4199"/>
<path d="M75.7137 319.637L74.5428 319.832C73.9574 320.028 73.372 319.442 73.1769 318.857L67.713 287.049C67.5179 286.464 68.1033 285.878 68.6887 285.683L69.8595 285.488C70.4449 285.293 71.0303 285.878 71.2255 286.464L76.6894 318.271C76.6894 318.857 76.2991 319.442 75.7137 319.637Z" fill="#4C4199"/>
<path d="M82.3484 318.271L81.1776 318.466C80.5922 318.662 80.0068 318.076 79.8116 317.491L74.3478 285.683C74.1526 285.098 74.738 284.512 75.3234 284.317L76.4943 284.122C77.0797 283.927 77.6651 284.512 77.8603 285.098L83.3241 316.905C83.5193 317.686 82.9339 318.271 82.3484 318.271Z" fill="#4C4199"/>
<path d="M88.9832 317.1L87.8124 317.296C87.227 317.491 86.6415 316.905 86.4464 316.32L80.9825 284.512C80.7874 283.927 81.3728 283.341 81.9582 283.146L83.129 282.951C83.7145 282.756 84.2999 283.341 84.495 283.927L89.9589 315.734C90.154 316.32 89.5686 316.905 88.9832 317.1Z" fill="#4C4199"/>
<path d="M95.6178 315.734L94.447 315.93C93.8616 316.125 93.2762 315.539 93.0811 314.954L87.6172 283.146C87.422 282.561 88.0074 281.975 88.5929 281.78L89.7637 281.585C90.3491 281.39 90.9345 281.975 91.1297 282.561L96.5935 314.368C96.7887 315.149 96.3984 315.734 95.6178 315.734Z" fill="#4C4199"/>
<path d="M102.448 314.564L101.277 314.759C100.691 314.954 100.106 314.369 99.9109 313.783L94.4471 281.976C94.2519 281.39 94.8373 280.805 95.4228 280.61L96.5936 280.414C97.179 280.219 97.7644 280.805 97.9596 281.39L103.423 313.198C103.423 313.783 103.033 314.369 102.448 314.564Z" fill="#4C4199"/>
<path d="M109.083 313.198L107.912 313.393C107.326 313.588 106.741 313.003 106.546 312.417L101.082 280.805C100.887 280.219 101.472 279.634 102.058 279.439L103.228 279.244C103.814 279.048 104.399 279.634 104.594 280.219L110.058 312.027C110.058 312.612 109.668 313.198 109.083 313.198Z" fill="#4C4199"/>
<path d="M115.717 312.027L114.546 312.222C113.961 312.417 113.375 311.832 113.18 311.246L107.716 279.439C107.521 278.853 108.107 278.268 108.692 278.073L109.863 277.877C110.448 277.682 111.034 278.268 111.229 278.853L116.693 310.661C116.693 311.246 116.303 311.832 115.717 312.027Z" fill="#4C4199"/>
<path d="M122.352 310.661L121.181 310.856C120.596 311.051 120.01 310.466 119.815 309.88L114.351 278.073C114.156 277.487 114.742 276.902 115.327 276.707L116.498 276.512C117.083 276.317 117.669 276.902 117.864 277.487L123.328 309.295C123.523 310.076 122.937 310.661 122.352 310.661Z" fill="#4C4199"/>
<path d="M128.987 309.49L127.816 309.685C127.23 309.88 126.645 309.295 126.45 308.709L120.986 276.902C120.791 276.316 121.376 275.731 121.962 275.536L123.132 275.341C123.718 275.146 124.303 275.731 124.498 276.316L129.962 308.124C130.157 308.709 129.572 309.295 128.987 309.49Z" fill="#4C4199"/>
<path d="M89.7637 307.539C82.7387 313.588 80.0068 323.735 81.3727 334.663C81.763 337.59 84.6901 345.396 85.0804 348.323C86.056 354.762 88.2026 364.519 88.0074 371.934C97.5692 378.764 116.888 378.179 125.669 373.105C126.645 364.129 126.45 356.909 125.864 344.615C124.889 325.882 116.498 308.319 116.303 306.758" fill="#594A5F"/>
<path d="M115.912 289.586C115.522 292.903 115.912 298.172 116.303 303.831C116.303 304.807 116.888 306.563 116.693 307.539C116.693 308.124 116.303 308.514 115.912 309.1C114.937 310.075 112.985 310.661 110.839 311.051C103.814 312.417 92.6908 311.441 89.5685 312.027C86.6415 312.612 83.5192 311.637 83.5192 309.88C83.5192 308.71 84.6901 307.929 84.6901 305.392C84.8852 299.928 84.6901 287.635 83.7144 282.171C81.5679 270.657 80.9824 263.828 82.5436 250.948L104.009 244.899C105.57 245.094 104.984 250.168 106.546 250.558C107.716 250.753 114.546 257.193 116.498 264.803C117.669 266.755 118.449 268.316 119.034 269.682C120.01 272.219 119.815 274.17 119.034 276.512C117.473 281.195 116.303 284.512 115.912 289.586Z" fill="#00BFFF"/>
<path d="M115.912 289.586C115.522 292.903 115.912 298.172 116.303 303.831C116.303 304.807 116.888 306.563 116.693 307.539C116.693 308.124 116.303 308.514 115.912 309.1C116.498 307.734 114.937 300.514 114.351 296.611C113.766 292.708 113.766 284.903 115.327 280.024C116.693 275.146 117.278 272.804 117.278 272.804C117.278 272.804 118.449 271.243 119.23 269.877C120.205 272.414 120.01 274.365 119.23 276.707C117.473 281.195 116.303 284.512 115.912 289.586Z" fill="#00ABEB"/>
<path d="M113.571 255.632C113.571 255.632 116.888 254.851 120.01 256.803C124.108 259.339 132.889 260.705 132.889 260.705C132.889 260.705 133.475 270.657 132.499 274.365C132.499 274.365 129.572 273.975 121.181 274.755C112.4 275.731 100.496 281.585 100.496 281.585" fill="#00BFFF"/>
<path d="M113.571 222.263C111.424 218.165 108.107 212.506 100.106 213.287C92.1054 214.067 85.2755 219.141 85.2755 225.19C85.2755 231.239 89.3734 238.46 90.9346 242.558C92.4957 246.655 91.9102 252.9 91.9102 252.9L109.668 252.314C109.668 252.314 109.278 246.851 110.253 244.899C110.839 243.728 113.18 241.582 115.912 239.435C117.083 238.46 118.059 236.508 117.278 233.191C116.107 228.508 115.717 226.361 115.132 224.995C114.937 223.824 114.156 223.044 113.571 222.263Z" fill="#FFE1BD"/>
<path d="M113.375 254.461C112.205 253.095 110.644 252.509 109.668 251.144C108.692 249.778 108.107 247.826 108.497 246.265C108.692 245.289 109.082 244.509 109.473 243.533C111.424 239.63 111.619 237.094 108.692 233.971C107.716 232.996 106.936 231.825 106.35 230.654C105.96 229.483 105.57 228.312 106.741 227.532C107.521 226.946 108.107 226.946 108.692 227.532C109.082 227.922 110.448 231.63 110.644 229.093C110.839 226.556 111.814 225.971 109.668 221.678C109.473 221.092 108.302 219.141 108.497 218.75C111.229 219.336 112.205 219.921 113.375 221.678C114.546 220.312 111.034 210.164 99.9109 210.555C97.1789 210.555 94.2519 210.75 91.7151 212.116C89.1783 213.287 86.4463 215.628 86.6415 217.775C82.7387 218.555 82.1533 222.458 81.9581 224.019C81.5678 226.166 81.3727 228.312 81.763 230.459C82.1533 233.581 83.3241 236.703 83.9095 239.825C84.4949 242.362 84.4949 245.289 83.5192 247.631C82.5435 249.973 80.2019 251.339 79.031 253.485C77.4699 256.412 77.6651 259.925 79.2262 262.852C80.7873 265.779 82.7387 267.73 82.1533 271.243C81.9581 272.414 80.9824 277.682 85.8609 282.171C87.8123 283.927 91.7151 284.903 94.2519 284.512C96.7887 284.122 98.9352 283.537 101.277 282.366C105.375 280.219 109.082 278.658 111.814 272.804C113.375 269.487 111.034 268.901 112.4 265.584C113.18 263.632 114.741 262.071 114.937 259.925C115.132 257.973 114.546 256.022 113.375 254.461C113.375 254.656 113.375 254.461 113.375 254.461Z" fill="#00215B"/>
<path opacity="0.3" d="M495.848 410.572C495.262 409.791 494.677 408.816 493.896 408.035C493.896 408.035 493.896 408.035 493.896 407.84C493.506 407.45 493.116 406.864 492.725 406.474C485.7 398.083 485.31 390.863 485.31 390.668C485.115 381.106 485.115 367.836 484.92 358.275C484.92 355.543 484.92 353.201 484.92 351.445C484.92 350.664 484.92 349.884 484.92 349.298C484.92 349.298 485.115 348.518 485.31 347.542C485.505 346.566 485.7 345.396 485.895 344.225C486.091 343.249 486.286 342.078 486.481 340.712C486.871 337.785 487.066 334.077 486.481 330.37C487.847 330.565 489.018 330.76 489.993 331.15C489.993 331.15 488.627 326.077 487.066 320.028C486.481 317.881 486.091 315.734 485.505 313.393C484.529 309.1 483.749 305.197 483.554 302.66C483.163 297.587 484.725 290.171 485.7 281.975C485.895 280.024 486.091 277.878 486.286 275.926C486.481 273.975 486.481 272.023 486.481 270.072C486.481 269.487 486.481 268.901 486.481 268.316C486.286 263.047 485.115 258.559 483.359 254.656C483.163 254.071 482.773 253.485 482.578 252.9C480.822 249.192 478.48 246.07 476.139 242.948C475.358 240.801 474.187 240.021 474.187 240.021C473.407 237.484 473.602 233.971 473.602 233.971C476.529 232.8 479.651 220.897 478.285 212.506C478.285 211.921 478.09 211.53 478.09 210.945C476.334 203.53 471.65 200.603 468.138 201.188C460.527 191.821 449.014 202.164 446.282 203.335C442.965 204.896 439.648 206.066 436.916 206.262C436.135 206.457 435.355 206.457 434.769 206.457C434.184 206.457 433.793 206.457 433.403 206.262C433.989 214.067 436.916 217.775 440.623 219.141C441.404 219.531 442.184 219.726 443.16 219.726C443.745 219.726 444.526 219.921 445.111 219.726C444.916 220.312 444.916 221.873 446.282 224.019C446.477 224.214 447.258 224.605 447.258 224.995C447.648 226.166 447.258 227.337 447.258 228.312C447.258 228.507 447.258 228.507 447.258 228.507C447.063 229.288 446.868 230.459 446.673 231.435C446.673 232.02 446.477 232.605 446.477 233.191C446.477 233.581 446.477 233.971 446.673 234.166C446.868 234.752 447.648 234.947 448.624 234.947C449.014 234.947 449.209 234.947 449.6 234.947C449.795 235.142 449.795 235.532 449.99 235.728C451.161 237.874 452.332 240.021 453.893 241.582C454.283 241.777 454.868 241.972 455.259 241.972C457.405 242.167 460.527 241.582 463.65 240.216C464.04 241.191 464.235 241.972 464.235 242.557C463.454 242.753 463.064 242.948 463.064 242.948C462.869 244.314 463.064 247.241 463.064 247.241C462.479 247.631 462.089 248.216 461.698 248.607C461.308 248.997 461.113 249.192 460.918 249.582C460.723 249.778 460.723 249.973 460.527 250.168C457.21 255.241 454.673 261.291 452.527 267.73C451.746 270.267 450.966 272.804 450.38 275.341C450.38 275.341 450.38 275.341 450.38 275.536C449.99 275.536 449.6 275.731 449.209 275.731C443.745 276.707 434.184 278.658 424.036 281.39L421.109 282.171V282.561C419.548 282.561 417.011 282.366 415.646 282.561C414.67 282.561 412.718 284.512 410.962 285.878C409.401 287.634 408.23 289 408.621 289.391H408.816C409.206 289.391 409.596 289 410.182 288.61C410.377 288.61 410.572 288.61 410.962 288.61C411.743 288.415 412.718 287.049 413.304 286.659C413.499 286.464 414.084 286.073 414.67 285.683C415.255 285.488 415.841 285.488 416.426 285.683C416.621 286.073 416.426 286.464 416.036 286.659C415.646 287.049 414.475 287.049 414.28 287.439C414.084 287.83 414.28 288.415 416.036 288.025C417.597 287.634 418.963 287.049 419.548 286.659C420.134 286.269 420.719 286.073 421.89 285.878L422.085 286.464C422.085 286.464 434.574 286.659 446.477 286.269C447.063 286.269 447.648 286.269 448.429 286.269C448.234 287.244 448.039 288.025 448.039 289C447.843 289 447.648 289 447.258 289L442.965 289.196C442.77 289.196 442.77 289.196 442.575 289.196H402.962L400.034 281L397.888 274.95L395.156 267.34L390.082 253.29C389.887 252.705 389.107 252.314 388.521 252.51L387.936 252.705C387.35 252.9 386.96 253.68 387.155 254.266L391.839 267.145L394.571 274.755L396.717 280.805L399.644 289C398.668 288.22 398.083 288.22 398.278 289C398.473 290.171 399.644 291.732 399.644 291.732C400.62 292.903 400.815 293.293 402.766 294.269C403.937 294.855 406.474 295.44 407.84 295.635C408.425 295.83 409.206 295.83 409.791 295.635C410.572 295.44 411.938 295.245 413.499 295.245V296.611C413.499 296.611 426.378 297.977 435.355 299.343C439.062 299.928 442.77 300.123 446.087 300.318C445.892 301.294 445.892 302.27 445.697 303.05C445.307 306.368 445.111 309.49 444.916 312.417C444.721 314.759 444.526 316.905 444.526 319.052C444.136 327.638 443.941 333.492 443.745 334.273C443.745 334.273 444.916 335.443 448.819 335.639C448.819 336.419 449.014 337.2 449.014 337.98C448.819 339.151 448.624 344.03 448.039 350.274C447.843 352.421 447.648 354.762 447.648 357.104C446.868 366.861 446.087 378.179 445.697 384.228C445.502 385.009 445.307 385.984 445.307 387.155C445.307 387.741 445.307 394.766 445.307 395.546C445.502 398.668 445.697 403.742 446.087 409.986H462.284C462.284 409.401 462.088 408.816 461.893 408.23C461.893 408.035 461.893 407.84 461.698 407.645C461.698 407.255 461.698 406.864 461.503 406.279C460.527 398.668 460.527 400.815 462.674 391.448C463.65 388.716 465.016 385.399 466.382 381.886C468.528 389.887 470.479 396.522 471.26 400.425C471.26 400.425 471.26 400.425 471.26 400.62C471.26 400.815 471.26 401.01 471.455 401.205C471.455 401.4 471.65 401.791 471.845 402.181C471.845 402.181 472.041 402.376 472.041 402.571C472.236 403.157 472.626 403.742 473.016 404.327C473.016 404.327 473.016 404.327 473.016 404.523C473.992 406.084 475.163 407.84 476.529 410.182H496.433C496.238 411.157 496.043 410.767 495.848 410.572Z" fill="#5FB0E7"/>
<path d="M442.77 461.893C442.77 461.893 442.379 470.675 442.965 472.626C443.355 474.187 448.234 474.382 448.819 473.602C449.404 472.821 450.185 462.479 450.185 462.479" fill="#FFE1BD"/>
<path d="M450.185 474.968C450.185 476.724 449.795 479.456 449.795 479.456H443.745L443.355 478.48C443.355 478.48 441.404 479.456 439.843 479.456H434.769C431.061 479.456 428.915 479.066 428.915 478.285C428.525 475.553 433.013 475.748 433.988 475.748C437.306 475.748 440.818 474.187 441.599 472.626C442.184 471.455 441.989 471.065 442.575 471.26C442.575 471.26 443.16 471.455 443.55 472.236C444.136 473.407 445.307 474.187 446.672 473.992C447.453 473.797 448.234 473.602 448.624 473.016C449.014 472.821 450.185 473.211 450.185 474.968Z" fill="#3A3A3A"/>
<path d="M504.824 462.869C504.824 462.869 506.385 467.162 507.166 468.723C507.946 470.089 512.63 468.333 513.02 467.357C513.215 466.382 509.312 458.771 509.312 458.771" fill="#FFE1BD"/>
<path d="M514.581 468.333C515.166 469.894 516.142 473.016 516.142 473.016L511.654 475.748L510.678 475.163C510.678 475.163 509.703 476.724 508.337 477.7C507.361 478.285 505.019 479.261 503.848 479.456C499.75 480.432 496.628 479.846 496.238 479.456C494.872 477.114 500.336 475.748 501.312 475.358C504.434 474.187 505.8 471.26 505.8 469.309C505.8 467.943 505.605 467.748 506.19 467.748C506.19 467.748 507.556 467.552 508.337 469.504C508.337 469.504 511.654 468.918 512.434 466.967C512.825 466.772 513.996 466.772 514.581 468.333Z" fill="#3A3A3A"/>
<path d="M479.651 349.689C479.651 349.689 480.041 346.762 480.431 344.615C481.602 338.371 483.554 325.882 473.406 315.93C473.406 315.93 461.308 321.394 451.746 321.979C444.136 322.564 442.379 321.979 442.379 321.979C442.379 321.979 441.794 332.321 444.916 357.885L479.651 349.689Z" fill="#594A5F"/>
<path d="M511.849 460.918C507.166 463.649 504.043 464.625 504.043 464.625L503.263 463.454C502.677 462.479 502.287 461.503 501.702 460.527C501.702 460.527 501.702 460.527 501.702 460.332C499.945 457.405 498.189 454.088 496.043 450.965C485.31 433.403 471.65 413.694 466.772 405.888C466.382 405.303 465.991 404.522 465.796 404.132C465.796 403.937 465.796 403.937 465.601 403.742C465.406 403.352 465.406 402.961 465.211 402.766C465.211 402.571 465.211 402.376 465.016 402.181C464.82 400.62 465.211 399.449 465.991 398.668C466.186 398.473 466.382 398.278 466.577 398.083C469.113 396.132 474.382 396.522 478.87 399.644C479.066 399.839 479.261 400.034 479.456 400.229C479.651 400.229 479.651 400.425 479.846 400.425C483.359 403.157 487.261 406.474 490.188 410.962C500.336 425.597 506.385 448.234 511.849 460.918Z" fill="#594A5F"/>
<path d="M480.237 401.595C480.432 409.791 477.309 411.743 473.992 410.962C473.407 410.767 472.821 410.572 472.236 410.377C470.089 409.206 467.748 407.254 466.577 405.303C466.382 404.913 465.991 404.327 465.796 403.937C465.796 403.742 465.796 403.742 465.601 403.547C465.406 403.156 465.406 402.766 465.211 402.571C465.211 402.376 465.211 402.181 465.016 401.986C464.235 397.888 462.284 390.863 459.942 382.667C458.576 377.984 457.21 373.105 455.649 368.031C451.161 352.811 447.063 337.98 447.258 333.687C447.648 318.076 465.796 330.565 474.577 336.614C478.285 339.151 479.261 343.639 479.261 347.737C479.261 351.64 479.651 389.692 479.846 400.425C479.846 400.62 479.846 401.01 479.846 401.205C480.236 401.205 480.237 401.4 480.237 401.595Z" fill="#594A5F"/>
<path d="M480.041 390.863C480.041 390.863 480.432 399.059 488.627 408.035C488.627 408.035 476.724 404.327 475.943 403.742C475.358 402.961 472.236 395.351 472.236 394.57C472.431 393.79 480.041 390.863 480.041 390.863Z" fill="#594A5F"/>
<path d="M501.702 460.527C499.945 457.6 498.189 454.283 496.043 451.161C485.31 433.598 471.65 413.889 466.772 406.084C466.382 405.498 465.991 404.718 465.796 404.328C465.796 404.132 465.796 404.132 465.601 403.937C465.406 403.547 465.406 403.157 465.211 402.962C465.211 402.766 465.211 402.571 465.016 402.376C464.235 398.278 462.284 391.253 459.942 383.057L473.602 346.371H478.675C478.675 346.371 473.016 363.348 470.675 370.959C468.333 378.569 467.748 390.473 467.552 394.961C467.162 404.523 478.87 420.914 482.383 426.768C486.286 432.623 500.531 457.991 501.702 460.527Z" fill="#4C4051"/>
<path d="M450.38 468.918C450.185 468.918 449.795 468.918 449.6 468.918C444.526 468.918 441.794 468.333 441.794 468.333V466.967C442.185 444.721 439.648 408.621 439.257 397.107C439.257 396.327 439.257 389.497 439.257 388.716C439.062 378.764 449.014 387.546 452.527 395.351C453.307 397.107 454.088 399.059 454.478 401.205C455.064 403.742 455.064 406.669 455.844 409.596C459.552 426.964 451.941 454.673 450.38 468.918Z" fill="#594A5F"/>
<path d="M473.797 349.689C473.797 349.884 457.405 390.277 454.283 399.059C453.893 400.229 452.332 401.205 450.38 401.791C446.087 402.961 439.453 401.01 439.258 392.424C439.258 391.448 439.258 390.473 439.453 389.302C440.233 382.277 442.77 343.249 443.16 339.541C443.551 335.834 444.331 330.37 446.283 329.589C456.235 326.272 476.724 335.639 473.797 349.689Z" fill="#594A5F"/>
<path d="M456.82 392.034C454.673 402.376 454.673 399.839 455.454 407.645C456.43 415.255 453.112 401.01 453.112 401.01L455.259 395.741L456.82 392.034Z" fill="#594A5F"/>
<path d="M411.353 285.488C411.353 285.488 409.011 285.098 408.816 285.293C408.621 285.488 408.035 285.878 408.035 285.878V286.269H407.84C407.645 286.269 406.279 287.244 406.084 287.439C405.889 287.635 404.132 289.781 404.132 289.781C404.132 289.781 404.523 289.976 405.108 289.781C405.889 289.586 406.864 288.22 407.45 287.83C407.645 287.635 408.23 287.244 408.816 286.854C409.596 286.659 410.572 286.659 411.157 287.244C412.133 288.22 411.353 285.488 411.353 285.488Z" fill="#F4D4B3"/>
<path d="M421.5 282.171C421.5 282.171 417.597 283.537 416.231 283.732C415.06 283.927 411.548 283.537 409.792 283.732C408.816 283.732 406.865 285.683 405.108 287.049C403.547 288.805 402.376 290.171 402.767 290.562C403.547 291.147 405.694 288.415 407.45 287.244C408.816 286.269 409.792 286.269 410.377 286.854C410.962 287.244 410.767 287.83 410.182 288.22C409.596 288.61 408.621 288.61 408.426 289.001C408.426 289.391 408.426 289.976 409.987 289.586C411.548 289.196 412.914 288.61 413.499 288.22C414.085 287.83 414.67 287.635 415.841 287.439C417.012 287.244 423.256 286.269 423.256 286.269" fill="#FFE1BD"/>
<path d="M447.648 275.926L446.477 286.464L446.282 287.439C445.892 287.439 445.697 287.439 445.307 287.439C443.746 287.439 442.184 287.439 440.428 287.635C428.72 287.83 416.036 287.83 416.036 287.83L415.255 283.146C426.378 279.829 437.306 277.683 443.355 276.512C445.892 276.317 447.648 275.926 447.648 275.926Z" fill="#00BFFF"/>
<path d="M396.132 292.123L395.546 292.318C394.961 292.513 394.18 292.123 393.985 291.537L381.106 255.632C380.911 255.047 381.301 254.266 381.887 254.071L382.472 253.876C383.057 253.681 383.838 254.071 384.033 254.656L396.912 290.562C397.107 291.342 396.717 291.928 396.132 292.123Z" fill="#1C44B5"/>
<path d="M436.331 293.684H395.547C394.766 293.684 394.181 293.098 394.181 292.318V292.123C394.181 291.342 394.766 290.757 395.547 290.757H436.331C437.111 290.757 437.697 291.342 437.697 292.123V292.318C437.892 293.098 437.111 293.684 436.331 293.684Z" fill="#1C44B5"/>
<path d="M447.648 275.926L446.478 286.464C446.087 286.854 445.697 287.244 445.307 287.635C443.746 287.635 442.184 287.635 440.428 287.83C441.209 283.537 442.965 278.463 443.355 276.707C445.892 276.317 447.648 275.926 447.648 275.926Z" fill="#00ABEB"/>
<path d="M484.529 331.346C479.261 329.199 471.26 331.541 456.234 335.248C441.209 338.956 437.891 335.639 437.891 335.639C438.477 334.468 438.282 321.003 440.038 304.417C440.428 300.904 440.818 297.196 441.404 293.294C443.745 277.878 447.648 261.681 455.259 250.363C458.966 244.704 469.699 242.167 469.699 242.167C475.553 249.192 481.212 257.778 481.212 270.462C481.212 283.146 477.895 295.635 478.285 303.051C478.675 310.466 484.529 331.346 484.529 331.346Z" fill="#00BFFF"/>
<path d="M452.917 304.416C449.795 304.807 445.307 304.807 440.038 304.612C440.429 301.099 440.819 297.391 441.404 293.489H441.99C444.722 293.489 447.258 291.537 447.844 288.805C448.82 285.098 450.576 279.048 453.113 271.048C457.601 256.998 462.284 256.412 462.284 256.412C462.284 256.412 469.114 252.9 469.504 260.315C469.699 267.73 461.699 303.246 452.917 304.416Z" fill="#00ABEB"/>
<path d="M473.016 351.64C473.016 351.64 478.09 349.884 481.017 340.907L477.895 335.248L471.065 338.371C471.065 338.371 469.894 344.42 470.089 344.81C470.48 345.396 473.016 351.64 473.016 351.64Z" fill="#594A5F"/>
<path d="M410.377 295.83L409.987 292.123C409.987 292.123 406.669 292.513 405.108 292.318C403.547 292.123 401.596 291.342 399.254 290.757C396.912 290.366 396.327 291.342 396.717 291.732C397.107 292.318 399.839 292.708 399.839 292.708C399.839 292.708 400.23 293.098 398.864 293.098H397.303C396.522 292.903 395.546 292.318 395.546 292.318C395.351 292.123 394.961 291.732 394.766 291.537C393.205 289.976 392.229 289.391 392.424 290.561C392.619 291.732 393.79 293.293 393.79 293.293C394.766 294.464 394.961 294.855 396.912 295.83C397.888 296.416 400.62 297.001 401.986 297.196C402.571 297.391 403.352 297.391 403.937 297.196C404.913 297.001 406.279 296.611 408.23 296.611C409.596 296.611 410.377 296.611 410.377 296.611C413.304 297.001 411.743 296.416 410.377 295.83Z" fill="#FFE1BD"/>
<path d="M461.308 253.485C461.308 253.485 456.625 254.071 452.137 268.121C449.6 276.121 447.843 281.975 446.868 285.878C446.087 288.61 443.746 290.562 441.014 290.562L407.84 291.342L407.645 297.977C407.645 297.977 420.524 299.343 429.5 300.709C438.477 302.075 447.258 302.075 451.941 301.489C460.723 300.318 469.504 261.486 469.114 257.583C468.528 251.339 461.308 253.485 461.308 253.485Z" fill="#00BFFF"/>
<path d="M439.453 220.117C439.453 220.117 438.672 221.873 440.428 224.8C440.623 224.995 441.404 225.385 441.404 225.776C441.794 226.946 441.404 228.312 441.404 229.288C442.77 234.362 444.916 239.045 448.039 242.362C451.161 243.728 457.405 241.582 462.869 238.85C464.04 238.655 470.284 235.728 469.309 226.751C468.333 217.97 461.503 209.774 460.918 209.579C460.527 209.384 446.673 211.921 446.282 212.116C445.892 212.311 439.453 220.117 439.453 220.117Z" fill="#FFD1AB"/>
<path d="M459.357 223.434C459.357 223.434 455.649 222.653 455.649 217.97C455.454 213.287 454.868 213.092 451.941 215.823C449.014 218.555 429.5 228.703 427.939 207.042C430.086 207.823 435.55 206.652 440.623 204.115C443.355 202.749 454.868 192.602 462.479 201.969C466.186 201.383 471.455 204.701 472.821 213.092C474.187 221.483 471.065 233.386 468.138 234.557C466.186 235.337 465.211 233.386 464.625 229.288C464.235 227.142 469.699 223.239 464.04 217.97C461.503 216.214 456.43 219.141 459.357 223.434Z" fill="#2C1E56"/>
<path d="M467.943 234.362C467.943 234.362 467.357 240.411 469.699 242.362C466.187 246.656 458.381 247.241 458.381 247.241C458.381 247.241 460.137 244.314 456.234 236.899C452.137 229.483 467.943 234.362 467.943 234.362Z" fill="#FFD1AB"/>
<path d="M457.405 248.022C457.405 248.022 457.21 244.899 457.405 243.728C457.405 243.728 465.016 241.192 468.528 240.411C468.528 240.411 469.699 241.192 470.48 243.338C470.48 243.338 462.869 247.241 457.405 248.022Z" fill="#00ABEB"/>
<path d="M441.794 227.922C441.794 227.922 440.623 233.581 441.014 234.947C441.599 236.313 444.916 235.337 444.916 235.337L441.794 227.922Z" fill="#FFD1AB"/>
<path d="M564.536 191.041H398.278C395.351 191.041 392.814 188.504 392.814 185.577V111.619C392.814 108.692 395.351 106.156 398.278 106.156H564.536C567.463 106.156 570 108.692 570 111.619V185.577C570 188.699 567.658 191.041 564.536 191.041Z" fill="#5FB0E7"/>
<path d="M566.097 107.717V181.674C566.097 184.601 563.756 187.138 560.633 187.138H394.375C391.253 187.138 388.911 184.796 388.911 181.674V107.717C388.911 104.789 391.253 102.253 394.375 102.253H560.633C563.756 102.253 566.097 104.789 566.097 107.717Z" fill="white"/>
<path d="M566.097 107.717V118.449H388.911V107.717C388.911 104.789 391.253 102.253 394.375 102.253H560.633C563.756 102.253 566.097 104.789 566.097 107.717Z" fill="#AEC1FF"/>
<path opacity="0.5" d="M559.267 127.23V178.357H395.741V161.965C402.376 152.989 411.352 146.939 432.037 159.038C451.941 170.746 451.746 133.085 474.382 135.036C497.018 136.987 503.067 170.746 520.63 144.988C538.192 119.23 559.267 127.23 559.267 127.23Z" fill="#AEC1FF"/>
<path opacity="0.5" d="M427.744 127.035H395.546V129.182H427.744V127.035Z" fill="#AEC1FF"/>
<path opacity="0.5" d="M449.99 130.938H395.546V133.085H449.99V130.938Z" fill="#AEC1FF"/>
<path opacity="0.5" d="M436.525 134.841H395.546V136.988H436.525V134.841Z" fill="#AEC1FF"/>
<path opacity="0.5" d="M444.916 138.744H395.546V140.89H444.916V138.744Z" fill="#AEC1FF"/>
<path opacity="0.5" d="M427.744 142.646H395.546V144.793H427.744V142.646Z" fill="#AEC1FF"/>
<path d="M155.526 79.8118C148.11 99.9111 128.792 114.156 106.155 114.156C83.5194 114.156 64.2006 99.9111 56.7854 79.8118H155.526Z" fill="#5FB0E7"/>
<path d="M57.566 27.5144C51.7118 36.1005 48.1993 46.4429 48.1993 57.5658C48.1993 63.6151 49.175 69.2741 51.1264 74.738L101.082 57.5658L57.566 27.5144Z" fill="#11B2F2"/>
<path d="M108.302 0V52.6874L147.135 88.3978C155.721 79.0312 160.989 66.5423 160.989 52.6874C161.185 23.6118 137.573 0 108.302 0Z" fill="#18BDF7"/>
<path d="M100.887 4.87842C82.9339 4.87842 67.1277 13.8548 57.5659 27.5145L100.887 57.5659V4.87842Z" fill="#00BFFF"/>
<path d="M91.1298 109.473C94.252 110.058 97.5693 110.449 100.887 110.449C116.303 110.449 129.962 104.009 139.719 93.4714L100.887 57.5659L91.1298 109.473Z" fill="#B8ECFF"/>
<path d="M50.9312 74.7381C56.9805 92.4957 72.2014 105.96 90.9347 109.473L100.692 57.761L50.9312 74.7381Z" fill="#15A7CE"/>
<path d="M74.9332 194.944H4.68327C2.73188 194.944 1.17078 196.505 1.17078 198.456V220.702C1.17078 222.653 2.73188 224.214 4.68327 224.214H63.0297C63.2249 226.556 64.9811 231.239 73.3721 231.239C73.3721 231.239 69.8596 230.654 69.079 224.214H74.9332C76.8846 224.214 78.4457 222.653 78.4457 220.702V198.456C78.4457 196.505 76.8846 194.944 74.9332 194.944Z" fill="#5FB0E7"/>
<path d="M73.7624 193.187H3.5125C1.56111 193.187 0 194.748 0 196.7V218.946C0 220.897 1.56111 222.458 3.5125 222.458H61.859C62.0541 224.8 63.8104 229.483 72.2013 229.483C72.2013 229.483 68.6888 228.898 67.9083 222.458H73.7624C75.7138 222.458 77.2749 220.897 77.2749 218.946V196.7C77.2749 194.748 75.7138 193.187 73.7624 193.187Z" fill="#EBFAFF"/>
<path d="M73.177 198.846H3.31737C2.73196 198.846 2.14655 198.456 2.14655 197.676V196.895C2.14655 196.31 2.53682 195.724 3.31737 195.724H73.177C73.7624 195.724 74.3479 196.114 74.3479 196.895V197.676C74.3479 198.261 73.7624 198.846 73.177 198.846Z" fill="#B2EBF9"/>
<path d="M73.177 203.92H3.31737C2.73196 203.92 2.14655 203.53 2.14655 202.749V201.969C2.14655 201.383 2.53682 200.798 3.31737 200.798H73.177C73.7624 200.798 74.3479 201.188 74.3479 201.969V202.749C74.3479 203.335 73.7624 203.92 73.177 203.92Z" fill="#B2EBF9"/>
<path d="M73.177 208.994H3.31737C2.73196 208.994 2.14655 208.603 2.14655 207.823V207.042C2.14655 206.457 2.53682 205.871 3.31737 205.871H73.177C73.7624 205.871 74.3479 206.262 74.3479 207.042V207.823C74.3479 208.408 73.7624 208.994 73.177 208.994Z" fill="#B2EBF9"/>
<path d="M73.177 214.067H3.31737C2.73196 214.067 2.14655 213.677 2.14655 212.896V212.116C2.14655 211.53 2.53682 210.945 3.31737 210.945H73.177C73.7624 210.945 74.3479 211.335 74.3479 212.116V212.896C74.3479 213.482 73.7624 214.067 73.177 214.067Z" fill="#B2EBF9"/>
<path d="M73.177 219.141H3.31737C2.73196 219.141 2.14655 218.75 2.14655 217.97V217.189C2.14655 216.604 2.53682 216.019 3.31737 216.019H73.177C73.7624 216.019 74.3479 216.409 74.3479 217.189V217.97C74.3479 218.555 73.7624 219.141 73.177 219.141Z" fill="#B2EBF9"/>
<path d="M483.554 205.871H553.804C555.755 205.871 557.317 207.432 557.317 209.384V231.63C557.317 233.581 555.755 235.142 553.804 235.142H495.458C495.262 237.484 493.506 242.167 485.115 242.167C485.115 242.167 488.628 241.582 489.408 235.142H483.554C481.603 235.142 480.042 233.581 480.042 231.63V209.384C480.237 207.432 481.798 205.871 483.554 205.871Z" fill="#5FB0E7"/>
<path d="M484.92 204.115H555.17C557.121 204.115 558.682 205.676 558.682 207.627V229.873C558.682 231.825 557.121 233.386 555.17 233.386H496.823C496.628 235.727 494.872 240.411 486.481 240.411C486.481 240.411 489.994 239.825 490.774 233.386H484.92C482.969 233.386 481.407 231.825 481.407 229.873V207.627C481.407 205.676 482.969 204.115 484.92 204.115Z" fill="#EBFAFF"/>
<path d="M535.851 230.069H554.78C555.755 230.069 556.341 229.288 556.341 228.507V208.798C556.341 207.823 555.56 207.237 554.78 207.237H535.851C534.875 207.237 534.29 208.018 534.29 208.798V228.507C534.29 229.483 534.875 230.069 535.851 230.069Z" fill="#80D4DD"/>
<path d="M485.31 210.164H530.387C530.777 210.164 531.168 209.774 531.168 209.384V208.213C531.168 207.823 530.777 207.432 530.387 207.432H485.31C484.92 207.432 484.529 207.823 484.529 208.213V209.384C484.529 209.774 484.92 210.164 485.31 210.164Z" fill="#80D4DD"/>
<path d="M495.457 215.043H530.387C530.778 215.043 531.168 214.653 531.168 214.262V212.896C531.168 212.506 530.778 212.116 530.387 212.116H495.457C495.067 212.116 494.677 212.506 494.677 212.896V214.262C494.677 214.848 495.067 215.043 495.457 215.043Z" fill="#80D4DD"/>
<path d="M485.31 220.116H530.387C530.777 220.116 531.168 219.726 531.168 219.336V218.165C531.168 217.775 530.777 217.385 530.387 217.385H485.31C484.92 217.385 484.529 217.775 484.529 218.165V219.336C484.529 219.726 484.92 220.116 485.31 220.116Z" fill="#80D4DD"/>
<path d="M489.018 225.19H530.387C530.777 225.19 531.168 224.8 531.168 224.409V223.239C531.168 222.848 530.777 222.458 530.387 222.458H489.018C488.628 222.458 488.237 222.848 488.237 223.239V224.409C488.237 224.8 488.628 225.19 489.018 225.19Z" fill="#80D4DD"/>
<path d="M513.8 230.068H530.582C530.778 230.068 531.168 229.873 531.168 229.483V227.727C531.168 227.532 530.973 227.141 530.582 227.141H513.8C513.605 227.141 513.215 227.337 513.215 227.727V229.483C513.41 229.873 513.605 230.068 513.8 230.068Z" fill="#80D4DD"/>
<path d="M352.811 79.8118H281.78C281.78 79.8118 281.78 78.8361 282.561 77.275C284.317 72.9819 290.952 64.3958 314.564 60.493L326.272 58.1514C326.467 58.3465 353.591 58.3465 352.811 79.8118Z" fill="#00BFFF"/>
<path d="M329.394 79.8118H281.975C281.975 79.8118 281.975 78.8361 282.756 77.275C284.512 76.6896 286.659 76.8847 288.415 77.275C290.171 77.6653 291.342 78.0555 291.342 78.0555C291.342 78.0555 316.125 78.0555 322.174 78.0555C328.028 78.0555 329.394 79.8118 329.394 79.8118Z" fill="#00ABEB"/>
<path d="M312.027 59.3222C312.807 60.493 313.393 62.0541 313.588 63.4201C313.978 65.3715 315.734 66.5423 317.686 66.5423C328.028 65.9569 327.443 59.5173 327.443 59.5173C325.296 56.2 323.93 46.6382 323.93 46.6382" fill="#FFE1BD"/>
<path d="M287.634 29.4658C287.634 29.4658 287.244 42.5401 293.098 42.345C298.952 42.1498 293.098 28.0999 293.098 28.0999L287.634 29.4658Z" fill="#2C1E56"/>
<path d="M322.564 43.9062C322.759 45.8575 322.759 47.6138 322.759 48.7846C322.759 48.9798 322.759 49.1749 322.759 49.37C322.759 49.5652 322.759 49.7603 322.564 49.9555C321.198 55.6145 314.173 63.42 309.1 64.0054C308.514 64.0054 307.734 64.0054 307.148 64.0054C300.318 63.6152 296.221 57.9561 293.879 52.102C293.879 51.9068 293.684 51.7117 293.684 51.5166C291.537 45.8575 290.952 40.1985 290.757 38.2471C290.757 37.8569 290.366 32.5881 291.342 31.2221C292.513 29.4659 306.173 27.9048 306.368 27.9048C306.563 27.9048 319.832 28.8805 319.832 28.8805C319.832 28.8805 321.784 37.2714 322.564 43.9062Z" fill="#FFE1BD"/>
<path d="M324.711 43.711C324.906 45.6624 324.711 47.2235 324.516 48.5894C324.516 48.7846 324.516 48.9797 324.516 49.1749C323.54 54.8339 316.71 63.42 309.1 64.0054C308.514 64.0054 307.929 64.2005 307.343 64.2005C299.148 64.5908 296.221 58.3464 293.879 52.1019C293.879 51.9068 293.684 51.7117 293.684 51.5165C293.684 51.5165 296.611 56.1999 297.977 56.1999C299.343 56.395 297.587 54.4436 301.489 53.0776C304.026 52.1019 307.734 52.1019 309.49 52.4922C311.051 52.6874 313.978 53.4679 315.149 53.6631C315.344 53.6631 315.539 53.6631 315.734 53.6631C317.1 52.8825 320.418 47.6138 321.003 44.6867C321.003 43.3207 323.54 43.5158 324.711 43.711Z" fill="#2C1E56"/>
<path d="M285.098 25.5633C285.098 25.5633 285.488 35.5153 301.88 31.6126C306.368 30.4417 310.271 29.466 312.612 30.6369C315.93 41.1744 316.125 46.248 317.296 45.8577C318.857 45.2723 314.759 36.491 319.832 37.4667C323.735 38.2473 319.637 47.8091 319.637 47.8091C319.637 47.8091 324.321 48.3945 324.516 46.248C324.516 44.882 324.711 25.9535 321.589 21.4653C318.271 16.9771 314.368 17.1723 314.368 17.1723C314.368 17.1723 310.271 13.6598 300.514 16.5869C290.757 19.514 285.683 15.8063 285.683 16.1966C285.878 16.3917 284.317 19.3188 285.098 25.5633Z" fill="#2C1E56"/>
<path d="M353.006 79.8118C353.006 79.8118 352.225 96.984 345.2 107.717C345.2 107.717 345.2 107.717 345.005 107.912L344.81 108.107C342.664 111.229 330.955 128.596 323.54 135.426C315.344 143.037 305.782 151.623 305.782 151.623L305.392 151.233C304.221 152.403 303.05 153.574 302.66 154.16C302.075 155.33 301.294 159.623 300.123 160.014C299.928 160.014 299.733 160.014 299.538 160.209C299.148 160.599 298.367 160.989 297.782 160.989C296.416 161.185 294.464 160.794 293.879 160.599C293.489 160.989 293.098 161.575 292.123 161.965C290.366 162.746 288.805 163.917 287.439 164.502C286.073 164.892 285.878 164.502 286.073 163.721C286.268 162.746 289 161.38 289.976 160.599C290.952 159.819 292.513 157.867 293.098 156.501C293.684 155.135 293.684 154.55 293.098 154.55C292.513 154.55 290.757 155.721 289.391 155.916C288.025 156.306 287.439 155.916 288.025 155.135C288.61 154.355 290.561 152.013 292.903 151.428C295.245 150.842 295.83 150.842 297.391 149.671C298.172 149.086 299.148 147.72 299.928 146.549L299.343 146.159C299.343 146.159 314.173 125.279 325.491 109.278C325.686 108.887 325.882 108.692 326.272 108.302C332.516 95.618 333.297 85.4708 333.102 81.568C332.321 80.202 331.15 79.8118 331.15 79.8118H353.006Z" fill="#5FB0E7"/>
<path d="M299.538 144.598C299.538 144.598 297.196 148.696 295.635 149.867C294.074 151.037 293.489 151.037 291.147 151.623C289 152.208 287.049 154.55 286.268 155.331C285.683 156.111 286.268 156.501 287.634 156.111C289 155.916 290.757 154.745 291.342 154.745C291.927 154.745 291.927 155.526 291.342 156.697C290.757 158.062 289.196 160.014 288.22 160.794C287.244 161.575 284.707 162.941 284.317 163.917C284.122 164.697 284.317 165.283 285.683 164.697C287.049 164.307 288.61 163.136 290.366 162.16C291.342 161.77 291.732 161.185 292.123 160.794C292.708 160.99 294.659 161.38 296.025 161.185C296.806 160.99 297.391 160.794 297.782 160.404C297.977 160.404 298.172 160.404 298.367 160.209C299.538 159.624 300.318 155.526 300.904 154.355C301.489 153.184 306.368 148.891 306.368 148.891L299.538 144.598Z" fill="#FFE1BD"/>
<path d="M343.444 107.912C350.469 96.984 352.811 80.0069 352.811 80.0069L343.834 73.9576L339.151 76.1041C336.224 74.9333 331.345 72.9819 331.345 72.9819L329.199 80.0069C329.199 80.0069 330.37 80.3972 331.15 81.7632C331.15 85.6659 330.565 95.8132 324.32 108.497C324.125 108.887 323.735 109.083 323.54 109.473C312.417 125.474 297.391 146.354 297.391 146.354L303.831 152.013C303.831 152.013 313.393 143.427 321.588 135.817C329.199 128.987 340.712 111.619 342.859 108.497L343.054 108.302C343.444 107.912 343.444 107.912 343.444 107.912Z" fill="#00BFFF"/>
<path d="M293.879 84.1049H293.684C293.879 84.4952 294.074 84.6903 294.269 84.6903C294.464 84.8855 294.269 85.0806 294.269 85.0806C293.879 85.4709 293.684 85.4709 293.098 85.4709C292.903 85.4709 292.513 85.2758 292.318 85.0806C291.928 85.2758 291.732 85.2758 291.342 85.2758C290.952 85.2758 290.366 84.8855 289.781 84.1049C289.781 84.3001 289.781 84.4952 289.781 84.4952C289.391 84.8855 289.196 84.8855 288.61 84.8855C288.22 84.8855 287.634 84.4952 286.854 83.7147C286.659 83.5195 286.269 83.1292 285.878 82.739C285.488 82.5438 285.293 82.3487 284.903 82.1535C284.317 81.7633 283.732 81.7633 283.537 81.7633C280.219 81.7633 278.658 80.2021 274.56 80.2021H293.293C293.293 80.2021 293.293 80.2021 293.098 80.2021C292.903 80.2021 292.513 80.3973 291.928 80.3973C292.123 80.5924 292.318 80.9827 292.708 81.1778C293.489 82.1535 294.464 83.3244 294.659 83.5195C294.855 83.9098 294.659 83.9098 294.659 83.9098C294.659 84.1049 294.269 84.1049 293.879 84.1049Z" fill="#5FB0E7"/>
<path d="M293.098 84.1047H292.903C293.098 84.4949 293.293 84.6901 293.489 84.6901C293.684 84.8852 293.489 85.0804 293.489 85.0804C293.098 85.4706 292.903 85.4706 292.318 85.4706C292.123 85.4706 291.732 85.2755 291.537 85.0804C291.147 85.2755 290.952 85.2755 290.562 85.2755C290.171 85.2755 289.586 84.8852 289 84.1047C289 84.2998 289 84.4949 289 84.4949C288.61 84.8852 288.415 84.8852 287.83 84.8852C287.439 84.8852 286.854 84.4949 286.073 83.7144C285.878 83.5192 285.488 83.129 285.098 82.7387C284.707 82.5436 284.512 82.3484 284.122 82.1533C283.537 81.763 282.951 81.763 282.756 81.763C279.439 81.763 277.878 80.2019 273.78 80.2019C273.78 80.2019 283.341 75.5186 289.196 78.8359C289.781 78.8359 290.952 79.0311 291.732 79.0311C293.489 79.0311 292.903 80.0067 292.318 80.2019C292.123 80.2019 291.732 80.397 291.147 80.397C291.342 80.5922 291.537 80.9824 291.928 81.1776C292.708 82.1533 293.684 83.3241 293.879 83.5192C294.074 83.9095 293.879 83.9095 293.879 83.9095C293.879 84.1047 293.489 84.1047 293.098 84.1047Z" fill="#FFE1BD"/>
<path opacity="0.47" d="M292.513 80.0068C292.318 80.0068 291.928 80.202 291.342 80.202C291.342 80.202 289.976 78.836 289.391 78.6409C289.976 78.6409 291.147 78.836 291.928 78.836C293.489 78.836 293.098 79.6166 292.513 80.0068Z" fill="url(#paint0_linear)"/>
<defs>
<linearGradient id="paint0_linear" x1="289.372" y1="79.3596" x2="292.996" y2="79.3596" gradientUnits="userSpaceOnUse">
<stop stop-color="#F7941E"/>
<stop offset="1" stop-color="#F7941E" stop-opacity="0"/>
</linearGradient>
</defs>
</svg>
