<svg width="570" height="390" viewBox="0 0 570 390" fill="none" xmlns="http://www.w3.org/2000/svg">
<g clip-path="url(#clip0)">
<path d="M555.389 332.168L468.197 281.981C460.574 277.534 455.968 269.593 455.968 260.699V24.695C455.968 17.2305 464.068 12.6248 470.421 16.2776L559.042 67.4172C565.871 71.3877 570 78.6933 570 86.4754V323.75C570 331.215 561.9 335.979 555.389 332.168Z" fill="#002CAB"/>
<path d="M564.918 331.691L563.33 327.562L557.612 328.039L555.547 331.056V336.297L563.488 332.962L564.918 331.691Z" fill="#002CAB"/>
<path d="M452.633 19.7716L462.003 15.6423L464.068 16.7541V19.6128L461.527 24.0597H456.604L452.633 19.7716Z" fill="#002CAB"/>
<path d="M547.289 335.503L460.098 285.316C452.474 280.869 447.869 272.929 447.869 264.035V27.8714C447.869 20.4069 455.968 15.8012 462.321 19.454L550.942 70.5936C557.771 74.5641 561.9 81.8697 561.9 89.6518V326.927C561.9 334.55 553.801 339.156 547.289 335.503Z" fill="#007CE9"/>
<path d="M546.812 335.821L459.621 285.634C451.998 281.187 447.392 273.246 447.392 264.352V28.189C447.392 20.7245 455.492 16.1188 461.844 19.7716L550.465 70.7524C557.294 74.7229 561.424 82.0285 561.424 89.8106V327.086C561.583 334.868 553.324 339.473 546.812 335.821Z" fill="#3964F9"/>
<path d="M505.361 293.734C505.361 300.404 502.026 303.739 497.896 301.198C493.767 298.657 490.432 291.351 490.432 284.681C490.432 278.011 493.767 274.675 497.896 277.217C501.867 279.599 505.361 287.063 505.361 293.734Z" fill="#005DF0"/>
<path d="M504.725 293.734C504.725 300.404 501.39 303.739 497.261 301.198C493.132 298.657 489.797 291.351 489.797 284.681C489.797 278.011 493.132 274.675 497.261 277.217C501.39 279.599 504.725 287.063 504.725 293.734Z" fill="#002CAB"/>
<path d="M553.165 85.5225L531.248 72.9758V76.9463C531.248 78.5345 529.66 79.4874 528.231 78.6933L476.138 48.9942C475.185 48.5177 474.55 47.406 474.55 46.2943V40.2592L457.556 30.4124C456.445 29.7772 455.015 30.5712 455.015 31.8418V244.659C455.015 245.294 455.333 245.77 455.809 246.088L551.418 301.039C552.53 301.675 553.959 300.881 553.959 299.61V86.793C553.959 86.4754 553.642 85.8401 553.165 85.5225Z" fill="#00BFFF"/>
<path d="M528.231 78.6933L476.138 48.9942C475.185 48.5178 474.55 47.406 474.55 46.2943V35.0182L531.248 67.4172V76.9463C531.248 78.5345 529.501 79.4874 528.231 78.6933Z" fill="#0041D8"/>
<path d="M509.967 61.0644C509.649 61.0644 509.331 60.9056 509.014 60.7468L487.414 48.6766C486.303 48.0413 485.667 46.7708 485.667 45.8178C485.826 44.8649 486.62 44.3885 487.732 45.0238L509.331 57.094C510.443 57.7292 511.078 58.9998 511.078 59.9527C510.919 60.588 510.443 61.0644 509.967 61.0644Z" fill="#007CE9"/>
<path d="M509.649 61.0644C509.331 61.0644 509.014 60.9056 508.696 60.7468L487.097 48.6766C485.985 48.0413 485.35 46.7708 485.35 45.8178C485.509 44.8649 486.303 44.3885 487.414 45.0238L509.014 57.094C510.125 57.7292 510.761 58.9998 510.761 59.9527C510.761 60.7468 510.284 61.2233 509.649 61.0644Z" fill="#002CAB"/>
<path d="M518.066 64.2408C518.066 66.3055 516.955 67.4172 515.684 66.6231C514.413 65.829 513.302 63.6056 513.302 61.5409C513.302 59.4763 514.413 58.3646 515.684 59.1586C516.955 59.7939 518.066 62.1762 518.066 64.2408Z" fill="#007CE9"/>
<path d="M517.908 64.2408C517.908 66.3055 516.796 67.4172 515.525 66.6231C514.255 65.829 513.143 63.6056 513.143 61.5409C513.143 59.4763 514.255 58.3646 515.525 59.1586C516.796 59.7939 517.908 62.1762 517.908 64.2408Z" fill="#002CAB"/>
<path d="M517.272 63.7644C517.272 65.3526 516.478 65.9878 515.525 65.5114C514.572 64.8761 513.778 63.2879 513.778 61.6997C513.778 60.1115 514.572 59.4763 515.525 59.9527C516.478 60.588 517.272 62.335 517.272 63.7644Z" fill="#001466"/>
<path opacity="0.08" d="M515.049 61.6998C515.049 62.4939 514.731 62.8115 514.255 62.4939C513.778 62.1762 513.46 61.3821 513.46 60.5881C513.46 59.794 513.778 59.4763 514.255 59.794C514.731 60.1116 515.049 61.0645 515.049 61.6998Z" fill="white"/>
<path opacity="0.08" d="M516.478 62.8114C516.478 63.2879 516.319 63.4467 516.002 63.2879C515.684 63.1291 515.525 62.6526 515.525 62.1762C515.525 61.6997 515.684 61.5409 516.002 61.6997C516.161 62.0173 516.478 62.335 516.478 62.8114Z" fill="white"/>
<path d="M566.506 132.056H565.235C564.918 132.056 564.6 131.739 564.6 131.421V116.81C564.6 116.492 564.918 116.174 565.235 116.174H566.506C566.824 116.174 567.141 116.492 567.141 116.81V131.421C567.141 131.739 566.824 132.056 566.506 132.056Z" fill="#001466"/>
<path d="M566.506 113.792H565.235C564.918 113.792 564.6 113.475 564.6 113.157V98.5457C564.6 98.228 564.918 97.9104 565.235 97.9104H566.506C566.824 97.9104 567.141 98.228 567.141 98.5457V113.157C567.141 113.475 566.824 113.792 566.506 113.792Z" fill="#001466"/>
<g opacity="0.44">
<path opacity="0.44" d="M457.556 30.8889L474.55 40.7356V40.418L457.556 30.5712C456.445 29.936 455.015 30.7301 455.015 32.0006V32.3182C455.015 31.0477 456.445 30.2536 457.556 30.8889Z" fill="#BCFFFF"/>
<path opacity="0.44" d="M474.55 46.6119C474.55 47.7237 475.185 48.6766 476.138 49.3119L528.231 79.0109C529.501 79.805 531.248 78.8521 531.248 77.2639V76.9463C531.248 78.5345 529.66 79.4874 528.231 78.6933L476.138 48.9942C475.185 48.5178 474.55 47.406 474.55 46.2943V46.6119Z" fill="#BCFFFF"/>
<path opacity="0.44" d="M553.165 85.5225L531.248 72.9758V73.2935L553.165 85.8401C553.642 86.1578 553.959 86.793 553.959 87.2695V86.9519C553.959 86.4754 553.642 85.8401 553.165 85.5225Z" fill="#BCFFFF"/>
</g>
<path d="M312.055 120.829C312.747 120.713 313.784 120.483 314.361 120.137C317.704 118.638 314.015 114.719 313.093 112.759C311.018 108.148 312.401 103.536 316.205 100.078C319.894 96.7346 323.814 96.3888 326.235 91.6622C329.924 84.63 324.621 80.0187 328.886 73.2171C330.731 70.2197 334.996 70.2197 337.648 68.6058C339.262 67.6835 340.299 65.032 341.567 63.5334C346.179 58.3457 354.594 57.9999 360.704 60.5361C364.508 62.15 366.353 67.3377 370.964 67.3377C373.962 67.3377 377.651 68.1447 378.688 71.3726C379.495 73.7935 378.112 76.0991 378.227 78.52C378.342 80.8257 379.149 83.1313 380.763 84.8605C383.184 87.512 386.758 87.9732 388.487 91.3163C389.409 93.0456 389.755 95.0054 389.871 96.9651C389.986 100.424 389.179 103.767 387.565 106.879C386.066 109.761 383.876 112.182 382.608 115.18C380.763 119.791 384.337 124.633 384.337 129.359C384.568 148.727 370.503 162.445 354.709 168.094C344.104 171.898 326.35 169.247 315.744 164.982C302.602 159.679 288.538 146.882 296.146 131.55C299.144 125.901 305.599 121.981 312.055 120.829Z" fill="#2C1E56"/>
<path d="M385.605 196.684C386.643 203.716 371.541 378.138 371.541 378.138C371.425 378.484 367.16 381.135 363.356 378.369C363.356 378.369 360.589 338.135 355.171 300.207C350.444 267.467 349.176 237.609 348.6 234.381C346.986 224.698 348.6 199.681 348.6 199.681C361.857 200.604 381.224 198.529 385.605 196.684Z" fill="#8AA5F8"/>
<path d="M362.549 374.334C363.586 374.679 367.506 374.564 368.428 374.449C368.428 373.872 368.313 373.065 368.659 372.258C369.581 372.028 371.426 370.76 372.348 370.645C372.002 372.489 371.425 382.288 373.385 383.671C375.691 385.401 380.072 385.401 380.763 385.401C384.222 385.401 385.029 387.36 385.029 388.167C385.029 389.436 384.222 389.897 383.184 389.897C378.919 389.897 369.12 389.897 366.238 389.897C364.393 389.897 362.664 390.127 361.05 388.398C360.474 387.822 360.474 386.669 360.82 385.631C361.281 384.594 362.434 377.216 362.549 374.334Z" fill="#002CA7"/>
<path d="M449.932 88.6651C450.624 88.8957 452.123 92.4694 452.007 93.1611C451.316 94.6598 450.97 94.0833 449.702 94.6597C449.817 93.2764 449.817 91.7777 449.471 90.3943C449.356 89.5874 449.125 88.4345 449.932 88.6651Z" fill="#FFE1BD"/>
<path d="M454.774 88.7803C455.351 88.3192 456.619 86.9358 457.195 86.5899C458.118 86.0135 458.809 86.3594 459.386 86.5899C460.077 86.9358 460.077 87.6275 460.077 87.6275C461 87.858 460.193 89.7025 460.423 89.7025C461.345 89.8178 461.807 90.9706 459.616 92.9304C459.501 93.0457 455.581 98.9251 454.198 100.77C452.699 99.8474 448.895 96.2736 448.895 96.1583C449.471 95.0055 450.278 93.8527 451.085 92.8152C452.008 91.5471 454.659 89.0109 454.774 88.7803Z" fill="#FFE1BD"/>
<path d="M369.465 119.215C377.305 119.099 401.86 125.094 414.08 125.671C429.182 126.478 423.187 136.738 418.576 137.89C406.356 141.118 371.31 144.346 368.889 138.121C367.967 135.47 368.082 119.215 369.465 119.215Z" fill="#FFE1BD"/>
<path d="M413.964 128.437C419.613 122.212 444.629 102.614 449.587 95.1208C451.662 97.1959 452.699 99.5015 454.313 100.424C446.013 112.528 422.841 139.735 417.192 137.89C412.12 136.276 412.005 132.242 413.042 129.821C413.273 129.244 413.619 128.783 413.964 128.437Z" fill="#FFE1BD"/>
<path d="M369.466 119.215C374.999 119.099 389.063 121.636 401.053 122.327C401.514 126.247 401.629 131.896 401.399 135.931C401.283 137.544 401.168 142.502 400.938 144.116C386.758 145.614 370.503 142.271 369.004 138.121C367.967 135.469 368.082 119.215 369.466 119.215Z" fill="#00BFFF"/>
<path d="M319.779 196.684C324.16 198.644 355.516 204.523 368.774 203.601C368.774 203.601 365.431 222.623 361.626 241.875C358.399 258.706 354.364 276.229 352.289 290.754C346.87 328.682 331.307 376.87 331.307 376.87C327.618 378.945 323.007 375.602 323.007 375.371C323.007 375.371 328.195 307.24 326.811 296.288C325.082 283.146 319.318 200.488 319.779 196.684Z" fill="#D9E2FF"/>
<path d="M386.643 193.802C386.643 193.802 390.908 214.092 388.833 215.821C384.222 219.856 366.93 216.167 353.903 214.553C340.76 212.939 316.551 215.59 315.975 212.939C314.246 205.676 317.473 189.767 317.473 189.767L386.643 193.802Z" fill="#3964F9"/>
<path d="M352.519 99.1556C353.442 99.8473 363.01 105.15 365.777 104.689C365.777 105.496 363.932 113.451 365.662 117.831C364.855 121.866 353.787 121.866 350.675 115.064C351.943 113.105 352.981 102.845 352.519 99.1556Z" fill="#FFE1BD"/>
<path d="M362.549 85.7829C367.621 85.437 372.463 86.5899 373.616 91.3164C373.962 93.0456 373.27 108.378 365.085 110.799C361.627 111.837 354.94 105.842 354.71 101.807L354.364 96.2736C353.903 90.8553 357.131 86.244 362.549 85.7829Z" fill="#FFE1BD"/>
<path d="M354.479 94.0831C355.056 94.0831 355.978 94.3137 356.785 94.8901C356.324 96.7346 355.056 99.6167 354.479 101.115C353.211 100.654 351.712 98.5791 351.712 97.311C351.597 95.9277 353.096 94.0831 354.479 94.0831Z" fill="#FFE1BD"/>
<path d="M324.275 133.049C327.388 124.633 330.962 120.137 339.492 118.062C342.375 117.37 350.79 115.065 350.79 115.065C350.79 115.065 356.785 120.252 360.704 120.598C363.471 120.829 365.777 117.831 365.777 117.831C365.777 117.831 375.576 120.829 377.305 121.866C384.222 125.901 384.337 132.587 384.683 138.236C388.718 194.033 391.254 202.102 389.525 205.215C385.259 212.824 314.246 207.751 315.514 198.413C319.779 167.287 323.353 135.7 324.275 133.049Z" fill="#00BFFF"/>
<path d="M394.597 198.99C395.404 198.759 396.096 198.413 396.211 199.451C396.326 200.143 393.675 201.296 392.983 201.18C391.485 200.489 391.831 199.566 390.332 199.22C391.715 199.336 393.214 199.22 394.597 198.99Z" fill="#FFE1BD"/>
<path d="M389.179 198.875C390.678 199.336 392.292 199.912 393.79 200.604C395.635 201.411 399.439 203.601 399.785 203.717C400.592 204.178 402.667 205.215 403.128 205.792C403.474 206.138 403.82 207.406 403.704 207.982C403.589 208.674 402.667 208.789 402.667 208.789C402.667 209.711 400.246 209.25 400.361 209.481C400.592 210.403 399.324 210.979 396.326 209.25C396.096 209.135 387.911 206.138 385.375 204.985C385.836 203.255 389.064 198.76 389.179 198.875Z" fill="#FFE1BD"/>
<path d="M332.23 129.129C334.65 127.63 350.675 124.633 350.905 126.016C352.519 133.625 351.366 158.872 353.096 171.092C355.171 186.078 343.988 182.159 341.913 177.893C336.495 166.48 326.696 132.587 332.23 129.129Z" fill="#FFE1BD"/>
<path d="M348.369 170.285C348.945 170.4 349.522 170.631 349.868 170.861C357.13 175.127 381.34 195.762 389.64 198.99C388.026 201.411 386.873 203.486 386.297 205.331C372.694 199.682 340.53 181.813 341.222 175.934C341.798 170.631 345.718 169.708 348.369 170.285Z" fill="#FFE1BD"/>
<path d="M351.021 126.016C354.018 130.628 352.404 145.73 354.018 157.719C349.176 160.486 339.953 162.561 332.575 161.754C328.425 148.035 327.503 135.354 328.656 131.089C331.653 120.137 347.216 119.907 351.021 126.016Z" fill="#00BFFF"/>
<path d="M323.353 373.181C324.391 373.527 328.31 373.757 329.232 373.642C329.348 373.066 329.232 372.259 329.694 371.452C330.616 371.221 332.46 370.068 333.498 370.068C333.037 371.913 331.999 381.597 333.728 383.21C335.919 385.055 340.299 385.401 340.991 385.401C344.45 385.631 345.141 387.591 345.026 388.398C344.911 389.666 344.104 390.127 343.066 390.127C338.801 389.897 329.117 389.205 326.12 389.09C324.275 388.975 322.431 389.09 321.047 387.245C320.586 386.554 320.586 385.516 320.932 384.479C321.624 383.211 323.122 376.063 323.353 373.181Z" fill="#002CA7"/>
<path d="M247.72 299.778H143.058C132.576 299.778 124 291.202 124 280.72V176.058C124 165.576 132.576 157 143.058 157H247.72C258.202 157 266.778 165.576 266.778 176.058V280.72C266.778 291.202 258.202 299.778 247.72 299.778Z" fill="#3964F9"/>
<path d="M188.133 196L120.159 202.829C120.159 203.464 120 202.194 120 202.829V265.88C120 286.368 136.835 303.203 157.322 303.203H217.515L224.503 232.369C224.503 212.358 208.144 196 188.133 196Z" fill="#0032E9"/>
<path d="M244.226 201.469H241.049C240.255 198.134 238.985 194.958 237.079 192.099L239.302 189.875C241.367 187.811 241.367 184.634 239.302 182.57L235.649 178.917C233.585 176.852 230.409 176.852 228.344 178.917L226.12 181.14C223.262 179.393 220.085 178.123 216.75 177.17V173.994C216.75 171.135 214.527 168.911 211.668 168.911H206.427C203.568 168.911 201.345 171.135 201.345 173.994V177.17C198.009 177.964 194.833 179.235 191.974 181.14L189.751 178.917C187.686 176.852 184.51 176.852 182.445 178.917L178.792 182.57C176.728 184.634 176.728 187.811 178.792 189.875L181.016 192.099C179.269 194.958 177.998 198.134 177.045 201.469H173.869C171.01 201.469 168.787 203.693 168.787 206.551V211.792C168.787 214.651 171.01 216.875 173.869 216.875H177.045C177.84 220.21 179.11 223.386 181.016 226.245L178.792 228.468C176.728 230.533 176.728 233.709 178.792 235.774L182.445 239.427C184.51 241.492 187.686 241.492 189.751 239.427L191.974 237.203C194.833 238.95 198.009 240.221 201.345 241.174V244.35C201.345 247.209 203.568 249.432 206.427 249.432H211.668C214.527 249.432 216.75 247.209 216.75 244.35V241.174C220.085 240.38 223.262 239.109 226.12 237.203L228.344 239.427C230.409 241.492 233.585 241.492 235.649 239.427L239.302 235.774C241.367 233.709 241.367 230.533 239.302 228.468L237.079 226.245C238.826 223.386 240.096 220.21 241.049 216.875H244.226C247.084 216.875 249.308 214.651 249.308 211.792V206.551C249.467 203.693 247.084 201.469 244.226 201.469ZM209.127 228.627C198.327 228.627 189.751 219.892 189.751 209.251C189.751 198.452 198.486 189.875 209.127 189.875C219.926 189.875 228.503 198.61 228.503 209.251C228.661 219.892 219.926 228.627 209.127 228.627Z" fill="#DFF1FF"/>
<path d="M209.127 228.627C198.327 228.627 189.751 219.892 189.751 209.251C189.751 204.646 191.339 200.358 194.198 197.022C192.61 196.705 191.021 196.387 189.433 196.387L178.951 196.864C178.316 198.452 177.839 200.04 177.363 201.628H174.187C171.328 201.628 169.104 203.852 169.104 206.71V211.951C169.104 214.81 171.328 217.034 174.187 217.034H177.363C178.157 220.369 179.428 223.545 181.333 226.404L179.11 228.627C177.045 230.692 177.045 233.868 179.11 235.933L182.763 239.586C184.827 241.65 188.004 241.65 190.068 239.586L192.292 237.362C195.151 239.109 198.327 240.38 201.662 241.333V244.509C201.662 247.368 203.886 249.591 206.744 249.591H211.985C214.844 249.591 217.068 247.368 217.068 244.509V241.333C219.609 240.697 221.991 239.903 224.214 238.633L224.532 231.327C224.373 228.468 223.897 225.769 222.944 223.227C219.291 226.563 214.526 228.627 209.127 228.627Z" fill="#A3C6F4"/>
<path d="M228.661 209.569V209.41C228.502 220.051 219.926 228.627 209.285 228.627C198.645 228.627 189.91 220.051 189.91 209.41V209.569C189.91 220.369 198.645 228.945 209.285 228.945C219.926 228.945 228.661 220.21 228.661 209.569Z" fill="white"/>
<path d="M216.909 177.646C220.244 178.441 223.42 179.711 226.279 181.617L228.502 179.394C230.567 177.329 233.743 177.329 235.649 179.394L239.302 183.046C240.255 183.999 240.731 185.27 240.731 186.54C240.731 185.111 240.255 183.84 239.302 182.729L235.649 179.076C233.585 177.011 230.408 177.011 228.502 179.076L226.279 181.299C223.42 179.552 220.244 178.282 216.909 177.329V177.646Z" fill="white"/>
<path d="M181.175 226.563C181.175 226.563 181.175 226.404 181.016 226.404L178.792 228.627C177.681 229.739 177.204 231.009 177.363 232.439C177.363 231.168 177.839 229.898 178.792 228.945L181.175 226.563Z" fill="white"/>
<path d="M206.586 169.229H211.827C214.685 169.229 216.909 171.452 216.909 174.311V173.994C216.909 171.135 214.685 168.911 211.827 168.911H206.586C203.727 168.911 201.503 171.135 201.503 173.994V174.311C201.503 171.611 203.727 169.229 206.586 169.229Z" fill="white"/>
<path d="M237.238 226.404C237.238 226.404 237.238 226.563 237.079 226.563L239.302 228.786C240.255 229.739 240.732 231.009 240.732 232.28C240.732 230.851 240.255 229.58 239.302 228.468L237.238 226.404Z" fill="white"/>
<path d="M244.226 201.469H241.049C240.255 198.134 238.985 195.117 237.238 192.258L237.079 192.417C238.826 195.275 240.096 198.452 241.049 201.787H244.226C247.084 201.787 249.308 204.01 249.308 206.869V206.551C249.467 203.693 247.084 201.469 244.226 201.469Z" fill="white"/>
<path d="M178.951 182.888L182.604 179.235C184.669 177.17 187.845 177.17 189.91 179.235L192.133 181.458C194.992 179.711 198.168 178.441 201.503 177.488V177.17C198.168 177.964 194.992 179.235 192.133 181.141L189.91 178.917C187.845 176.852 184.669 176.852 182.604 178.917L178.951 182.57C177.839 183.682 177.363 184.952 177.522 186.382C177.522 185.111 177.998 183.84 178.951 182.888Z" fill="white"/>
<path d="M174.028 201.787H177.204C177.998 198.452 179.269 195.275 181.175 192.417L181.016 192.258C179.269 195.117 177.998 198.134 177.204 201.469H174.028C171.169 201.469 168.946 203.693 168.946 206.551V206.869C168.946 204.169 171.169 201.787 174.028 201.787Z" fill="white"/>
<path d="M121.973 326.291H117.685C116.573 321.845 114.826 317.556 112.444 313.745L115.461 310.727C118.161 308.027 118.161 303.739 115.461 301.039L110.538 296.116C107.838 293.416 103.55 293.416 100.85 296.116L97.8323 299.133C94.0207 296.751 89.7326 295.004 85.2856 293.892V289.604C85.2856 285.793 82.2681 282.775 78.4564 282.775H71.4684C67.6568 282.775 64.6392 285.793 64.6392 289.604V293.892C60.1923 295.004 55.9042 296.751 52.0926 299.133L49.075 296.116C46.3751 293.416 42.087 293.416 39.3871 296.116L34.4637 301.039C31.7638 303.739 31.7638 308.027 34.4637 310.727L37.4812 313.745C35.099 317.556 33.352 321.845 32.2402 326.291H27.9521C24.1405 326.291 21.1229 329.309 21.1229 333.121V340.109C21.1229 343.92 24.1405 346.938 27.9521 346.938H32.2402C33.352 351.385 35.099 355.673 37.4812 359.485L34.4637 362.502C31.7638 365.202 31.7638 369.49 34.4637 372.19L39.3871 377.113C42.087 379.813 46.3751 379.813 49.075 377.113L52.0926 374.096C55.9042 376.478 60.1923 378.225 64.6392 379.337V383.625C64.6392 387.437 67.6568 390.454 71.4684 390.454H78.4564C82.2681 390.454 85.2856 387.437 85.2856 383.625V379.337C89.7326 378.225 94.0207 376.478 97.8323 374.096L100.85 377.113C103.55 379.813 107.838 379.813 110.538 377.113L115.461 372.19C118.161 369.49 118.161 365.202 115.461 362.502L112.444 359.485C114.826 355.673 116.573 351.385 117.685 346.938H121.973C125.784 346.938 128.802 343.92 128.802 340.109V333.121C128.802 329.309 125.784 326.291 121.973 326.291ZM74.9624 362.661C60.6688 362.661 48.9162 351.067 48.9162 336.615C48.9162 322.162 60.5099 310.568 74.9624 310.568C89.2561 310.568 101.009 322.162 101.009 336.615C101.009 351.067 89.4149 362.661 74.9624 362.661Z" fill="#00BFFF"/>
<path d="M101.009 337.091V336.932C100.85 351.226 89.2562 362.661 74.9625 362.661C60.6688 362.661 49.0751 351.067 48.9163 336.932V337.091C48.9163 351.385 60.51 363.137 74.9625 363.137C89.415 362.979 101.009 351.385 101.009 337.091Z" fill="#00E7FF"/>
<path d="M85.2858 294.369C89.7327 295.481 94.0208 297.228 97.8324 299.61L100.85 296.592C103.55 293.892 107.838 293.892 110.538 296.592L115.461 301.516C116.732 302.786 117.367 304.533 117.367 306.121C117.367 304.374 116.732 302.469 115.461 301.039L110.538 296.116C107.838 293.416 103.55 293.416 100.85 296.116L97.8324 299.133C94.0208 296.751 89.7327 295.004 85.2858 293.892V294.369Z" fill="#00E7FF"/>
<path d="M37.6402 359.961C37.6402 359.802 37.4814 359.802 37.4814 359.643L34.6226 362.502C33.1933 363.932 32.558 365.679 32.7168 367.584C32.7168 365.837 33.3521 364.249 34.6226 362.979L37.6402 359.961Z" fill="#00E7FF"/>
<path d="M71.6273 283.252H78.6153C82.427 283.252 85.4445 286.269 85.4445 290.081V289.604C85.4445 285.793 82.427 282.775 78.6153 282.775H71.6273C67.8156 282.775 64.7981 285.793 64.7981 289.604V290.081C64.7981 286.269 67.8156 283.252 71.6273 283.252Z" fill="#00E7FF"/>
<path d="M112.603 359.643C112.603 359.802 112.444 359.802 112.444 359.961L115.461 362.979C116.732 364.249 117.367 365.996 117.367 367.584C117.367 365.837 116.732 363.932 115.461 362.502L112.603 359.643Z" fill="#00E7FF"/>
<path d="M121.973 326.292H117.685C116.573 321.845 114.826 317.715 112.603 314.062L112.444 314.221C114.826 318.033 116.573 322.321 117.685 326.768H121.973C125.784 326.768 128.802 329.786 128.802 333.597V333.121C128.802 329.309 125.784 326.292 121.973 326.292Z" fill="#00E7FF"/>
<path d="M34.4636 301.357L39.387 296.434C42.0869 293.734 46.375 293.734 49.075 296.434L52.0925 299.451C55.9042 297.069 60.1923 295.322 64.6392 294.21V293.734C60.1923 294.845 55.9042 296.592 52.0925 298.975L49.075 295.957C46.375 293.257 42.0869 293.257 39.387 295.957L34.4636 300.88C33.0343 302.31 32.399 304.057 32.5578 305.963C32.5578 304.374 33.1931 302.786 34.4636 301.357Z" fill="#00E7FF"/>
<path d="M28.1109 326.768H32.399C33.5108 322.321 35.2578 318.033 37.6401 314.221L37.4812 314.062C35.2578 317.874 33.5108 322.003 32.399 326.292H28.1109C24.2993 326.292 21.2817 329.309 21.2817 333.121V333.597C21.2817 329.786 24.2993 326.768 28.1109 326.768Z" fill="#00E7FF"/>
<path d="M50.3455 252.917H48.122C47.6456 250.694 46.6927 248.629 45.5809 246.565L47.1691 244.976C48.4397 243.706 48.4397 241.482 47.1691 240.212L44.7868 237.83C43.5163 236.559 41.2928 236.559 40.0223 237.83L38.4341 239.418C36.5283 238.306 34.4636 237.353 32.0814 236.877V234.653C32.0814 232.747 30.4932 231.159 28.5874 231.159H25.0933C23.1875 231.159 21.5993 232.747 21.5993 234.653V236.877C19.3759 237.353 17.3112 238.306 15.2466 239.418L13.6584 237.83C12.3879 236.559 10.1644 236.559 8.89384 237.83L6.51156 240.212C5.24101 241.482 5.24101 243.706 6.51156 244.976L8.09975 246.565C6.98802 248.47 6.03511 250.535 5.55865 252.917H3.49401C1.58819 252.917 0 254.506 0 256.411V259.905C0 261.811 1.58819 263.399 3.49401 263.399H5.71747C6.19393 265.623 7.14684 267.687 8.25857 269.752L6.67038 271.34C5.39983 272.611 5.39983 274.834 6.67038 276.105L9.05266 278.487C10.3232 279.758 12.5467 279.758 13.8172 278.487L15.4054 276.899C17.3112 278.011 19.3759 278.964 21.7582 279.44V281.663C21.7582 283.569 23.3463 285.158 25.2522 285.158H28.5874C30.4932 285.158 32.0814 283.569 32.0814 281.663V279.44C34.3048 278.964 36.3695 278.011 38.4341 276.899L40.0223 278.487C41.2928 279.758 43.5163 279.758 44.7868 278.487L47.1691 276.105C48.4397 274.834 48.4397 272.611 47.1691 271.34L45.5809 269.752C46.6927 267.846 47.6456 265.782 48.122 263.399H50.3455C52.2513 263.399 53.8395 261.811 53.8395 259.905V256.411C53.8395 254.347 52.2513 252.917 50.3455 252.917ZM26.8403 271.023C19.6935 271.023 13.8172 265.146 13.8172 258C13.8172 250.853 19.6935 244.976 26.8403 244.976C33.9872 244.976 39.8635 250.853 39.8635 258C39.8635 265.146 34.146 271.023 26.8403 271.023Z" fill="#00BFFF"/>
<path d="M39.8634 258.158C39.8634 265.146 33.9871 271.023 26.8403 271.023C19.6934 271.023 13.8171 265.305 13.8171 258.158C13.8171 258.158 13.8171 258.158 13.8171 258.317C13.8171 265.464 19.6934 271.34 26.8403 271.34C34.1459 271.181 39.8634 265.464 39.8634 258.158Z" fill="#00E7FF"/>
<path d="M32.0813 236.877C34.3048 237.353 36.3694 238.306 38.434 239.418L40.0222 237.83C41.2928 236.559 43.5162 236.559 44.7868 237.83L47.1691 240.212C47.8043 240.847 48.122 241.641 48.122 242.594C48.122 241.641 47.8043 240.688 47.1691 240.053L44.7868 237.671C43.5162 236.4 41.2928 236.4 40.0222 237.671L38.434 239.259C36.5282 238.147 34.4636 237.194 32.0813 236.718V236.877Z" fill="#00E7FF"/>
<path d="M8.09975 269.593L6.51157 270.864C5.87629 271.499 5.55865 272.452 5.55865 273.405C5.55865 272.611 5.87629 271.658 6.51157 271.023L8.09975 269.593Z" fill="#00E7FF"/>
<path d="M25.0933 231.318H28.5873C30.4931 231.318 32.0813 232.906 32.0813 234.812V234.653C32.0813 232.747 30.4931 231.159 28.5873 231.159H25.0933C23.1875 231.159 21.5993 232.747 21.5993 234.653V234.812C21.7581 232.906 23.3463 231.318 25.0933 231.318Z" fill="#00E7FF"/>
<path d="M45.7399 269.593L47.1692 271.181C47.8045 271.817 48.1221 272.611 48.1221 273.564C48.1221 272.611 47.8045 271.658 47.1692 271.023L45.7399 269.593Z" fill="#00E7FF"/>
<path d="M50.3454 252.917H48.1219C47.6454 250.694 46.6925 248.629 45.5808 246.723C46.6925 248.629 47.6454 250.694 48.1219 253.076H50.3454C52.2512 253.076 53.8394 254.664 53.8394 256.57V256.411C53.8394 254.347 52.2512 252.917 50.3454 252.917Z" fill="#00E7FF"/>
<path d="M6.67032 240.371L9.0526 237.988C10.3231 236.718 12.5466 236.718 13.8172 237.988L15.4053 239.576C17.3112 238.465 19.3758 237.512 21.7581 237.035V236.877C19.5346 237.353 17.47 238.306 15.4053 239.418L13.8172 237.83C12.5466 236.559 10.3231 236.559 9.0526 237.83L6.67032 240.212C6.03504 240.847 5.71741 241.8 5.71741 242.753C5.71741 241.959 6.03504 241.006 6.67032 240.371Z" fill="#00E7FF"/>
<path d="M3.49401 253.076H5.71747C6.19393 250.853 7.14684 248.788 8.25857 246.723C7.14684 248.629 6.19393 250.694 5.71747 252.917H3.49401C1.58819 252.917 0 254.506 0 256.411V256.57C0 254.664 1.58819 253.076 3.49401 253.076Z" fill="#00E7FF"/>
<path d="M292.489 49.7087H291.255C290.885 48.3515 290.392 47.1176 289.775 46.0071L290.638 45.1435C291.379 44.4031 291.379 43.0459 290.638 42.3056L289.158 40.825C288.417 40.0846 287.06 40.0846 286.32 40.825L285.456 41.6887C284.346 40.9483 283.112 40.4548 281.755 40.208V38.9742C281.755 37.8637 280.891 37 279.78 37H277.806C276.696 37 275.832 37.8637 275.832 38.9742V40.208C274.475 40.5782 273.241 41.0717 272.131 41.6887L271.267 40.825C270.527 40.0846 269.169 40.0846 268.429 40.825L266.948 42.3056C266.208 43.0459 266.208 44.4031 266.948 45.1435L267.812 46.0071C267.072 47.1176 266.578 48.3515 266.331 49.7087H265.098C263.987 49.7087 263.123 50.5724 263.123 51.6829V53.6571C263.123 54.7675 263.987 55.6312 265.098 55.6312H266.331C266.702 56.9885 267.195 58.2223 267.812 59.3328L266.948 60.1965C266.208 60.9368 266.208 62.294 266.948 63.0344L268.429 64.515C269.169 65.2553 270.527 65.2553 271.267 64.515L272.131 63.6513C273.241 64.3916 274.475 64.8851 275.832 65.1319V66.3658C275.832 67.4762 276.696 68.3399 277.806 68.3399H279.78C280.891 68.3399 281.755 67.4762 281.755 66.3658V65.1319C283.112 64.7618 284.346 64.2682 285.456 63.6513L286.32 64.515C287.06 65.2553 288.417 65.2553 289.158 64.515L290.638 63.0344C291.379 62.294 291.379 60.9368 290.638 60.1965L289.775 59.3328C290.515 58.2223 291.009 56.9885 291.255 55.6312H292.489C293.6 55.6312 294.463 54.7675 294.463 53.6571V51.6829C294.463 50.5724 293.6 49.7087 292.489 49.7087ZM278.793 60.3199C274.598 60.3199 271.143 56.8651 271.143 52.67C271.143 48.4749 274.598 45.0201 278.793 45.0201C282.988 45.0201 286.443 48.4749 286.443 52.67C286.32 56.8651 282.988 60.3199 278.793 60.3199Z" fill="#00BFFF"/>
<path d="M286.32 52.7933C286.32 56.8651 282.865 60.3199 278.67 60.3199C274.475 60.3199 271.144 56.9884 271.02 52.7933C271.02 52.7933 271.02 52.7933 271.02 52.9167C271.02 57.1118 274.475 60.5666 278.67 60.5666C282.989 60.4432 286.32 56.9884 286.32 52.7933Z" fill="#00E7FF"/>
<path d="M281.755 40.3314C283.112 40.7015 284.346 41.1951 285.456 41.812L286.32 40.9483C287.06 40.208 288.417 40.208 289.158 40.9483L290.638 42.429C291.009 42.7991 291.255 43.2926 291.255 43.7862C291.255 43.2926 291.132 42.6757 290.638 42.3056L289.158 40.8249C288.417 40.0846 287.06 40.0846 286.32 40.8249L285.456 41.6886C284.346 40.9483 283.112 40.4548 281.755 40.208V40.3314Z" fill="#00E7FF"/>
<path d="M267.812 59.4561C267.812 59.4561 267.689 59.4561 267.812 59.4561L266.948 60.1964C266.578 60.5666 266.331 61.1835 266.331 61.6771C266.331 61.1835 266.578 60.69 266.948 60.3198L267.812 59.4561Z" fill="#00E7FF"/>
<path d="M277.683 37.1234H279.657C280.768 37.1234 281.631 37.9871 281.631 39.0976V38.9742C281.631 37.8637 280.768 37 279.657 37H277.683C276.572 37 275.709 37.8637 275.709 38.9742V39.0976C275.709 37.9871 276.572 37.1234 277.683 37.1234Z" fill="#00E7FF"/>
<path d="M289.775 59.4561L290.638 60.4432C291.009 60.8134 291.255 61.3069 291.255 61.8005C291.255 61.3069 291.132 60.69 290.638 60.3198L289.775 59.4561Z" fill="#00E7FF"/>
<path d="M292.489 49.7087H291.255C290.885 48.4748 290.392 47.241 289.775 46.1305C290.515 47.241 291.009 48.4748 291.255 49.8321H292.489C293.6 49.8321 294.463 50.6957 294.463 51.8062V51.6828C294.463 50.5724 293.6 49.7087 292.489 49.7087Z" fill="#00E7FF"/>
<path d="M266.948 42.429L268.429 40.9483C269.169 40.208 270.527 40.208 271.267 40.9483L272.131 41.812C273.241 41.0717 274.475 40.5782 275.832 40.3314V40.208C274.475 40.5782 273.241 41.0717 272.131 41.6886L271.267 40.8249C270.527 40.0846 269.169 40.0846 268.429 40.8249L266.948 42.3056C266.578 42.6757 266.331 43.2926 266.331 43.7862C266.331 43.2926 266.578 42.7991 266.948 42.429Z" fill="#00E7FF"/>
<path d="M264.974 49.8321H266.208C266.578 48.4748 267.072 47.241 267.689 46.1305C267.072 47.241 266.578 48.4748 266.208 49.7087H264.974C263.864 49.7087 263 50.5724 263 51.6828V51.8062C263 50.6957 263.864 49.8321 264.974 49.8321Z" fill="#00E7FF"/>
<path d="M104.489 133.709H103.255C102.885 132.351 102.392 131.118 101.775 130.007L102.638 129.143C103.379 128.403 103.379 127.046 102.638 126.306L101.158 124.825C100.417 124.085 99.0602 124.085 98.3198 124.825L97.4561 125.689C96.3457 124.948 95.1118 124.455 93.7546 124.208V122.974C93.7546 121.864 92.8909 121 91.7804 121H89.8062C88.6958 121 87.8321 121.864 87.8321 122.974V124.208C86.4748 124.578 85.241 125.072 84.1305 125.689L83.2668 124.825C82.5265 124.085 81.1692 124.085 80.4289 124.825L78.9483 126.306C78.208 127.046 78.208 128.403 78.9483 129.143L79.812 130.007C79.0717 131.118 78.5782 132.351 78.3314 133.709H77.0975C75.9871 133.709 75.1234 134.572 75.1234 135.683V137.657C75.1234 138.768 75.9871 139.631 77.0975 139.631H78.3314C78.7015 140.988 79.1951 142.222 79.812 143.333L78.9483 144.196C78.208 144.937 78.208 146.294 78.9483 147.034L80.4289 148.515C81.1692 149.255 82.5265 149.255 83.2668 148.515L84.1305 147.651C85.241 148.392 86.4748 148.885 87.8321 149.132V150.366C87.8321 151.476 88.6958 152.34 89.8062 152.34H91.7804C92.8909 152.34 93.7546 151.476 93.7546 150.366V149.132C95.1118 148.762 96.3457 148.268 97.4561 147.651L98.3198 148.515C99.0602 149.255 100.417 149.255 101.158 148.515L102.638 147.034C103.379 146.294 103.379 144.937 102.638 144.196L101.775 143.333C102.515 142.222 103.008 140.988 103.255 139.631H104.489C105.6 139.631 106.463 138.768 106.463 137.657V135.683C106.463 134.572 105.6 133.709 104.489 133.709ZM90.7933 144.32C86.5982 144.32 83.1434 140.865 83.1434 136.67C83.1434 132.475 86.5982 129.02 90.7933 129.02C94.9884 129.02 98.4432 132.475 98.4432 136.67C98.3198 140.865 94.9884 144.32 90.7933 144.32Z" fill="#00BFFF"/>
<path d="M98.3199 136.793C98.3199 140.865 94.8652 144.32 90.67 144.32C86.4749 144.32 83.1435 140.988 83.0201 136.793C83.0201 136.793 83.0201 136.793 83.0201 136.917C83.0201 141.112 86.4749 144.567 90.67 144.567C94.9885 144.443 98.3199 140.988 98.3199 136.793Z" fill="#00E7FF"/>
<path d="M93.7546 124.331C95.1119 124.702 96.3457 125.195 97.4562 125.812L98.3199 124.948C99.0602 124.208 100.417 124.208 101.158 124.948L102.638 126.429C103.009 126.799 103.255 127.293 103.255 127.786C103.255 127.293 103.132 126.676 102.638 126.306L101.158 124.825C100.417 124.085 99.0602 124.085 98.3199 124.825L97.4562 125.689C96.3457 124.948 95.1119 124.455 93.7546 124.208V124.331Z" fill="#00E7FF"/>
<path d="M79.812 143.456C79.812 143.456 79.6887 143.456 79.812 143.456L78.9483 144.196C78.5782 144.567 78.3314 145.184 78.3314 145.677C78.3314 145.184 78.5782 144.69 78.9483 144.32L79.812 143.456Z" fill="#00E7FF"/>
<path d="M89.6829 121.123H91.6571C92.7676 121.123 93.6313 121.987 93.6313 123.098V122.974C93.6313 121.864 92.7676 121 91.6571 121H89.6829C88.5724 121 87.7087 121.864 87.7087 122.974V123.098C87.7087 121.987 88.5724 121.123 89.6829 121.123Z" fill="#00E7FF"/>
<path d="M101.775 143.456L102.638 144.443C103.009 144.813 103.255 145.307 103.255 145.8C103.255 145.307 103.132 144.69 102.638 144.32L101.775 143.456Z" fill="#00E7FF"/>
<path d="M104.489 133.709H103.255C102.885 132.475 102.392 131.241 101.775 130.13C102.515 131.241 103.009 132.475 103.255 133.832H104.489C105.6 133.832 106.463 134.696 106.463 135.806V135.683C106.463 134.572 105.6 133.709 104.489 133.709Z" fill="#00E7FF"/>
<path d="M78.9483 126.429L80.429 124.948C81.1693 124.208 82.5265 124.208 83.2668 124.948L84.1305 125.812C85.241 125.072 86.4749 124.578 87.8321 124.331V124.208C86.4749 124.578 85.241 125.072 84.1305 125.689L83.2668 124.825C82.5265 124.085 81.1693 124.085 80.429 124.825L78.9483 126.306C78.5782 126.676 78.3314 127.293 78.3314 127.786C78.3314 127.293 78.5782 126.799 78.9483 126.429Z" fill="#00E7FF"/>
<path d="M76.9742 133.832H78.208C78.5782 132.475 79.0717 131.241 79.6887 130.13C79.0717 131.241 78.5782 132.475 78.208 133.709H76.9742C75.8637 133.709 75 134.572 75 135.683V135.806C75 134.696 75.8637 133.832 76.9742 133.832Z" fill="#00E7FF"/>
<path d="M261.378 261.185H260.108C259.79 259.914 259.313 258.803 258.678 257.691L259.472 256.897C260.266 256.103 260.266 254.991 259.472 254.197L258.043 252.768C257.249 251.973 256.137 251.973 255.343 252.768L254.549 253.562C253.437 252.926 252.325 252.45 251.055 252.132V250.862C251.055 249.75 250.261 248.956 249.149 248.956H247.243C246.132 248.956 245.337 249.75 245.337 250.862V252.132C244.067 252.45 242.955 252.926 241.843 253.562L241.049 252.768C240.255 251.973 239.143 251.973 238.349 252.768L236.92 254.197C236.126 254.991 236.126 256.103 236.92 256.897L237.714 257.691C237.079 258.803 236.602 259.914 236.285 261.185H235.014C233.902 261.185 233.108 261.979 233.108 263.091V264.997C233.108 266.108 233.902 266.902 235.014 266.902H236.285C236.602 268.173 237.079 269.285 237.714 270.396L236.92 271.191C236.126 271.985 236.126 273.096 236.92 273.89L238.349 275.32C239.143 276.114 240.255 276.114 241.049 275.32L241.843 274.526C242.955 275.161 244.067 275.637 245.337 275.955V277.226C245.337 278.337 246.132 279.131 247.243 279.131H249.149C250.261 279.131 251.055 278.337 251.055 277.226V275.955C252.325 275.637 253.437 275.161 254.549 274.526L255.343 275.32C256.137 276.114 257.249 276.114 258.043 275.32L259.472 273.89C260.266 273.096 260.266 271.985 259.472 271.191L258.678 270.396C259.313 269.285 259.79 268.173 260.108 266.902H261.378C262.49 266.902 263.284 266.108 263.284 264.997V263.091C263.284 262.138 262.331 261.185 261.378 261.185ZM248.196 271.349C244.226 271.349 240.891 268.014 240.891 264.044C240.891 260.073 244.226 256.738 248.196 256.738C252.167 256.738 255.502 260.073 255.502 264.044C255.502 268.173 252.167 271.349 248.196 271.349Z" fill="#0032E9"/>
<path d="M259.949 261.344H258.837C258.519 260.073 258.043 258.962 257.408 258.009L258.202 257.215C258.837 256.579 258.837 255.309 258.202 254.673L256.931 253.403C256.296 252.768 255.025 252.768 254.39 253.403L253.596 254.197C252.643 253.562 251.372 253.085 250.261 252.768V251.656C250.261 250.703 249.467 249.909 248.514 249.909H246.449C245.496 249.909 244.702 250.703 244.702 251.656V252.768C243.431 253.085 242.32 253.562 241.367 254.197L240.573 253.403C239.937 252.768 238.667 252.768 238.032 253.403L236.761 254.673C236.126 255.309 236.126 256.579 236.761 257.215L237.555 258.009C236.92 258.962 236.443 260.232 236.126 261.344H235.014C234.061 261.344 233.267 262.138 233.267 263.091V264.997C233.267 265.95 234.061 266.744 235.014 266.744H236.126C236.443 268.014 236.92 269.126 237.555 270.079L236.761 270.873C236.126 271.508 236.126 272.779 236.761 273.414L238.032 274.685C238.667 275.32 239.937 275.32 240.573 274.685L241.367 273.891C242.32 274.526 243.59 275.002 244.702 275.32V276.432C244.702 277.385 245.496 278.179 246.449 278.179H248.355C249.308 278.179 250.102 277.385 250.102 276.432V275.32C251.372 275.002 252.484 274.526 253.437 273.891L254.231 274.685C254.866 275.32 256.137 275.32 256.772 274.685L258.043 273.414C258.678 272.779 258.678 271.508 258.043 270.873L257.249 270.079C257.884 269.126 258.36 267.855 258.678 266.744H259.79C260.743 266.744 261.537 265.95 261.537 264.997V263.091C261.696 262.138 260.902 261.344 259.949 261.344ZM247.402 271.032C243.59 271.032 240.414 267.855 240.414 264.044C240.414 260.232 243.59 257.056 247.402 257.056C251.214 257.056 254.39 260.232 254.39 264.044C254.39 268.014 251.214 271.032 247.402 271.032Z" fill="#DFF1FF"/>
<path d="M254.39 264.203C254.39 268.014 251.213 271.032 247.402 271.032C243.59 271.032 240.573 268.014 240.414 264.203C240.414 268.014 243.59 271.191 247.402 271.191C251.213 271.191 254.39 268.014 254.39 264.203Z" fill="white"/>
<path d="M250.102 252.927C251.372 253.244 252.484 253.721 253.437 254.356L254.231 253.562C254.866 252.927 256.137 252.927 256.772 253.562L258.043 254.832C258.36 255.15 258.519 255.626 258.519 256.103C258.519 255.626 258.36 255.15 258.043 254.832L256.772 253.562C256.137 252.927 254.866 252.927 254.231 253.562L253.437 254.356C252.484 253.562 251.372 253.085 250.102 252.927Z" fill="white"/>
<path d="M237.396 270.396C237.396 270.238 237.396 270.238 237.396 270.396L236.602 271.032C236.285 271.349 236.126 271.826 236.126 272.302C236.126 271.826 236.285 271.349 236.602 271.032L237.396 270.396Z" fill="white"/>
<path d="M246.449 249.909H248.355C249.308 249.909 250.102 250.703 250.102 251.656V251.497C250.102 250.544 249.308 249.75 248.355 249.75L246.449 249.909C245.496 249.75 244.702 250.544 244.702 251.656V251.815C244.702 250.703 245.496 249.909 246.449 249.909Z" fill="white"/>
<path d="M257.407 270.238L258.201 271.191C258.519 271.508 258.678 271.985 258.678 272.461C258.678 271.985 258.519 271.508 258.201 271.191L257.407 270.238Z" fill="white"/>
<path d="M259.949 261.344H258.837C258.519 260.232 258.043 259.12 257.566 258.009C258.202 258.962 258.678 260.232 258.996 261.344H259.949C260.902 261.503 261.696 262.297 261.696 263.25V263.091C261.696 262.138 260.902 261.344 259.949 261.344Z" fill="white"/>
<path d="M236.602 254.832L237.873 253.562C238.508 252.927 239.779 252.927 240.414 253.562L241.208 254.356C242.161 253.721 243.432 253.244 244.543 252.927V252.768C243.273 253.085 242.161 253.562 241.208 254.197L240.414 253.403C239.779 252.768 238.508 252.768 237.873 253.403L236.602 254.832C236.285 255.15 236.126 255.626 236.126 256.103C236.126 255.468 236.285 255.15 236.602 254.832Z" fill="white"/>
<path d="M234.855 261.503H235.967C236.285 260.232 236.761 259.12 237.396 258.167C236.761 259.12 236.285 260.232 236.126 261.503H234.855C233.902 261.344 233.108 262.138 233.108 263.25V263.408C233.108 262.297 233.902 261.503 234.855 261.503Z" fill="white"/>
<path d="M266.778 235.774C266.619 235.615 266.46 235.615 266.302 235.456C265.984 235.139 265.666 234.662 265.349 234.345C265.19 234.186 265.031 234.027 265.031 233.868C264.713 233.392 264.555 232.915 264.237 232.439C264.078 232.28 264.078 232.121 263.919 231.962C263.76 231.486 263.602 231.01 263.443 230.374C263.443 230.215 263.284 230.057 263.284 229.898C263.125 229.421 263.125 228.786 263.125 228.31C263.125 227.992 263.125 227.833 263.125 227.516C263.125 224.18 264.554 221.163 266.937 219.098V209.887C266.143 210.204 265.349 210.681 264.554 211.157L263.284 209.887C262.966 209.569 262.649 209.41 262.331 209.251C261.219 208.775 259.949 209.093 259.155 210.045L257.09 212.269C256.772 212.587 256.614 212.904 256.455 213.222V213.381C256.296 213.698 256.296 214.016 256.296 214.334C256.296 215.128 256.614 215.763 257.09 216.398L258.361 217.669V217.828C258.202 218.145 258.043 218.622 257.884 218.939C257.566 219.416 257.408 219.892 257.09 220.369C256.772 221.322 256.455 222.274 256.137 223.227H254.231C252.643 223.227 251.214 224.657 251.214 226.245V226.404V229.263C251.214 230.851 252.484 232.121 254.231 232.121H256.137C256.614 234.027 257.408 235.933 258.361 237.521L257.09 238.792C256.772 239.109 256.614 239.427 256.455 239.745V239.903C256.296 240.221 256.296 240.539 256.296 240.856C256.296 241.65 256.614 242.286 257.09 242.921L259.155 244.986C260.266 246.097 262.172 246.097 263.284 244.827L264.554 243.397C265.349 243.874 266.143 244.191 266.937 244.509V235.774H266.778Z" fill="#0032E9"/>
<path d="M458.387 327.994H456.799C456.322 326.247 455.687 324.658 454.734 323.07L455.846 321.958C456.958 320.847 456.958 319.259 455.846 318.147L453.94 316.241C452.828 315.129 451.24 315.129 450.128 316.241L449.017 317.353C447.587 316.4 445.84 315.765 444.093 315.288V313.7C444.093 312.271 442.982 311 441.393 311H438.693C437.264 311 435.994 312.112 435.994 313.7V315.288C434.247 315.765 432.658 316.4 431.07 317.353L429.958 316.241C428.847 315.129 427.259 315.129 426.147 316.241L424.241 318.147C423.129 319.259 423.129 320.847 424.241 321.958L425.353 323.07C424.4 324.5 423.765 326.247 423.288 327.994H421.7C420.271 327.994 419 329.105 419 330.693V333.393C419 334.823 420.112 336.093 421.7 336.093H423.288C423.765 337.84 424.4 339.429 425.353 341.017L424.241 342.128C423.129 343.24 423.129 344.828 424.241 345.94L426.147 347.846C427.259 348.958 428.847 348.958 429.958 347.846L431.07 346.734C432.5 347.687 434.247 348.322 435.994 348.799V350.387C435.994 351.816 437.105 353.087 438.693 353.087H441.393C442.823 353.087 444.093 351.975 444.093 350.387V348.799C445.84 348.322 447.429 347.687 449.017 346.734L450.128 347.846C451.24 348.958 452.828 348.958 453.94 347.846L455.846 345.94C456.958 344.828 456.958 343.24 455.846 342.128L454.734 341.017C455.687 339.587 456.322 337.84 456.799 336.093H458.387C459.816 336.093 461.087 334.982 461.087 333.393V330.693C461.087 329.264 459.975 327.994 458.387 327.994ZM440.282 342.128C434.723 342.128 430.117 337.682 430.117 331.964C430.117 326.247 434.564 321.8 440.282 321.8C445.84 321.8 450.446 326.247 450.446 331.964C450.446 337.682 445.84 342.128 440.282 342.128Z" fill="#00B4FF"/>
<path d="M450.287 332.282C450.287 332.123 450.287 332.123 450.287 332.282C450.287 337.682 445.681 342.129 440.123 342.129C434.564 342.129 430.117 337.682 430.117 332.123C430.117 332.123 430.117 332.123 430.117 332.282C430.117 337.84 434.564 342.446 440.282 342.446C445.84 342.287 450.287 337.84 450.287 332.282Z" fill="#36FDFF"/>
<path d="M444.252 315.606C445.999 316.082 447.587 316.717 449.175 317.67L450.287 316.559C451.399 315.447 452.987 315.447 454.099 316.559L456.005 318.464C456.481 318.941 456.799 319.576 456.799 320.211C456.799 319.576 456.64 318.782 456.005 318.306L454.099 316.4C452.987 315.288 451.399 315.288 450.287 316.4L449.175 317.512C447.746 316.559 445.999 315.923 444.252 315.447V315.606Z" fill="#36FDFF"/>
<path d="M425.67 341.017L424.559 341.97C424.082 342.446 423.765 343.24 423.765 343.875C423.765 343.24 424.082 342.605 424.559 342.128L425.67 341.017Z" fill="#36FDFF"/>
<path d="M438.852 311.318H441.552C442.982 311.318 444.252 312.429 444.252 314.018V313.859C444.252 312.429 443.14 311.159 441.552 311.159H438.852C437.423 311.159 436.152 312.271 436.152 313.859V314.018C436.311 312.588 437.423 311.318 438.852 311.318Z" fill="#36FDFF"/>
<path d="M454.893 341.017C454.893 341.017 454.734 341.017 454.893 341.017L456.005 342.287C456.481 342.764 456.799 343.399 456.799 344.034C456.799 343.399 456.64 342.605 456.005 342.128L454.893 341.017Z" fill="#36FDFF"/>
<path d="M458.387 327.994H456.799C456.322 326.247 455.687 324.658 454.893 323.229C455.846 324.658 456.481 326.405 456.958 328.152H458.546C459.975 328.152 461.246 329.264 461.246 330.852V330.693C461.087 329.264 459.975 327.994 458.387 327.994Z" fill="#36FDFF"/>
<path d="M424.559 318.464L426.464 316.559C427.576 315.447 429.164 315.447 430.276 316.559L431.388 317.67C432.817 316.717 434.564 316.082 436.311 315.606V315.447C434.564 315.923 432.976 316.559 431.388 317.512L430.276 316.4C429.164 315.288 427.576 315.288 426.464 316.4L424.559 318.306C424.082 318.782 423.765 319.576 423.765 320.211C423.765 319.576 424.082 318.941 424.559 318.464Z" fill="#36FDFF"/>
<path d="M422.018 328.152H423.606C424.082 326.405 424.717 324.817 425.67 323.229C424.717 324.658 424.082 326.247 423.765 327.994H422.176C420.747 327.994 419.476 329.105 419.476 330.693V330.852C419.476 329.423 420.588 328.152 422.018 328.152Z" fill="#36FDFF"/>
<path d="M187.883 345.985H83.0623C72.5802 345.985 64.004 337.409 64.004 326.927V222.265C64.004 211.783 72.5802 203.207 83.0623 203.207H187.724C198.206 203.207 206.782 211.783 206.782 222.265V326.927C206.941 337.409 198.365 345.985 187.883 345.985Z" fill="#3964F9"/>
<path d="M150.084 314.857C145.478 317.239 140.554 318.351 135.472 318.351C128.643 318.351 122.131 316.286 116.732 312.157C115.779 311.363 114.349 311.68 113.555 312.633C112.761 313.586 113.079 315.015 114.032 315.651C120.226 320.256 127.69 322.639 135.472 322.639C141.19 322.639 147.066 321.209 152.148 318.509C153.26 317.874 153.736 316.604 153.101 315.492C152.466 314.698 151.195 314.221 150.084 314.857Z" fill="#0075FF"/>
<path d="M102.597 251.17C101.962 251.012 101.485 251.17 100.85 251.488C100.373 251.806 100.056 252.282 99.8969 252.917C99.2616 255.458 99.1028 258.158 99.1028 260.699V270.546C99.1028 271.817 100.056 272.77 101.326 272.77C102.597 272.77 103.55 271.817 103.55 270.546V260.699C103.55 258.317 103.867 256.094 104.344 253.87C104.503 253.235 104.344 252.759 104.026 252.123C103.709 251.647 103.232 251.329 102.597 251.17Z" fill="#0075FF"/>
<path d="M101.326 274.834C100.056 274.834 99.1028 275.787 99.1028 277.058V286.428C99.1028 287.699 100.056 288.651 101.326 288.651C102.597 288.651 103.55 287.699 103.55 286.428V277.058C103.55 275.946 102.597 274.834 101.326 274.834Z" fill="#0075FF"/>
<path d="M169.618 284.205C168.348 284.205 167.395 285.157 167.395 286.428C167.395 296.275 162.948 305.486 155.007 311.68C154.054 312.474 153.895 313.904 154.689 314.857C155.166 315.333 155.801 315.651 156.436 315.651C156.913 315.651 157.389 315.492 157.866 315.174C166.759 308.186 172 297.704 172 286.428C171.842 285.316 170.889 284.205 169.618 284.205Z" fill="#0075FF"/>
<path d="M135.472 224.33C122.926 224.33 111.332 230.683 104.661 241.324C104.344 241.8 104.185 242.435 104.344 243.071C104.503 243.706 104.82 244.182 105.297 244.5C106.25 245.135 107.679 244.818 108.314 243.865C114.191 234.494 124.355 228.936 135.313 228.936C152.942 228.936 167.236 243.229 167.236 260.858V276.105C167.236 277.375 168.189 278.328 169.459 278.328C170.73 278.328 171.683 277.375 171.683 276.105V260.858C171.842 240.688 155.483 224.33 135.472 224.33Z" fill="#0075FF"/>
<path d="M159.136 268.64C162.471 268.64 165.171 265.94 165.171 262.605C165.171 246.247 151.831 232.747 135.313 232.747C118.796 232.747 105.456 246.088 105.456 262.605V283.728C105.456 300.086 118.796 313.586 135.313 313.586C151.831 313.586 165.171 300.245 165.171 283.728C165.171 280.393 162.471 277.693 159.136 277.693C155.801 277.693 153.101 280.393 153.101 283.728C153.101 284.999 154.054 285.952 155.325 285.952C156.595 285.952 157.548 284.999 157.548 283.728C157.548 282.775 158.342 281.981 159.295 281.981C160.248 281.981 161.042 282.775 161.042 283.728C161.042 297.704 149.607 309.139 135.631 309.139C121.655 309.139 110.22 297.704 110.22 283.728V262.605C110.22 248.629 121.655 237.194 135.631 237.194C149.607 237.194 161.042 248.629 161.042 262.605C161.042 263.558 160.248 264.352 159.295 264.352C158.342 264.352 157.548 263.558 157.548 262.605C157.548 250.535 147.701 240.529 135.472 240.529C123.402 240.529 113.396 250.376 113.396 262.605V283.728C113.396 295.798 123.243 305.804 135.472 305.804C136.743 305.804 137.696 304.851 137.696 303.58C137.696 302.31 136.743 301.357 135.472 301.357C125.784 301.357 117.843 293.416 117.843 283.728V262.605C117.843 252.917 125.784 244.976 135.472 244.976C145.16 244.976 153.101 252.917 153.101 262.605C153.101 265.94 155.801 268.64 159.136 268.64Z" fill="#0075FF"/>
<path d="M131.819 265.94C130.549 265.94 129.596 266.893 129.596 268.164V278.011C129.596 281.028 129.596 287.222 135.313 287.699H135.472C136.584 287.699 137.537 286.746 137.696 285.634C137.696 284.999 137.537 284.522 137.219 284.046C136.902 283.569 136.266 283.252 135.631 283.252C134.837 283.252 133.884 283.093 133.884 278.011V268.164C133.884 266.893 132.931 265.94 131.819 265.94Z" fill="#0075FF"/>
<path d="M141.19 281.981C142.46 281.981 143.413 281.028 143.413 279.758V269.911C143.413 265.464 142.937 261.652 138.013 260.382C136.902 260.064 135.631 260.699 135.313 261.97C134.996 263.082 135.631 264.352 136.902 264.67C138.331 264.988 138.966 265.305 138.966 269.911V279.758C138.966 281.028 139.919 281.981 141.19 281.981Z" fill="#0075FF"/>
<path d="M139.919 300.563C138.807 301.039 138.331 302.31 138.807 303.422C139.125 304.216 139.919 304.692 140.872 304.692C141.19 304.692 141.507 304.692 141.825 304.533C142.301 304.375 152.148 299.769 152.148 286.428V264.352C152.148 264.193 151.195 249.582 136.266 249.582C126.578 249.582 121.179 256.094 121.179 267.687C121.179 268.799 121.179 269.752 121.179 271.023C121.179 273.564 121.179 276.423 121.179 280.711C121.337 287.222 123.402 291.351 128.325 294.21C132.296 296.592 136.743 296.751 140.554 294.687C143.254 293.257 145.001 290.875 145.001 288.652C145.001 287.381 144.048 286.428 142.937 286.428C142.301 286.428 141.825 286.587 141.349 286.905C140.872 287.381 140.713 287.857 140.554 288.493C140.554 288.969 139.919 290.081 138.331 290.875C135.949 292.146 132.931 291.987 130.39 290.557C126.896 288.493 125.467 285.793 125.467 280.711C125.308 276.581 125.467 273.723 125.467 271.181C125.467 270.07 125.467 268.958 125.467 267.687C125.467 262.605 126.896 254.029 136.108 254.029C146.59 254.029 147.542 263.399 147.542 264.511V286.428C147.701 296.91 140.237 300.404 139.919 300.563Z" fill="#0075FF"/>
<path d="M135.472 322.48C127.849 322.48 120.543 320.098 114.508 315.651C113.873 315.174 113.714 314.221 114.191 313.427C114.667 312.792 115.62 312.633 116.414 313.11C121.973 317.239 128.643 319.304 135.631 319.304C140.872 319.304 145.954 318.033 150.56 315.651C151.354 315.333 152.307 315.492 152.625 316.286C152.942 317.08 152.784 318.033 151.989 318.351C146.748 321.051 141.19 322.48 135.472 322.48ZM156.436 315.333C155.96 315.333 155.483 315.174 155.166 314.698C154.689 314.063 154.689 313.11 155.483 312.474C163.583 306.28 168.189 296.91 168.189 286.746C168.189 285.952 168.824 285.158 169.777 285.158C170.571 285.158 171.365 285.793 171.365 286.746C171.365 297.863 166.283 308.027 157.548 314.857C157.072 315.174 156.754 315.333 156.436 315.333ZM101.326 288.334C100.532 288.334 99.7382 287.699 99.7382 286.746V277.375C99.7382 276.581 100.373 275.787 101.326 275.787C102.12 275.787 102.915 276.423 102.915 277.375V286.746C102.915 287.54 102.12 288.334 101.326 288.334ZM169.618 277.852C168.824 277.852 168.03 277.217 168.03 276.264V261.017C168.03 243.071 153.419 228.459 135.472 228.459C124.196 228.459 113.873 234.177 107.838 243.706C107.361 244.5 106.409 244.659 105.773 244.182C104.979 243.706 104.82 242.753 105.297 242.118C111.967 231.636 123.243 225.442 135.472 225.442C155.166 225.442 171.207 241.482 171.207 261.176V276.423C171.207 277.058 170.412 277.852 169.618 277.852ZM101.326 272.452C100.532 272.452 99.7382 271.817 99.7382 270.864V261.017C99.7382 258.476 100.056 255.776 100.532 253.235C100.691 252.441 101.485 251.806 102.438 252.123C103.232 252.282 103.867 253.076 103.55 254.029C103.073 256.411 102.756 258.635 102.756 261.017V270.864C102.915 271.658 102.12 272.452 101.326 272.452Z" fill="#00BFFF"/>
<path d="M135.472 312.951C119.432 312.951 106.408 299.928 106.408 283.887V262.764C106.408 246.723 119.432 233.7 135.472 233.7C151.513 233.7 164.536 246.723 164.536 262.764C164.536 265.782 162.154 268.164 159.136 268.164C156.119 268.164 153.736 265.782 153.736 262.764C153.736 252.759 145.478 244.5 135.472 244.5C125.467 244.5 117.208 252.759 117.208 262.764V283.887C117.208 293.893 125.467 302.151 135.472 302.151C136.266 302.151 137.06 302.786 137.06 303.739C137.06 304.692 136.425 305.328 135.472 305.328C123.72 305.328 114.191 295.798 114.191 284.046V262.764C114.191 251.012 123.72 241.482 135.472 241.482C147.225 241.482 156.754 251.012 156.754 262.764C156.754 264.035 157.866 265.146 159.136 265.146C160.407 265.146 161.519 264.035 161.519 262.764C161.519 248.47 149.925 236.718 135.472 236.718C121.179 236.718 109.426 248.312 109.426 262.764V283.887C109.426 298.181 121.02 309.933 135.472 309.933C149.766 309.933 161.519 298.34 161.519 283.887C161.519 282.616 160.407 281.505 159.136 281.505C157.866 281.505 156.754 282.616 156.754 283.887C156.754 284.681 156.119 285.475 155.166 285.475C154.372 285.475 153.578 284.84 153.578 283.887C153.578 280.869 155.96 278.487 158.977 278.487C161.995 278.487 164.377 280.869 164.377 283.887C164.536 299.928 151.513 312.951 135.472 312.951Z" fill="#00BFFF"/>
<path d="M135.472 287.381C130.231 286.905 130.231 281.346 130.231 278.487V268.64C130.231 267.846 130.867 267.052 131.82 267.052C132.772 267.052 133.408 267.688 133.408 268.64V278.487C133.408 283.728 134.361 284.205 135.79 284.363C136.584 284.363 137.219 285.158 137.219 285.952C136.902 286.746 136.266 287.381 135.472 287.381Z" fill="#00BFFF"/>
<path d="M141.19 281.664C140.396 281.664 139.602 281.028 139.602 280.075V270.229C139.602 265.464 138.966 264.829 137.061 264.352C136.267 264.193 135.79 263.241 135.949 262.446C136.108 261.652 137.061 261.176 137.855 261.335C142.302 262.605 142.778 265.94 142.778 270.229V280.075C142.619 281.028 141.984 281.664 141.19 281.664Z" fill="#00BFFF"/>
<path d="M140.872 304.375C140.237 304.375 139.76 304.057 139.443 303.422C139.125 302.628 139.443 301.675 140.237 301.357C140.554 301.198 148.337 297.545 148.337 286.587V264.67C148.337 264.352 147.542 253.553 136.108 253.553C126.261 253.553 124.673 262.446 124.673 267.846C124.673 268.958 124.673 270.07 124.673 271.34C124.673 273.881 124.673 276.581 124.673 280.869C124.831 286.11 126.261 288.969 129.914 291.193C132.614 292.781 135.79 292.94 138.49 291.51C140.237 290.557 141.031 289.446 141.031 288.652C141.031 287.857 141.825 287.063 142.619 287.222C143.413 287.222 144.207 288.016 144.048 288.81C143.89 290.875 142.46 292.94 139.919 294.369C136.266 296.275 131.978 296.116 128.325 293.893C123.72 291.193 121.655 287.222 121.496 281.028C121.337 276.74 121.496 273.881 121.496 271.34C121.496 270.229 121.496 269.117 121.496 268.005C121.496 256.888 126.737 250.694 135.949 250.694C150.242 250.694 151.195 264.67 151.195 264.829V286.904C151.195 299.769 141.666 304.216 141.19 304.533C141.349 304.375 141.19 304.375 140.872 304.375Z" fill="#00BFFF"/>
<path d="M233.463 75.0406H231.081C230.446 72.4995 229.493 70.1172 228.222 67.8937L229.969 66.1467C231.399 64.7174 231.399 62.1763 229.969 60.7469L227.269 58.047C225.84 56.6176 223.299 56.6176 221.87 58.047L220.123 59.794C217.899 58.5234 215.517 57.4117 212.976 56.9353V54.553C212.976 52.4883 211.229 50.7413 209.164 50.7413H205.194C203.129 50.7413 201.382 52.4883 201.382 54.553V56.9353C198.841 57.5705 196.459 58.5234 194.235 59.794L192.488 58.047C191.059 56.6176 188.518 56.6176 187.088 58.047L184.388 60.7469C182.959 62.1763 182.959 64.7174 184.388 66.1467L186.135 67.8937C184.865 70.1172 183.753 72.4995 183.277 75.0406H180.894C178.83 75.0406 177.083 76.7876 177.083 78.8522V82.8227C177.083 84.8873 178.83 86.6343 180.894 86.6343H183.277C183.912 89.1754 184.865 91.5577 186.135 93.7812L184.388 95.5282C182.959 96.9576 182.959 99.4986 184.388 100.928L187.088 103.628C188.518 105.057 191.059 105.057 192.488 103.628L194.235 101.881C196.459 103.151 198.841 104.263 201.382 104.74V107.122C201.382 109.187 203.129 110.934 205.194 110.934H209.164C211.229 110.934 212.976 109.187 212.976 107.122V104.74C215.517 104.104 217.899 103.151 220.123 101.881L221.87 103.628C223.299 105.057 225.84 105.057 227.269 103.628L229.969 100.928C231.399 99.4986 231.399 96.9576 229.969 95.5282L228.222 93.7812C229.493 91.5577 230.605 89.1754 231.081 86.6343H233.463C235.528 86.6343 237.275 84.8873 237.275 82.8227V78.8522C237.434 76.7876 235.687 75.0406 233.463 75.0406ZM207.099 95.5282C199 95.5282 192.488 89.0166 192.488 80.9169C192.488 72.8171 199 66.3056 207.099 66.3056C215.199 66.3056 221.711 72.8171 221.711 80.9169C221.711 89.0166 215.199 95.5282 207.099 95.5282Z" fill="#00BFFF"/>
<path d="M215.358 92.987C212.976 94.5752 210.117 95.5281 207.099 95.5281C199 95.5281 192.488 89.0165 192.488 80.9168C192.488 77.8992 193.441 75.0405 195.029 72.6582L183.912 61.5409C182.959 62.9703 182.959 65.0349 184.388 66.3055L186.135 68.0525C184.865 70.2759 183.753 72.6582 183.277 75.1993H180.894C178.83 75.1993 177.083 76.9463 177.083 79.0109V82.9814C177.083 85.046 178.83 86.7931 180.894 86.7931H183.277C183.912 89.3342 184.865 91.7164 186.135 93.9399L184.388 95.6869C182.959 97.1163 182.959 99.6574 184.388 101.087L187.088 103.787C188.518 105.216 191.059 105.216 192.488 103.787L194.235 102.04C196.459 103.31 198.841 104.422 201.382 104.898V107.281C201.382 109.345 203.129 111.092 205.194 111.092H209.164C211.229 111.092 212.976 109.345 212.976 107.281V104.898C215.517 104.263 217.899 103.31 220.123 102.04L221.87 103.787C223.14 105.057 225.205 105.216 226.634 104.263L215.358 92.987Z" fill="url(#paint0_linear)"/>
<path d="M221.711 81.2345C221.711 81.0757 221.711 81.0757 221.711 81.2345C221.711 89.1754 215.041 95.687 207.1 95.687C199 95.687 192.488 89.1754 192.488 81.2345V81.3933C192.488 89.493 199 96.0046 207.1 96.0046C215.199 95.8458 221.711 89.1754 221.711 81.2345Z" fill="#00E7FF"/>
<path d="M212.976 57.094C215.517 57.7293 217.899 58.6822 220.123 59.9527L221.87 58.2057C223.299 56.7764 225.84 56.7764 227.27 58.2057L229.97 60.9057C230.764 61.6997 231.081 62.4938 231.081 63.4468C231.081 62.4938 230.764 61.3821 229.97 60.588L227.27 57.8881C225.84 56.4587 223.299 56.4587 221.87 57.8881L220.123 59.6351C217.899 58.3646 215.517 57.2528 212.976 56.7764V57.094Z" fill="#00E7FF"/>
<path d="M185.977 94.0987C185.977 93.9399 185.977 93.9399 185.977 94.0987L184.23 95.5281C183.436 96.3222 183.118 97.2751 183.118 98.3868C183.118 97.4339 183.436 96.481 184.23 95.8457L185.977 94.0987Z" fill="#00E7FF"/>
<path d="M205.194 50.9H209.164C211.229 50.9 212.976 52.647 212.976 54.7117V54.394C212.976 52.3294 211.229 50.5824 209.164 50.5824H205.194C203.129 50.5824 201.382 52.3294 201.382 54.394V54.7117C201.382 52.647 202.97 50.9 205.194 50.9Z" fill="#00E7FF"/>
<path d="M228.223 93.9399L229.811 95.8458C230.605 96.6399 230.922 97.4339 230.922 98.3869C230.922 97.4339 230.605 96.3222 229.811 95.5281L228.223 93.9399Z" fill="#00E7FF"/>
<path d="M233.464 75.0405H231.081C230.446 72.4994 229.493 70.276 228.223 68.0525L228.064 68.2113C229.334 70.4348 230.446 72.817 230.922 75.3581H233.305C235.369 75.3581 237.116 77.1052 237.116 79.1698V78.8522C237.434 76.7875 235.687 75.0405 233.464 75.0405Z" fill="#00E7FF"/>
<path d="M184.388 61.2233L187.088 58.5234C188.518 57.094 191.059 57.094 192.488 58.5234L194.235 60.2704C196.459 58.9998 198.841 57.8881 201.382 57.4116V57.094C198.841 57.7293 196.459 58.6822 194.235 59.9527L192.488 58.2057C191.059 56.7764 188.518 56.7764 187.088 58.2057L184.388 60.9056C183.594 61.6997 183.277 62.6526 183.277 63.7644C183.277 62.8115 183.594 61.8586 184.388 61.2233Z" fill="#00E7FF"/>
<path d="M180.736 75.3581H183.118C183.753 72.817 184.706 70.4348 185.977 68.2113L185.818 68.0525C184.547 70.1171 183.594 72.4994 182.959 75.0405H180.577C178.512 75.0405 176.765 76.7875 176.765 78.8522V79.1698C176.924 77.1052 178.512 75.3581 180.736 75.3581Z" fill="#00E7FF"/>
<path d="M148.495 78.3757C159.46 78.3757 168.348 69.4875 168.348 58.5233C168.348 47.5592 159.46 38.671 148.495 38.671C137.531 38.671 128.643 47.5592 128.643 58.5233C128.643 69.4875 137.531 78.3757 148.495 78.3757Z" fill="#3964F9"/>
<path d="M134.996 45.0237C142.619 37.4004 155.166 37.2416 162.948 44.8649C162.789 44.7061 162.789 44.7061 162.789 44.5473C155.007 36.7652 142.46 36.7652 134.678 44.5473C126.896 52.3294 126.896 64.8761 134.678 72.6582C134.837 72.817 134.837 72.817 134.996 72.817C127.214 65.0349 127.214 52.647 134.996 45.0237Z" fill="#0080FF"/>
<path d="M169.215 51.0434L141.028 79.2308L206.162 144.365L234.349 116.178L169.215 51.0434Z" fill="#3964F9"/>
<path opacity="0.65" d="M187.088 69.0054C186.771 69.323 186.453 69.7995 186.453 70.4347L186.294 71.7053C185.024 72.0229 183.753 72.4994 182.641 73.1347L181.847 72.3406C181.212 71.5465 179.941 71.5465 179.147 72.3406L177.559 73.7699C177.4 73.9287 177.242 74.2464 177.083 74.4052V74.564C176.924 74.7228 176.924 75.0405 176.924 75.1993C176.924 75.6758 177.083 76.1522 177.4 76.4698L178.194 77.2639C178.194 77.2639 178.194 77.2639 178.194 77.4228C178.036 77.5816 177.877 77.8992 177.718 78.058C177.559 78.3757 177.242 78.6933 177.083 79.0109C176.765 79.6462 176.606 80.1227 176.289 80.758H175.018C173.906 80.758 172.953 81.552 172.953 82.6638V82.8226L172.795 84.5696C172.636 85.6813 173.43 86.4754 174.542 86.4754H175.812C175.971 87.746 176.447 88.8577 176.924 89.9694L175.971 90.7635C175.812 90.9223 175.653 91.24 175.495 91.3988V91.5576C175.336 91.7164 175.336 92.0341 175.336 92.1929C175.336 92.6693 175.495 93.1458 175.812 93.4634L177.083 94.8928C177.718 95.6869 178.989 95.6869 179.783 94.8928L180.736 94.0987C181.688 94.734 182.959 95.2104 184.23 95.5281L184.071 96.7986C183.912 97.9104 184.706 98.7045 185.818 98.7045H187.724C188.835 98.7045 189.788 97.9104 189.788 96.7986L189.947 95.5281C191.218 95.2104 192.488 94.734 193.6 94.0987L194.394 94.8928C195.029 95.6869 196.3 95.6869 197.094 94.8928L198.682 93.4634C199.159 93.1458 199.317 92.6693 199.317 92.1929C199.317 92.0341 199.317 91.7164 199.317 91.5576V91.3988C199.317 91.24 199.159 90.9223 199 90.7635L198.206 89.9694C199 88.8577 199.635 87.746 199.953 86.4754H201.223C202.017 86.4754 202.811 85.8401 203.129 85.2049L187.088 69.0054ZM195.347 83.7755C195.347 84.0931 195.188 84.4108 195.188 84.8872C195.188 85.0461 195.029 85.0461 195.029 85.2049C194.87 85.5225 194.712 85.8401 194.553 86.1578C194.553 86.3166 194.394 86.3166 194.394 86.4754C194.235 86.7931 194.076 87.1107 193.759 87.4283C193.6 87.5871 193.6 87.5871 193.441 87.746C193.282 88.0636 192.965 88.2224 192.806 88.5401C192.647 88.6989 192.488 88.6989 192.329 88.8577C192.012 89.0165 191.853 89.1753 191.535 89.493C191.376 89.6518 191.059 89.6518 190.9 89.8106C190.741 89.9694 190.424 90.1282 190.265 90.1282C189.947 90.2871 189.629 90.2871 189.471 90.4459C189.312 90.4459 189.153 90.6047 188.835 90.6047C188.359 90.7635 187.882 90.7635 187.406 90.7635C186.93 90.7635 186.453 90.7635 185.977 90.6047C185.818 90.6047 185.659 90.4459 185.5 90.4459C185.183 90.4459 185.024 90.2871 184.706 90.1282C184.547 89.9694 184.23 89.8106 184.071 89.8106C183.912 89.6518 183.753 89.6518 183.594 89.493C183.277 89.3342 183.118 89.1753 182.959 88.8577C182.8 88.6989 182.8 88.6989 182.641 88.5401C182.483 88.3812 182.165 88.0636 182.006 87.746C182.006 87.5871 181.847 87.5871 181.847 87.4283C181.688 87.1107 181.53 86.7931 181.371 86.4754C181.371 86.3166 181.212 86.3166 181.212 86.1578C181.053 85.8401 181.053 85.5225 181.053 85.2049C181.053 85.0461 181.053 85.0461 181.053 84.8872C181.053 84.5696 181.053 84.252 181.053 83.7755C181.053 83.6167 181.053 83.4579 181.053 83.299C181.371 79.3286 185.024 75.9934 189.153 75.9934C193.282 75.9934 196.141 79.1698 195.823 83.299C195.347 83.4579 195.347 83.6167 195.347 83.7755Z" fill="#005DD4"/>
<path d="M240.769 148.415L238.387 150.797C237.593 151.591 236.481 151.591 235.687 150.797L227.111 142.221C226.316 141.427 226.316 140.315 227.111 139.521L229.493 137.139C230.287 136.344 231.399 136.344 232.193 137.139L240.769 145.715C241.563 146.509 241.563 147.621 240.769 148.415Z" fill="#000A6F"/>
<path d="M227.905 146.668L206.147 144.285L234.257 116.175L236.799 137.615C237.434 142.856 232.987 147.303 227.905 146.668Z" fill="#002CAB"/>
<path d="M162.431 44.1813L134.244 72.3688L140.982 79.1068L169.169 50.9194L162.431 44.1813Z" fill="#002CAB"/>
<path d="M162.387 44.1791L134.2 72.3665L134.649 72.8157L162.836 44.6283L162.387 44.1791Z" fill="#0097FF"/>
<path d="M169.125 51.0706L140.937 79.2581L141.387 79.7073L169.574 51.5198L169.125 51.0706Z" fill="#0097FF"/>
<path d="M233.766 115.701L205.578 143.889L206.028 144.338L234.215 116.15L233.766 115.701Z" fill="#0097FF"/>
<path d="M199.953 80.1227H198.682C198.364 78.8522 197.888 77.5816 197.253 76.6287L198.047 75.8346C198.841 75.0405 198.841 73.9288 198.047 73.1347L196.617 71.7053C195.823 70.9112 194.712 70.9112 193.917 71.7053L193.123 72.4994C192.012 71.8641 190.9 71.3877 189.629 71.07V69.7995C189.629 68.6878 188.835 67.8937 187.724 67.8937H185.818C184.706 67.8937 183.912 68.6878 183.912 69.7995V71.07C182.641 71.3877 181.371 71.8641 180.418 72.4994L179.624 71.7053C178.83 70.9112 177.718 70.9112 176.924 71.7053L175.495 73.1347C174.7 73.9288 174.7 75.0405 175.495 75.8346L176.289 76.6287C175.653 77.7404 175.177 78.8522 174.859 80.1227H173.589C172.477 80.1227 171.683 80.9168 171.683 82.0285V83.9344C171.683 85.0461 172.477 85.8402 173.589 85.8402H174.859C175.177 87.1107 175.653 88.3813 176.289 89.3342L175.495 90.1283C174.7 90.9224 174.7 92.0341 175.495 92.8282L176.924 94.2576C177.718 95.0517 178.83 95.0517 179.624 94.2576L180.418 93.4635C181.53 94.0988 182.641 94.5752 183.912 94.8928V96.1634C183.912 97.2751 184.706 98.0692 185.818 98.0692H187.724C188.835 98.0692 189.629 97.2751 189.629 96.1634V94.8928C190.9 94.5752 192.17 94.0988 193.123 93.4635L193.917 94.2576C194.712 95.0517 195.823 95.0517 196.617 94.2576L198.047 92.8282C198.841 92.0341 198.841 90.9224 198.047 90.1283L197.253 89.3342C197.888 88.2225 198.364 87.1107 198.682 85.8402H199.953C201.064 85.8402 201.858 85.0461 201.858 83.9344V82.0285C201.858 81.0756 200.905 80.1227 199.953 80.1227ZM186.612 90.4459C182.483 90.4459 179.306 87.1107 179.306 83.1403C179.306 79.011 182.641 75.8346 186.612 75.8346C190.741 75.8346 193.917 79.1698 193.917 83.1403C193.917 87.1107 190.741 90.4459 186.612 90.4459Z" fill="#DFF1FF"/>
<path d="M193.918 83.299C193.918 83.1402 193.918 83.1402 193.918 83.299C193.918 87.2695 190.582 90.6047 186.612 90.6047C182.641 90.6047 179.306 87.2695 179.306 83.299C179.306 87.4283 182.641 90.6047 186.612 90.6047C190.741 90.6047 193.918 87.2695 193.918 83.299Z" fill="white"/>
<path d="M189.471 71.07C190.741 71.3877 192.012 71.8641 192.965 72.4994L193.759 71.7053C194.553 70.9112 195.665 70.9112 196.459 71.7053L197.888 73.1347C198.206 73.4523 198.365 73.9288 198.523 74.4052C198.523 73.9288 198.365 73.2935 197.888 72.9759L196.459 71.5465C195.665 70.7524 194.553 70.7524 193.759 71.5465L192.965 72.3406C192.012 71.8641 190.741 71.3877 189.471 71.07Z" fill="white"/>
<path d="M175.971 89.6519L175.177 90.4459C174.859 90.7636 174.542 91.3989 174.542 91.8753C174.542 91.3989 174.7 90.9224 175.177 90.6048L175.971 89.6519Z" fill="white"/>
<path d="M185.659 68.0525H187.565C188.677 68.0525 189.471 68.8466 189.471 69.9583V69.7995C189.471 68.6878 188.677 67.8937 187.565 67.8937L185.659 68.0525C184.547 67.8937 183.753 68.8466 183.753 69.7995V69.9583C183.753 68.8466 184.547 68.0525 185.659 68.0525Z" fill="white"/>
<path d="M197.253 89.6519L198.047 90.6048C198.365 90.9224 198.523 91.3989 198.682 91.8753C198.682 91.3989 198.523 90.7636 198.047 90.4459L197.253 89.6519Z" fill="white"/>
<path d="M199.953 80.1227H198.682C198.365 78.8521 197.888 77.7404 197.253 76.6287C197.888 77.7404 198.365 78.8521 198.682 80.1227H199.953C201.064 80.2815 201.859 81.0756 201.859 82.1873V82.0285C201.859 81.0756 200.906 80.1227 199.953 80.1227Z" fill="white"/>
<path d="M175.177 73.1347L176.606 71.7053C177.4 70.9113 178.512 70.9113 179.306 71.7053L180.1 72.4994C181.212 71.8642 182.324 71.3877 183.594 71.0701V70.9113C182.324 71.2289 181.053 71.7053 180.1 72.3406L179.306 71.5465C178.512 70.7524 177.4 70.7524 176.606 71.5465L175.177 73.1347C174.859 73.4523 174.542 73.9288 174.542 74.4053C174.542 73.9288 174.7 73.4523 175.177 73.1347Z" fill="white"/>
<path d="M173.271 80.2815H174.542C174.859 79.0109 175.336 77.7404 175.971 76.7875C175.336 77.8992 174.859 79.0109 174.542 80.2815H173.271C172.159 80.1227 171.365 81.0756 171.365 82.0285V82.1873C171.365 81.2344 172.159 80.2815 173.271 80.2815Z" fill="white"/>
</g>
<defs>
<linearGradient id="paint0_linear" x1="176.85" y1="86.3679" x2="226.468" y2="86.3679" gradientUnits="userSpaceOnUse">
<stop stop-color="#F1FFFF"/>
<stop offset="0.1687" stop-color="#EEFEFF"/>
<stop offset="0.3025" stop-color="#E4FBFF"/>
<stop offset="0.4244" stop-color="#D3F5FF"/>
<stop offset="0.5392" stop-color="#BBEEFF"/>
<stop offset="0.6491" stop-color="#9DE4FF"/>
<stop offset="0.7551" stop-color="#77D8FF"/>
<stop offset="0.8583" stop-color="#4BCAFF"/>
<stop offset="0.9565" stop-color="#19BAFF"/>
<stop offset="1" stop-color="#00B2FF"/>
</linearGradient>
<clipPath id="clip0">
<rect width="570" height="390" fill="white"/>
</clipPath>
</defs>
</svg>
