<svg width="570" height="504" viewBox="0 0 570 504" fill="none" xmlns="http://www.w3.org/2000/svg">
<path d="M271.545 317.395H226.515V325.333H271.545C273.735 325.333 275.514 323.554 275.514 321.364C275.514 319.174 273.735 317.395 271.545 317.395Z" fill="white"/>
<path d="M249.372 281.536H203.932L204.48 300.013L190.109 317.395H234.18L248.551 302.887C250.193 301.245 251.015 298.918 250.741 296.728L249.372 281.536Z" fill="#8AA5F8"/>
<path d="M203.932 281.536L204.069 288.106H250.056L249.372 281.536H203.932Z" fill="#2D5DEA"/>
<path d="M228.158 317.395H190.793L205.301 302.887C206.943 301.245 207.764 298.918 207.491 296.728L205.985 281.536H198.047L199.689 297.276L185.044 311.921C183.128 313.837 182.17 316.574 182.718 319.175C183.539 322.87 186.687 325.334 190.245 325.334H228.158C230.348 325.334 232.127 323.554 232.127 321.365C232.127 319.175 230.348 317.395 228.158 317.395Z" fill="#D9E2FF"/>
<path d="M329.44 136.32C328.892 129.476 323.144 124.139 316.163 124.139H111.136C103.335 124.139 97.1757 130.845 97.86 138.647L109.22 269.492C109.768 276.335 115.516 281.673 122.496 281.673H327.66C335.462 281.673 341.621 274.966 340.936 267.165L329.44 136.32Z" fill="#D9E2FF"/>
<path d="M335.872 136.32C335.872 135.909 335.736 135.362 335.736 134.951C334.641 128.792 329.166 124.139 322.733 124.139H117.569C109.768 124.139 103.608 130.845 104.293 138.647L115.653 269.492C116.2 276.335 121.949 281.673 128.929 281.673H333.956C341.758 281.673 347.917 274.966 347.232 267.165L335.872 136.32Z" fill="#8AA5F8"/>
<path d="M328.618 144.806L327.934 137.141C327.66 134.404 325.47 132.214 322.596 132.214H117.569C115.516 132.214 114.284 133.309 113.6 133.993C113.052 134.678 112.094 136.046 112.231 138.099L112.779 144.943L123.591 268.944C123.865 271.682 126.055 273.872 128.929 273.872H333.956C336.009 273.872 337.241 272.777 337.925 272.092C338.473 271.408 339.431 270.039 339.294 267.986L328.618 144.806Z" fill="#6F0871"/>
<path d="M327.934 137.004C327.66 134.267 325.47 132.077 322.596 132.077H117.569C115.516 132.077 114.284 133.172 113.6 133.856C113.052 134.541 112.094 135.909 112.231 137.962L123.591 268.807C123.865 271.545 126.055 273.735 128.929 273.735H333.956C336.009 273.735 337.241 272.64 337.925 271.955C338.473 271.271 339.431 269.902 339.294 267.849L327.934 137.004Z" fill="black"/>
<path d="M322.596 132.214H117.569C115.516 132.214 114.284 133.309 113.6 133.993C113.052 134.678 112.094 136.046 112.231 138.099L112.779 144.943H328.618L327.934 137.278C327.797 134.267 325.47 132.214 322.596 132.214Z" fill="#4F75E2"/>
<path d="M158.492 135.225L159.177 141.795H280.304L279.62 135.225H158.492Z" fill="#002CA7"/>
<path d="M322.459 136.457L318.353 140.974C318.216 141.11 318.216 141.384 318.353 141.658C318.49 141.795 318.764 141.795 319.038 141.658L323.144 137.141C323.28 137.004 323.28 136.731 323.144 136.457C322.87 136.183 322.596 136.183 322.459 136.457Z" fill="white"/>
<path d="M318.49 136.457C318.353 136.32 318.08 136.32 317.806 136.457C317.669 136.594 317.669 136.868 317.806 137.141L322.733 141.658C322.87 141.795 323.144 141.795 323.417 141.658C323.554 141.521 323.554 141.247 323.417 140.974L318.49 136.457Z" fill="white"/>
<path d="M311.373 135.909C309.731 135.909 308.499 137.278 308.636 138.92C308.773 140.563 310.278 141.932 311.921 141.932C313.563 141.932 314.795 140.563 314.658 138.92C314.658 137.278 313.152 135.909 311.373 135.909ZM311.921 141.384C310.552 141.384 309.457 140.289 309.32 139.057C309.183 137.689 310.141 136.731 311.51 136.731C312.879 136.731 313.974 137.826 314.11 139.057C314.11 140.289 313.152 141.384 311.921 141.384Z" fill="white"/>
<path d="M305.625 140.837H300.15C300.013 140.837 299.876 140.974 299.876 141.247C299.876 141.384 300.013 141.658 300.287 141.658H305.761C305.898 141.658 306.035 141.521 306.035 141.247C306.035 140.974 305.762 140.837 305.625 140.837Z" fill="white"/>
<path d="M127.56 140.7H122.086C121.949 140.7 121.812 140.837 121.812 141.11C121.812 141.247 121.949 141.521 122.222 141.521H127.697C127.834 141.521 127.971 141.384 127.971 141.11C127.971 140.837 127.834 140.7 127.56 140.7Z" fill="white"/>
<path d="M127.423 138.647H121.949C121.812 138.647 121.675 138.784 121.675 139.057C121.675 139.194 121.812 139.468 122.086 139.468H127.56C127.697 139.468 127.834 139.331 127.834 139.057C127.697 138.784 127.56 138.647 127.423 138.647Z" fill="white"/>
<path d="M127.286 136.594H121.812C121.675 136.594 121.538 136.731 121.538 137.004C121.538 137.141 121.675 137.415 121.949 137.415H127.423C127.56 137.415 127.697 137.278 127.697 137.004C127.56 136.731 127.423 136.594 127.286 136.594Z" fill="white"/>
<path d="M217.071 229.937H176.285C175.19 229.937 174.232 230.895 174.369 231.99C174.506 233.085 175.464 234.043 176.559 234.043H217.345C218.44 234.043 219.398 233.085 219.261 231.99C219.124 230.758 218.166 229.937 217.071 229.937Z" fill="#002CA7"/>
<path d="M184.908 240.613H176.559C175.738 240.613 175.053 241.297 175.053 242.255C175.053 243.077 175.874 243.898 176.696 243.898H185.045C185.866 243.898 186.55 243.213 186.55 242.255C186.55 241.297 185.729 240.613 184.908 240.613Z" fill="#002CA7"/>
<path d="M208.175 250.604H177.927C177.38 250.604 176.969 251.015 176.969 251.562C176.969 252.11 177.517 252.52 178.064 252.52H208.312C208.859 252.52 209.27 252.11 209.27 251.562C209.27 251.015 208.723 250.604 208.175 250.604Z" fill="white"/>
<path d="M208.723 258.679H178.475C177.927 258.679 177.517 259.09 177.517 259.638C177.517 260.185 178.064 260.596 178.612 260.596H208.859C209.407 260.596 209.818 260.185 209.818 259.638C209.818 259.09 209.27 258.679 208.723 258.679Z" fill="white"/>
<path d="M307.678 230.622H277.43C276.882 230.622 276.472 231.032 276.472 231.58C276.472 232.127 277.019 232.538 277.567 232.538H307.815C308.362 232.538 308.773 232.127 308.773 231.58C308.636 231.169 308.225 230.622 307.678 230.622Z" fill="white"/>
<path d="M288.106 238.697H277.977C277.43 238.697 277.019 239.108 277.019 239.655C277.019 240.203 277.567 240.613 278.114 240.613H288.243C288.79 240.613 289.201 240.203 289.201 239.655C289.201 239.244 288.653 238.697 288.106 238.697Z" fill="#FE5D89"/>
<path d="M298.097 238.697H295.77C295.223 238.697 294.812 239.108 294.812 239.655C294.812 240.203 295.36 240.613 295.907 240.613H298.234C298.781 240.613 299.192 240.203 299.192 239.655C299.055 239.244 298.644 238.697 298.097 238.697Z" fill="white"/>
<path d="M308.773 246.909H278.525C277.977 246.909 277.567 247.32 277.567 247.867C277.567 248.414 278.114 248.825 278.662 248.825H308.909C309.457 248.825 309.868 248.414 309.868 247.867C309.731 247.32 309.32 246.909 308.773 246.909Z" fill="white"/>
<path d="M241.297 250.194H232.127C231.306 250.194 230.758 250.878 230.895 251.562C230.895 252.383 231.579 252.931 232.401 252.931H241.571C242.392 252.931 242.939 252.247 242.803 251.562C242.666 250.878 241.981 250.194 241.297 250.194Z" fill="#4F75E2"/>
<path d="M240.75 243.624H231.579C230.758 243.624 230.211 244.308 230.348 244.993C230.348 245.814 231.032 246.361 231.853 246.361H241.023C241.844 246.361 242.392 245.677 242.255 244.993C242.255 244.171 241.571 243.624 240.75 243.624Z" fill="#4F75E2"/>
<path d="M240.339 236.918H231.169C230.348 236.918 229.8 237.602 229.937 238.286C229.937 239.108 230.621 239.655 231.443 239.655H240.613C241.434 239.655 241.981 238.971 241.844 238.286C241.708 237.602 241.023 236.918 240.339 236.918Z" fill="#4F75E2"/>
<path d="M239.928 230.348H230.758C229.937 230.348 229.39 231.032 229.526 231.717C229.526 232.538 230.211 233.085 231.032 233.085H240.202C241.023 233.085 241.571 232.401 241.434 231.717C241.297 231.032 240.613 230.348 239.928 230.348Z" fill="#4F75E2"/>
<path d="M255.805 230.348H249.92C249.098 230.348 248.551 231.032 248.688 231.717C248.688 232.538 249.372 233.085 250.193 233.085H256.079C256.9 233.085 257.447 232.401 257.31 231.717C257.174 231.032 256.489 230.348 255.805 230.348Z" fill="#4F75E2"/>
<path d="M256.763 244.993H250.878C250.057 244.993 249.509 245.677 249.646 246.361C249.646 247.183 250.33 247.73 251.151 247.73H257.037C257.858 247.73 258.405 247.046 258.269 246.361C258.132 245.677 257.584 244.993 256.763 244.993Z" fill="#FE5D89"/>
<path d="M112.505 341.347H104.977V503.672H112.505V341.347Z" fill="#002CA7"/>
<path d="M104.977 341.347H102.514V503.672H104.977V341.347Z" fill="#8AA5F8"/>
<path d="M387.608 341.347H380.081V503.672H387.608V341.347Z" fill="#002CA7"/>
<path d="M379.944 341.347H377.48V503.672H379.944V341.347Z" fill="#8AA5F8"/>
<path d="M322.46 341.347H319.996V503.672H322.46V341.347Z" fill="#8AA5F8"/>
<path d="M57.758 341.347H50.2303V503.672H57.758V341.347Z" fill="#002CA7"/>
<path d="M329.85 341.347H322.323V503.672H329.85V341.347Z" fill="#002CA7"/>
<path d="M50.2303 341.347H47.7668V503.672H50.2303V341.347Z" fill="#8AA5F8"/>
<path d="M421.688 325.333H61.7272V333.956H421.688V325.333Z" fill="#002CA7"/>
<path d="M61.7272 325.333H8.89636V333.956H61.7272V325.333Z" fill="#D9E2FF"/>
<path d="M400.337 333.683H73.9084V342.305H400.337V333.683Z" fill="black"/>
<path d="M77.8776 333.683H31.8902V342.305H77.8776V333.683Z" fill="#002CA7"/>
<path d="M310.278 319.996H177.38V325.333H310.278V319.996Z" fill="#002CA7"/>
<path d="M133.582 325.333H177.927V319.996L133.582 317.806V325.333Z" fill="#8AA5F8"/>
<path opacity="0.5" d="M380.491 5.61157H227.747L244.856 199.963C245.266 204.89 249.783 208.996 254.847 208.996H389.388C394.452 208.996 398.147 204.89 397.736 199.963L380.491 5.61157Z" fill="#164BCD"/>
<path d="M249.235 27.5103L258.816 134.814H383.229L373.648 27.5103H249.235Z" fill="#3964F9"/>
<path d="M261.554 148.501L262.648 161.777H305.214L304.119 148.501H261.554Z" fill="#3964F9"/>
<path d="M310.415 148.501L311.647 161.777H383.776L382.544 148.501H310.415Z" fill="#3964F9"/>
<path d="M263.47 169.852L264.975 188.329H386.103L384.46 169.852H263.47Z" fill="#3964F9"/>
<path d="M227.2 0L228.295 12.5918H381.176L380.081 0H227.2Z" fill="#002CA7"/>
<path d="M237.739 15.7397C235.686 15.7397 234.18 17.3821 234.317 19.4352L249.92 196.541C250.057 198.594 251.973 200.237 254.026 200.237C256.079 200.237 257.584 198.594 257.448 196.541L241.845 19.4352C241.571 17.3821 239.792 15.7397 237.739 15.7397Z" fill="#164BCD"/>
<path d="M237.739 18.8877C236.917 18.8877 236.37 19.572 236.37 20.3932L238.423 44.345C238.56 45.1662 239.244 45.8505 240.065 45.8505C240.887 45.8505 241.434 45.1662 241.434 44.345L239.381 20.3932C239.381 19.572 238.56 18.8877 237.739 18.8877Z" fill="white"/>
<path d="M306.993 32.9851H254.573C254.163 32.9851 253.752 33.3957 253.889 33.8063C253.889 34.2169 254.3 34.6275 254.71 34.6275H307.13C307.541 34.6275 307.952 34.2169 307.815 33.8063C307.815 33.2589 307.404 32.9851 306.993 32.9851Z" fill="white"/>
<path d="M320.543 32.9851H312.058C311.647 32.9851 311.236 33.3957 311.373 33.8063C311.373 34.2169 311.784 34.6275 312.194 34.6275H320.68C321.091 34.6275 321.501 34.2169 321.365 33.8063C321.365 33.2589 320.954 32.9851 320.543 32.9851Z" fill="white"/>
<path d="M367.078 32.9851H329.85C329.44 32.9851 329.029 33.3957 329.166 33.8063C329.166 34.2169 329.577 34.6275 329.987 34.6275H367.215C367.626 34.6275 368.036 34.2169 367.899 33.8063C367.899 33.2589 367.489 32.9851 367.078 32.9851Z" fill="white"/>
<path d="M318.49 38.186H255.121C254.71 38.186 254.3 38.5966 254.436 39.0072C254.436 39.4178 254.847 39.8284 255.258 39.8284H318.627C319.038 39.8284 319.448 39.4178 319.312 39.0072C319.312 38.5966 318.901 38.186 318.49 38.186Z" fill="white"/>
<path d="M350.38 37.2278H324.649C324.239 37.2278 323.828 37.6384 323.965 38.049C323.965 38.4596 324.376 38.8702 324.786 38.8702H350.517C350.928 38.8702 351.339 38.4596 351.202 38.049C351.202 37.6384 350.791 37.2278 350.38 37.2278Z" fill="white"/>
<path d="M368.173 37.2278H355.034C354.623 37.2278 354.213 37.6384 354.35 38.049C354.35 38.4596 354.76 38.8702 355.171 38.8702H368.31C368.721 38.8702 369.131 38.4596 368.994 38.049C369.131 37.6384 368.721 37.2278 368.173 37.2278Z" fill="white"/>
<path d="M333.272 44.7556H258.406C257.995 44.7556 257.584 45.1662 257.721 45.5768C257.721 45.9874 258.132 46.398 258.542 46.398H333.409C333.82 46.398 334.23 45.9874 334.093 45.5768C334.093 45.1662 333.683 44.7556 333.272 44.7556Z" fill="white"/>
<path d="M362.288 44.7556H342.031C341.621 44.7556 341.21 45.1662 341.347 45.5768C341.347 45.9874 341.758 46.398 342.168 46.398H362.425C362.835 46.398 363.246 45.9874 363.109 45.5768C363.246 45.1662 362.835 44.7556 362.288 44.7556Z" fill="white"/>
<path d="M369.405 50.6409H311.51C311.1 50.6409 310.689 51.0515 310.826 51.4621C310.826 51.8727 311.236 52.2833 311.647 52.2833H369.542C369.952 52.2833 370.363 51.8727 370.226 51.4621C370.226 51.0515 369.816 50.6409 369.405 50.6409Z" fill="white"/>
<path d="M337.104 58.7161H256.9C256.489 58.7161 256.079 59.1266 256.216 59.5372C256.216 59.9478 256.626 60.3584 257.037 60.3584H337.241C337.652 60.3584 338.062 59.9478 337.925 59.5372C337.925 59.1266 337.515 58.7161 337.104 58.7161Z" fill="white"/>
<path d="M372.005 63.78H312.605C312.194 63.78 311.784 64.1906 311.921 64.6012C311.921 65.0118 312.331 65.4225 312.742 65.4225H372.005C372.416 65.4225 372.827 65.0118 372.69 64.6012C372.827 64.0538 372.416 63.78 372.005 63.78Z" fill="white"/>
<path d="M309.183 78.5618H260.459C260.048 78.5618 259.637 78.9723 259.774 79.3829C259.774 79.7935 260.185 80.2042 260.595 80.2042H309.32C309.731 80.2042 310.141 79.7935 310.005 79.3829C310.005 78.9723 309.731 78.5618 309.183 78.5618Z" fill="white"/>
<path d="M277.43 50.6409H256.216C255.805 50.6409 255.394 51.0515 255.531 51.4621C255.531 51.8727 255.942 52.2833 256.353 52.2833H277.567C277.978 52.2833 278.388 51.8727 278.251 51.4621C278.251 51.0515 277.841 50.6409 277.43 50.6409Z" fill="white"/>
<path d="M299.739 150.828H285.505C285.095 150.828 284.684 151.238 284.821 151.649C284.821 152.059 285.232 152.47 285.642 152.47H299.876C300.287 152.47 300.698 152.059 300.561 151.649C300.561 151.101 300.15 150.828 299.739 150.828Z" fill="white"/>
<path d="M298.918 156.987H265.933C265.523 156.987 265.112 157.397 265.249 157.808C265.249 158.219 265.66 158.629 266.07 158.629H299.055C299.466 158.629 299.876 158.219 299.739 157.808C299.739 157.397 299.329 156.987 298.918 156.987Z" fill="white"/>
<path d="M320.27 150.828H314.384C313.974 150.828 313.563 151.238 313.7 151.649C313.7 152.059 314.111 152.47 314.521 152.47H320.406C320.817 152.47 321.228 152.059 321.091 151.649C321.091 151.101 320.68 150.828 320.27 150.828Z" fill="white"/>
<path d="M331.082 150.828H325.197C324.786 150.828 324.376 151.238 324.513 151.649C324.513 152.059 324.923 152.47 325.334 152.47H331.219C331.63 152.47 332.04 152.059 331.903 151.649C331.903 151.101 331.493 150.828 331.082 150.828Z" fill="white"/>
<path d="M341.758 150.828H335.872C335.462 150.828 335.051 151.238 335.188 151.649C335.188 152.059 335.599 152.47 336.009 152.47H341.895C342.305 152.47 342.716 152.059 342.579 151.649C342.579 151.101 342.168 150.828 341.758 150.828Z" fill="white"/>
<path d="M352.57 150.828H346.685C346.274 150.828 345.864 151.238 346.001 151.649C346.001 152.059 346.411 152.47 346.822 152.47H352.707C353.118 152.47 353.528 152.059 353.392 151.649C353.392 151.101 352.981 150.828 352.57 150.828Z" fill="white"/>
<path d="M363.246 150.828H357.361C356.95 150.828 356.539 151.238 356.676 151.649C356.676 152.059 357.087 152.47 357.497 152.47H363.383C363.793 152.47 364.204 152.059 364.067 151.649C364.067 151.101 363.793 150.828 363.246 150.828Z" fill="white"/>
<path d="M374.059 150.828H368.173C367.763 150.828 367.352 151.238 367.489 151.649C367.489 152.059 367.899 152.47 368.31 152.47H374.195C374.606 152.47 375.017 152.059 374.88 151.649C374.88 151.101 374.469 150.828 374.059 150.828Z" fill="white"/>
<path d="M318.627 155.344H314.795C314.384 155.344 313.974 155.755 314.111 156.166C314.111 156.576 314.521 156.987 314.932 156.987H318.764C319.175 156.987 319.585 156.576 319.448 156.166C319.448 155.755 319.038 155.344 318.627 155.344Z" fill="white"/>
<path d="M327.387 155.344H323.554C323.144 155.344 322.733 155.755 322.87 156.166C322.87 156.576 323.281 156.987 323.691 156.987H327.524C327.934 156.987 328.345 156.576 328.208 156.166C328.208 155.755 327.797 155.344 327.387 155.344Z" fill="white"/>
<path d="M336.283 155.344H332.451C332.04 155.344 331.63 155.755 331.766 156.166C331.766 156.576 332.177 156.987 332.588 156.987H336.42C336.831 156.987 337.241 156.576 337.104 156.166C337.104 155.755 336.694 155.344 336.283 155.344Z" fill="white"/>
<path d="M345.179 155.344H341.347C340.937 155.344 340.526 155.755 340.663 156.166C340.663 156.576 341.073 156.987 341.484 156.987H345.316C345.727 156.987 346.138 156.576 346.001 156.166C346.001 155.755 345.59 155.344 345.179 155.344Z" fill="white"/>
<path d="M353.939 155.344H350.107C349.696 155.344 349.285 155.755 349.422 156.166C349.422 156.576 349.833 156.987 350.244 156.987H354.076C354.486 156.987 354.897 156.576 354.76 156.166C354.76 155.755 354.486 155.344 353.939 155.344Z" fill="white"/>
<path d="M362.835 155.344H359.003C358.593 155.344 358.182 155.755 358.319 156.166C358.319 156.576 358.729 156.987 359.14 156.987H362.972C363.383 156.987 363.793 156.576 363.657 156.166C363.657 155.755 363.246 155.344 362.835 155.344Z" fill="white"/>
<path d="M371.732 155.344H367.899C367.489 155.344 367.078 155.755 367.215 156.166C367.215 156.576 367.626 156.987 368.036 156.987H371.869C372.279 156.987 372.69 156.576 372.553 156.166C372.553 155.755 372.142 155.344 371.732 155.344Z" fill="white"/>
<path d="M269.492 178.749L272.777 175.19C273.05 174.916 273.05 174.369 272.64 174.095C272.366 173.821 271.819 173.821 271.545 174.095L267.713 178.201C267.439 178.475 267.439 179.022 267.849 179.296L272.229 183.265C272.366 183.402 272.64 183.539 272.777 183.539C272.913 183.539 273.187 183.402 273.324 183.265C273.598 182.992 273.598 182.444 273.187 182.17L269.492 178.749Z" fill="white"/>
<path d="M273.598 178.749L276.883 175.19C277.156 174.916 277.156 174.369 276.746 174.095C276.472 173.821 275.925 173.821 275.651 174.095L271.819 178.201C271.545 178.475 271.545 179.022 271.955 179.296L276.335 183.265C276.472 183.402 276.746 183.539 276.883 183.539C277.02 183.539 277.293 183.402 277.43 183.265C277.704 182.992 277.704 182.444 277.293 182.17L273.598 178.749Z" fill="white"/>
<path d="M295.77 98.6814L304.119 89.6481C304.393 89.3744 304.393 88.8269 303.982 88.5532C303.572 88.2795 303.161 88.2795 302.887 88.5532L293.991 98.1339C293.717 98.4076 293.717 98.9551 294.128 99.2288L304.256 108.399C304.393 108.536 304.667 108.673 304.804 108.673C305.077 108.673 305.214 108.536 305.351 108.399C305.625 108.125 305.625 107.578 305.214 107.304L295.77 98.6814Z" fill="white"/>
<path d="M305.488 98.6814L313.837 89.6481C314.111 89.3744 314.111 88.8269 313.7 88.5532C313.289 88.2795 312.879 88.2795 312.605 88.5532L303.709 98.1339C303.435 98.4076 303.435 98.9551 303.845 99.2288L313.974 108.399C314.111 108.536 314.384 108.673 314.521 108.673C314.795 108.673 314.932 108.536 315.069 108.399C315.342 108.125 315.342 107.578 314.932 107.304L305.488 98.6814Z" fill="white"/>
<path d="M346.274 88.5533C346.138 88.4164 345.864 88.2795 345.727 88.2795C345.453 88.2795 345.316 88.4164 345.179 88.5533C344.906 88.827 344.906 89.3745 345.316 89.6482L354.76 98.2709L346.411 107.304C346.138 107.578 346.138 108.125 346.548 108.399C346.959 108.673 347.369 108.673 347.643 108.399L356.539 98.8183C356.813 98.5446 356.813 97.9972 356.403 97.7234L346.274 88.5533Z" fill="white"/>
<path d="M336.557 88.5533C336.42 88.4164 336.146 88.2795 336.009 88.2795C335.736 88.2795 335.599 88.4164 335.462 88.5533C335.188 88.827 335.188 89.3745 335.599 89.6482L345.043 98.2709L336.694 107.304C336.42 107.578 336.42 108.125 336.831 108.399C337.241 108.673 337.652 108.673 337.925 108.399L346.822 98.8183C347.096 98.5446 347.096 97.9972 346.685 97.7234L336.557 88.5533Z" fill="white"/>
<path d="M376.111 173.822H286.737C286.326 173.822 285.916 174.232 286.053 174.643C286.053 175.053 286.463 175.464 286.874 175.464H376.248C376.659 175.464 377.07 175.053 376.933 174.643C376.933 174.095 376.522 173.822 376.111 173.822Z" fill="white"/>
<path d="M341.21 177.791H287.011C286.6 177.791 286.19 178.201 286.327 178.612C286.327 179.023 286.737 179.433 287.148 179.433H341.347C341.758 179.433 342.168 179.023 342.032 178.612C342.032 178.201 341.621 177.791 341.21 177.791Z" fill="white"/>
<path d="M341.758 183.539H287.558C287.148 183.539 286.737 183.95 286.874 184.36C286.874 184.771 287.285 185.181 287.695 185.181H341.895C342.305 185.181 342.716 184.771 342.579 184.36C342.579 183.95 342.168 183.539 341.758 183.539Z" fill="white"/>
<path d="M372.963 111.136H357.224C356.813 111.136 356.403 111.547 356.539 111.957C356.539 112.368 356.95 112.779 357.361 112.779H373.237C373.648 112.779 374.058 112.368 373.922 111.957C373.785 111.547 373.374 111.136 372.963 111.136Z" fill="white"/>
<path d="M372.279 4.10618L367.489 9.30714C367.352 9.44401 367.352 9.85461 367.489 9.99148C367.762 10.1283 368.036 10.1283 368.173 9.99148L372.963 4.79052C373.1 4.65365 373.1 4.24305 372.963 4.10618C372.827 3.83245 372.553 3.83245 372.279 4.10618Z" fill="white"/>
<path d="M367.899 4.10607C367.626 3.9692 367.352 3.9692 367.215 4.10607C367.078 4.24294 367.078 4.65354 367.215 4.79041L372.963 9.99137C373.237 10.1282 373.511 10.1282 373.648 9.99137C373.785 9.8545 373.785 9.4439 373.648 9.30703L367.899 4.10607Z" fill="white"/>
<path d="M359.687 3.55859C357.771 3.55859 356.266 5.20101 356.403 7.11715C356.539 9.0333 358.319 10.6757 360.235 10.6757C362.151 10.6757 363.657 9.0333 363.52 7.11715C363.246 5.06414 361.604 3.55859 359.687 3.55859ZM360.235 9.71762C358.729 9.71762 357.361 8.48582 357.224 6.98028C357.087 5.47474 358.182 4.24293 359.687 4.24293C361.193 4.24293 362.562 5.47474 362.698 6.98028C362.835 8.48582 361.74 9.71762 360.235 9.71762Z" fill="white"/>
<path d="M352.981 9.17017H346.685C346.411 9.17017 346.274 9.30704 346.274 9.58077C346.274 9.85451 346.548 9.99138 346.685 9.99138H352.981C353.255 9.99138 353.391 9.85451 353.391 9.58077C353.391 9.4439 353.118 9.17017 352.981 9.17017Z" fill="white"/>
<path d="M343.537 483.552C344.358 488.343 346.685 492.723 346.685 492.723C346.822 492.996 353.802 490.396 356.539 487.658C356.539 487.658 354.35 484.374 352.844 481.363C349.285 477.941 344.084 483.552 343.537 483.552Z" fill="#FFE1BD"/>
<path d="M356.129 487.248C354.213 485.469 351.612 484.784 349.285 485.606C349.285 485.606 349.285 485.606 349.149 485.606C347.369 486.29 346.274 488.206 346.411 490.122C346.548 491.901 346.822 494.228 347.78 495.46C348.601 496.555 353.255 501.482 355.581 502.577C357.361 503.398 360.235 503.261 363.52 502.851C366.804 502.44 370.5 500.25 370.363 498.334C369.952 494.776 358.592 489.712 356.129 487.248Z" fill="#002CA7"/>
<path d="M354.623 490.122C351.475 487.932 346.001 491.764 349.696 496.828C350.38 497.786 354.35 501.892 356.266 502.851C357.771 503.535 360.235 503.398 362.972 503.124C365.71 502.714 368.857 500.934 368.721 499.292C368.31 496.144 357.908 492.449 354.623 490.122Z" fill="#002CA7"/>
<path d="M270.997 311.784C270.724 312.468 273.598 314.658 274.419 314.658C276.472 314.247 276.198 313.152 278.114 313.015C276.472 312.878 274.693 312.331 273.187 311.647C272.229 311.373 271.408 310.689 270.997 311.784Z" fill="#FE5D89"/>
<path d="M273.598 313.7C271.271 314.11 266.07 315.753 265.796 315.89C264.838 316.3 262.101 316.848 261.417 317.395C261.006 317.669 260.185 319.174 260.185 319.859C260.185 320.817 261.143 321.09 261.143 321.09C260.869 322.185 263.88 322.185 263.743 322.459C263.333 323.554 264.565 324.512 268.671 323.143C268.944 323.007 279.346 321.638 282.631 320.954C282.357 318.901 279.757 312.878 279.62 312.878C277.567 313.015 275.514 313.289 273.598 313.7Z" fill="#FFE1BD"/>
<path d="M334.914 289.885C334.23 289.885 333.546 290.022 332.998 290.158C323.281 293.306 289.474 311.373 278.799 313.015C280.031 316.3 280.852 319.038 281.126 321.364C298.508 318.216 341.073 305.488 341.758 298.507C342.442 291.938 338.062 289.885 334.914 289.885Z" fill="#FE5D89"/>
<path d="M356.403 240.065C350.654 247.593 339.157 275.651 330.945 288.106C320.954 303.298 335.188 304.804 339.705 301.245C351.612 291.664 379.533 259.774 375.29 253.068C373.374 250.193 357.497 238.697 356.403 240.065Z" fill="#FE5D89"/>
<path d="M354.76 234.591C350.928 243.487 333.272 280.715 329.303 286.874C328.618 287.969 328.071 288.927 327.524 290.022C323.418 291.801 318.08 294.265 312.468 296.865C300.15 302.614 284.821 309.868 278.662 310.826L281.673 323.281C297.002 320.543 332.177 310.278 341.347 302.614C351.065 294.812 378.986 264.565 376.248 254.163C371.458 236.917 355.034 233.906 354.76 234.591Z" fill="#D9E2FF"/>
<path d="M373.922 345.59C359.55 344.632 270.587 357.224 238.012 372.005C224.189 378.301 232.948 398.831 247.182 396.778C272.503 392.946 359.961 395.41 378.028 385.829C406.907 370.5 381.586 346.137 373.922 345.59Z" fill="#00BFFF"/>
<path d="M281.126 481.91C282.084 485.058 281.262 487.247 281.262 487.247C284 489.985 290.98 490.532 291.117 490.259C291.117 490.259 292.212 486.153 291.527 481.225C290.98 481.362 284.684 478.625 281.126 481.91Z" fill="#FFE1BD"/>
<path d="M232.948 394.315C258.953 442.492 280.441 483.552 280.441 483.552C282.494 483.963 289.885 481.225 292.622 483.005C292.622 483.005 280.441 431.406 264.428 385.145C253.752 354.623 222.273 374.606 232.948 394.315Z" fill="#00BFFF"/>
<path d="M295.497 394.315C321.501 442.492 342.716 486.426 342.716 486.426C345.453 485.195 351.612 480.952 355.171 483.005C355.171 483.005 342.99 431.406 326.976 385.145C316.3 354.623 284.821 374.606 295.497 394.315Z" fill="#00BFFF"/>
<path d="M282.768 485.468C282.357 485.879 281.399 486.563 280.167 487.795C277.704 490.258 267.439 494.638 267.028 498.334C266.891 500.25 270.587 502.303 273.872 502.85C277.156 503.261 280.031 503.398 281.81 502.576C284.137 501.482 288.653 496.554 289.611 495.459C291.801 492.859 290.98 488.342 290.98 488.342C289.201 483.962 284.41 484.099 282.768 485.468Z" fill="#002CA7"/>
<path d="M282.768 490.122C279.483 492.449 268.944 496.144 268.671 499.292C268.534 500.934 271.682 502.714 274.419 503.124C277.156 503.535 279.62 503.672 281.125 502.851C283.042 502.029 287.011 497.786 287.695 496.828C291.39 491.764 285.916 487.932 282.768 490.122Z" fill="#002CA7"/>
<path d="M381.312 328.892C365.436 330.945 349.559 333.135 333.409 333.546C323.418 333.819 313.974 332.725 305.214 330.261C305.214 345.179 301.656 351.065 295.086 355.034C299.739 371.458 309.731 372.279 317.943 375.017C339.431 381.997 393.357 365.983 394.862 365.846C394.862 353.939 393.767 340.663 392.125 327.387C388.566 327.934 385.008 328.345 381.312 328.892Z" fill="#3964F9"/>
<path d="M348.327 209.954C347.232 210.776 335.736 217.208 332.314 216.798C332.314 217.756 334.641 227.336 332.451 232.537C333.409 237.328 346.822 237.328 350.517 229.116C349.012 226.789 347.643 214.471 348.327 209.954Z" fill="#FFE1BD"/>
<path d="M333.683 194.352C327.66 193.941 321.775 195.447 320.406 201.058C319.996 203.111 320.68 224.462 330.808 224.462C335.188 224.462 342.99 218.44 343.263 213.65L343.674 206.943C344.084 200.511 340.252 194.899 333.683 194.352Z" fill="#FFE1BD"/>
<path d="M364.204 232.401C360.782 231.716 350.654 229.253 350.654 229.253C350.654 229.253 348.601 231.716 342.442 232.948C336.83 234.043 332.588 232.264 332.588 232.264C332.588 232.264 320.817 235.549 318.764 236.644C310.552 241.023 310.415 244.034 309.868 254.299C309.594 259.09 309.046 335.462 296.181 352.16C296.592 352.844 301.792 359.14 312.331 361.603L314.932 341.073L317.259 362.562C342.168 367.352 361.33 358.592 381.312 355.855L383.228 328.892L388.977 354.897C390.893 354.623 392.672 354.486 394.178 354.349C393.904 313.016 381.175 251.015 380.491 249.235C378.164 241.16 374.469 234.591 364.204 232.401Z" fill="#D9E2FF"/>
<path d="M347.78 187.782C338.336 180.391 323.417 186.413 319.175 196.131C316.027 203.385 313.152 198.321 313.426 196.404C312.468 201.195 314.521 205.438 323.828 204.753C325.744 204.617 319.448 206.533 319.448 206.533C319.448 206.533 329.44 227.2 344.769 222.136C349.285 220.63 353.391 216.113 353.391 216.113C353.391 216.113 348.464 216.935 351.065 212.829C356.129 205.027 356.129 194.351 347.78 187.782Z" fill="#2C1E56"/>
<path d="M231.443 309.594C230.895 310.278 233.359 312.878 234.18 313.152C236.233 313.152 236.233 312.057 238.149 312.331C236.507 311.783 235.001 310.962 233.496 310.004C232.674 309.32 231.99 308.499 231.443 309.594Z" fill="#FFE1BD"/>
<path d="M233.496 311.92C231.032 311.92 225.694 312.331 225.421 312.331C224.326 312.468 221.588 312.605 220.767 312.878C220.22 313.152 219.125 314.247 218.988 314.931C218.851 315.753 219.672 316.3 219.672 316.3C219.261 317.395 222.136 317.943 221.862 318.216C221.178 319.174 222.273 320.406 226.515 319.996C226.789 319.996 237.328 320.817 240.613 320.817C240.75 318.764 239.518 312.331 239.381 312.331C237.602 312.057 235.549 311.92 233.496 311.92Z" fill="#FFE1BD"/>
<path d="M294.128 300.15C293.444 300.15 292.759 300.287 292.212 300.56C282.631 304.119 248.141 310.689 237.602 312.742C238.97 315.89 239.928 318.764 240.202 320.954C257.447 317.121 300.834 315.479 301.382 308.362C301.929 301.792 297.413 300.013 294.128 300.15Z" fill="#EBCDA9"/>
<path d="M313.563 249.372C308.088 257.037 297.823 285.642 290.159 298.507C280.852 314.11 295.086 315.068 299.466 311.236C310.963 301.108 337.515 268.123 332.998 261.69C330.945 258.816 314.658 248.003 313.563 249.372Z" fill="#FE5D89"/>
<path d="M311.647 244.171C308.225 253.205 287.148 299.603 286.737 300.698C282.768 302.614 245.266 309.32 239.244 310.552L240.886 323.007C256.079 321.638 292.349 320.817 301.108 312.742C310.415 304.53 340.526 270.997 336.694 260.869C332.861 250.878 311.921 243.35 311.647 244.171Z" fill="#D9E2FF"/>
<path d="M392.672 392.125H346C341.894 392.125 336.42 395.409 335.872 399.515L321.364 503.535H326.839L341.757 400.063C342.168 397.599 344.495 395.546 346.958 395.546H391.714C394.178 395.546 392.946 397.052 393.356 399.515L419.224 503.398L421.688 503.261L426.068 502.85L401.295 399.515C400.61 395.409 396.778 392.125 392.672 392.125Z" fill="#4F75E2"/>
<path d="M387.608 392.125H341.894C337.788 392.125 333.819 395.409 333.272 399.515L317.669 502.987L321.364 503.535L336.693 400.063C337.104 397.599 339.431 395.546 341.894 395.546H387.608C390.072 395.546 392.535 397.599 393.083 400.063L416.898 503.535L420.73 503.261L396.504 399.378C395.683 395.409 391.714 392.125 387.608 392.125Z" fill="#EEF5FD"/>
<path d="M415.392 345.179C415.255 346.137 414.981 348.053 414.708 350.38C414.023 356.128 412.792 370.636 411.286 378.301C408.685 391.03 406.632 391.988 406.496 391.988C404.853 391.988 401.568 391.851 396.915 391.851C384.871 391.577 370.363 391.03 343.4 391.03H341.621V394.588H343.4C370.363 394.588 384.871 395.136 396.915 395.409C401.568 395.546 404.853 395.546 406.633 395.546C411.423 395.546 414.571 379.67 418.266 350.927C418.54 348.601 418.814 346.821 418.951 345.863L419.224 344.084L415.803 343.537L415.392 345.179Z" fill="#4F75E2"/>
<path d="M411.56 349.696C410.875 355.444 409.644 369.815 408.138 377.343C405.538 390.072 403.485 390.893 403.348 390.893H340.252V394.452H403.485C408.412 394.452 411.423 378.712 415.118 350.107C415.392 347.917 415.666 346.137 415.803 345.179L412.381 344.632C412.107 345.727 411.833 347.506 411.56 349.696Z" fill="#EEF5FD"/>
<path d="M400.473 384.323H324.512C321.227 384.323 318.49 387.061 318.49 390.345C318.49 393.63 321.227 396.368 324.512 396.368H400.473C403.758 396.368 406.496 393.63 406.496 390.345C406.496 387.061 403.895 384.323 400.473 384.323Z" fill="#8AA5F8"/>
<path d="M332.45 384.323H283.726C276.061 384.323 270.313 386.376 266.48 390.345C263.606 393.356 262.648 396.778 262.648 398.284L262.511 401.569H272.913L273.05 399.105C273.461 397.463 276.198 394.862 283.589 394.862H332.314C335.188 394.862 337.515 392.535 337.515 389.661C337.515 386.787 335.325 384.323 332.45 384.323Z" fill="#D9E2FF"/>
<path d="M326.565 391.03H279.072V396.368H326.565V391.03Z" fill="black"/>
<path d="M342.442 345.179C342.305 346.137 342.031 347.643 341.757 349.696C340.936 355.307 339.704 370.226 338.062 378.301C335.325 391.714 333.135 392.809 332.998 392.946H331.219L331.355 396.504H333.135C338.062 396.504 341.21 380.217 345.316 350.243C345.59 348.19 345.863 346.685 346 345.727L346.274 343.947L342.852 343.4L342.442 345.179Z" fill="#4F75E2"/>
<path d="M338.473 349.833C337.788 355.581 336.556 370.089 335.051 377.754C332.45 390.482 330.397 391.44 330.261 391.44V394.999C335.051 394.999 338.199 379.122 341.894 350.38C342.168 348.053 342.442 346.274 342.579 345.316L339.157 344.769C339.02 345.727 338.883 347.506 338.473 349.833Z" fill="#EEF5FD"/>
<path d="M324.102 388.703L284.957 388.84C280.851 388.84 275.24 391.987 274.692 396.094L255.805 503.397H261.279L280.578 396.641C280.988 394.177 283.315 392.124 285.779 392.124L323.007 391.303C325.47 391.303 324.238 393.767 324.649 396.094L338.336 503.397L342.989 503.261L347.369 502.85L332.587 396.094C332.04 392.124 328.208 388.703 324.102 388.703Z" fill="#4F75E2"/>
<path d="M319.037 388.703H280.851C276.745 388.703 272.776 391.987 272.229 396.23L252.246 502.987L255.942 503.534L275.65 396.778C275.924 394.314 278.388 392.398 280.715 392.398H318.901C321.364 392.398 323.691 394.451 323.965 396.778L338.062 503.534L341.757 502.987L327.386 396.23C327.113 392.124 323.28 388.703 319.037 388.703Z" fill="#EEF5FD"/>
<path d="M413.476 272.913H356.402C350.38 272.913 344.632 277.84 343.81 283.862C343.81 283.862 334.503 339.431 334.914 341.073C335.735 343.947 336.83 345.863 339.568 345.863C342.305 345.863 413.476 346.548 413.476 346.548L413.886 343.537L422.235 286.737C422.372 285.368 428.942 284.821 428.668 283.726C427.847 279.483 423.878 272.913 413.476 272.913Z" fill="white"/>
<path d="M421.962 278.799H362.424C356.402 278.799 350.654 283.726 349.833 289.748L341.484 346.548C341.484 346.548 362.287 350.791 388.292 350.791C414.297 350.791 423.057 346.548 423.057 346.548L431.405 289.748C432.364 283.726 428.121 278.799 421.962 278.799Z" fill="#3964F9"/>
<path opacity="0.4" d="M206.533 178.612H1.36868L10.2651 280.715C10.6757 286.19 15.6029 290.569 21.0776 290.569H206.396C211.871 290.569 215.977 286.19 215.429 280.715L206.533 178.612Z" fill="#164BCD"/>
<path d="M23.9518 184.634L27.6472 226.652H129.887L126.192 184.634H23.9518Z" fill="#3964F9"/>
<path d="M28.3315 234.454L29.4265 247.456H51.8727L50.7778 234.454H28.3315Z" fill="#3964F9"/>
<path d="M60.9059 234.454L62.001 247.456H131.666L130.571 234.454H60.9059Z" fill="#3964F9"/>
<path d="M133.993 184.634L135.636 202.837H199.279L197.773 184.634H133.993Z" fill="#3964F9"/>
<path d="M30.1108 255.394L31.7532 273.598H205.575L203.932 255.394H30.1108Z" fill="#3964F9"/>
<path d="M136.046 207.628L139.605 248.962H203.385L199.826 207.628H136.046Z" fill="#3964F9"/>
<path d="M0 166.157L1.36867 178.612H206.533L205.027 166.157H0Z" fill="#002CA7"/>
<path d="M12.8656 181.486C10.9495 181.486 9.44389 183.128 9.58076 185.044L17.656 278.251C17.7928 280.304 19.5721 281.81 21.6251 281.81C23.5413 281.81 25.0468 280.167 24.9099 278.251L16.8348 185.044C16.5611 183.128 14.7818 181.486 12.8656 181.486Z" fill="#002CA7"/>
<path d="M14.3711 194.488H13.6867C12.8655 194.488 12.1812 195.173 12.1812 196.131L15.0554 229.116C15.1923 229.937 15.8767 230.758 16.8347 230.758H17.5191C18.3403 230.758 19.0246 230.074 19.0246 229.116L16.1504 196.131C16.0135 195.173 15.1923 194.488 14.3711 194.488Z" fill="white"/>
<path d="M63.5065 189.835H29.0159C28.6053 189.835 28.3315 190.246 28.3315 190.656C28.3315 191.067 28.7422 191.477 29.1528 191.477H63.6433C64.0539 191.477 64.3276 191.067 64.3276 190.656C64.1908 190.246 63.9171 189.835 63.5065 189.835Z" fill="#002CA7"/>
<path d="M76.2351 189.835H68.16C67.7494 189.835 67.4756 190.246 67.4756 190.656C67.4756 191.067 67.8862 191.477 68.2968 191.477H76.372C76.7826 191.477 77.0564 191.067 77.0564 190.656C76.9195 190.246 76.6457 189.835 76.2351 189.835Z" fill="#002CA7"/>
<path d="M120.033 189.835H84.9947C84.5841 189.835 84.3103 190.246 84.3103 190.656C84.3103 191.067 84.7209 191.477 85.1315 191.477H120.17C120.58 191.477 120.854 191.067 120.854 190.656C120.854 190.246 120.443 189.835 120.033 189.835Z" fill="#002CA7"/>
<path d="M74.1821 194.899H29.2897C28.8791 194.899 28.6053 195.309 28.6053 195.72C28.6053 196.131 29.0159 196.541 29.4265 196.541H74.319C74.7296 196.541 75.0034 196.131 75.0034 195.72C75.0034 195.309 74.5927 194.899 74.1821 194.899Z" fill="#002CA7"/>
<path d="M104.293 193.941H80.0674C79.6568 193.941 79.3831 194.352 79.3831 194.762C79.3831 195.173 79.7937 195.583 80.2043 195.583H104.43C104.84 195.583 105.114 195.173 105.114 194.762C105.114 194.352 104.704 193.941 104.293 193.941Z" fill="#002CA7"/>
<path d="M121.128 193.941H108.81C108.399 193.941 108.125 194.352 108.125 194.762C108.125 195.173 108.536 195.583 108.946 195.583H121.264C121.675 195.583 121.949 195.173 121.949 194.762C121.949 194.352 121.538 193.941 121.128 193.941Z" fill="#FE5D89"/>
<path d="M88.1426 201.195H32.4376C32.027 201.195 31.7532 201.605 31.7532 202.016C31.7532 202.427 32.1639 202.837 32.5745 202.837H88.2794C88.69 202.837 88.9638 202.564 88.9638 202.016C88.9638 201.469 88.6901 201.195 88.1426 201.195Z" fill="#002CA7"/>
<path d="M115.516 201.195H96.4915C96.0809 201.195 95.8071 201.605 95.8071 202.016C95.8071 202.427 96.2178 202.837 96.6284 202.837H115.653C116.063 202.837 116.337 202.564 116.337 202.016C116.337 201.469 115.927 201.195 115.516 201.195Z" fill="#002CA7"/>
<path d="M122.223 206.806H67.7493C67.3387 206.806 67.065 207.217 67.065 207.628C67.065 208.038 67.4757 208.449 67.8863 208.449H122.359C122.77 208.449 123.044 208.038 123.044 207.628C123.044 207.08 122.633 206.806 122.223 206.806Z" fill="#002CA7"/>
<path d="M91.7011 214.471H31.0689C30.6583 214.471 30.3846 214.882 30.3846 215.292C30.3846 215.703 30.7952 216.114 31.2058 216.114H91.838C92.2486 216.114 92.5224 215.703 92.5224 215.292C92.5224 214.745 92.2486 214.471 91.7011 214.471Z" fill="#002CA7"/>
<path d="M121.128 217.619H65.2857C64.8751 217.619 64.6014 218.03 64.6014 218.44C64.6014 218.851 65.012 219.261 65.4226 219.261H121.264C121.675 219.261 121.949 218.851 121.949 218.44C121.949 218.03 121.538 217.619 121.128 217.619Z" fill="#002CA7"/>
<path d="M74.8665 221.588H43.7976C43.387 221.588 43.1132 221.999 43.1132 222.409C43.1132 222.82 43.5239 223.231 43.9345 223.231H75.0034C75.414 223.231 75.6877 222.82 75.6877 222.409C75.6877 221.999 75.4139 221.588 74.8665 221.588Z" fill="#002CA7"/>
<path d="M50.5041 206.806H30.5215C30.1109 206.806 29.8372 207.217 29.8372 207.628C29.8372 208.038 30.2477 208.449 30.6583 208.449H50.6409C51.0515 208.449 51.3253 208.038 51.3253 207.628C51.1884 207.08 50.9147 206.806 50.5041 206.806Z" fill="#002CA7"/>
<path d="M46.8087 237.465H32.9851C32.5745 237.465 32.3008 237.875 32.3008 238.286C32.3008 238.696 32.7113 239.107 33.1219 239.107H46.9456C47.3562 239.107 47.6299 238.696 47.6299 238.286C47.493 237.875 47.2193 237.465 46.8087 237.465Z" fill="#002CA7"/>
<path d="M46.8087 241.434H32.9851C32.5745 241.434 32.3008 241.844 32.3008 242.255C32.3008 242.666 32.7113 243.076 33.1219 243.076H46.9456C47.3562 243.076 47.6299 242.666 47.6299 242.255C47.493 241.844 47.2193 241.434 46.8087 241.434Z" fill="#002CA7"/>
<path d="M70.3498 236.78H64.6014C64.1908 236.78 63.9171 237.191 63.9171 237.601C63.9171 238.012 64.3277 238.423 64.7383 238.423H70.4867C70.8973 238.423 71.171 238.012 71.171 237.601C71.171 237.054 70.7604 236.78 70.3498 236.78Z" fill="#002CA7"/>
<path d="M80.7517 236.78H75.0034C74.5928 236.78 74.319 237.191 74.319 237.601C74.319 238.012 74.7296 238.423 75.1402 238.423H80.8886C81.2992 238.423 81.573 238.012 81.573 237.601C81.573 237.054 81.1623 236.78 80.7517 236.78Z" fill="#002CA7"/>
<path d="M91.1537 236.78H85.4053C84.9947 236.78 84.7209 237.191 84.7209 237.601C84.7209 238.012 85.1315 238.423 85.5421 238.423H91.2905C91.7011 238.423 91.9749 238.012 91.9749 237.601C91.9749 237.054 91.5643 236.78 91.1537 236.78Z" fill="#002CA7"/>
<path d="M101.556 236.78H95.8071C95.3965 236.78 95.1228 237.191 95.1228 237.601C95.1228 238.012 95.5335 238.423 95.9441 238.423H101.693C102.103 238.423 102.377 238.012 102.377 237.601C102.377 237.054 101.966 236.78 101.556 236.78Z" fill="#002CA7"/>
<path d="M111.958 236.78H106.209C105.798 236.78 105.525 237.191 105.525 237.601C105.525 238.012 105.935 238.423 106.346 238.423H112.094C112.505 238.423 112.779 238.012 112.779 237.601C112.779 237.054 112.368 236.78 111.958 236.78Z" fill="#002CA7"/>
<path d="M122.359 236.78H116.611C116.2 236.78 115.927 237.191 115.927 237.601C115.927 238.012 116.337 238.423 116.748 238.423H122.496C122.907 238.423 123.181 238.012 123.181 237.601C123.181 237.054 122.77 236.78 122.359 236.78Z" fill="#FE5D89"/>
<path d="M68.7074 241.16H65.012C64.6014 241.16 64.3276 241.571 64.3276 241.981C64.3276 242.392 64.7383 242.803 65.1489 242.803H68.8443C69.2549 242.803 69.5287 242.392 69.5287 241.981C69.5287 241.434 69.118 241.16 68.7074 241.16Z" fill="#FE5D89"/>
<path d="M77.1932 241.16H73.4978C73.0872 241.16 72.8134 241.571 72.8134 241.981C72.8134 242.392 73.2241 242.803 73.6347 242.803H77.3301C77.7407 242.803 78.0144 242.392 78.0144 241.981C78.0144 241.434 77.6038 241.16 77.1932 241.16Z" fill="#002CA7"/>
<path d="M85.8158 241.16H82.1204C81.7098 241.16 81.4361 241.571 81.4361 241.981C81.4361 242.392 81.8467 242.803 82.2573 242.803H85.9528C86.3634 242.803 86.6371 242.392 86.6371 241.981C86.6371 241.434 86.2264 241.16 85.8158 241.16Z" fill="#002CA7"/>
<path d="M94.3016 241.16H90.6062C90.1956 241.16 89.9218 241.571 89.9218 241.981C89.9218 242.392 90.3325 242.803 90.7431 242.803H94.4384C94.8491 242.803 95.1228 242.392 95.1228 241.981C95.1228 241.434 94.8491 241.16 94.3016 241.16Z" fill="#002CA7"/>
<path d="M102.924 241.16H99.2288C98.8182 241.16 98.5445 241.571 98.5445 241.981C98.5445 242.392 98.9551 242.803 99.3657 242.803H103.061C103.472 242.803 103.746 242.392 103.746 241.981C103.746 241.434 103.335 241.16 102.924 241.16Z" fill="#FE5D89"/>
<path d="M111.547 241.16H107.852C107.441 241.16 107.167 241.571 107.167 241.981C107.167 242.392 107.578 242.803 107.988 242.803H111.684C112.094 242.803 112.368 242.392 112.368 241.981C112.231 241.434 111.957 241.16 111.547 241.16Z" fill="#002CA7"/>
<path d="M120.033 241.16H116.337C115.927 241.16 115.653 241.571 115.653 241.981C115.653 242.392 116.064 242.803 116.474 242.803H120.17C120.58 242.803 120.854 242.392 120.854 241.981C120.854 241.434 120.443 241.16 120.033 241.16Z" fill="#002CA7"/>
<path d="M35.9962 264.017L39.1442 260.458C39.4179 260.185 39.4178 259.637 39.0072 259.364C38.7335 259.09 38.186 259.09 37.9123 259.364L34.2169 263.47C33.9431 263.743 33.9432 264.291 34.3538 264.564L38.5966 268.397C38.7335 268.534 39.0073 268.671 39.1442 268.671C39.281 268.671 39.5547 268.534 39.6916 268.397C39.9653 268.123 39.9653 267.576 39.5547 267.302L35.9962 264.017Z" fill="#002CA7"/>
<path d="M40.1022 264.017L43.2502 260.458C43.5239 260.185 43.5239 259.637 43.1133 259.364C42.8395 259.09 42.2921 259.09 42.0183 259.364L38.3229 263.47C38.0492 263.743 38.0492 264.291 38.4598 264.564L42.7027 268.397C42.8395 268.534 43.1133 268.671 43.2502 268.671C43.387 268.671 43.6607 268.534 43.7976 268.397C44.0713 268.123 44.0714 267.576 43.6608 267.302L40.1022 264.017Z" fill="#002CA7"/>
<path d="M149.049 193.804L152.196 190.246C152.47 189.972 152.47 189.424 152.06 189.151C151.786 188.877 151.238 188.877 150.965 189.151L147.269 193.257C147.132 193.394 147.132 193.53 147.132 193.804C147.132 193.941 147.269 194.215 147.406 194.352L151.649 198.184C151.786 198.321 152.06 198.458 152.196 198.458C152.333 198.458 152.607 198.321 152.744 198.184C153.018 197.91 153.018 197.363 152.607 197.089L149.049 193.804Z" fill="#002CA7"/>
<path d="M173 211.46H140.836C140.426 211.46 140.152 211.871 140.152 212.281C140.152 212.692 140.563 213.102 140.973 213.102H173.137C173.548 213.102 173.821 212.692 173.821 212.281C173.821 211.871 173.411 211.46 173 211.46Z" fill="#002CA7"/>
<path d="M164.651 222.546H152.06C151.649 222.546 151.375 222.957 151.375 223.367C151.375 223.778 151.786 224.189 152.196 224.189H164.788C165.199 224.189 165.473 223.778 165.473 223.367C165.473 222.82 165.062 222.546 164.651 222.546Z" fill="#002CA7"/>
<path d="M165.199 228.705H152.607C152.196 228.705 151.923 229.116 151.923 229.526C151.923 229.937 152.333 230.348 152.744 230.348H165.336C165.746 230.348 166.02 229.937 166.02 229.526C166.02 228.979 165.609 228.705 165.199 228.705Z" fill="#002CA7"/>
<path d="M165.746 234.864H153.155C152.744 234.864 152.47 235.275 152.47 235.685C152.47 236.096 152.881 236.507 153.291 236.507H165.883C166.294 236.507 166.568 236.096 166.568 235.685C166.431 235.275 166.157 234.864 165.746 234.864Z" fill="#002CA7"/>
<path d="M166.294 241.023H153.702C153.291 241.023 153.018 241.434 153.018 241.844C153.018 242.255 153.428 242.666 153.839 242.666H166.431C166.841 242.666 167.115 242.255 167.115 241.844C166.978 241.434 166.704 241.023 166.294 241.023Z" fill="#002CA7"/>
<path d="M191.614 219.261H183.129C182.718 219.261 182.444 219.672 182.444 220.083C182.444 220.493 182.855 220.904 183.265 220.904H191.751C192.162 220.904 192.436 220.493 192.436 220.083C192.436 219.535 192.025 219.261 191.614 219.261Z" fill="#002CA7"/>
<path d="M191.888 222.683H183.402C182.992 222.683 182.718 223.094 182.718 223.504C182.718 223.915 183.129 224.326 183.539 224.326H192.025C192.436 224.326 192.709 223.915 192.709 223.504C192.709 223.094 192.435 222.683 191.888 222.683Z" fill="#002CA7"/>
<path d="M192.299 226.242H183.813C183.402 226.242 183.129 226.652 183.129 227.063C183.129 227.474 183.539 227.884 183.95 227.884H192.436C192.846 227.884 193.12 227.474 193.12 227.063C192.983 226.515 192.709 226.242 192.299 226.242Z" fill="#002CA7"/>
<path d="M192.572 229.8H183.95C183.539 229.8 183.265 230.211 183.265 230.621C183.265 231.032 183.676 231.443 184.087 231.443H192.572C192.983 231.443 193.257 231.032 193.257 230.621C193.394 230.074 192.983 229.8 192.572 229.8Z" fill="#002CA7"/>
<path d="M192.846 233.222H184.36C183.95 233.222 183.676 233.632 183.676 234.043C183.676 234.454 184.087 234.864 184.497 234.864H192.983C193.394 234.864 193.667 234.454 193.667 234.043C193.667 233.632 193.257 233.222 192.846 233.222Z" fill="#002CA7"/>
<path d="M193.12 236.78H184.634C184.223 236.78 183.95 237.191 183.95 237.601C183.95 238.012 184.36 238.423 184.771 238.423H193.257C193.667 238.423 193.941 238.012 193.941 237.601C193.941 237.054 193.53 236.78 193.12 236.78Z" fill="#002CA7"/>
<path d="M193.53 240.202H185.045C184.634 240.202 184.36 240.613 184.36 241.023C184.36 241.434 184.771 241.844 185.182 241.844H193.667C194.078 241.844 194.352 241.434 194.352 241.023C194.215 240.613 193.941 240.202 193.53 240.202Z" fill="#002CA7"/>
<path d="M193.804 243.76H185.318C184.908 243.76 184.634 244.171 184.634 244.582C184.634 244.992 185.045 245.403 185.455 245.403H193.941C194.352 245.403 194.625 244.992 194.625 244.582C194.625 244.171 194.215 243.76 193.804 243.76Z" fill="#002CA7"/>
<path d="M124.276 259.227H52.5571C52.1465 259.227 51.8727 259.637 51.8727 260.048C51.8727 260.458 52.2833 260.869 52.6939 260.869H124.412C124.823 260.869 125.097 260.458 125.097 260.048C125.097 259.637 124.686 259.227 124.276 259.227Z" fill="#002CA7"/>
<path d="M90.6062 263.196H52.9677C52.5571 263.196 52.2833 263.606 52.2833 264.017C52.2833 264.427 52.694 264.838 53.1046 264.838H90.7431C91.1537 264.838 91.4274 264.427 91.4274 264.017C91.4274 263.606 91.0168 263.196 90.6062 263.196Z" fill="#002CA7"/>
<path d="M91.0168 268.807H53.3782C52.9676 268.807 52.6939 269.218 52.6939 269.629C52.6939 270.039 53.1046 270.45 53.5152 270.45H91.1537C91.5643 270.45 91.838 270.039 91.838 269.629C91.838 269.081 91.5642 268.807 91.0168 268.807Z" fill="#002CA7"/>
<path d="M197.91 170.126L193.12 175.327C192.983 175.601 192.983 175.874 193.12 176.011C193.394 176.148 193.667 176.148 193.804 176.011L198.595 170.81C198.731 170.674 198.731 170.263 198.595 170.126C198.458 169.989 198.184 169.989 197.91 170.126Z" fill="white"/>
<path d="M193.394 170.126C193.12 169.989 192.846 169.989 192.709 170.126C192.572 170.263 192.572 170.673 192.709 170.81L198.458 176.011C198.731 176.148 199.005 176.148 199.142 176.011C199.279 175.874 199.279 175.464 199.142 175.327L193.394 170.126Z" fill="white"/>
<path d="M185.182 169.579C183.265 169.579 181.76 171.221 181.897 173.137C182.034 175.053 183.813 176.696 185.729 176.696C187.645 176.696 189.151 175.053 189.014 173.137C188.877 171.221 187.098 169.579 185.182 169.579ZM185.729 175.874C184.223 175.874 182.855 174.643 182.718 173.137C182.581 171.632 183.676 170.4 185.182 170.4C186.687 170.4 188.056 171.632 188.193 173.137C188.329 174.643 187.235 175.874 185.729 175.874Z" fill="white"/>
<path d="M178.475 175.327H172.042C171.769 175.327 171.632 175.464 171.632 175.738C171.632 176.011 171.905 176.148 172.042 176.148H178.475C178.749 176.148 178.886 176.011 178.886 175.738C178.886 175.464 178.612 175.327 178.475 175.327Z" fill="white"/>
<path d="M548.564 183.676C547.743 183.539 546.511 183.265 545.827 182.855C541.858 181.075 546.237 176.422 547.332 174.095C549.796 168.62 548.154 163.146 543.637 159.04C539.257 155.07 534.604 154.66 531.73 149.048C527.35 140.699 533.646 135.225 528.582 127.15C526.392 123.591 521.328 123.591 518.18 121.675C516.264 120.58 515.032 117.432 513.526 115.653C508.051 109.494 498.06 109.083 490.806 112.094C486.29 114.01 484.1 120.169 478.625 120.169C475.066 120.169 470.687 121.127 469.455 124.96C468.497 127.834 470.139 130.571 470.002 133.445C469.866 136.183 468.907 138.92 466.991 140.973C464.117 144.121 459.874 144.669 457.821 148.638C456.726 150.691 456.316 153.017 456.179 155.344C456.042 159.45 457 163.419 458.916 167.115C460.695 170.536 463.296 173.411 464.801 176.969C466.991 182.444 462.748 188.192 462.748 193.804C462.475 216.798 479.173 233.085 497.923 239.791C510.515 244.308 531.593 241.16 544.184 236.096C559.787 229.8 576.485 214.608 567.452 196.404C563.893 189.698 556.229 185.044 548.564 183.676Z" fill="#2C1E56"/>
<path d="M461.243 273.734C460.011 282.083 477.941 489.164 477.941 489.164C478.078 489.574 483.142 492.722 487.658 489.437C487.658 489.437 490.943 441.671 497.376 396.641C502.987 357.771 504.493 322.322 505.177 318.49C507.093 306.993 505.177 277.293 505.177 277.293C489.438 278.388 466.444 275.924 461.243 273.734Z" fill="#8AA5F8"/>
<path d="M488.616 484.647C487.385 485.057 482.731 484.921 481.636 484.784C481.636 484.099 481.773 483.141 481.362 482.183C480.267 481.909 478.078 480.404 476.983 480.267C477.393 482.457 478.078 494.091 475.751 495.733C473.013 497.786 467.812 497.786 466.991 497.786C462.885 497.786 461.927 500.113 461.927 501.071C461.927 502.576 462.885 503.124 464.117 503.124C469.181 503.124 480.815 503.124 484.237 503.124C486.427 503.124 488.48 503.398 490.396 501.345C491.08 500.66 491.08 499.292 490.669 498.06C490.122 496.828 488.753 488.069 488.616 484.647Z" fill="#002CA7"/>
<path d="M384.871 145.49C384.05 145.764 382.271 150.007 382.407 150.828C383.229 152.607 383.639 151.923 385.145 152.607C385.008 150.965 385.008 149.186 385.418 147.543C385.555 146.585 385.829 145.216 384.871 145.49Z" fill="#FFE1BD"/>
<path d="M379.122 145.627C378.438 145.079 376.933 143.437 376.248 143.026C375.153 142.342 374.332 142.753 373.648 143.026C372.827 143.437 372.827 144.258 372.827 144.258C371.732 144.532 372.69 146.722 372.416 146.722C371.321 146.859 370.774 148.227 373.374 150.554C373.511 150.691 378.164 157.671 379.807 159.861C381.586 158.766 386.103 154.523 386.103 154.386C385.418 153.018 384.46 151.649 383.502 150.417C382.407 148.912 379.259 145.901 379.122 145.627Z" fill="#FFE1BD"/>
<path d="M480.404 181.76C471.097 181.623 441.945 188.74 427.437 189.424C409.507 190.383 416.624 202.564 422.099 203.932C436.607 207.765 478.214 211.597 481.089 204.206C482.184 201.058 482.047 181.76 480.404 181.76Z" fill="#FFE1BD"/>
<path d="M427.574 192.709C420.867 185.318 391.167 162.051 385.282 153.155C382.818 155.618 381.586 158.355 379.67 159.45C389.524 173.821 417.035 206.122 423.741 203.932C429.763 202.016 429.9 197.226 428.668 194.352C428.395 193.667 427.984 193.12 427.574 192.709Z" fill="#FFE1BD"/>
<path d="M480.404 181.76C473.835 181.623 457.137 184.634 442.903 185.455C442.355 190.109 442.218 196.815 442.492 201.605C442.629 203.522 442.766 209.407 443.04 211.323C459.874 213.102 479.173 209.133 480.952 204.206C482.184 201.058 482.047 181.76 480.404 181.76Z" fill="#00BFFF"/>
<path d="M539.394 273.734C534.193 276.061 496.965 283.041 481.226 281.946C481.226 281.946 485.195 304.53 489.711 327.386C493.544 347.369 498.334 368.173 500.798 385.418C507.23 430.447 525.707 487.658 525.707 487.658C530.087 490.122 535.562 486.152 535.562 485.879C535.562 485.879 529.403 404.99 531.045 391.988C533.098 376.385 539.942 278.251 539.394 273.734Z" fill="#D9E2FF"/>
<path d="M460.011 270.313C460.011 270.313 454.947 294.401 457.411 296.454C462.885 301.245 483.415 296.865 498.881 294.949C514.484 293.033 543.226 296.181 543.911 293.033C545.964 284.41 542.131 265.522 542.131 265.522L460.011 270.313Z" fill="#3964F9"/>
<path d="M500.524 157.945C499.429 158.766 488.069 165.062 484.784 164.514C484.784 165.473 486.974 174.916 484.921 180.117C485.879 184.908 499.018 184.908 502.714 176.832C501.208 174.506 499.976 162.325 500.524 157.945Z" fill="#FFE1BD"/>
<path d="M488.616 142.068C482.594 141.658 476.846 143.026 475.477 148.638C475.066 150.691 475.888 168.894 485.605 171.768C489.711 173 497.65 165.883 497.923 161.093L498.334 154.523C498.881 148.09 495.049 142.616 488.616 142.068Z" fill="#FFE1BD"/>
<path d="M498.197 151.923C497.513 151.923 496.418 152.196 495.46 152.881C496.007 155.071 497.513 158.492 498.197 160.272C499.703 159.724 501.482 157.26 501.482 155.755C501.619 154.113 499.839 151.923 498.197 151.923Z" fill="#FFE1BD"/>
<path d="M534.056 198.184C530.361 188.193 526.118 182.855 515.99 180.391C512.568 179.57 502.577 176.833 502.577 176.833C502.577 176.833 495.46 182.992 490.806 183.402C487.521 183.676 484.784 180.117 484.784 180.117C484.784 180.117 473.15 183.676 471.097 184.908C462.885 189.698 462.748 197.636 462.338 204.343C457.547 270.587 454.536 280.167 456.589 283.863C461.653 292.896 545.964 286.874 544.458 275.788C539.394 238.833 535.151 201.332 534.056 198.184Z" fill="#00BFFF"/>
<path d="M450.567 276.472C449.609 276.198 448.788 275.788 448.651 277.019C448.514 277.841 451.662 279.209 452.483 279.072C454.263 278.251 453.852 277.156 455.631 276.746C453.989 276.883 452.21 276.746 450.567 276.472Z" fill="#FFE1BD"/>
<path d="M457 276.335C455.221 276.883 453.305 277.567 451.525 278.388C449.335 279.346 444.819 281.947 444.408 282.084C443.45 282.631 440.987 283.863 440.439 284.547C440.028 284.958 439.618 286.464 439.755 287.148C439.892 287.969 440.987 288.106 440.987 288.106C440.987 289.201 443.861 288.653 443.724 288.927C443.45 290.022 444.956 290.706 448.514 288.653C448.788 288.517 458.506 284.958 461.517 283.589C460.969 281.536 457.137 276.198 457 276.335Z" fill="#FFE1BD"/>
<path d="M524.612 193.53C521.738 191.751 502.714 188.193 502.44 189.835C500.524 198.868 501.892 228.842 499.839 243.35C497.376 261.143 510.652 256.489 513.116 251.425C519.548 237.875 531.182 197.636 524.612 193.53Z" fill="#FFE1BD"/>
<path d="M505.451 242.392C504.767 242.529 504.082 242.803 503.672 243.077C495.049 248.141 466.307 272.64 456.452 276.472C458.369 279.346 459.737 281.81 460.422 284C476.572 277.293 514.758 256.079 513.937 249.099C513.252 242.803 508.599 241.708 505.451 242.392Z" fill="#FFE1BD"/>
<path d="M502.303 189.835C498.744 195.31 500.661 213.239 498.744 227.474C504.493 230.758 515.442 233.222 524.202 232.264C529.129 215.977 530.224 200.921 528.855 195.857C525.297 182.855 506.82 182.581 502.303 189.835Z" fill="#00BFFF"/>
<path d="M535.151 483.278C533.919 483.689 529.266 483.963 528.171 483.826C528.034 483.142 528.171 482.184 527.623 481.225C526.528 480.952 524.339 479.583 523.107 479.583C523.654 481.773 524.886 493.27 522.833 495.186C520.233 497.376 515.032 497.786 514.21 497.786C510.104 498.06 509.283 500.387 509.42 501.345C509.557 502.85 510.515 503.398 511.747 503.398C516.811 503.124 528.308 502.303 531.866 502.166C534.056 502.029 536.246 502.166 537.888 499.976C538.436 499.155 538.436 497.923 538.025 496.691C537.204 495.186 535.425 486.7 535.151 483.278Z" fill="#002CA7"/>
<path d="M141.11 503.261H195.173L203.795 430.995H132.351L141.11 503.261ZM146.174 499.155L145.353 490.532H153.291L153.839 499.155H146.174ZM190.109 499.155H181.486L182.033 490.532H190.93L190.109 499.155ZM191.477 485.058H182.444L183.128 473.698H192.709L191.477 485.058ZM185.181 437.975H195.994L195.036 447.556H184.497L185.181 437.975ZM184.36 452.21H194.625L192.709 471.645H183.128L184.36 452.21ZM170.947 437.975H183.128L182.581 447.556H170.81L170.947 437.975ZM170.81 452.21H182.444L181.486 471.645H170.674L170.81 452.21ZM170.674 473.698H181.349L180.802 485.058H170.537L170.674 473.698ZM170.537 490.532H180.528L180.117 499.155H170.537V490.532ZM168.073 499.155H156.029L155.618 490.532H168.073V499.155ZM168.073 485.058H155.208L154.66 473.698H168.073V485.058ZM168.073 471.645H154.523L153.565 452.21H168.073V471.645ZM168.073 437.975V447.556H153.291L152.744 437.975H168.073ZM152.881 485.058H144.806L143.711 473.698H152.196L152.881 485.058ZM152.06 471.645H143.574L141.658 452.21H150.828L152.06 471.645ZM150.554 447.556H141.247L140.289 437.975H149.87L150.554 447.556Z" fill="#8AA5F8"/>
</svg>
