<svg width="570" height="497" viewBox="0 0 570 497" fill="none" xmlns="http://www.w3.org/2000/svg">
<path d="M537.105 80.9858H76.4019V411.806H537.105V80.9858Z" fill="#FBFEFF"/>
<path d="M537.105 80.9858H76.4019V241.124H537.105V80.9858Z" fill="#3964F9"/>
<path d="M176.947 187.185H132.022C125.299 187.185 119.951 192.685 119.951 199.256C119.951 205.979 125.452 211.328 132.022 211.328H176.947C183.67 211.328 189.018 205.827 189.018 199.256C189.018 192.533 183.517 187.185 176.947 187.185Z" fill="#00BFFF"/>
<path d="M212.856 266.795H114.756V378.342H212.856V266.795Z" fill="#DCDEEF"/>
<path d="M163.805 333.876C177.814 333.876 189.171 322.519 189.171 308.51C189.171 294.501 177.814 283.145 163.805 283.145C149.796 283.145 138.44 294.501 138.44 308.51C138.44 322.519 149.796 333.876 163.805 333.876Z" fill="#FBFEFF"/>
<path d="M355.88 266.795H257.78V378.342H355.88V266.795Z" fill="#DCDEEF"/>
<path d="M306.83 333.876C320.839 333.876 332.195 322.519 332.195 308.51C332.195 294.501 320.839 283.145 306.83 283.145C292.821 283.145 281.464 294.501 281.464 308.51C281.464 322.519 292.821 333.876 306.83 333.876Z" fill="#FBFEFF"/>
<path d="M498.904 266.795H400.804V378.342H498.904V266.795Z" fill="#DCDEEF"/>
<path d="M449.854 333.876C463.863 333.876 475.22 322.519 475.22 308.51C475.22 294.501 463.863 283.145 449.854 283.145C435.845 283.145 424.489 294.501 424.489 308.51C424.489 322.519 435.845 333.876 449.854 333.876Z" fill="#FBFEFF"/>
<path d="M297.203 115.978H119.798V130.189H297.203V115.978Z" fill="#FBFEFF"/>
<path d="M239.749 146.539H119.798V160.749H239.749V146.539Z" fill="#FBFEFF"/>
<path d="M537.105 66.6223H76.4019V80.9859H537.105V66.6223Z" fill="#4181F4"/>
<path d="M95.5023 74.2624C95.5023 76.7072 93.5159 78.5409 91.2238 78.5409C88.779 78.5409 86.9453 76.5544 86.9453 74.2624C86.9453 71.8175 88.9318 69.9839 91.2238 69.9839C93.6687 69.9839 95.5023 71.8175 95.5023 74.2624Z" fill="#FBFEFF"/>
<path d="M104.518 78.5409C106.881 78.5409 108.796 76.6253 108.796 74.2624C108.796 71.8994 106.881 69.9839 104.518 69.9839C102.155 69.9839 100.239 71.8994 100.239 74.2624C100.239 76.6253 102.155 78.5409 104.518 78.5409Z" fill="#FBFEFF"/>
<path d="M122.09 74.2624C122.09 76.7072 120.104 78.5409 117.812 78.5409C115.367 78.5409 113.533 76.5544 113.533 74.2624C113.533 71.8175 115.52 69.9839 117.812 69.9839C120.104 69.9839 122.09 71.8175 122.09 74.2624Z" fill="#FBFEFF"/>
<path d="M499.515 111.852H347.628V211.939H499.515V111.852Z" fill="#FBFEFF"/>
<path d="M170.376 196.505H138.746V202.465H170.376V196.505Z" fill="#FBFEFF"/>
<path d="M418.988 177.863C432.153 177.863 442.825 167.191 442.825 154.026C442.825 140.861 432.153 130.189 418.988 130.189C405.823 130.189 395.15 140.861 395.15 154.026C395.15 167.191 405.823 177.863 418.988 177.863Z" fill="#00BFFF"/>
<path d="M391.636 135.843L347.628 211.939H434.115L391.636 135.843Z" fill="#DCDEEF"/>
<path d="M457.189 158.457L413.181 211.939H499.515L457.189 158.457Z" fill="#DCDEEF"/>
<path d="M325.166 52.7173H277.644C276.727 52.7173 275.811 51.9533 275.811 50.8837V3.36172C275.811 2.4449 276.575 1.52808 277.644 1.52808H325.166C326.083 1.52808 327 2.29209 327 3.36172V50.8837C327 51.9533 326.236 52.7173 325.166 52.7173Z" fill="#0A5DE2"/>
<path d="M310.039 13.7522C314.317 19.8643 312.789 28.2685 306.83 32.547C300.718 36.8255 292.313 35.2975 288.035 29.3382C283.756 23.226 285.284 14.8218 291.244 10.5433C297.356 6.112 305.76 7.64003 310.039 13.7522Z" fill="#0A5DE2"/>
<path d="M309.461 24.2372C310.963 18.5242 307.55 12.675 301.837 11.1727C296.124 9.67048 290.275 13.084 288.772 18.797C287.27 24.51 290.684 30.3592 296.397 31.8615C302.11 33.3637 307.959 29.9502 309.461 24.2372Z" fill="#0A5DE2"/>
<path d="M307.288 30.0273L304.288 32.1368L314.308 46.386L317.308 44.2766L307.288 30.0273Z" fill="#0A5DE2"/>
<path d="M418.988 52.7173H371.313C370.396 52.7173 369.479 51.9533 369.479 50.8837V3.36172C369.479 2.4449 370.243 1.52808 371.313 1.52808H418.835C419.752 1.52808 420.668 2.29209 420.668 3.36172V50.8837C420.668 51.9533 419.904 52.7173 418.988 52.7173Z" fill="#0A5DE2"/>
<path d="M385.982 14.9749H384.301V39.2706H385.982V14.9749Z" fill="#0A5DE2"/>
<path d="M387.82 28.9923V35.1045H408.601V28.9923H387.82Z" fill="#0A5DE2"/>
<path d="M387.774 19.9054V26.0176H403.054V19.9054H387.774Z" fill="#0A5DE2"/>
<path d="M491.722 52.7173H539.244C540.161 52.7173 541.078 51.9533 541.078 50.8837V3.36172C541.078 2.4449 540.314 1.52808 539.244 1.52808H491.722C490.805 1.52808 489.889 2.29209 489.889 3.36172V50.8837C489.889 51.9533 490.653 52.7173 491.722 52.7173Z" fill="#0A5DE2"/>
<path d="M524.612 39.2461H526.292V14.9503H524.612V39.2461Z" fill="#0A5DE2"/>
<path d="M502.069 29.0973V35.2095H522.85V29.0973H502.069Z" fill="#0A5DE2"/>
<path d="M507.489 19.9753V26.0874H522.769V19.9753H507.489Z" fill="#0A5DE2"/>
<path d="M477.664 52.7173H430.142C429.226 52.7173 428.309 51.9533 428.309 50.8837V3.36172C428.309 2.4449 429.073 1.52808 430.142 1.52808H477.664C478.581 1.52808 479.498 2.29209 479.498 3.36172V50.8837C479.498 51.9533 478.581 52.7173 477.664 52.7173Z" fill="#0A5DE2"/>
<path d="M454.744 14.9749H453.063V39.2706H454.744V14.9749Z" fill="#0A5DE2"/>
<path d="M443.484 29.0365V35.1487H464.266V29.0365H443.484Z" fill="#0A5DE2"/>
<path d="M446.171 19.932V26.0442H461.452V19.932H446.171Z" fill="#0A5DE2"/>
<path d="M132.786 52.7173H85.1116C84.1948 52.7173 83.278 51.9533 83.278 50.8837V3.36172C83.278 2.4449 84.042 1.52808 85.1116 1.52808H132.634C133.703 1.52808 134.467 2.29209 134.467 3.36172V50.8837C134.467 51.9533 133.703 52.7173 132.786 52.7173Z" fill="#0A5DE2"/>
<path d="M108.796 13.7523L106.046 16.1972L100.85 10.6963C99.4752 9.62664 97.1831 9.62664 95.8079 10.6963C95.3495 11.3075 94.8911 12.2243 94.8911 13.1411C94.8911 14.0579 95.3495 14.9748 95.8079 15.586L101.309 21.0869L92.599 29.4911L107.268 44.1603L123.313 27.9631L108.796 13.7523ZM97.3359 14.2107C97.3359 14.0579 97.1831 13.5995 97.1831 13.2939C97.1831 13.1411 97.3359 12.6827 97.3359 12.3771C97.7943 12.2243 98.7112 12.2243 99.1696 12.3771L104.67 17.878L102.837 19.4061L97.3359 14.2107ZM97.3359 28.1159L106.046 19.4061L108.796 22.1565C109.102 22.3093 109.255 22.3093 109.713 22.3093C110.171 22.3093 110.324 22.3093 110.63 22.1565C110.783 21.6981 110.783 21.0869 110.324 20.6285L107.574 17.878L108.491 16.9612L119.951 28.1159H97.3359Z" fill="#0A5DE2"/>
<path d="M125.299 37.7424C125.299 39.7288 123.618 41.2569 121.632 41.2569C119.645 41.2569 118.117 39.576 118.117 37.5896C118.117 35.6031 121.479 31.6303 121.784 31.9359C123.16 33.4639 125.299 35.756 125.299 37.7424Z" fill="#0A5DE2"/>
<path d="M52.4117 124.993H4.88974C3.97291 124.993 3.05609 124.229 3.05609 123.16V75.6378C3.05609 74.721 3.82011 73.8042 4.88974 73.8042H52.4117C53.3285 73.8042 54.2453 74.5682 54.2453 75.6378V123.16C54.2453 124.229 53.4813 124.993 52.4117 124.993Z" fill="#0A5DE2"/>
<path d="M30.8663 108.032C30.8663 108.949 30.8663 109.713 31.0191 110.172C31.1719 110.63 31.3247 111.088 31.6303 111.394C31.9359 111.7 32.3943 111.852 32.8527 112.005C33.4639 112.158 34.0752 112.311 34.992 112.311C35.1448 112.311 35.2976 112.464 35.4504 112.616C35.6032 112.769 35.6032 112.922 35.6032 113.075C35.6032 113.228 35.6032 113.38 35.4504 113.533C35.2976 113.686 35.1448 113.686 34.992 113.686C33.9223 113.686 32.6999 113.686 31.7831 113.533C30.7135 113.38 29.6438 113.38 28.727 113.38C27.6574 113.38 26.5878 113.38 25.3653 113.533C24.1429 113.686 23.2261 113.686 22.1565 113.686C22.0037 113.686 21.8509 113.686 21.6981 113.533C21.5453 113.38 21.5453 113.228 21.5453 113.075C21.5453 112.922 21.5453 112.769 21.6981 112.616C21.8509 112.464 21.8509 112.311 22.1565 112.311C23.0733 112.158 23.6845 112.158 24.2957 112.005C24.7541 111.852 25.2125 111.7 25.5181 111.394C25.8238 111.088 25.9766 110.63 26.1294 110.172C26.2822 109.713 26.2822 108.949 26.2822 108.032V89.0847C26.2822 88.0151 25.9766 87.4038 25.5181 87.0982C25.0597 86.7926 24.1429 86.6398 22.9205 86.6398C21.8509 86.6398 20.934 86.7926 20.3228 86.9454C19.7116 87.0982 19.1004 87.4038 18.642 87.8623C18.1836 88.3207 17.878 88.7791 17.5724 89.5431C17.2667 90.3071 17.1139 91.2239 16.8083 92.2936C16.8083 92.4464 16.6555 92.5992 16.5027 92.5992C16.3499 92.5992 16.1971 92.752 16.0443 92.5992C15.8915 92.5992 15.7387 92.5992 15.5859 92.4464C15.4331 92.2936 15.4331 92.2936 15.4331 92.1408C15.5859 91.0711 15.5859 90.0015 15.5859 88.9319C15.5859 87.8623 15.5859 86.7926 15.4331 85.723C15.4331 85.4174 15.5859 85.2646 16.0443 85.1118C16.5027 84.959 16.8083 84.959 17.4196 84.959H40.1873C40.7985 84.959 41.1041 84.959 41.5625 85.1118C41.8681 85.2646 42.0209 85.4174 42.0209 85.723C42.0209 86.0286 41.8681 86.487 41.8681 86.9454C41.8681 87.4038 41.8681 88.0151 41.8681 88.6263C41.8681 89.2375 41.8681 89.8487 41.8681 90.4599C41.8681 91.0711 42.0209 91.6824 42.0209 92.2936C42.0209 92.4464 42.0209 92.4464 41.8681 92.5992C41.7153 92.752 41.5625 92.752 41.4097 92.752C41.2569 92.752 41.1041 92.752 40.9513 92.752C40.7985 92.752 40.6457 92.5992 40.6457 92.4464C40.4929 91.3767 40.1873 90.3071 40.0345 89.6959C39.7289 88.9319 39.4233 88.4735 38.9649 88.0151C38.5065 87.5566 37.8952 87.251 37.284 87.0982C36.6728 86.9454 35.756 86.7926 34.8392 86.7926C33.6167 86.7926 32.6999 86.9454 32.0887 87.251C31.4775 87.5566 31.1719 88.1679 31.1719 89.2375V108.032H30.8663Z" fill="#0A5DE2"/>
<path d="M52.4117 406.611H4.88974C3.97291 406.611 3.05609 405.847 3.05609 404.777V357.255C3.05609 356.338 3.82011 355.421 4.88974 355.421H52.4117C53.3285 355.421 54.2453 356.185 54.2453 357.255V404.93C54.2453 405.847 53.4813 406.611 52.4117 406.611Z" fill="#0A5DE2"/>
<path d="M16.9613 377.425C21.3496 377.425 24.9071 373.868 24.9071 369.479C24.9071 365.091 21.3496 361.533 16.9613 361.533C12.573 361.533 9.0155 365.091 9.0155 369.479C9.0155 373.868 12.573 377.425 16.9613 377.425Z" fill="#0A5DE2"/>
<path d="M39.729 362.145L31.3248 376.814H48.286L39.729 362.145Z" fill="#0A5DE2"/>
<path d="M24.4485 384.912H9.32092V400.04H24.4485V384.912Z" fill="#0A5DE2"/>
<path d="M39.729 384.301L31.172 390.566L34.5337 400.651H45.0771L48.286 390.566L39.729 384.301Z" fill="#0A5DE2"/>
<path d="M52.4117 218.815H4.88974C3.97291 218.815 3.05609 218.051 3.05609 216.981V169.459C3.05609 168.542 3.82011 167.625 4.88974 167.625H52.4117C53.3285 167.625 54.2453 168.39 54.2453 169.459V216.981C54.2453 218.051 53.4813 218.815 52.4117 218.815Z" fill="#0A5DE2"/>
<path d="M42.1739 201.701L34.6865 194.213L40.0346 191.157C40.4931 190.852 40.6459 190.393 40.6459 189.935C40.6459 189.476 40.3402 189.018 39.8818 188.865L16.1973 179.391C15.7389 179.238 15.2804 179.391 14.822 179.697C14.5164 180.002 14.3636 180.614 14.5164 181.072L23.9903 204.757C24.1431 205.215 24.6015 205.521 25.0599 205.521C25.5183 205.521 25.9767 205.368 26.2823 204.909L29.3384 199.561L36.8258 207.049C37.1314 207.354 37.437 207.354 37.7426 207.354C38.0482 207.354 38.3538 207.202 38.6594 207.049L42.3267 203.381C42.6323 202.923 42.6323 202.159 42.1739 201.701Z" fill="#0A5DE2"/>
<path d="M52.4117 312.789H4.88974C3.97291 312.789 3.05609 312.025 3.05609 310.955V263.433C3.05609 262.517 3.82011 261.6 4.88974 261.6H52.4117C53.3285 261.6 54.2453 262.364 54.2453 263.433V310.955C54.2453 312.025 53.4813 312.789 52.4117 312.789Z" fill="#0A5DE2"/>
<path d="M36.6728 284.062L26.7406 272.296L22.1565 275.047L28.8798 285.59C29.7966 285.437 30.7135 285.743 31.1719 286.66C31.7831 287.729 31.4775 289.105 30.4078 289.716C29.3382 290.327 27.963 290.021 27.3518 288.952C26.8934 288.188 26.8934 287.118 27.5046 286.507L20.7812 275.963L16.6555 278.408L22.4621 292.619L38.3536 302.551L36.6728 284.062Z" fill="#0A5DE2"/>
<path d="M322.11 51.1892H274.588C273.671 51.1892 272.755 50.4252 272.755 49.3556V1.83364C272.755 0.916822 273.519 0 274.588 0H322.11C323.027 0 323.944 0.764018 323.944 1.83364V49.3556C323.944 50.4252 323.18 51.1892 322.11 51.1892Z" fill="#F7F5EF"/>
<path d="M306.591 28.3318C311.189 22.5006 310.19 14.0457 304.359 9.44726C298.527 4.84883 290.073 5.8482 285.474 11.6794C280.876 17.5106 281.875 25.9655 287.706 30.564C293.537 35.1624 301.992 34.163 306.591 28.3318Z" fill="#3964F9"/>
<path d="M304.691 13.7523C308.052 18.642 306.983 25.2126 302.093 28.5742C297.203 31.9359 290.633 30.8663 287.271 25.9766C283.909 21.0869 284.979 14.5163 289.869 11.1546C294.606 7.79295 301.329 9.01537 304.691 13.7523Z" fill="#F7F5EF"/>
<path d="M304.235 28.5049L301.235 30.6143L311.255 44.8635L314.255 42.7541L304.235 28.5049Z" fill="#3964F9"/>
<path d="M415.932 51.1892H368.257C367.34 51.1892 366.423 50.4252 366.423 49.3556V1.83364C366.423 0.916822 367.187 0 368.257 0H415.779C416.696 0 417.613 0.764018 417.613 1.83364V49.3556C417.613 50.4252 416.849 51.1892 415.932 51.1892Z" fill="#F7F5EF"/>
<path d="M382.926 13.4468H381.245V37.7426H382.926V13.4468Z" fill="#3964F9"/>
<path d="M384.763 27.464V33.5762H405.545V27.464H384.763Z" fill="#3964F9"/>
<path d="M384.717 18.3771V24.4893H399.998V18.3771H384.717Z" fill="#3964F9"/>
<path d="M488.666 51.1892H536.188C537.105 51.1892 538.022 50.4252 538.022 49.3556V1.83364C538.022 0.916822 537.258 0 536.188 0H488.666C487.749 0 486.833 0.764018 486.833 1.83364V49.3556C486.833 50.4252 487.597 51.1892 488.666 51.1892Z" fill="#F7F5EF"/>
<path d="M521.555 37.7178H523.235V13.422H521.555V37.7178Z" fill="#3964F9"/>
<path d="M499.013 27.569V33.6812H519.794V27.569H499.013Z" fill="#3964F9"/>
<path d="M504.432 18.4467V24.5588H519.713V18.4467H504.432Z" fill="#3964F9"/>
<path d="M474.608 51.1892H427.086C426.17 51.1892 425.253 50.4252 425.253 49.3556V1.83364C425.253 0.916822 426.017 0 427.086 0H474.608C475.525 0 476.442 0.764018 476.442 1.83364V49.3556C476.442 50.4252 475.525 51.1892 474.608 51.1892Z" fill="#F7F5EF"/>
<path d="M451.688 13.4468H450.007V37.7426H451.688V13.4468Z" fill="#AFC6F5"/>
<path d="M440.428 27.5082V33.6204H461.209V27.5082H440.428Z" fill="#3964F9"/>
<path d="M443.115 18.4037V24.5159H458.395V18.4037H443.115Z" fill="#0A5DE2"/>
<path d="M129.73 51.1892H82.0556C81.1387 51.1892 80.2219 50.4252 80.2219 49.3556V1.83364C80.2219 0.916822 80.9859 0 82.0556 0H129.578C130.647 0 131.411 0.764018 131.411 1.83364V49.3556C131.411 50.4252 130.647 51.1892 129.73 51.1892Z" fill="#F7F5EF"/>
<path d="M105.74 12.2243L102.99 14.6691L97.7944 9.16819C96.4191 8.09856 94.1271 8.09856 92.7518 9.16819C92.2934 9.7794 91.835 10.6962 91.835 11.613C91.835 12.5299 92.2934 13.4467 92.7518 14.0579L98.2528 19.5588L89.543 27.963L104.212 42.6322L120.257 26.435L105.74 12.2243ZM94.2799 12.6827C94.2799 12.5299 94.1271 12.0715 94.1271 11.7658C94.1271 11.613 94.2799 11.1546 94.2799 10.849C94.7383 10.6962 95.6551 10.6962 96.1135 10.849L101.614 16.35L99.7808 17.878L94.2799 12.6827ZM94.2799 26.5878L102.99 17.878L105.74 20.6285C106.046 20.7813 106.199 20.7813 106.657 20.7813C107.115 20.7813 107.268 20.7813 107.574 20.6285C107.727 20.1701 107.727 19.5588 107.268 19.1004L104.518 16.35L105.435 15.4331L116.895 26.5878H94.2799Z" fill="#3964F9"/>
<path d="M122.243 36.2143C122.243 38.2008 120.562 39.7288 118.575 39.7288C116.589 39.7288 115.061 38.048 115.061 36.0615C115.061 34.0751 118.423 30.1022 118.728 30.4078C120.103 31.9358 122.243 34.2279 122.243 36.2143Z" fill="#3964F9"/>
<path d="M207.966 52.7173H160.444C159.527 52.7173 158.61 51.9533 158.61 50.8837V3.36172C158.61 2.4449 159.374 1.52808 160.444 1.52808H207.966C208.883 1.52808 209.8 2.29209 209.8 3.36172V50.8837C209.647 51.9533 208.883 52.7173 207.966 52.7173Z" fill="#0A5DE2"/>
<path d="M183.976 13.7523L181.225 16.1972L176.03 10.6963C174.655 9.62664 172.363 9.62664 170.987 10.6963C170.529 11.3075 170.071 12.2243 170.071 13.1411C170.071 14.0579 170.529 14.9748 170.987 15.586L176.488 21.0869L167.779 29.4911L182.448 44.1603L198.492 27.9631L183.976 13.7523ZM172.515 14.2107C172.515 14.0579 172.363 13.5995 172.363 13.2939C172.363 13.1411 172.515 12.6827 172.515 12.3771C172.974 12.2243 173.891 12.2243 174.349 12.3771L179.85 17.878L178.016 19.4061L172.515 14.2107ZM172.515 28.1159L181.225 19.4061L183.976 22.1565C184.281 22.3093 184.434 22.3093 184.893 22.3093C185.351 22.3093 185.504 22.3093 185.809 22.1565C185.962 21.6981 185.962 21.0869 185.504 20.6285L182.753 17.878L183.67 16.9612L195.13 28.1159H172.515Z" fill="#0A5DE2"/>
<path d="M200.478 37.7424C200.478 39.7288 198.798 41.2569 196.811 41.2569C194.825 41.2569 193.297 39.576 193.297 37.5896C193.297 35.6031 196.658 31.6303 196.964 31.9359C198.339 33.4639 200.478 35.756 200.478 37.7424Z" fill="#0A5DE2"/>
<path d="M204.91 51.1892H157.388C156.471 51.1892 155.554 50.4252 155.554 49.3556V1.83364C155.554 0.916822 156.318 0 157.388 0H204.91C205.827 0 206.743 0.764018 206.743 1.83364V49.3556C206.591 50.4252 205.827 51.1892 204.91 51.1892Z" fill="#F7F5EF"/>
<path d="M198.339 11.3076H165.945V40.7987H198.339V11.3076Z" stroke="#3964F9" stroke-miterlimit="10" stroke-dasharray="3 3"/>
<path d="M49.3556 123.466H1.83364C0.916822 123.466 0 122.702 0 121.632V74.11C0 73.1932 0.764018 72.2764 1.83364 72.2764H49.3556C50.2724 72.2764 51.1892 73.0404 51.1892 74.11V121.632C51.1892 122.702 50.4252 123.466 49.3556 123.466Z" fill="#F7F5EF"/>
<path d="M27.8102 106.504C27.8102 107.421 27.8102 108.185 27.963 108.644C28.1158 109.102 28.2686 109.56 28.5742 109.866C28.8798 110.172 29.3383 110.324 29.7967 110.477C30.4079 110.63 31.0191 110.783 31.9359 110.783C32.0887 110.783 32.2415 110.936 32.3943 111.088C32.5471 111.241 32.5471 111.394 32.5471 111.547C32.5471 111.7 32.5471 111.852 32.3943 112.005C32.2415 112.158 32.0887 112.158 31.9359 112.158C30.8663 112.158 29.6439 112.158 28.727 112.005C27.6574 111.852 26.5878 111.852 25.671 111.852C24.6013 111.852 23.5317 111.852 22.3093 112.005C21.0869 112.158 20.17 112.158 19.1004 112.158C18.9476 112.158 18.7948 112.158 18.642 112.005C18.4892 111.852 18.4892 111.7 18.4892 111.547C18.4892 111.394 18.4892 111.241 18.642 111.088C18.7948 110.936 18.7948 110.783 19.1004 110.783C20.0172 110.63 20.6284 110.63 21.2397 110.477C21.6981 110.324 22.1565 110.172 22.4621 109.866C22.7677 109.56 22.9205 109.102 23.0733 108.644C23.2261 108.185 23.2261 107.421 23.2261 106.504V87.5566C23.2261 86.487 22.9205 85.8758 22.4621 85.5702C22.0037 85.2646 21.0869 85.1118 19.8644 85.1118C18.7948 85.1118 17.878 85.2646 17.2668 85.4174C16.6556 85.5702 16.0443 85.8758 15.5859 86.3342C15.1275 86.7926 14.8219 87.251 14.5163 88.015C14.2107 88.7791 14.0579 89.6959 13.7523 90.7655C13.7523 90.9183 13.5995 91.0711 13.4467 91.0711C13.2939 91.0711 13.1411 91.2239 12.9883 91.0711C12.8355 91.0711 12.6827 91.0711 12.5299 90.9183C12.377 90.9183 12.2242 90.7655 12.2242 90.7655C12.377 89.6959 12.377 88.6263 12.377 87.5566C12.377 86.487 12.377 85.4174 12.2242 84.3478C12.2242 84.0422 12.377 83.8893 12.8355 83.7365C13.2939 83.5837 13.5995 83.5837 14.2107 83.5837H36.9784C37.5897 83.5837 37.8953 83.5837 38.3537 83.7365C38.6593 83.8893 38.8121 84.0422 38.8121 84.3478C38.8121 84.6534 38.6593 85.1118 38.6593 85.5702C38.6593 86.0286 38.6593 86.6398 38.6593 87.251C38.6593 87.8622 38.6593 88.4735 38.6593 89.0847C38.6593 89.6959 38.8121 90.3071 38.8121 90.9183C38.8121 91.0711 38.8121 91.0711 38.6593 91.2239C38.5065 91.3767 38.3537 91.3767 38.2009 91.3767C38.0481 91.3767 37.8953 91.3767 37.7425 91.3767C37.5897 91.3767 37.4368 91.2239 37.4368 91.0711C37.284 90.0015 36.9784 88.9319 36.8256 88.3207C36.52 87.5566 36.2144 87.0982 35.756 86.6398C35.2976 86.1814 34.6864 85.8758 34.0752 85.723C33.464 85.5702 32.5471 85.4174 31.6303 85.4174C30.4079 85.4174 29.4911 85.5702 28.8798 85.8758C28.2686 86.1814 27.963 86.7926 27.963 87.8622V106.504H27.8102Z" fill="#3964F9"/>
<path opacity="0.4" d="M298.426 483.776C368.892 483.776 426.017 470.778 426.017 454.744C426.017 438.709 368.892 425.711 298.426 425.711C227.959 425.711 170.835 438.709 170.835 454.744C170.835 470.778 227.959 483.776 298.426 483.776Z" fill="#3878FF"/>
<path d="M49.3556 405.083H1.83364C0.916822 405.083 0 404.319 0 403.249V355.727C0 354.81 0.764018 353.893 1.83364 353.893H49.3556C50.2724 353.893 51.1892 354.657 51.1892 355.727V403.402C51.1892 404.319 50.4252 405.083 49.3556 405.083Z" fill="#F7F5EF"/>
<path d="M21.851 367.951C21.851 372.382 18.3365 375.897 13.9052 375.897C9.4739 375.897 5.95941 372.382 5.95941 367.951C5.95941 363.52 9.4739 360.005 13.9052 360.005C18.3365 360.005 21.851 363.52 21.851 367.951Z" fill="#3964F9"/>
<path d="M36.6729 360.617L28.2687 375.286H45.2299L36.6729 360.617Z" fill="#3964F9"/>
<path d="M21.3923 383.385H6.26477V398.512H21.3923V383.385Z" fill="#3964F9"/>
<path d="M36.6729 382.773L28.1158 389.038L31.4775 399.123H42.021L45.2299 389.038L36.6729 382.773Z" fill="#3964F9"/>
<path d="M49.3556 217.287H1.83364C0.916822 217.287 0 216.523 0 215.453V167.931C0 167.014 0.764018 166.097 1.83364 166.097H49.3556C50.2724 166.097 51.1892 166.861 51.1892 167.931V215.453C51.1892 216.523 50.4252 217.287 49.3556 217.287Z" fill="#F7F5EF"/>
<path d="M39.1179 200.173L31.6305 192.685L36.9786 189.629C37.437 189.324 37.5898 188.865 37.5898 188.407C37.5898 187.948 37.2842 187.49 36.8258 187.337L13.1412 177.863C12.6828 177.711 12.2244 177.863 11.766 178.169C11.4604 178.475 11.3076 179.086 11.4604 179.544L20.9342 203.229C21.087 203.687 21.5454 203.993 22.0038 203.993C22.4623 203.993 22.9207 203.84 23.2263 203.382L26.2824 198.034L33.7697 205.521C34.0753 205.826 34.3809 205.826 34.6866 205.826C34.9922 205.826 35.2978 205.674 35.6034 205.521L39.2707 201.854C39.5763 201.395 39.5763 200.631 39.1179 200.173Z" fill="#3964F9"/>
<path d="M49.3556 311.261H1.83364C0.916822 311.261 0 310.497 0 309.427V261.905C0 260.989 0.764018 260.072 1.83364 260.072H49.3556C50.2724 260.072 51.1892 260.836 51.1892 261.905V309.427C51.1892 310.497 50.4252 311.261 49.3556 311.261Z" fill="#F7F5EF"/>
<path d="M33.6169 282.534L23.6847 270.768L19.1005 273.519L25.8239 284.062C26.7407 283.909 27.6575 284.215 28.116 285.132C28.7272 286.201 28.4216 287.576 27.3519 288.188C26.2823 288.799 24.9071 288.493 24.2959 287.424C23.8375 286.66 23.8375 285.59 24.4487 284.979L17.7253 274.435L13.5996 276.88L19.4061 291.091L35.2977 301.023L33.6169 282.534Z" fill="#3964F9"/>
<path d="M569.347 381.856L553.608 366.118L564.762 359.7C565.679 359.241 566.138 358.172 566.138 357.255C566.138 356.185 565.374 355.421 564.457 354.963L514.49 335.098C513.573 334.64 512.351 334.946 511.587 335.71C510.823 336.474 510.67 337.543 510.976 338.613L530.84 388.58C531.146 389.497 532.062 390.108 533.132 390.261C534.202 390.261 535.119 389.802 535.577 388.885L541.995 377.731L557.734 393.469C558.192 393.928 558.956 394.233 559.567 394.233C560.331 394.233 560.942 393.928 561.401 393.469L569.041 385.829C570.263 384.607 570.263 382.926 569.347 381.856Z" fill="#3964F9"/>
<path d="M502.266 320.124C501.043 318.901 499.21 318.901 498.14 320.124C496.918 321.346 496.918 323.18 498.14 324.249L504.711 330.82C505.322 331.431 506.086 331.737 506.85 331.737C507.614 331.737 508.378 331.431 508.989 330.82C510.212 329.597 510.212 327.764 508.989 326.694L502.266 320.124Z" fill="#3964F9"/>
<path d="M504.558 340.446C504.558 338.766 503.183 337.543 501.655 337.543H492.334C490.653 337.543 489.43 338.918 489.43 340.446C489.43 342.127 490.806 343.35 492.334 343.35H501.655C503.183 343.503 504.558 342.127 504.558 340.446Z" fill="#3964F9"/>
<path d="M518.463 326.541C520.144 326.541 521.366 325.166 521.366 323.638V314.317C521.366 312.636 519.991 311.414 518.463 311.414C516.782 311.414 515.56 312.789 515.56 314.317V323.638C515.56 325.166 516.935 326.541 518.463 326.541Z" fill="#3964F9"/>
<path d="M327 428.767L269.546 429.225L269.087 370.702C269.087 367.187 271.838 364.437 275.352 364.437L320.429 364.131C323.944 364.131 326.694 366.882 326.694 370.396L327 428.767Z" fill="#00BFFF"/>
<path d="M297.356 376.508C293.536 376.508 290.327 373.452 290.327 369.632L290.174 348.392C290.174 347.934 290.633 347.476 291.091 347.476L303.163 347.323C303.621 347.323 304.079 347.781 304.079 348.24L304.232 369.479C304.385 373.452 301.176 376.508 297.356 376.508Z" fill="#F6A091"/>
<path d="M304.232 368.715L304.079 348.24C304.079 347.781 303.621 347.323 303.163 347.323L291.091 347.476C290.633 347.476 290.174 347.934 290.174 348.392L290.327 369.021C292.466 369.632 294.758 370.09 297.05 370.09C299.648 369.938 301.94 369.479 304.232 368.715Z" fill="#ED897C"/>
<path d="M321.652 343.503C321.652 343.197 321.652 343.044 321.652 342.739C321.652 340.599 321.346 338.613 320.888 336.627V333.876C320.888 320.582 310.039 309.58 296.592 309.58C283.298 309.58 272.296 320.429 272.296 333.876V343.35H321.652V343.503Z" fill="#2C1E56"/>
<path d="M319.054 336.627V334.334C319.054 321.957 308.969 312.025 296.745 312.025C284.368 312.025 274.435 322.11 274.435 334.334V343.503C274.435 344.114 274.435 344.725 274.588 345.336C276.116 356.491 285.59 365.048 297.05 365.048C309.58 365.048 319.818 354.81 319.818 342.28C319.818 340.447 319.513 338.46 319.054 336.627Z" fill="#F6A091"/>
<path d="M289.869 346.406C289.869 347.323 289.105 348.087 288.188 348.087C287.271 348.087 286.507 347.323 286.507 346.406C286.507 345.489 287.271 344.725 288.188 344.725C289.105 344.572 289.869 345.336 289.869 346.406Z" fill="#241084"/>
<path d="M306.218 346.406C306.218 347.323 305.454 348.087 304.538 348.087C303.621 348.087 302.857 347.323 302.857 346.406C302.857 345.489 303.621 344.725 304.538 344.725C305.454 344.572 306.218 345.336 306.218 346.406Z" fill="#241084"/>
<path d="M280.7 345.489C280.7 349.004 277.797 351.754 274.435 351.754C270.921 351.754 268.17 348.851 268.17 345.489C268.17 342.127 271.074 339.224 274.435 339.224C277.95 339.224 280.7 341.975 280.7 345.489Z" fill="#F6A091"/>
<path d="M325.472 345.489C325.472 349.004 322.569 351.754 319.207 351.754C315.692 351.754 312.942 348.851 312.942 345.489C312.942 342.127 315.845 339.224 319.207 339.224C322.569 339.224 325.472 341.975 325.472 345.489Z" fill="#F6A091"/>
<path d="M274.282 341.363C272.143 341.516 270.462 343.35 270.462 345.489C270.462 347.628 272.143 349.462 274.282 349.615V341.363Z" fill="#ED897C"/>
<path d="M318.596 341.363C320.735 341.516 322.416 343.35 322.416 345.489C322.416 347.628 320.735 349.462 318.596 349.615V341.363Z" fill="#ED897C"/>
<path d="M312.484 336.626C313.095 338.613 314.012 340.752 315.845 341.363C317.373 341.822 318.901 340.905 320.277 340.141C321.041 339.682 321.805 339.071 321.805 338.154C321.957 337.39 321.499 336.779 321.193 336.015C319.818 333.57 318.443 330.973 316.609 328.986C314.928 327.153 311.872 324.096 310.191 327.305C308.969 329.445 311.719 334.487 312.484 336.626Z" fill="#2C1E56"/>
<path d="M314.776 322.416C309.886 318.749 303.774 316.609 297.05 316.609L297.356 312.636C290.786 312.636 284.368 318.749 279.478 322.416C283.757 327.306 290.021 331.89 297.203 331.89C304.232 331.89 310.497 327.153 314.776 322.416Z" fill="#2C1E56"/>
<path d="M237.61 417.307C236.693 416.084 236.54 414.556 236.846 413.028C240.055 400.04 263.281 369.785 264.198 368.41C266.642 364.742 273.671 364.742 273.671 364.742L274.588 385.677L253.654 410.125C252.279 411.806 251.973 413.945 252.89 415.932L269.393 449.548L260.683 451.993L237.61 417.307Z" fill="#00BFFF"/>
<path d="M354.657 416.543C355.269 415.32 355.574 413.945 355.269 412.723C352.671 400.04 331.89 369.632 330.973 368.257C328.528 364.59 321.652 364.284 321.652 364.284L320.735 385.524L338.766 409.514C339.988 411.195 340.294 413.181 339.53 415.168L325.93 449.548L334.64 451.993L354.657 416.543Z" fill="#00BFFF"/>
<path d="M300.259 446.034C278.714 445.423 257.169 445.27 235.623 445.575C232.567 445.575 229.358 445.728 226.302 446.645C223.399 447.562 220.496 449.548 219.426 452.452C218.204 455.508 218.968 459.175 220.954 461.925C222.941 464.676 225.691 466.509 228.747 468.038C236.234 471.552 244.639 472.469 252.89 473.08C270.004 474.303 287.271 474.761 304.538 474.302C305.302 472.01 306.83 470.33 307.594 468.038C303.01 464.981 298.273 462.689 293.689 459.786C295.064 454.438 299.801 451.382 300.259 446.034Z" fill="#241084"/>
<path d="M281.159 336.626C280.548 338.613 279.631 340.752 277.797 341.363C276.269 341.822 274.741 340.905 273.366 340.141C272.602 339.682 271.838 339.071 271.838 338.154C271.685 337.39 272.143 336.779 272.449 336.015C273.824 333.57 275.199 330.973 277.033 328.986C278.714 327.153 281.77 324.096 283.451 327.305C284.52 329.445 281.923 334.487 281.159 336.626Z" fill="#2C1E56"/>
<path d="M296.439 446.034C317.985 445.423 339.53 445.27 361.075 445.576C364.131 445.576 367.34 445.728 370.396 446.645C373.299 447.562 376.203 449.549 377.272 452.452C378.495 455.508 377.731 459.175 375.744 461.926C373.758 464.676 371.007 466.51 367.951 468.038C360.464 471.552 352.06 472.469 343.808 473.08C326.694 474.303 309.428 474.761 292.161 474.303C291.397 472.011 289.869 470.33 289.105 468.038C293.689 464.982 298.426 462.69 303.01 459.786C301.787 454.438 296.898 451.382 296.439 446.034Z" fill="#241084"/>
<path d="M286.354 496.612C289.869 491.264 292.466 485.305 294.147 479.192C294.453 478.123 296.439 474.914 296.439 473.844C296.439 472.316 291.702 469.719 289.716 469.871C287.729 470.024 288.341 475.372 287.882 476.748C286.66 481.026 280.395 486.68 280.242 491.111C280.242 492.945 283.604 496.001 286.354 496.612Z" fill="#241084"/>
<path d="M273.519 449.854C273.519 453.827 270.31 457.188 266.184 457.188C262.211 457.188 258.849 453.98 258.849 449.854C258.849 445.728 262.058 442.519 266.184 442.519C270.157 442.519 273.519 445.728 273.519 449.854Z" fill="#F6A091"/>
<path d="M335.095 455.627C337.853 452.66 337.683 448.019 334.716 445.261C331.748 442.503 327.107 442.673 324.35 445.64C321.592 448.608 321.762 453.249 324.729 456.006C327.696 458.764 332.337 458.594 335.095 455.627Z" fill="#F6A091"/>
<path d="M265.267 458.411H331.431C333.876 458.411 336.168 456.73 336.626 454.285L342.28 430.295C343.044 425.711 339.53 421.433 334.793 421.433L259.002 422.044C254.265 422.044 250.751 426.322 251.668 431.059L260.072 454.897C260.989 456.883 262.975 458.411 265.267 458.411Z" fill="white"/>
<path d="M296.286 449.09C300 449.09 303.01 446.354 303.01 442.978C303.01 439.602 300 436.866 296.286 436.866C292.573 436.866 289.563 439.602 289.563 442.978C289.563 446.354 292.573 449.09 296.286 449.09Z" fill="#3878FF"/>
<path d="M317.526 334.64C315.387 332.501 313.553 330.209 311.872 327.764C311.261 327 310.803 326.083 309.886 325.625C308.969 325.166 307.899 325.013 306.83 325.013C301.023 324.708 295.217 324.402 289.41 324.097C289.105 324.097 288.646 324.097 288.341 324.097C287.882 324.249 287.577 324.402 287.118 324.708C284.826 326.083 282.381 327.458 280.395 329.445C280.548 329.75 280.853 329.75 281.159 329.75C279.478 332.959 276.88 335.557 273.519 337.085C273.977 336.168 273.366 334.946 273.213 333.876C272.907 332.501 273.366 331.126 273.824 329.903C274.283 328.528 274.741 327.306 275.199 325.93C276.269 323.027 277.339 320.124 279.325 317.985C281.617 315.387 284.979 313.706 288.188 312.331C289.105 311.872 290.021 311.567 290.938 311.261C292.313 310.956 293.689 310.956 295.217 310.956C297.662 310.956 299.954 310.956 302.246 311.567C303.621 311.872 304.996 312.484 306.371 313.095C308.358 314.012 310.344 314.928 312.331 316.151C312.942 316.609 313.553 316.915 314.012 317.526C314.47 317.985 314.776 318.596 315.081 319.207C315.845 320.582 316.456 321.957 317.22 323.333C317.984 324.861 318.748 326.389 319.36 328.07C319.971 329.903 320.124 332.042 320.277 334.029C320.277 334.64 320.276 335.404 319.971 336.015C319.665 336.627 319.054 337.085 318.443 337.085C317.526 336.627 317.22 335.251 317.526 334.64Z" fill="#2C1E56"/>
<path d="M306.219 496.612C302.704 491.264 300.106 485.304 298.426 479.192C298.12 478.123 296.134 474.914 296.134 473.844C296.134 472.316 300.87 469.718 302.857 469.871C304.843 470.024 304.232 475.372 304.691 476.747C305.913 481.026 312.178 486.68 312.331 491.111C312.331 492.945 308.969 496.001 306.219 496.612Z" fill="#241084"/>
</svg>
