<svg width="570" height="390" viewBox="0 0 570 390" fill="none" xmlns="http://www.w3.org/2000/svg">
<g clip-path="url(#clip0)">
<path fill-rule="evenodd" clip-rule="evenodd" d="M64.0846 228.379L68.975 230.123C71.0161 230.846 73.3125 230.165 74.5457 228.379C76.9696 224.935 79.7337 221.873 82.838 219.236C84.4964 217.833 84.9642 215.452 84.0287 213.496L81.8174 208.818C80.6692 206.394 81.6898 203.502 84.1137 202.354L93.0864 198.102C95.5103 196.953 98.402 197.974 99.5502 200.44L101.761 205.118C102.697 207.074 104.823 208.18 106.949 207.84C110.989 207.117 115.114 206.904 119.282 207.244C121.45 207.414 123.449 206.096 124.172 204.055L125.915 199.165C126.808 196.613 129.615 195.338 132.124 196.231L141.479 199.59C144.031 200.483 145.307 203.29 144.414 205.799L142.67 210.689C141.947 212.73 142.628 215.026 144.414 216.26C147.858 218.684 150.92 221.448 153.556 224.552C154.96 226.21 157.341 226.678 159.297 225.743L163.975 223.531C166.399 222.383 169.291 223.404 170.439 225.87L174.691 234.843C175.839 237.267 174.819 240.158 172.352 241.307L167.675 243.518C165.718 244.453 164.613 246.58 164.953 248.706C165.676 252.746 165.889 256.871 165.548 261.081C165.378 263.249 166.697 265.248 168.738 265.971L173.628 267.714C176.18 268.607 177.455 271.414 176.562 273.923L173.203 283.278C172.31 285.83 169.503 287.106 166.994 286.213L162.104 284.469C160.063 283.746 157.766 284.427 156.533 286.213C154.152 289.657 151.345 292.719 148.241 295.355C146.582 296.759 146.115 299.14 147.05 301.096L149.261 305.774C150.41 308.198 149.389 311.089 146.923 312.238L137.95 316.49C135.526 317.638 132.634 316.618 131.444 314.151L129.232 309.474C128.297 307.517 126.171 306.412 124.044 306.752C120.005 307.475 115.88 307.687 111.712 307.347C109.543 307.177 107.545 308.495 106.822 310.537L105.078 315.427C104.185 317.978 101.379 319.297 98.8698 318.361L89.5144 315.044C87.0054 314.151 85.6871 311.345 86.5802 308.836L88.3237 303.945C89.0466 301.904 88.3662 299.608 86.5802 298.375C83.1782 295.993 80.1164 293.187 77.4374 290.082C76.034 288.424 73.6952 287.956 71.6965 288.892L67.0188 291.103C64.5949 292.251 61.6607 291.23 60.5126 288.807L56.2601 279.834C55.1119 277.41 56.1325 274.518 58.5989 273.37L63.2767 271.159C65.2328 270.223 66.3384 268.097 65.9982 265.971C65.2753 261.931 65.0627 257.806 65.4029 253.639C65.573 251.47 64.2547 249.471 62.2135 248.748L57.3232 247.005C54.7717 246.112 53.4535 243.305 54.389 240.796L57.7485 231.441C58.769 228.804 61.5331 227.486 64.0846 228.379ZM89.0891 252.618C87.0479 263.76 92.4911 275.241 102.399 280.727C118.729 289.785 138.843 280.259 142.202 261.889C144.244 250.747 138.8 239.265 128.892 233.78C112.52 224.722 92.4485 234.248 89.0891 252.618Z" fill="#6ECBFF"/>
<path fill-rule="evenodd" clip-rule="evenodd" d="M144.414 238.713C149.304 246.282 150.92 255.382 149.006 264.185C147.093 272.987 141.82 280.599 134.25 285.447C126.681 290.337 117.581 291.953 108.778 290.04C99.9754 288.126 92.3635 282.853 87.5157 275.284C82.6253 267.714 81.0094 258.614 82.923 249.811C84.8366 241.009 90.1097 233.397 97.6791 228.549C105.248 223.659 114.349 222.043 123.151 223.956C131.911 225.87 139.566 231.143 144.414 238.713ZM123.619 221.83C114.264 219.789 104.526 221.533 96.4884 226.721C88.4512 231.909 82.7954 240.031 80.7543 249.386C78.7131 258.742 80.4566 268.48 85.6446 276.517C90.8326 284.554 98.9548 290.21 108.31 292.251C117.666 294.292 127.404 292.549 135.441 287.361C143.478 282.173 149.134 274.05 151.175 264.695C153.216 255.34 151.473 245.602 146.285 237.564C141.097 229.485 132.974 223.829 123.619 221.83Z" fill="white"/>
<path d="M101.889 294.973C108.523 297.482 115.922 298.247 123.406 296.886C123.704 296.844 124.002 296.759 124.299 296.716V298.035L123.662 298.162C116.05 299.565 108.523 298.8 101.719 296.291L101.889 294.973ZM103.462 218.811C95.6379 221.363 89.004 226.168 84.1988 232.376L83.2632 231.483C88.2386 225.147 95.0425 220.214 103.08 217.578L103.462 218.811ZM147.773 232.121C145.264 228.932 142.287 226.168 138.97 223.914C138.248 223.404 137.525 222.936 136.759 222.511L137.44 221.405C138.205 221.873 138.97 222.341 139.736 222.851C143.095 225.19 146.157 227.996 148.709 231.228L147.773 232.121Z" fill="white"/>
<path fill-rule="evenodd" clip-rule="evenodd" d="M3.18932 186.365L6.76139 186.195C8.24975 186.11 9.52549 185.089 9.82316 183.643C10.461 180.837 11.4391 178.158 12.7148 175.649C13.3952 174.33 13.0976 172.714 11.9919 171.694L9.35539 169.312C7.9946 168.079 7.86703 165.953 9.14277 164.592L13.7354 159.574C14.9686 158.213 17.0949 158.128 18.4557 159.362L21.0922 161.743C22.1978 162.764 23.8138 162.891 25.0895 162.126C27.4709 160.637 30.0224 159.404 32.7865 158.511C34.1898 158.043 35.1253 156.683 35.0403 155.194L34.8702 151.622C34.7851 149.794 36.1884 148.22 38.0595 148.135L44.8634 147.795C46.692 147.71 48.2654 149.113 48.3505 150.984L48.5206 154.556C48.6056 156.045 49.6262 157.32 51.072 157.661C53.8787 158.299 56.5577 159.277 59.0667 160.552C60.3849 161.233 62.0009 160.935 63.0215 159.829L65.4028 157.193C66.636 155.832 68.7623 155.747 70.1231 156.98L75.1835 161.573C76.5443 162.806 76.6293 164.932 75.3961 166.293L73.0147 168.93C71.9941 170.035 71.8666 171.651 72.6745 172.927C74.1629 175.308 75.3961 177.86 76.2891 180.624C76.7569 182.027 78.1177 182.963 79.606 182.878L83.1781 182.708C85.0067 182.623 86.5801 184.026 86.6651 185.897L87.0053 192.701C87.0904 194.529 85.6871 196.103 83.816 196.188L80.2864 196.358C78.7981 196.443 77.5223 197.464 77.1822 198.91C76.5443 201.716 75.5662 204.395 74.2905 206.904C73.6101 208.222 73.9078 209.838 75.0134 210.859L77.6499 213.24C79.0107 214.474 79.0958 216.6 77.8625 217.961L73.2699 222.978C72.0367 224.339 69.9104 224.424 68.5497 223.191L65.9131 220.81C64.8075 219.789 63.1916 219.662 61.9158 220.47C59.5344 221.958 56.983 223.191 54.2614 224.084C52.8581 224.552 51.9225 225.913 52.0076 227.401L52.1777 230.931C52.2627 232.759 50.8594 234.333 48.9883 234.418L42.1844 234.758C40.3558 234.843 38.7824 233.44 38.6974 231.568L38.5273 228.039C38.4422 226.551 37.4216 225.275 35.9758 224.935C33.1692 224.297 30.4901 223.319 27.9812 222.043C26.6629 221.363 25.047 221.66 24.0264 222.766L21.645 225.402C20.4118 226.763 18.2856 226.891 16.9248 225.615L11.9069 221.022C10.5461 219.789 10.461 217.663 11.6942 216.302L14.0756 213.666C15.0962 212.56 15.2238 210.944 14.4583 209.668C12.97 207.287 11.7368 204.735 10.8438 202.014C10.376 200.611 9.0152 199.675 7.52683 199.76L3.82719 199.845C1.99863 199.93 0.425223 198.527 0.340173 196.656L-2.34991e-05 189.852C-0.0850727 188.023 1.31824 186.45 3.18932 186.365ZM25.3446 195.21C26.9606 202.822 33.4243 208.69 41.1213 209.583C53.8361 211.072 64.1271 199.76 61.448 187.258C59.8321 179.646 53.3684 173.777 45.6714 172.884C32.9566 171.396 22.7081 182.665 25.3446 195.21Z" fill="#6ECBFF"/>
<path fill-rule="evenodd" clip-rule="evenodd" d="M63.6594 178.413C67.0613 183.686 68.2095 190.022 66.8487 196.188C65.5304 202.312 61.8308 207.627 56.5577 211.029C51.2847 214.431 44.9485 215.579 38.7824 214.218C32.6589 212.9 27.3433 209.201 23.9414 203.927C20.5394 198.654 19.3912 192.318 20.752 186.152C22.0703 180.029 25.7699 174.713 31.043 171.311C36.316 167.909 42.6522 166.761 48.8183 168.122C54.9418 169.44 60.2574 173.14 63.6594 178.413ZM49.1585 166.591C42.6097 165.188 35.8482 166.378 30.235 169.993C24.6217 173.607 20.7095 179.263 19.2636 185.769C17.8603 192.318 19.051 199.08 22.6656 204.693C26.2802 210.306 31.936 214.218 38.4423 215.664C44.991 217.068 51.7525 215.877 57.3657 212.262C62.979 208.648 66.8912 202.992 68.3371 196.486C69.7404 189.937 68.5497 183.175 64.9351 177.562C61.3205 171.949 55.6647 168.037 49.1585 166.591Z" fill="white"/>
<path d="M34.0197 217.62C38.6549 219.364 43.8003 219.917 48.9883 218.939C49.201 218.896 49.4136 218.854 49.5837 218.811V219.747L49.1159 219.832C43.8003 220.81 38.5698 220.257 33.8071 218.513L34.0197 217.62ZM35.1253 164.507C29.6822 166.293 25.047 169.653 21.6875 173.948L21.0071 173.31C24.4516 168.887 29.2144 165.443 34.8276 163.614L35.1253 164.507ZM65.9982 173.82C64.2547 171.609 62.171 169.695 59.8746 168.079C59.3644 167.739 58.8541 167.399 58.3438 167.101L58.8115 166.336C59.3644 166.676 59.8746 167.016 60.3849 167.356C62.7238 168.972 64.85 170.928 66.6361 173.182L65.9982 173.82Z" fill="white"/>
<path fill-rule="evenodd" clip-rule="evenodd" d="M87.2605 385.933H567.874C569.022 385.933 570 386.868 570 388.059C570 389.207 569.065 390.185 567.874 390.185H87.2605C86.1123 390.185 85.1343 389.25 85.1343 388.059C85.1343 386.868 86.1123 385.933 87.2605 385.933Z" fill="#092978"/>
<path fill-rule="evenodd" clip-rule="evenodd" d="M186.3 117.517H485.589C496.305 117.517 505.107 126.278 505.107 137.036V311.472H166.782V137.036C166.782 126.32 175.542 117.517 186.3 117.517Z" fill="#113CD1"/>
<path fill-rule="evenodd" clip-rule="evenodd" d="M180.985 131.891H490.862C491.032 131.891 491.202 132.061 491.202 132.231V329.077C491.202 329.247 491.032 329.418 490.862 329.418H180.985C180.815 329.418 180.645 329.247 180.645 329.077V132.231C180.645 132.061 180.815 131.891 180.985 131.891Z" fill="#E8F5FC"/>
<path fill-rule="evenodd" clip-rule="evenodd" d="M309.452 340.644C308.091 365.479 304.434 371.772 279.259 385.933H335.094H390.929C365.754 371.772 362.097 365.479 360.736 340.644L335.094 338.646L309.452 340.644Z" fill="#98C0E6"/>
<path fill-rule="evenodd" clip-rule="evenodd" d="M505.065 311.472V324.272C505.065 334.988 496.305 343.791 485.546 343.791H186.3C175.584 343.791 166.782 335.031 166.782 324.272V311.472H505.065Z" fill="white"/>
<path d="M505.107 298.842H166.782V319.339H505.107V298.842Z" fill="#113CD1"/>
<path fill-rule="evenodd" clip-rule="evenodd" d="M321.486 324.655C323.4 324.655 324.973 326.228 324.973 328.142C324.973 330.055 323.4 331.629 321.486 331.629C319.572 331.629 317.999 330.055 317.999 328.142C318.042 326.228 319.572 324.655 321.486 324.655Z" fill="#E50013"/>
<path fill-rule="evenodd" clip-rule="evenodd" d="M334.371 324.655C336.285 324.655 337.858 326.228 337.858 328.142C337.858 330.055 336.285 331.629 334.371 331.629C332.457 331.629 330.884 330.055 330.884 328.142C330.884 326.228 332.457 324.655 334.371 324.655Z" fill="#3DABF9"/>
<path fill-rule="evenodd" clip-rule="evenodd" d="M347.214 324.655C349.127 324.655 350.701 326.228 350.701 328.142C350.701 330.055 349.127 331.629 347.214 331.629C345.3 331.629 343.726 330.055 343.726 328.142C343.726 326.228 345.3 324.655 347.214 324.655Z" fill="#3DABF9"/>
<path d="M279.302 152.047H190.298V289.615H279.302V152.047Z" fill="#3964F9"/>
<path fill-rule="evenodd" clip-rule="evenodd" d="M196.846 263.122H253.404C254.68 263.122 255.701 264.142 255.701 265.418C255.701 266.694 254.68 267.714 253.404 267.714H196.846C195.571 267.714 194.55 266.694 194.55 265.418C194.55 264.185 195.571 263.122 196.846 263.122Z" fill="#0094FF"/>
<path fill-rule="evenodd" clip-rule="evenodd" d="M196.846 158.979H217.896C219.172 158.979 220.192 160 220.192 161.275C220.192 162.551 219.172 163.572 217.896 163.572H196.846C195.571 163.572 194.55 162.551 194.55 161.275C194.55 160 195.571 158.979 196.846 158.979Z" fill="#0094FF"/>
<path fill-rule="evenodd" clip-rule="evenodd" d="M196.846 171.991H267.14C268.415 171.991 269.436 173.012 269.436 174.288C269.436 175.564 268.415 176.584 267.14 176.584H196.846C195.571 176.584 194.55 175.564 194.55 174.288C194.55 173.012 195.571 171.991 196.846 171.991Z" fill="#0094FF"/>
<path fill-rule="evenodd" clip-rule="evenodd" d="M196.846 184.409H267.14C268.415 184.409 269.436 185.429 269.436 186.705C269.436 187.981 268.415 189.001 267.14 189.001H196.846C195.571 189.001 194.55 187.981 194.55 186.705C194.55 185.429 195.571 184.409 196.846 184.409Z" fill="#0094FF"/>
<path fill-rule="evenodd" clip-rule="evenodd" d="M196.846 196.826H215.983C217.258 196.826 218.279 197.847 218.279 199.122C218.279 200.398 217.258 201.419 215.983 201.419H196.846C195.571 201.419 194.55 200.398 194.55 199.122C194.55 197.889 195.571 196.826 196.846 196.826Z" fill="#0094FF"/>
<path fill-rule="evenodd" clip-rule="evenodd" d="M224.02 196.826H243.156C244.432 196.826 245.452 197.847 245.452 199.122C245.452 200.398 244.432 201.419 243.156 201.419H224.02C222.744 201.419 221.723 200.398 221.723 199.122C221.723 197.889 222.744 196.826 224.02 196.826Z" fill="#0094FF"/>
<path fill-rule="evenodd" clip-rule="evenodd" d="M196.846 211.837H222.616C223.892 211.837 224.913 212.858 224.913 214.133C224.913 215.409 223.892 216.43 222.616 216.43H196.846C195.571 216.43 194.55 215.409 194.55 214.133C194.55 212.9 195.571 211.837 196.846 211.837Z" fill="#0094FF"/>
<path fill-rule="evenodd" clip-rule="evenodd" d="M231.589 211.837H257.359C258.635 211.837 259.655 212.858 259.655 214.133C259.655 215.409 258.635 216.43 257.359 216.43H231.589C230.313 216.43 229.293 215.409 229.293 214.133C229.293 212.9 230.313 211.837 231.589 211.837Z" fill="#0094FF"/>
<path fill-rule="evenodd" clip-rule="evenodd" d="M196.846 223.106H227.974C229.25 223.106 230.271 224.127 230.271 225.402C230.271 226.678 229.25 227.699 227.974 227.699H196.846C195.571 227.699 194.55 226.678 194.55 225.402C194.55 224.169 195.571 223.106 196.846 223.106Z" fill="#0094FF"/>
<path fill-rule="evenodd" clip-rule="evenodd" d="M237.755 223.106H268.883C270.159 223.106 271.18 224.127 271.18 225.402C271.18 226.678 270.159 227.699 268.883 227.699H237.755C236.479 227.699 235.459 226.678 235.459 225.402C235.459 224.169 236.479 223.106 237.755 223.106Z" fill="#0094FF"/>
<path fill-rule="evenodd" clip-rule="evenodd" d="M196.846 235.863H217.896C219.172 235.863 220.192 236.884 220.192 238.16C220.192 239.435 219.172 240.456 217.896 240.456H196.846C195.571 240.456 194.55 239.435 194.55 238.16C194.55 236.884 195.571 235.863 196.846 235.863Z" fill="#0094FF"/>
<path fill-rule="evenodd" clip-rule="evenodd" d="M196.846 250.577H227.974C229.25 250.577 230.271 251.598 230.271 252.873C230.271 254.149 229.25 255.17 227.974 255.17H196.846C195.571 255.17 194.55 254.149 194.55 252.873C194.55 251.598 195.571 250.577 196.846 250.577Z" fill="#0094FF"/>
<path fill-rule="evenodd" clip-rule="evenodd" d="M237.755 250.577H268.883C270.159 250.577 271.18 251.598 271.18 252.873C271.18 254.149 270.159 255.17 268.883 255.17H237.755C236.479 255.17 235.459 254.149 235.459 252.873C235.459 251.598 236.479 250.577 237.755 250.577Z" fill="#0094FF"/>
<path d="M465.687 141.416H217.088C216.45 141.416 215.898 141.671 215.472 142.054C215.047 142.437 214.792 142.99 214.792 143.628C214.792 144.223 215.047 144.776 215.472 145.201C215.898 145.584 216.45 145.839 217.088 145.839H465.687C466.325 145.839 466.878 145.584 467.303 145.201C467.728 144.818 467.983 144.265 467.983 143.628C467.983 143.032 467.728 142.479 467.303 142.054C466.878 141.671 466.325 141.416 465.687 141.416ZM217.088 140.608H465.687C466.538 140.608 467.303 140.948 467.898 141.501C468.451 142.054 468.791 142.82 468.791 143.67C468.791 144.521 468.451 145.286 467.898 145.839C467.346 146.392 466.538 146.732 465.687 146.732H217.088C216.238 146.732 215.472 146.392 214.877 145.839C214.324 145.286 213.984 144.521 213.984 143.67C213.984 142.82 214.324 142.054 214.877 141.501C215.472 140.948 216.238 140.608 217.088 140.608Z" fill="#0094FF"/>
<path d="M207.775 140.396H200.886V146.902H207.775V140.396Z" fill="#0094FF"/>
<path d="M196.974 140.396H190.298V146.902H196.974V140.396Z" fill="#0094FF"/>
<path d="M361.374 343.791H308.303V350.85H361.374V343.791Z" fill="#5997D1"/>
<path fill-rule="evenodd" clip-rule="evenodd" d="M269.904 61.47C258.89 61.47 249.96 70.1875 249.96 79.3728C249.96 88.5582 256.508 94.9369 265.311 96.8079H289.805V79.3728C289.805 69.5071 280.918 61.47 269.904 61.47Z" fill="#000446"/>
<path fill-rule="evenodd" clip-rule="evenodd" d="M269.691 61.47H269.904H269.691ZM289.805 106.206H289.72V298.842H480.528V153.068V106.206V79.4154C480.528 69.5071 471.598 61.5125 460.584 61.5125H269.904C280.918 61.5125 289.805 69.5496 289.805 79.4154V106.206Z" fill="#3964F9"/>
<path fill-rule="evenodd" clip-rule="evenodd" d="M95.2977 139.248C101.038 146.392 106.949 156.087 109.118 163.061C109.288 163.657 109.714 164.082 110.309 164.38L128.977 163.869C129.828 163.487 130.423 162.934 130.593 162.168C132.294 155.407 145.349 134.357 145.179 134.442C147.731 129.892 149.091 124.662 148.964 119.091C148.538 102.464 134.548 89.3662 117.751 89.8339C100.953 90.3017 87.7283 104.122 88.1535 120.749C88.2811 126.278 89.9396 131.423 92.7037 135.803C93.6392 136.951 94.2771 138.057 95.2977 139.248Z" fill="#00BFFF"/>
<path fill-rule="evenodd" clip-rule="evenodd" d="M113.03 135.931C112.478 131.38 109.246 131.338 108.948 134.655C108.863 135.378 108.991 136.143 109.246 136.824C109.501 137.589 111.032 138.142 113.115 138.44L113.03 135.931ZM124.98 135.633C125.278 131.04 128.509 130.87 128.977 134.145C129.105 134.867 128.977 135.633 128.807 136.313C128.594 137.121 127.106 137.717 125.022 138.142L124.98 135.633ZM119.537 141.161H119.154H118.771C117.581 141.161 116.39 141.119 115.242 140.991V141.756L115.837 164.209L113.753 164.252L113.158 141.799L113.115 140.693C110.139 140.141 107.842 139.12 107.332 137.589C106.992 136.568 106.822 135.463 106.907 134.357C106.992 133.422 107.29 132.486 107.842 131.678C108.31 130.998 108.948 130.402 109.671 130.062C112.86 129.212 115.199 132.571 115.072 135.803L115.157 138.61C116.39 138.695 117.708 138.737 119.026 138.695C120.345 138.652 121.663 138.567 122.896 138.397L122.811 135.59C122.513 132.359 124.64 128.872 127.872 129.594C128.637 129.935 129.275 130.445 129.785 131.125C130.38 131.891 130.721 132.784 130.848 133.719C131.018 134.782 130.891 135.888 130.593 136.951C130.125 138.525 127.914 139.673 124.98 140.396L125.022 141.501L125.618 163.954L123.534 163.997L122.939 141.544V140.778C121.876 140.991 120.727 141.076 119.537 141.161Z" fill="white"/>
<path fill-rule="evenodd" clip-rule="evenodd" d="M112.137 164.295L126.766 163.912C128.807 163.869 130.551 165.485 130.593 167.569C130.593 169.61 129.02 171.354 126.936 171.396H126.383C126.213 171.439 126.043 171.609 126.043 171.821C126.043 172.034 126.213 172.204 126.383 172.247C127.659 172.204 128.339 173.225 128.339 174.5C128.339 175.776 127.361 176.839 126.086 176.882L124.81 176.924C124.64 176.967 124.47 177.137 124.47 177.35C124.47 177.562 124.64 177.732 124.81 177.775C125.575 178.115 126.086 178.838 126.256 179.901C126.298 181.134 125.32 182.155 124.087 182.155L115.582 182.368C114.349 182.41 113.328 181.432 113.328 180.199C113.286 179.093 114.094 178.115 115.199 177.945C115.369 177.86 115.497 177.732 115.497 177.52C115.497 177.307 115.369 177.137 115.157 177.094L113.371 177.137C112.095 177.18 111.032 176.159 110.989 174.883C110.947 173.607 111.967 172.544 113.243 172.502C113.413 172.459 113.541 172.247 113.541 172.077C113.541 171.864 113.413 171.694 113.201 171.651L112.265 171.694C110.224 171.736 108.48 170.12 108.438 168.037C108.438 166.081 110.054 164.337 112.137 164.295Z" fill="#3882C8"/>
<path d="M126.808 96.7229C125.32 96.0851 123.577 96.808 122.896 98.2963C122.258 99.7847 122.939 101.528 124.47 102.209C128.169 103.782 131.444 106.674 133.91 110.161C136.462 113.775 138.12 117.985 138.418 122.068C138.545 123.684 139.991 124.917 141.607 124.789C143.223 124.662 144.456 123.216 144.329 121.6C143.903 116.454 141.862 111.181 138.715 106.716C135.696 102.379 131.529 98.7216 126.808 96.7229Z" fill="white"/>
<path fill-rule="evenodd" clip-rule="evenodd" d="M143.946 77.034C144.754 77.5018 145.051 78.5649 144.584 79.3729L140.842 85.8366C140.374 86.6446 139.311 86.9423 138.503 86.4745C137.695 86.0067 137.397 84.9436 137.865 84.1356L141.607 77.6719C142.075 76.8214 143.138 76.5663 143.946 77.034ZM93.214 77.034C94.0219 76.5663 95.0851 76.8639 95.5528 77.6719L99.295 84.1356C99.7628 84.9436 99.4651 86.0067 98.6571 86.4745C97.8492 86.9423 96.786 86.6446 96.3183 85.8366L92.5761 79.3729C92.1083 78.5649 92.406 77.5018 93.214 77.034ZM74.6307 95.6173C75.0985 94.8093 76.1616 94.5117 76.9696 94.9794L83.4333 98.7216C84.2413 99.1894 84.539 100.252 84.0712 101.06C83.6034 101.868 82.5403 102.166 81.7323 101.698L75.2686 97.9561C74.4606 97.4459 74.163 96.4253 74.6307 95.6173ZM162.529 95.6173C162.997 96.4253 162.699 97.4884 161.891 97.9561L155.427 101.698C154.62 102.166 153.556 101.868 153.089 101.06C152.621 100.252 152.919 99.1894 153.727 98.7216L160.19 94.9794C160.998 94.5117 162.061 94.8093 162.529 95.6173ZM169.333 120.962C169.333 121.898 168.568 122.663 167.632 122.663H160.19C159.255 122.663 158.489 121.898 158.489 120.962C158.489 120.026 159.255 119.261 160.19 119.261H167.632C168.568 119.261 169.333 120.026 169.333 120.962ZM78.6706 120.962C78.6706 121.898 77.9051 122.663 76.9696 122.663H69.5278C68.5922 122.663 67.8268 121.898 67.8268 120.962C67.8268 120.026 68.5922 119.261 69.5278 119.261H76.9696C77.9051 119.261 78.6706 120.026 78.6706 120.962ZM118.601 70.2301C119.537 70.2301 120.302 70.9955 120.302 71.9311V79.3729C120.302 80.3084 119.537 81.0739 118.601 81.0739C117.666 81.0739 116.9 80.3084 116.9 79.3729V71.9311C116.858 70.9955 117.623 70.2301 118.601 70.2301Z" fill="#00BFFF"/>
<path fill-rule="evenodd" clip-rule="evenodd" d="M482.314 173.565H526.455C536.448 173.565 544.57 181.687 544.57 191.68V203.757C544.57 213.751 536.448 221.873 526.455 221.873H491.925L482.272 230.761V221.873C472.278 221.873 464.156 213.751 464.156 203.757V191.68C464.199 181.687 472.278 173.565 482.314 173.565Z" fill="#00BFFF"/>
<path d="M187.831 385.933H169.843C168.993 385.933 168.312 385.295 168.185 384.487C168.185 384.359 168.185 384.274 168.185 384.147L168.908 374.706C168.908 374.706 169.673 374.366 170.694 374.111C171.332 373.983 171.842 373.516 172.012 372.92C172.012 372.878 172.055 372.835 172.055 372.793C172.48 370.964 175.074 370.411 175.584 372.155C175.627 372.368 175.712 372.623 175.754 372.835C175.754 372.878 175.797 372.963 175.797 373.005C175.882 373.388 175.924 373.728 175.967 374.026C176.052 374.791 176.052 375.302 176.052 375.302C176.307 375.599 176.52 375.897 176.732 376.195C176.86 376.322 176.945 376.492 177.073 376.62C177.328 376.918 177.54 377.215 177.753 377.513C177.838 377.641 177.966 377.768 178.051 377.896C178.306 378.193 178.561 378.491 178.774 378.789C178.901 378.916 178.986 379.044 179.114 379.171C180.049 380.15 180.985 380.83 182.09 380.957C184.047 381.213 187.236 381.425 188.767 384.317C188.809 384.359 188.809 384.445 188.852 384.487C189.107 385.167 188.597 385.933 187.831 385.933Z" fill="#663300"/>
<path d="M187.831 385.933H169.843C168.993 385.933 168.312 385.295 168.185 384.487H188.894C189.107 385.167 188.597 385.933 187.831 385.933Z" fill="#000446"/>
<path fill-rule="evenodd" clip-rule="evenodd" d="M174.308 273.285C176.86 278.898 179.964 284.171 187.236 285.235C193.104 286.128 214.154 276.049 214.919 270.734C215.685 265.461 212.113 264.61 212.113 264.61C212.113 264.61 191.361 274.136 189.83 273.625C188.639 273.243 182.898 267.799 179.369 264.568C178.603 263.887 173.245 270.861 174.308 273.285Z" fill="#000446"/>
<path fill-rule="evenodd" clip-rule="evenodd" d="M172.395 261.889H158.659C155.342 261.889 150.537 263.547 148.538 265.928C145.647 269.288 146.795 307.092 147.645 312.365L148.666 313.088C148.666 334.138 145.647 356.421 146.667 376.535L154.96 376.62L165.548 324.315L170.609 313.258L179.241 312.578L181.58 312.28L179.284 264.61C177.455 262.952 175.074 261.889 172.395 261.889Z" fill="#000446"/>
<path fill-rule="evenodd" clip-rule="evenodd" d="M156.916 274.263C158.277 271.414 157.214 265.886 154.364 264.653C153.599 264.312 152.026 263.717 150.537 264.355C141.564 268.225 136.887 303.01 138.375 305.476C139.651 307.602 139.566 312.833 144.626 311.047C147.688 309.984 151.26 286.085 156.916 274.263Z" fill="#000446"/>
<path fill-rule="evenodd" clip-rule="evenodd" d="M171.034 261.889C171.927 268.735 168.653 280.94 167.887 288.424C167.632 287.829 161.253 267.162 160.615 261.889H166.824C168.227 261.889 169.843 261.718 171.034 261.889Z" fill="#B6E0FC"/>
<path fill-rule="evenodd" clip-rule="evenodd" d="M174.691 255.085C175.159 258.274 171.502 260.74 168.993 260.528V261.974L169.12 262.144C170.013 264.397 167.547 265.886 166.739 266.651C165.974 266.098 162.019 264.993 161.934 261.846H162.104V256.318C161.934 256.275 161.721 256.19 161.551 256.063C160.998 255.722 160.786 254.915 160.913 254.064C161.041 253.214 162.231 253.809 162.231 253.809C161.211 251.3 159.893 249.131 162.529 247.728C165.166 246.325 170.439 246.452 170.439 246.452L173.628 246.112C172.735 247.515 174.351 252.958 174.691 255.085Z" fill="#F7CCCF"/>
<path fill-rule="evenodd" clip-rule="evenodd" d="M164.315 258.061C165.421 261.038 166.484 262.144 168.993 262.484V260.443C168.015 260.4 165.676 259.55 164.315 258.061Z" fill="#ED8082"/>
<path fill-rule="evenodd" clip-rule="evenodd" d="M180.474 312.408L163.932 312.323L166.952 376.705L177.413 377.045L180.474 312.408Z" fill="#000446"/>
<path d="M158.021 384.572C157.851 387.251 148.326 386.316 146.795 385.508C146.2 385.21 145.944 384.615 145.902 383.849C145.817 382.701 146.242 381.213 146.625 380.022C147.22 378.108 147.135 378.151 147.56 376.875C147.56 376.875 147.433 374.749 150.58 373.983C153.684 373.175 154.832 378.406 155.385 379.427C155.853 380.362 157.766 381.595 157.979 383.892C158.021 384.104 158.021 384.317 158.021 384.572Z" fill="#663300"/>
<path d="M157.894 385.508C157.724 387.251 148.326 387.081 146.795 386.273C146.2 385.975 145.945 384.785 145.902 384.062C146.923 384.572 148.666 385.21 151.303 385.252C154.534 385.295 156.873 384.742 157.979 384.104C158.021 384.317 157.894 385.252 157.894 385.508Z" fill="#000446"/>
<path fill-rule="evenodd" clip-rule="evenodd" d="M177.158 240.839C177.838 244.241 176.477 247.303 173.118 247.855C170.609 248.281 166.271 247.77 164.315 249.599C163.337 250.492 163.337 251.683 164.06 254.021C164.273 254.702 164.57 255.255 163.55 254.617C163.082 254.319 162.274 253.894 161.934 254.107C161.253 254.532 161.423 255.68 161.891 256.063C162.104 256.233 162.487 256.53 162.487 256.53C162.487 256.53 161.126 256.871 159.893 255.893C158.659 254.915 155.087 251.895 155.768 247.558C156.788 241.264 159.382 241.477 164.953 239.563C168.142 238.457 168.397 237.607 170.481 236.671C173.118 235.523 176.605 238.16 177.158 240.839Z" fill="#000446"/>
<path fill-rule="evenodd" clip-rule="evenodd" d="M137.482 295.951C138.8 298.29 137.992 301.309 135.611 302.627C133.272 303.945 130.253 303.137 128.935 300.756C127.616 298.417 128.424 295.398 130.806 294.08C133.145 292.761 136.121 293.612 137.482 295.951ZM274.922 234.8C278.026 238.415 272.498 250.96 264.078 256.36C259.06 259.592 253.447 262.441 249.237 262.824C241.752 263.504 232.142 261.123 227.847 259.932L151.898 302.627L141.947 308.24L139.523 309.601C133.23 313.131 125.618 310.622 121.578 304.583C117.581 298.545 120.302 290.21 126.596 286.638L129.02 285.277L138.97 279.664L214.537 237.139C215.557 233.057 218.364 222.766 222.914 216.515C224.87 213.793 228.74 211.157 232.907 208.903C243.964 202.864 259.102 204.523 260.718 208.945L251.831 213.921L243.538 218.556L237.372 222.043L236.862 230.803L236.352 239.563L244.091 243.645L251.831 247.728L257.997 244.241L266.289 239.606L274.922 234.8Z" fill="#00BFFF"/>
<path fill-rule="evenodd" clip-rule="evenodd" d="M137.95 309.176C138.077 308.878 138.503 308.666 138.63 308.623C138.715 308.623 140.246 308.708 140.246 308.708L140.034 305.306C140.034 305.306 140.799 305.094 141.097 305.859C141.394 306.624 142.287 308.113 142.287 308.113L141.905 305.051C141.905 305.051 142.415 304.796 142.713 305.264C143.01 305.731 143.818 307.475 143.818 307.475L143.903 304.626C143.903 304.626 144.541 305.476 144.711 306.284C144.881 307.092 145.094 307.475 145.094 307.475L145.562 305.093C145.562 305.093 146.115 307.432 146.115 307.517C146.157 310.069 144.881 311.557 142.628 311.557C141.862 311.6 137.78 309.559 137.95 309.176Z" fill="#F7CCCF"/>
<path fill-rule="evenodd" clip-rule="evenodd" d="M214.962 262.952C214.537 262.952 214.111 263.334 214.069 263.419C214.026 263.547 213.431 265.205 213.431 265.205L209.816 263.377C209.816 263.377 209.221 264.1 209.944 264.78C210.667 265.461 211.858 267.119 211.858 267.119L208.711 265.291C208.711 265.291 208.201 265.758 208.583 266.269C208.966 266.821 210.497 268.48 210.497 268.48L207.35 267.247C207.35 267.247 208.03 268.352 208.796 268.905C209.604 269.458 209.944 269.841 209.944 269.841L207.095 269.288C207.095 269.288 209.391 270.946 209.476 270.989C212.24 272.18 214.452 271.499 215.472 269.075C215.812 268.31 215.472 262.952 214.962 262.952Z" fill="#F7CCCF"/>
<path d="M494.646 206.394L478.402 199.335V195.423L494.646 188.406V192.999L483.292 197.336L494.646 201.844V206.394Z" fill="white"/>
<path d="M499.834 209.498L505.703 184.962H509.105L503.151 209.498H499.834Z" fill="white"/>
<path d="M514.335 206.394V201.801L525.689 197.336L514.335 192.914V188.364L530.622 195.38V199.25L514.335 206.394Z" fill="white"/>
<path fill-rule="evenodd" clip-rule="evenodd" d="M336.072 92.8106V89.281L344.832 85.8365L336.072 82.4346V78.9476L348.617 84.3907V87.3674L336.072 92.8106ZM324.931 95.192L329.481 76.311H332.117L327.567 95.192H324.931ZM320.933 92.8106L308.389 87.3674V84.3482L320.933 78.905V82.4346L312.173 85.794L320.933 89.281V92.8106Z" fill="#77C6FB"/>
<path fill-rule="evenodd" clip-rule="evenodd" d="M318.382 108.63H346.873C347.809 108.63 348.574 109.395 348.574 110.331C348.574 111.266 347.809 112.032 346.873 112.032H318.382C317.446 112.032 316.681 111.266 316.681 110.331C316.681 109.395 317.446 108.63 318.382 108.63Z" fill="#F18E00"/>
<path fill-rule="evenodd" clip-rule="evenodd" d="M355.123 108.63H370.815C371.75 108.63 372.516 109.395 372.516 110.331C372.516 111.266 371.75 112.032 370.815 112.032H355.123C354.188 112.032 353.422 111.266 353.422 110.331C353.422 109.395 354.188 108.63 355.123 108.63Z" fill="#77C6FB"/>
<path fill-rule="evenodd" clip-rule="evenodd" d="M327.78 119.941H360.013C360.949 119.941 361.714 120.707 361.714 121.642C361.714 122.578 360.949 123.343 360.013 123.343H327.78C326.844 123.343 326.079 122.578 326.079 121.642C326.079 120.707 326.844 119.941 327.78 119.941Z" fill="#F18E00"/>
<path fill-rule="evenodd" clip-rule="evenodd" d="M368.816 119.941H386.719C387.654 119.941 388.42 120.707 388.42 121.642C388.42 122.578 387.654 123.343 386.719 123.343H368.816C367.88 123.343 367.115 122.578 367.115 121.642C367.158 120.707 367.88 119.941 368.816 119.941Z" fill="#77C6FB"/>
<path fill-rule="evenodd" clip-rule="evenodd" d="M395.777 119.941H418.017C418.953 119.941 419.718 120.707 419.718 121.642C419.718 122.578 418.953 123.343 418.017 123.343H395.777C394.841 123.343 394.076 122.578 394.076 121.642C394.118 120.707 394.841 119.941 395.777 119.941Z" fill="#77C6FB"/>
<path fill-rule="evenodd" clip-rule="evenodd" d="M327.78 131.848H370.644C371.58 131.848 372.345 132.614 372.345 133.549C372.345 134.485 371.58 135.25 370.644 135.25H327.78C326.844 135.25 326.079 134.485 326.079 133.549C326.079 132.571 326.844 131.848 327.78 131.848Z" fill="#77C6FB"/>
<path fill-rule="evenodd" clip-rule="evenodd" d="M379.405 131.848H399.944C400.88 131.848 401.645 132.614 401.645 133.549C401.645 134.485 400.88 135.25 399.944 135.25H379.405C378.469 135.25 377.704 134.485 377.704 133.549C377.704 132.571 378.469 131.848 379.405 131.848Z" fill="#F28D9A"/>
<path fill-rule="evenodd" clip-rule="evenodd" d="M408.109 131.848H441.831C442.766 131.848 443.532 132.614 443.532 133.549C443.532 134.485 442.766 135.25 441.831 135.25H408.109C407.173 135.25 406.408 134.485 406.408 133.549C406.408 132.571 407.173 131.848 408.109 131.848Z" fill="#77C6FB"/>
<path fill-rule="evenodd" clip-rule="evenodd" d="M327.78 143.458H343.811C344.747 143.458 345.512 144.223 345.512 145.159C345.512 146.094 344.747 146.859 343.811 146.859H327.78C326.844 146.859 326.079 146.094 326.079 145.159C326.079 144.223 326.844 143.458 327.78 143.458Z" fill="#F28D9A"/>
<path fill-rule="evenodd" clip-rule="evenodd" d="M351.721 143.458H408.789C409.725 143.458 410.49 144.223 410.49 145.159C410.49 146.094 409.725 146.859 408.789 146.859H351.721C350.786 146.859 350.02 146.094 350.02 145.159C350.02 144.223 350.786 143.458 351.721 143.458Z" fill="#77C6FB"/>
<path fill-rule="evenodd" clip-rule="evenodd" d="M327.78 154.684H370.644C371.58 154.684 372.345 155.449 372.345 156.385C372.345 157.32 371.58 158.086 370.644 158.086H327.78C326.844 158.086 326.079 157.32 326.079 156.385C326.079 155.449 326.844 154.684 327.78 154.684Z" fill="#F18E00"/>
<path fill-rule="evenodd" clip-rule="evenodd" d="M379.405 154.684H399.944C400.88 154.684 401.645 155.449 401.645 156.385C401.645 157.32 400.88 158.086 399.944 158.086H379.405C378.469 158.086 377.704 157.32 377.704 156.385C377.704 155.449 378.469 154.684 379.405 154.684Z" fill="#77C6FB"/>
<path fill-rule="evenodd" clip-rule="evenodd" d="M408.109 154.684H441.831C442.766 154.684 443.532 155.449 443.532 156.385C443.532 157.32 442.766 158.086 441.831 158.086H408.109C407.173 158.086 406.408 157.32 406.408 156.385C406.408 155.449 407.173 154.684 408.109 154.684Z" fill="#77C6FB"/>
<path fill-rule="evenodd" clip-rule="evenodd" d="M327.78 166.548H370.644C371.58 166.548 372.345 167.314 372.345 168.249C372.345 169.185 371.58 169.95 370.644 169.95H327.78C326.844 169.95 326.079 169.185 326.079 168.249C326.079 167.271 326.844 166.548 327.78 166.548Z" fill="#77C6FB"/>
<path fill-rule="evenodd" clip-rule="evenodd" d="M379.405 166.548H399.944C400.88 166.548 401.645 167.314 401.645 168.249C401.645 169.185 400.88 169.95 399.944 169.95H379.405C378.469 169.95 377.704 169.185 377.704 168.249C377.704 167.271 378.469 166.548 379.405 166.548Z" fill="#77C6FB"/>
<path fill-rule="evenodd" clip-rule="evenodd" d="M318.382 177.69H352.827C353.762 177.69 354.528 178.455 354.528 179.391C354.528 180.326 353.762 181.092 352.827 181.092H318.382C317.446 181.092 316.681 180.326 316.681 179.391C316.681 178.455 317.446 177.69 318.382 177.69Z" fill="#77C6FB"/>
<path fill-rule="evenodd" clip-rule="evenodd" d="M361.927 177.69H381.148C382.084 177.69 382.849 178.455 382.849 179.391C382.849 180.326 382.084 181.092 381.148 181.092H361.927C360.992 181.092 360.226 180.326 360.226 179.391C360.226 178.455 360.992 177.69 361.927 177.69Z" fill="#77C6FB"/>
<path fill-rule="evenodd" clip-rule="evenodd" d="M327.78 191.553H374.94C375.875 191.553 376.641 192.318 376.641 193.254C376.641 194.189 375.875 194.955 374.94 194.955H327.78C326.844 194.955 326.079 194.189 326.079 193.254C326.079 192.318 326.844 191.553 327.78 191.553Z" fill="#77C6FB"/>
<path fill-rule="evenodd" clip-rule="evenodd" d="M384.21 191.553H406.961C407.896 191.553 408.661 192.318 408.661 193.254C408.661 194.189 407.896 194.955 406.961 194.955H384.21C383.274 194.955 382.509 194.189 382.509 193.254C382.509 192.318 383.274 191.553 384.21 191.553Z" fill="#F18E00"/>
<path fill-rule="evenodd" clip-rule="evenodd" d="M327.78 203.502H370.942C371.878 203.502 372.643 204.268 372.643 205.203C372.643 206.139 371.878 206.904 370.942 206.904H327.78C326.844 206.904 326.079 206.139 326.079 205.203C326.079 204.268 326.844 203.502 327.78 203.502Z" fill="#77C6FB"/>
<path fill-rule="evenodd" clip-rule="evenodd" d="M379.745 203.502H400.454C401.39 203.502 402.155 204.268 402.155 205.203C402.155 206.139 401.39 206.904 400.454 206.904H379.745C378.809 206.904 378.044 206.139 378.044 205.203C378.044 204.268 378.809 203.502 379.745 203.502Z" fill="#77C6FB"/>
<path fill-rule="evenodd" clip-rule="evenodd" d="M327.78 214.941H342.578C343.514 214.941 344.279 215.707 344.279 216.642C344.279 217.578 343.514 218.343 342.578 218.343H327.78C326.844 218.343 326.079 217.578 326.079 216.642C326.079 215.707 326.844 214.941 327.78 214.941Z" fill="#F28D9A"/>
<path fill-rule="evenodd" clip-rule="evenodd" d="M350.615 214.941H408.832C409.767 214.941 410.533 215.707 410.533 216.642C410.533 217.578 409.767 218.343 408.832 218.343H350.615C349.68 218.343 348.914 217.578 348.914 216.642C348.914 215.707 349.68 214.941 350.615 214.941Z" fill="#77C6FB"/>
<path fill-rule="evenodd" clip-rule="evenodd" d="M327.78 226.636H364.649C365.584 226.636 366.35 227.401 366.35 228.337C366.35 229.272 365.584 230.038 364.649 230.038H327.78C326.844 230.038 326.079 229.272 326.079 228.337C326.079 227.401 326.844 226.636 327.78 226.636Z" fill="#F18E00"/>
<path fill-rule="evenodd" clip-rule="evenodd" d="M372.686 226.636H390.121C391.056 226.636 391.822 227.401 391.822 228.337C391.822 229.272 391.056 230.038 390.121 230.038H372.686C371.75 230.038 370.985 229.272 370.985 228.337C371.027 227.401 371.793 226.636 372.686 226.636Z" fill="#77C6FB"/>
<path fill-rule="evenodd" clip-rule="evenodd" d="M398.796 226.636H441.873C442.809 226.636 443.574 227.401 443.574 228.337C443.574 229.272 442.809 230.038 441.873 230.038H398.796C397.86 230.038 397.095 229.272 397.095 228.337C397.095 227.401 397.86 226.636 398.796 226.636Z" fill="#77C6FB"/>
<path fill-rule="evenodd" clip-rule="evenodd" d="M327.78 237.692H342.578C343.514 237.692 344.279 238.457 344.279 239.393C344.279 240.329 343.514 241.094 342.578 241.094H327.78C326.844 241.094 326.079 240.329 326.079 239.393C326.079 238.457 326.844 237.692 327.78 237.692Z" fill="#77C6FB"/>
<path fill-rule="evenodd" clip-rule="evenodd" d="M350.615 237.692H408.832C409.767 237.692 410.533 238.457 410.533 239.393C410.533 240.329 409.767 241.094 408.832 241.094H350.615C349.68 241.094 348.914 240.329 348.914 239.393C348.914 238.457 349.68 237.692 350.615 237.692Z" fill="#77C6FB"/>
<path fill-rule="evenodd" clip-rule="evenodd" d="M318.382 249.727H352.827C353.762 249.727 354.528 250.492 354.528 251.428C354.528 252.363 353.762 253.129 352.827 253.129H318.382C317.446 253.129 316.681 252.363 316.681 251.428C316.681 250.492 317.446 249.727 318.382 249.727Z" fill="#77C6FB"/>
<path fill-rule="evenodd" clip-rule="evenodd" d="M361.927 249.727H381.148C382.084 249.727 382.849 250.492 382.849 251.428C382.849 252.363 382.084 253.129 381.148 253.129H361.927C360.992 253.129 360.226 252.363 360.226 251.428C360.226 250.492 360.992 249.727 361.927 249.727Z" fill="#F18E00"/>
<path fill-rule="evenodd" clip-rule="evenodd" d="M336.072 282.598V279.111L344.832 275.666L336.072 272.264V268.777L348.617 274.221V277.197L336.072 282.598ZM324.931 284.979L329.481 266.098H332.117L327.567 284.979H324.931ZM320.933 282.598L308.389 277.155V274.136L320.933 268.692V272.222L312.173 275.581L320.933 279.068V282.598Z" fill="#77C6FB"/>
<path fill-rule="evenodd" clip-rule="evenodd" d="M456.332 249.684H474.022C476.233 249.684 481.676 253.851 482.612 259.295C484.398 268.055 483.59 287.361 477.381 294.207L470.365 294.122L448.805 288.764V270.138V252.406C450.846 250.705 453.483 249.684 456.332 249.684Z" fill="#00BFFF"/>
<path fill-rule="evenodd" clip-rule="evenodd" d="M474.022 249.727C482.739 250.577 483.547 261.548 483.462 268.395H474.022V249.727Z" fill="#00BFFF"/>
<path fill-rule="evenodd" clip-rule="evenodd" d="M474.872 268.48L483.462 268.395C480.06 277.665 473.597 285.532 465.049 285.532H452.547C452.547 285.532 455.184 282.13 458.713 281.833C462.2 281.535 462.328 282.045 462.328 282.045C465.262 280.514 472.023 275.326 474.872 268.48Z" fill="#F7CCCF"/>
<path d="M485.929 338.646L486.779 344.812L488.991 346.853C488.991 346.853 490.692 346.768 490.904 347.363C491.117 347.958 490.904 349.234 490.904 349.234H489.161H479.635C479.04 346.555 478.53 343.748 478.317 339.028L485.929 338.646Z" fill="#663300"/>
<path fill-rule="evenodd" clip-rule="evenodd" d="M434.729 285.532H472.108C472.534 285.532 472.959 285.575 473.341 285.66C483.76 285.617 485.078 292.379 485.801 299.735L490.011 342.005H475.85L471.173 298.97H434.729C431.029 298.97 428.01 295.951 428.01 292.251C428.01 288.551 431.029 285.532 434.729 285.532Z" fill="#092978"/>
<path d="M444.935 324.187L450.081 335.669C450.081 335.669 449.74 337.752 448.89 338.943C448.039 340.134 447.954 340.984 448.507 341.707C449.06 342.43 449.188 342.6 449.188 342.6L457.905 333.5L453.312 322.826L444.935 324.187Z" fill="#663300"/>
<path fill-rule="evenodd" clip-rule="evenodd" d="M438.301 287.488C439.705 288.126 441.023 289.317 442.001 290.805C445.063 295.483 459.011 326.909 459.011 326.909H442.979L431.285 301.266C430.817 300.203 428.393 295.738 428.18 293.739C427.458 287.276 432.858 285.022 438.301 287.488Z" fill="#092978"/>
<path fill-rule="evenodd" clip-rule="evenodd" d="M454.461 240.839C452.632 244.156 455.779 248.748 459.691 248.408V249.471L457.565 252.491L459.649 255.595L461.817 256.403L467.09 255.042V245.517C467.303 245.474 467.303 245.814 467.686 245.559C468.068 245.304 468.961 243.56 468.791 242.625C468.621 241.732 467.473 241.179 467.473 241.179C468.579 238.5 469.429 238.032 466.623 236.544C463.816 235.056 458.075 235.141 458.075 235.141L455.481 235.991C455.396 238.585 455.779 238.543 454.461 240.839Z" fill="#F7CCCF"/>
<path fill-rule="evenodd" clip-rule="evenodd" d="M459.138 248.408C459.308 248.408 459.521 248.408 459.691 248.408C461.392 248.366 462.838 248.026 464.411 247.43C464.411 247.43 463.859 249.259 461.817 250.194C459.946 251.087 458.67 251.087 458.5 251.087L459.649 249.429V248.366L459.138 248.408Z" fill="#DD7577"/>
<path fill-rule="evenodd" clip-rule="evenodd" d="M456.162 236.927C458.33 237.309 460.116 236.969 461.435 237.139C462.243 237.224 462.838 237.65 463.348 238.075C464.581 239.095 465.56 241.562 465.857 243.22C465.857 243.22 467.303 242.625 467.813 242.923C468.281 243.22 467.983 243.943 467.898 244.241C467.813 244.539 467.133 244.879 466.92 245.049C466.282 245.602 467.813 245.857 469.599 244.411C475.085 239.988 472.278 231.909 465.474 229.57C462.158 228.464 462.54 227.103 460.286 226.636C452.079 225.02 449.698 234.885 456.162 236.927Z" fill="#363653"/>
<path fill-rule="evenodd" clip-rule="evenodd" d="M449.017 252.235C444.212 256.53 441.406 262.441 439.705 268.65C442.851 268.437 446.126 268.437 449.273 268.352L449.017 252.235Z" fill="#00BFFF"/>
<path fill-rule="evenodd" clip-rule="evenodd" d="M461.945 261.718C462.285 261.718 462.54 261.974 462.54 262.314C462.54 262.611 462.285 262.909 461.945 262.909C461.605 262.909 461.35 262.654 461.35 262.314C461.35 261.974 461.605 261.718 461.945 261.718ZM461.945 258.359C462.285 258.359 462.54 258.614 462.54 258.954C462.54 259.295 462.285 259.55 461.945 259.55C461.605 259.55 461.35 259.295 461.35 258.954C461.35 258.614 461.605 258.359 461.945 258.359ZM459.691 249.471C457.692 252.873 459.861 255.34 461.86 256.445C464.624 254.659 467.133 252.873 467.133 249.471C467.133 249.471 468.111 249.471 468.706 250.96C469.727 253.426 468.026 258.954 468.026 258.954C468.026 258.954 466.112 256.445 464.496 256.318C462.881 256.19 461.86 256.658 461.86 256.658C459.819 255.17 458.415 257.083 457.055 258.529C456.629 254.872 456.672 252.235 459.393 249.429H459.691V249.471Z" fill="white"/>
<path fill-rule="evenodd" clip-rule="evenodd" d="M457.65 264.057H430.604C429.541 264.057 428.478 264.95 428.691 265.971L432.731 283.831C432.943 284.852 433.581 285.745 434.644 285.745H461.69C462.753 285.745 463.816 284.852 463.603 283.831L459.564 265.971C459.308 264.95 458.713 264.057 457.65 264.057Z" fill="#4895D1"/>
<path fill-rule="evenodd" clip-rule="evenodd" d="M456.459 264.057H429.414C428.351 264.057 427.287 264.95 427.5 265.971L431.54 283.831C431.752 284.852 432.39 285.745 433.453 285.745H460.499C461.562 285.745 462.625 284.852 462.413 283.831L458.373 265.971C458.118 264.95 457.48 264.057 456.459 264.057Z" fill="#A3C5E8"/>
<path fill-rule="evenodd" clip-rule="evenodd" d="M444.382 273.115C443.574 273.37 443.149 274.391 443.489 275.369C443.787 276.347 444.722 276.942 445.53 276.687C446.338 276.432 446.764 275.411 446.423 274.433C446.126 273.413 445.19 272.86 444.382 273.115Z" fill="white"/>
<path fill-rule="evenodd" clip-rule="evenodd" d="M476.403 283.959H462.668V285.745H477.296V284.852C477.296 284.341 476.914 283.959 476.403 283.959Z" fill="#4895D1"/>
<path d="M100.316 37.1884C101.166 36.3379 102.314 35.8276 103.59 35.8276C104.866 35.8276 106.014 36.3379 106.864 37.1884C107.715 38.0389 108.225 39.1871 108.225 40.4628C108.225 41.7386 107.715 42.8867 106.864 43.7372C106.014 44.5877 104.866 45.098 103.59 45.098C102.314 45.098 101.166 44.5877 100.316 43.7372C99.4651 42.8867 98.9548 41.7386 98.9548 40.4628C98.9548 39.1446 99.4651 37.9964 100.316 37.1884ZM103.59 33.2336C101.591 33.2336 99.8053 34.0416 98.487 35.3599C97.1688 36.6781 96.3608 38.4642 96.3608 40.4628C96.3608 42.4615 97.1688 44.2475 98.487 45.5658C99.8053 46.884 101.591 47.692 103.59 47.692C105.589 47.692 107.375 46.884 108.693 45.5658C110.011 44.2475 110.819 42.4615 110.819 40.4628C110.819 38.4642 110.011 36.6781 108.693 35.4024C107.375 34.0416 105.546 33.2336 103.59 33.2336Z" fill="#00BFFF"/>
<path fill-rule="evenodd" clip-rule="evenodd" d="M176.307 35.4874C175.669 35.4874 175.159 35.9977 175.159 36.6356V46.7565C175.159 47.3943 175.669 47.9046 176.307 47.9046C176.945 47.9046 177.455 47.3943 177.455 46.7565V36.6356C177.498 35.9977 176.945 35.4874 176.307 35.4874Z" fill="#3964F9"/>
<path fill-rule="evenodd" clip-rule="evenodd" d="M170.098 41.696C170.098 42.3339 170.609 42.8442 171.247 42.8442H181.367C182.005 42.8442 182.516 42.3339 182.516 41.696C182.516 41.0581 182.005 40.5479 181.367 40.5479H171.247C170.609 40.5479 170.098 41.0581 170.098 41.696Z" fill="#3964F9"/>
<path d="M279.684 37.8263C280.28 37.2309 281.088 36.8907 281.981 36.8907C282.874 36.8907 283.682 37.2735 284.277 37.8263C284.872 38.4216 285.213 39.2296 285.213 40.1226C285.213 41.0156 284.83 41.8236 284.277 42.4189C283.682 43.0143 282.874 43.3545 281.981 43.3545C281.088 43.3545 280.28 42.9718 279.684 42.4189C279.089 41.8236 278.749 41.0156 278.749 40.1226C278.749 39.2296 279.132 38.3791 279.684 37.8263ZM282.023 35.0197C280.62 35.0197 279.344 35.5725 278.409 36.508C277.473 37.4436 276.92 38.7193 276.92 40.1226C276.92 41.5259 277.473 42.8017 278.409 43.7372C279.344 44.6727 280.62 45.2256 282.023 45.2256C283.427 45.2256 284.702 44.6727 285.638 43.7372C286.573 42.8017 287.126 41.5259 287.126 40.1226C287.126 38.7193 286.573 37.4436 285.638 36.508C284.702 35.615 283.427 35.0197 282.023 35.0197Z" fill="#00BFFF"/>
<path fill-rule="evenodd" clip-rule="evenodd" d="M420.398 10.5255C419.548 10.5255 418.867 11.2059 418.867 12.0564V17.1594H413.722C412.872 17.1594 412.191 17.8397 412.191 18.6902C412.191 19.5407 412.872 20.2211 413.722 20.2211H418.867V25.3666C418.867 26.2171 419.548 26.8975 420.398 26.8975C421.249 26.8975 421.929 26.2171 421.929 25.3666V20.2211H427.075C427.925 20.2211 428.606 19.5407 428.606 18.6902C428.606 17.8397 427.925 17.1594 427.075 17.1594H421.929V12.0564C421.887 11.2059 421.206 10.5255 420.398 10.5255Z" fill="#3964F9"/>
<path fill-rule="evenodd" clip-rule="evenodd" d="M328.247 6.40063C327.525 6.40063 326.929 6.99598 326.929 7.7189V19.3281C326.929 20.051 327.525 20.6464 328.247 20.6464C328.97 20.6464 329.566 20.051 329.566 19.3281V7.7189C329.566 6.99598 328.97 6.40063 328.247 6.40063Z" fill="#3964F9"/>
<path fill-rule="evenodd" clip-rule="evenodd" d="M321.103 13.5022C321.103 14.2251 321.699 14.8205 322.422 14.8205H334.031C334.754 14.8205 335.349 14.2251 335.349 13.5022C335.349 12.7793 334.754 12.184 334.031 12.184H322.422C321.699 12.184 321.103 12.7793 321.103 13.5022Z" fill="#3964F9"/>
<path d="M232.652 4.91226C233.503 4.06177 234.651 3.55148 235.927 3.55148C237.202 3.55148 238.35 4.06177 239.201 4.91226C240.051 5.76276 240.562 6.91092 240.562 8.18666C240.562 9.4624 240.051 10.6106 239.201 11.4611C238.35 12.3115 237.202 12.8218 235.927 12.8218C234.651 12.8218 233.503 12.3115 232.652 11.4611C231.802 10.6106 231.291 9.4624 231.291 8.18666C231.291 6.91092 231.802 5.76276 232.652 4.91226ZM235.927 1C233.928 1 232.142 1.80797 230.824 3.12623C229.505 4.44449 228.697 6.23053 228.697 8.22918C228.697 10.2278 229.505 12.0139 230.824 13.3321C232.142 14.6504 233.928 15.4584 235.927 15.4584C237.925 15.4584 239.711 14.6504 241.03 13.3321C242.348 12.0139 243.156 10.2278 243.156 8.22918C243.156 6.23053 242.348 4.44449 241.03 3.16876C239.669 1.80797 237.883 1 235.927 1Z" fill="#00BFFF"/>
<path d="M491.925 33.9991C492.52 33.4037 493.328 33.0635 494.221 33.0635C495.114 33.0635 495.922 33.4463 496.517 33.9991C497.113 34.5944 497.453 35.4024 497.453 36.2954C497.453 37.1884 497.07 37.9964 496.517 38.5917C495.922 39.1871 495.114 39.5273 494.221 39.5273C493.328 39.5273 492.52 39.1446 491.925 38.5917C491.329 37.9964 490.989 37.1884 490.989 36.2954C490.947 35.4024 491.329 34.5944 491.925 33.9991ZM494.221 31.235C492.818 31.235 491.542 31.7878 490.607 32.7233C489.671 33.6589 489.118 34.9346 489.118 36.3379C489.118 37.7413 489.671 39.017 490.607 39.9525C491.542 40.8881 492.818 41.4409 494.221 41.4409C495.624 41.4409 496.9 40.8881 497.836 39.9525C498.771 39.017 499.324 37.7413 499.324 36.3379C499.324 34.9346 498.771 33.6589 497.836 32.7659C496.9 31.7878 495.624 31.235 494.221 31.235Z" fill="#00BFFF"/>
</g>
<defs>
<clipPath id="clip0">
<rect width="570" height="390" fill="white"/>
</clipPath>
</defs>
</svg>
